<svg id="3d9e8117-2dcb-4410-9662-c47204cdc686" data-name="Layer 1" xmlns="http://www.w3.org/2000/svg" viewBox="0 0 74.08 74.08"><title>icon_digitalsuite</title><circle cx="37.04" cy="37.04" r="37.04" fill="#254d62"/><path d="M398.87,91.47H388.13a2.25,2.25,0,0,1-2.24-2.24V80.35a2.25,2.25,0,0,1,2.24-2.24h10.74a2.25,2.25,0,0,1,2.24,2.24v8.87A2.25,2.25,0,0,1,398.87,91.47ZM388.13,80.26a0.09,0.09,0,0,0-.09.09v8.87a0.09,0.09,0,0,0,.09.09h10.74a0.09,0.09,0,0,0,.09-0.09V80.35a0.09,0.09,0,0,0-.09-0.09H388.13Z" transform="translate(-356.35 -66.65)" fill="#fff"/><path d="M398.87,120H388.13a2.25,2.25,0,0,1-2.24-2.24v-8.87a2.25,2.25,0,0,1,2.24-2.24h10.74a2.25,2.25,0,0,1,2.24,2.24v8.87A2.25,2.25,0,0,1,398.87,120Zm-10.74-11.21a0.09,0.09,0,0,0-.09.09v8.87a0.09,0.09,0,0,0,.09.09h10.74a0.09,0.09,0,0,0,.09-0.09v-8.87a0.09,0.09,0,0,0-.09-0.09H388.13Z" transform="translate(-356.35 -66.65)" fill="#fff"/><path d="M418.15,120H407.41a2.25,2.25,0,0,1-2.24-2.24v-8.87a2.25,2.25,0,0,1,2.24-2.24h10.74a2.25,2.25,0,0,1,2.24,2.24v8.87A2.25,2.25,0,0,1,418.15,120Zm-10.74-11.21a0.09,0.09,0,0,0-.09.09v8.87a0.09,0.09,0,0,0,.09.09h10.74a0.09,0.09,0,0,0,.09-0.09v-8.87a0.09,0.09,0,0,0-.09-0.09H407.41Z" transform="translate(-356.35 -66.65)" fill="#fff"/><path d="M379.59,120H368.85a2.25,2.25,0,0,1-2.24-2.24v-8.87a2.25,2.25,0,0,1,2.24-2.24h10.74a2.25,2.25,0,0,1,2.24,2.24v8.87A2.25,2.25,0,0,1,379.59,120Zm-10.74-11.21a0.09,0.09,0,0,0-.09.09v8.87a0.09,0.09,0,0,0,.09.09h10.74a0.09,0.09,0,0,0,.09-0.09v-8.87a0.09,0.09,0,0,0-.09-0.09H368.85Z" transform="translate(-356.35 -66.65)" fill="#fff"/><path d="M413.86,107.76h-2.15V100.7H375.3v7.07h-2.15V99.62a1.08,1.08,0,0,1,1.08-1.08h38.56a1.08,1.08,0,0,1,1.08,1.08v8.14Z" transform="translate(-356.35 -66.65)" fill="#fff"/><rect x="36.08" y="24.09" width="2.15" height="17.02" fill="#fff"/></svg>