<svg id="6efd1af3-ed9f-4be9-bce1-8323b2e6c46f" data-name="Layer 1" xmlns="http://www.w3.org/2000/svg" viewBox="0 0 100.35 100.35"><title>icon</title><path d="M571.83,1300.4a49.67,49.67,0,1,1,49.67-49.67,49.73,49.73,0,0,1-49.67,49.67" transform="translate(-521.65 -1200.55)" fill="#244c62"/><path d="M571.83,1201.55a49.17,49.17,0,1,1-49.17,49.17,49.23,49.23,0,0,1,49.17-49.17m0-1A50.17,50.17,0,1,0,622,1250.72a50.17,50.17,0,0,0-50.17-50.17" transform="translate(-521.65 -1200.55)" fill="#fff"/><path d="M595.28,1237l-22.51-11.53a2.25,2.25,0,0,0-2-.1l-22.51,11.68c-1.5.76-1,3.37,0.72,3.37h45.6c1.68,0,2.22-2.66.72-3.42m-23.45.65a3.9,3.9,0,1,1,3.9-3.9,3.9,3.9,0,0,1-3.9,3.9" transform="translate(-521.65 -1200.55)" fill="#fff"/><path d="M550.75,1242.28v1.83l0.86,0.71a1.75,1.75,0,0,1,.63,1.35v12.56h5.48v-12.56a1.75,1.75,0,0,1,.63-1.35l0.86-.71v-1.83h-8.48Z" transform="translate(-521.65 -1200.55)" fill="#fff"/><path d="M562,1242.28v1.83l0.86,0.71a1.75,1.75,0,0,1,.63,1.35v12.56H569v-12.56a1.75,1.75,0,0,1,.63-1.35l0.86-.71v-1.83H562Z" transform="translate(-521.65 -1200.55)" fill="#fff"/><path d="M573.22,1242.28v1.83l0.86,0.71a1.75,1.75,0,0,1,.63,1.35v12.56h5.48v-12.56a1.75,1.75,0,0,1,.63-1.35l0.86-.71v-1.83h-8.48Z" transform="translate(-521.65 -1200.55)" fill="#fff"/><path d="M584.46,1242.28v1.83l0.86,0.71a1.75,1.75,0,0,1,.63,1.35v12.56h5.48v-12.56a1.75,1.75,0,0,1,.63-1.35l0.86-.71v-1.83h-8.48Z" transform="translate(-521.65 -1200.55)" fill="#fff"/><path d="M592.43,1263.43H592v-2H552v2h-1c-1.6,0-2.8,1.9-2.8,3.5s1.39,3.5,3,3.5h41.19c1.6,0,2.9-1.9,2.9-3.5s-1-3.5-2.9-3.5" transform="translate(-521.65 -1200.55)" fill="#fff"/></svg>