<svg id="bc7e8084-ea93-4e0d-bee2-9580a4500fb3" data-name="FOOTER" xmlns="http://www.w3.org/2000/svg" xmlns:xlink="http://www.w3.org/1999/xlink" viewBox="0 0 28.75 28.75"><defs><linearGradient id="e2a9d237-3f84-4455-8bf2-26dc31ba5299" x1="1339.29" y1="5316.56" x2="1339.29" y2="5335.08" gradientTransform="matrix(1, 0, 0, -1, 0, 9176.87)" gradientUnits="userSpaceOnUse"><stop offset="0" stop-color="#ff2d76"/><stop offset="1" stop-color="#f50000"/></linearGradient></defs><title>icon_p</title><g id="e21c4588-fe0e-4deb-9fb4-0d6e4df29556" data-name="Layer 4 copy"><rect width="28.75" height="28.75" opacity="0"/></g><g id="4c1eb152-4480-4208-96b6-a6fa25ca0add" data-name="Official copy 3"><path d="M1346.46,3847.88c0,4.17-2.32,7.29-5.74,7.29a3,3,0,0,1-2.6-1.33s-0.62,2.45-.75,2.92a11.37,11.37,0,0,1-1.92,3.48,0.14,0.14,0,0,1-.25-0.06,11.93,11.93,0,0,1,0-4l1.37-5.8a4.09,4.09,0,0,1-.34-1.68c0-1.58.91-2.75,2.05-2.75a1.42,1.42,0,0,1,1.43,1.6,22.78,22.78,0,0,1-.94,3.78,1.65,1.65,0,0,0,1.68,2c2,0,3.37-2.59,3.37-5.66,0-2.33-1.57-4.08-4.43-4.08a5,5,0,0,0-5.24,5.1,3.07,3.07,0,0,0,.7,2.09,0.52,0.52,0,0,1,.15.59l-0.22.85a0.37,0.37,0,0,1-.53.27c-1.49-.61-2.18-2.23-2.18-4.07,0-3,2.55-6.65,7.6-6.65C1343.78,3841.78,1346.46,3844.72,1346.46,3847.88Z" transform="translate(-1324.91 -3836.67)" fill="url(#e2a9d237-3f84-4455-8bf2-26dc31ba5299)"/></g></svg>