<svg id="05cb519c-c67a-4956-ad21-530b067ce6f4" data-name="Layer 1" xmlns="http://www.w3.org/2000/svg" viewBox="0 0 74.08 74.08"><title>icon_realtime</title><circle cx="37.04" cy="37.04" r="37.04" fill="#254d62"/><path d="M194.14,102.66a0.62,0.62,0,0,0,0,1.24h4.21a0.62,0.62,0,0,0,0-1.24h-4.21Z" transform="translate(-181.62 -66.65)" fill="#fff"/><path d="M217.68,123.22v4.21a0.62,0.62,0,0,0,1.24,0v-4.21A0.62,0.62,0,0,0,217.68,123.22Z" transform="translate(-181.62 -66.65)" fill="#fff"/><path d="M202.25,111.88l-3.33,1.92a0.56,0.56,0,0,0,.56,1l3.33-1.92A0.56,0.56,0,1,0,202.25,111.88Z" transform="translate(-181.62 -66.65)" fill="#fff"/><path d="M227.11,118.55a0.57,0.57,0,0,0-.21.77l1.92,3.33a0.57,0.57,0,0,0,1-.57l-1.92-3.33A0.57,0.57,0,0,0,227.11,118.55Z" transform="translate(-181.62 -66.65)" fill="#fff"/><path d="M207,83.69a0.57,0.57,0,0,0-.21.77l1.92,3.33a0.56,0.56,0,1,0,1-.56l-1.92-3.33A0.56,0.56,0,0,0,207,83.69Z" transform="translate(-181.62 -66.65)" fill="#fff"/><path d="M208.71,118.75l-1.92,3.33a0.57,0.57,0,0,0,1,.57l1.92-3.33A0.57,0.57,0,1,0,208.71,118.75Z" transform="translate(-181.62 -66.65)" fill="#fff"/><path d="M233.57,112.09a0.56,0.56,0,0,0,.21.77l3.33,1.92a0.57,0.57,0,1,0,.57-1l-3.33-1.92A0.57,0.57,0,0,0,233.57,112.09Z" transform="translate(-181.62 -66.65)" fill="#fff"/><path d="M198.72,92a0.56,0.56,0,0,0,.21.77l3.33,1.92a0.56,0.56,0,1,0,.56-1l-3.33-1.92A0.56,0.56,0,0,0,198.72,92Z" transform="translate(-181.62 -66.65)" fill="#fff"/><path d="M234.28,103.27A16,16,0,1,1,218,87.3v5l6-3.51,6-3.51-6-3.51-6-3.51v5a19.94,19.94,0,1,0,20.19,19.94h-4Z" transform="translate(-181.62 -66.65)" fill="#fff"/><path d="M217.64,109.06h-9.06a5.67,5.67,0,0,1,.95-2.52,12.65,12.65,0,0,1,3-2.79,8.8,8.8,0,0,0,1.7-1.49,1.68,1.68,0,0,0,.37-1,1.13,1.13,0,0,0-.37-0.85,1.41,1.41,0,0,0-1.87,0,2.21,2.21,0,0,0-.49,1.28l-3-.24a4.81,4.81,0,0,1,.65-2,3,3,0,0,1,1.34-1.1,6.06,6.06,0,0,1,2.39-.38,6.74,6.74,0,0,1,2.48.36,3,3,0,0,1,1.39,1.12,2.93,2.93,0,0,1,.51,1.68,3.46,3.46,0,0,1-.58,1.9,8,8,0,0,1-2.12,2q-0.91.63-1.22,0.88t-0.72.66h4.71v2.46Z" transform="translate(-181.62 -66.65)" fill="#fff"/><path d="M224.12,107h-5.49v-2.48L224.12,98h2.63v6.67h1.36V107h-1.36v2h-2.63v-2Zm0-2.34v-3.43l-2.91,3.43h2.91Z" transform="translate(-181.62 -66.65)" fill="#fff"/><path d="M234.28,103.27A16,16,0,1,1,218,87.3v5l6-3.51,6-3.51-6-3.51-6-3.51v5a19.94,19.94,0,1,0,20.19,19.94h-4Z" transform="translate(-181.62 -66.65)" fill="#fff"/><path d="M217.64,109.06h-9.06a5.67,5.67,0,0,1,.95-2.52,12.65,12.65,0,0,1,3-2.79,8.8,8.8,0,0,0,1.7-1.49,1.68,1.68,0,0,0,.37-1,1.13,1.13,0,0,0-.37-0.85,1.41,1.41,0,0,0-1.87,0,2.21,2.21,0,0,0-.49,1.28l-3-.24a4.81,4.81,0,0,1,.65-2,3,3,0,0,1,1.34-1.1,6.06,6.06,0,0,1,2.39-.38,6.74,6.74,0,0,1,2.48.36,3,3,0,0,1,1.39,1.12,2.93,2.93,0,0,1,.51,1.68,3.46,3.46,0,0,1-.58,1.9,8,8,0,0,1-2.12,2q-0.91.63-1.22,0.88t-0.72.66h4.71v2.46Z" transform="translate(-181.62 -66.65)" fill="#fff"/><path d="M224.12,107h-5.49v-2.48L224.12,98h2.63v6.67h1.36V107h-1.36v2h-2.63v-2Zm0-2.34v-3.43l-2.91,3.43h2.91Z" transform="translate(-181.62 -66.65)" fill="#fff"/></svg>