<svg id="8a444b2e-07d4-41c7-96da-5cda3f7da5dc" data-name="FOOTER" xmlns="http://www.w3.org/2000/svg" viewBox="0 0 28.75 28.75"><title>icon_l</title><g id="ca7fd83e-d7cf-454f-91c9-7060f0191df5" data-name="Layer 4 copy"><rect width="28.75" height="28.75" opacity="0"/></g><g id="a3527345-63f9-47d5-bd75-4aa3fa5bf10e" data-name="Official copy 3"><path d="M1289.58,3857.57v-5.82c0-3.12-1.66-4.57-3.88-4.57a3.35,3.35,0,0,0-3,1.68v-1.44h-3.37c0,1,0,10.15,0,10.15h3.38v-5.67a2.31,2.31,0,0,1,.11-0.82,1.85,1.85,0,0,1,1.73-1.23c1.22,0,1.71.93,1.71,2.3v5.43h3.38ZM1275.72,3846a1.76,1.76,0,1,0-1.89-1.76,1.76,1.76,0,0,0,1.89,1.76h0Zm1.69,11.54v-10.15H1274v10.15h3.38Z" transform="translate(-1267.33 -3836.67)" fill="#425f9b"/></g></svg>