<svg id="2ef03d79-7daa-4270-a68c-51f558f4d119" data-name="FOOTER" xmlns="http://www.w3.org/2000/svg" viewBox="0 0 28.75 28.75"><title>icon_t</title><g id="bc1bb242-9487-4087-a879-fd5edb571eba" data-name="Layer 4 copy"><rect width="28.75" height="28.75" opacity="0"/></g><g id="08a9e3fc-31ad-40d0-ae41-80e20e9e9ea6" data-name="Official copy 3"><path d="M1255.1,3844.21a3.54,3.54,0,0,0-2.38,3.56l0,0.61-0.61-.07a9.94,9.94,0,0,1-5.82-2.87l-0.81-.8-0.21.59a3.58,3.58,0,0,0,.76,3.66c0.49,0.52.38,0.59-.47,0.28a1.44,1.44,0,0,0-.57-0.14,4.45,4.45,0,0,0,.44,1.66,4,4,0,0,0,1.68,1.58l0.6,0.28H1247c-0.69,0-.71,0-0.64.27a3.7,3.7,0,0,0,2.29,2l0.76,0.26-0.66.4a6.86,6.86,0,0,1-3.28.92,3.61,3.61,0,0,0-1,.1,9.34,9.34,0,0,0,2.36,1.09,10.32,10.32,0,0,0,8-.92,10.76,10.76,0,0,0,4.07-4.8,12.76,12.76,0,0,0,.83-3.71c0-.57,0-0.64.72-1.32a8,8,0,0,0,.86-1c0.12-.23.11-0.23-0.51,0-1,.37-1.19.32-0.67-0.23a3.61,3.61,0,0,0,.83-1.32,0.67,0.67,0,0,0-.39.14,6.75,6.75,0,0,1-1.08.42l-0.66.21-0.6-.41a5,5,0,0,0-1-.54A4.17,4.17,0,0,0,1255.1,3844.21Z" transform="translate(-1238.58 -3836.67)" fill="#50a5eb"/></g></svg>