<?xml version="1.0" encoding="utf-8"?>
<!-- Generator: Adobe Illustrator 20.0.0, SVG Export Plug-In . SVG Version: 6.00 Build 0)  -->
<svg version="1.1" xmlns="http://www.w3.org/2000/svg" xmlns:xlink="http://www.w3.org/1999/xlink" x="0px" y="0px"
	 viewBox="0 0 531.3 454" style="enable-background:new 0 0 531.3 454;" xml:space="preserve">
<style type="text/css">
	.st0{fill:#E6DFDA;}
	.st1{fill:#01AB8F;}
	.st2{fill:#F0CFA9;}
	.st3{fill:#FFFFFF;}
	.st4{fill:#EAE5E8;}
	.st5{fill:#086481;}
	.st6{fill:#0A556D;}
	.st7{fill:#FFF6F2;}
</style>
<g id="Layer_1">
</g>
<g id="Layer_2">
	<g>
		<g>
			<g>
				<path class="st0" d="M229.2,226.9c23.3-14,36.7-30.7,49.4-54.5c-33.6-5.4-53-31-68.6-58.9c-12.4,21.5-30.5,37.3-53.1,47.8
					C173.4,194.3,194.7,213.6,229.2,226.9z"/>
				<path class="st1" d="M189.6,196.9c17-8.6,33.2-21.6,43.7-37.7c-0.8-0.7-1.2-1.1-1.9-1.9c-10.5,16.1-26.7,29.1-43.8,37.7
					C188.3,195.8,188.7,196.2,189.6,196.9z"/>
				<path class="st1" d="M167.3,167.9c16.8-8.7,33.7-21.5,43.9-37.8c-0.6-1.1-0.9-1.7-1.6-2.8c-10.2,16.3-27.1,29-43.8,37.8
					C166.4,166.2,166.7,166.8,167.3,167.9z"/>
				<path class="st1" d="M172.3,176.1c16.9-8.6,33.7-21.5,44-37.6c-0.7-1-1-1.5-1.7-2.6c-10.3,16.2-27.1,29-44,37.7
					C171.3,174.6,171.6,175.1,172.3,176.1z"/>
				<path class="st1" d="M177.6,183.7c17-8.6,33.6-21.4,44-37.6c-0.7-0.9-1-1.4-1.7-2.4c-10.4,16.1-27.1,29-44,37.6
					C176.5,182.3,176.9,182.8,177.6,183.7z"/>
				<path class="st1" d="M183.3,190.6c17-8.5,33.4-21.5,43.9-37.6c-0.7-0.8-1.1-1.3-1.8-2.1c-10.5,16.1-26.9,29-44,37.6
					C182.2,189.4,182.6,189.8,183.3,190.6z"/>
				<path class="st1" d="M229,220.3c16.9-11.6,28.3-24.2,39.3-41.4c-1-0.3-1.5-0.4-2.5-0.7c-11.2,17.2-22.8,29.6-39.8,41
					C227.2,219.6,227.8,219.9,229,220.3z"/>
				<path class="st1" d="M196.3,202.7c17-8.6,32.8-21.9,43.2-38c-0.8-0.6-1.2-1-2-1.7c-10.5,16.1-26.3,29.3-43.4,37.9
					C194.9,201.6,195.4,202,196.3,202.7z"/>
				<path class="st1" d="M203.5,207.9c17.6-10.4,30.4-22,42.6-38.5c-0.9-0.6-1.3-0.8-2.2-1.4c-12.3,16.4-25.2,28-42.8,38.3
					C202.1,206.9,202.6,207.2,203.5,207.9z"/>
				<path class="st1" d="M211.4,212.5c17.4-10.7,29.8-22.5,41.7-39.2c-0.9-0.5-1.4-0.7-2.3-1.2c-12,16.6-24.6,28.4-42,39
					C209.8,211.7,210.3,211.9,211.4,212.5z"/>
				<path class="st1" d="M219.8,216.6c17.2-11.1,29.1-23.2,40.7-40.2c-1-0.4-1.4-0.5-2.4-0.9c-11.7,16.9-23.8,28.9-41,39.8
					C218.2,215.9,218.7,216.1,219.8,216.6z"/>
			</g>
		</g>
		<g>
			<path class="st2" d="M311.1,98.6c-1.7,3.3-6.4,13.9-10.3,17.9c-3.9,3.9-7.7,10.6-16.6,12.1v14.8h-34.5v-11.1
				c-5-4.2-10.2-12.9-11.2-21.7c-1-8.8-1.6-23.7-2.3-28.1C233.2,75.1,227,55,226,50c-0.7-3.7,0.5-5,1.5-5.4c1-0.4,4.2,0.1,5.6,5.2
				c1.4,5.1,7.6,17.8,8.8,20.4c1.3,2.7,2.7,5.6,3.7,6.5c1,0.9,2.3,0.1,2.7-2c0.4-2.1,0.1-28.5-0.1-31.7c-0.2-3.2,0.1-14.7,0.1-17.1
				c-0.1-5.6,6.8-6.1,7.2,0c0.2,4.1,2.3,24.4,2.6,28.1s1.8,15.6,2,17.4c0.2,1.8,2.4,2.8,3.4-0.5c1-3.3,4.3-22.8,4.4-31
				c0.2-8.3,0.9-15.4,1-18.8c0.3-5.6,8.2-7,8.4,0.4c0.3,8.8,0.1,45.7,0.3,50.4c0.2,5.6,2.1,5.4,3.7,2.4c1.5-2.9,8.6-20.7,9.5-25
				c0.9-4.3,2.7-16.4,3.2-20c0.6-3.6,7.2-5.5,7.1,2.3c-0.1,7.9-0.5,20.4-0.9,27.1s-4.4,31.4-5.1,34.2s-0.2,5.5,1.7,3.5
				c1.9-2.1,10.5-12.2,13.6-14.6c3.4-2.7,8.8-2.6,10,0.3C321.7,84.9,315,91.2,311.1,98.6z"/>
			<rect x="240.9" y="137.8" class="st3" width="49.7" height="30"/>
			<rect x="266.5" y="137.8" class="st4" width="24.1" height="30"/>
			<rect x="237" y="146.4" class="st5" width="57.6" height="166.8"/>
			<rect x="266.7" y="146.4" class="st6" width="27.9" height="166.8"/>
			<circle class="st3" cx="247.9" cy="162.1" r="5.2"/>
			<circle class="st3" cx="247.9" cy="176.5" r="5.2"/>
		</g>
		<g>
			<g>
				<path class="st7" d="M286.3,176.2c25.6,9.5,38.9,30.6,49.2,54.6c13.8-34.5,31.5-56.4,65.1-72.2c-6.8-24-15.8-32.2-38.2-43.7
					C324.2,122.7,299.6,138.7,286.3,176.2z"/>
				<path class="st1" d="M323.8,135.8c17.8,9.6,27.9,19.2,37.6,37.2c0.8-0.7,1.2-1.1,2-1.8c-9.6-17.9-19.5-27.4-37.2-37
					C325.2,134.9,324.8,135.2,323.8,135.8z"/>
				<path class="st1" d="M359.4,121.1c15,8.6,25,16.8,30.7,33.8c1-0.5,1.6-0.7,2.6-1.1c-5.4-16.9-15.1-24.9-30-33.4
					C361.4,120.6,360.7,120.8,359.4,121.1z"/>
				<path class="st1" d="M349.4,123.8c15.6,8.8,26.3,17.5,32.8,34.9c1-0.5,1.5-0.8,2.5-1.2c-6.3-17.3-16.7-25.8-32.2-34.6
					C351.2,123.2,350.6,123.4,349.4,123.8z"/>
				<path class="st1" d="M340.1,127.1c17,9.4,26.1,18.2,34.7,35.8c0.9-0.6,1.4-0.8,2.3-1.4c-8.3-17.5-17.3-26.2-34.1-35.5
					C341.8,126.4,341.3,126.6,340.1,127.1z"/>
				<path class="st1" d="M331.6,131.1c17.4,9.5,27.1,18.7,36.3,36.5c0.9-0.6,1.3-1,2.2-1.6c-9-17.7-18.5-26.8-35.8-36.3
					C333.2,130.3,332.6,130.5,331.6,131.1z"/>
				<path class="st1" d="M295.6,171.6c18.7,8.8,29.8,23.7,39.3,41.4c0.6-1.4,0.8-2,1.4-3.3c-9.5-17.6-20.7-32.4-39.4-41
					C296.4,169.8,296.1,170.4,295.6,171.6z"/>
				<path class="st1" d="M316.7,141.3c18.2,9.6,28.5,19.8,38.6,37.8c0.7-0.8,1.1-1.2,1.9-2c-10-18-20.3-28-38.3-37.6
					C318,140.2,317.6,140.6,316.7,141.3z"/>
				<path class="st1" d="M310.4,147.6c18.4,9.7,28.9,20.3,39.3,38.5c0.7-0.9,1-1.4,1.8-2.3c-10.3-18.2-20.8-28.6-39.1-38.3
					C311.5,146.3,311.2,146.8,310.4,147.6z"/>
				<path class="st1" d="M304.8,154.7c18.5,9.9,29.2,20.9,39.6,39.3c0.6-1.1,1-1.6,1.6-2.6c-10.4-18.3-21.1-29.2-39.6-39
					C305.8,153.3,305.4,153.8,304.8,154.7z"/>
				<path class="st1" d="M299.9,162.7c18.6,10.1,29.2,21.7,39.6,40.3c0.6-1.2,0.9-1.8,1.5-3c-10.5-18.5-21.1-29.9-39.7-39.9
					C300.7,161.1,300.4,161.6,299.9,162.7z"/>
			</g>
		</g>
		<g>
			<g>
				<g>
					<path class="st7" d="M468.9,258.1c-13,20.8-26.1,41.5-39.1,62.3c-24.8-22.9-51.2-39.6-82.6-51.8c12.1-19.2,24.1-38.4,36.2-57.6
						C416,221.2,445,232.9,468.9,258.1z"/>
					<path class="st1" d="M422.6,233.7c-10,15.9-19.9,31.7-29.9,47.6c-1-0.6-1.5-0.9-2.5-1.4c9.9-15.8,19.8-31.6,29.7-47.3
						C421,233,421.6,233.2,422.6,233.7z"/>
					<path class="st1" d="M388.4,220.4c-9.3,15-18.7,30-28,44.9c-1.1-0.4-1.6-0.7-2.7-1.1c9.3-14.9,18.6-29.8,28-44.8
						C386.7,219.9,387.3,220.1,388.4,220.4z"/>
					<path class="st1" d="M397.2,223.4c-9.5,15.2-18.9,30.4-28.4,45.6c-1.1-0.5-1.6-0.7-2.7-1.2c9.4-15.1,18.8-30.2,28.3-45.4
						C395.5,222.8,396.1,223,397.2,223.4z"/>
					<path class="st1" d="M405.8,226.5c-9.6,15.4-19.2,30.8-28.9,46.2c-1-0.5-1.5-0.8-2.6-1.2c9.6-15.3,19.1-30.7,28.7-46
						C404.2,225.9,404.7,226.1,405.8,226.5z"/>
					<path class="st1" d="M414.3,230c-9.8,15.6-19.6,31.3-29.4,46.9c-1-0.5-1.5-0.8-2.5-1.3c9.7-15.6,19.5-31.1,29.2-46.7
						C412.7,229.3,413.2,229.5,414.3,230z"/>
					<path class="st1" d="M459.8,259.6c-10.3,16.3-20.6,32.7-30.9,49c-0.9-0.8-1.3-1.2-2.2-2c10.3-16.4,20.7-32.7,31-49.1
						C458.6,258.4,459,258.8,459.8,259.6z"/>
					<path class="st1" d="M430.7,237.9c-10.1,16-20.3,32.1-30.4,48.1c-1-0.6-1.4-0.9-2.4-1.5c10.1-16,20.2-32,30.2-48
						C429.1,237,429.6,237.3,430.7,237.9z"/>
					<path class="st1" d="M438.4,242.5c-10.3,16.2-20.5,32.4-30.8,48.6c-0.9-0.7-1.4-1-2.3-1.7c10.2-16.2,20.5-32.3,30.7-48.5
						C437,241.6,437.5,241.9,438.4,242.5z"/>
					<path class="st1" d="M445.9,247.6c-10.4,16.3-20.7,32.6-31.1,48.9c-0.9-0.7-1.4-1.1-2.3-1.8c10.3-16.3,20.7-32.6,31-48.9
						C444.5,246.6,445,246.9,445.9,247.6z"/>
					<path class="st1" d="M453.1,253.3c-10.4,16.4-20.7,32.7-31.1,49.1c-0.9-0.8-1.3-1.2-2.2-1.9c10.4-16.4,20.7-32.7,31.1-49.1
						C451.7,252.2,452.2,252.5,453.1,253.3z"/>
				</g>
			</g>
			<g>
				<g>
					<path class="st7" d="M498,384.4c-13,20.8-26.1,41.5-39.1,62.3c-24.8-22.9-51.2-39.6-82.6-51.8c12.1-19.2,24.1-38.4,36.2-57.6
						C445.1,347.5,474.1,359.2,498,384.4z"/>
					<path class="st1" d="M451.7,360c-10,15.9-19.9,31.7-29.9,47.6c-1-0.6-1.5-0.9-2.5-1.4c9.9-15.8,19.8-31.6,29.7-47.3
						C450.1,359.3,450.7,359.5,451.7,360z"/>
					<path class="st1" d="M417.5,346.7c-9.3,15-18.7,30-28,44.9c-1.1-0.4-1.6-0.7-2.7-1.1c9.3-14.9,18.6-29.8,28-44.8
						C415.8,346.2,416.4,346.4,417.5,346.7z"/>
					<path class="st1" d="M426.3,349.7c-9.5,15.2-18.9,30.4-28.4,45.6c-1.1-0.5-1.6-0.7-2.7-1.2c9.4-15.1,18.8-30.2,28.3-45.4
						C424.6,349.1,425.2,349.3,426.3,349.7z"/>
					<path class="st1" d="M434.9,352.8c-9.6,15.4-19.2,30.8-28.9,46.2c-1-0.5-1.5-0.8-2.6-1.2c9.6-15.3,19.1-30.7,28.7-46
						C433.3,352.2,433.8,352.4,434.9,352.8z"/>
					<path class="st1" d="M443.4,356.3c-9.8,15.6-19.6,31.3-29.4,46.9c-1-0.5-1.5-0.8-2.5-1.3c9.7-15.6,19.5-31.1,29.2-46.7
						C441.8,355.6,442.4,355.8,443.4,356.3z"/>
					<path class="st1" d="M488.9,385.9c-10.3,16.3-20.6,32.7-30.9,49c-0.9-0.8-1.3-1.2-2.2-2c10.3-16.4,20.7-32.7,31-49.1
						C487.7,384.7,488.1,385.1,488.9,385.9z"/>
					<path class="st1" d="M459.8,364.2c-10.1,16-20.3,32.1-30.4,48.1c-1-0.6-1.4-0.9-2.4-1.5c10.1-16,20.2-32,30.2-48
						C458.2,363.3,458.8,363.6,459.8,364.2z"/>
					<path class="st1" d="M467.6,368.8c-10.3,16.2-20.5,32.4-30.8,48.6c-0.9-0.7-1.4-1-2.3-1.7c10.2-16.2,20.5-32.3,30.7-48.5
						C466.1,367.9,466.6,368.2,467.6,368.8z"/>
					<path class="st1" d="M475,373.9c-10.4,16.3-20.7,32.6-31.1,48.9c-0.9-0.7-1.4-1.1-2.3-1.8c10.3-16.3,20.7-32.6,31-48.9
						C473.6,372.9,474.1,373.2,475,373.9z"/>
					<path class="st1" d="M482.2,379.6c-10.4,16.4-20.7,32.7-31.1,49.1c-0.9-0.8-1.3-1.2-2.2-1.9c10.4-16.4,20.7-32.7,31.1-49.1
						C480.8,378.5,481.3,378.8,482.2,379.6z"/>
				</g>
			</g>
			<g>
				<g>
					<path class="st7" d="M148.4,232.8c21.6-11.5,43.3-23,64.9-34.5c10.1,32.2,24.7,59.8,45.8,86.1c-20,10.7-40.1,21.3-60.1,32
						C175.9,291.2,156.6,266.6,148.4,232.8z"/>
					<path class="st1" d="M176.4,277c16.5-8.8,33.1-17.5,49.6-26.3c0.6,1,0.8,1.5,1.4,2.5c-16.5,8.7-32.9,17.5-49.4,26.2
						C177.4,278.4,177.1,278,176.4,277z"/>
					<path class="st1" d="M199.4,305.6c15.6-8.3,31.1-16.7,46.7-25c0.7,0.9,1.1,1.4,1.8,2.3c-15.5,8.3-31,16.6-46.6,24.9
						C200.6,306.9,200.2,306.4,199.4,305.6z"/>
					<path class="st1" d="M193.3,298.6c15.8-8.4,31.5-16.9,47.3-25.3c0.7,0.9,1,1.4,1.7,2.3c-15.7,8.4-31.4,16.8-47.1,25.2
						C194.4,300,194,299.5,193.3,298.6z"/>
					<path class="st1" d="M187.4,291.6c16-8.6,32-17.1,48.1-25.7c0.6,1,1,1.4,1.6,2.4c-15.9,8.5-31.9,17.1-47.8,25.6
						C188.5,293,188.1,292.5,187.4,291.6z"/>
					<path class="st1" d="M181.7,284.4c16.3-8.7,32.6-17.3,48.8-26c0.6,1,0.9,1.5,1.5,2.4c-16.2,8.6-32.4,17.3-48.6,25.9
						C182.8,285.8,182.4,285.3,181.7,284.4z"/>
					<path class="st1" d="M157,236c17.1-9,34.2-18,51.2-27.1c0.4,1.2,0.5,1.7,0.9,2.9c-17.1,9-34.2,18-51.3,27.1
						C157.5,237.7,157.3,237.1,157,236z"/>
					<path class="st1" d="M171.5,269.4c16.8-8.9,33.6-17.7,50.3-26.6c0.5,1,0.8,1.5,1.3,2.5c-16.7,8.8-33.4,17.7-50.1,26.5
						C172.4,270.9,172.1,270.4,171.5,269.4z"/>
					<path class="st1" d="M167,261.5c17-8.9,34-17.9,50.9-26.8c0.5,1,0.7,1.6,1.2,2.6c-16.9,8.9-33.8,17.8-50.8,26.7
						C167.8,263,167.6,262.5,167,261.5z"/>
					<path class="st1" d="M163.1,253.3c17.1-9,34.2-18,51.3-27c0.4,1.1,0.7,1.6,1.1,2.7c-17.1,9-34.1,17.9-51.2,26.9
						C163.8,254.9,163.6,254.4,163.1,253.3z"/>
					<path class="st1" d="M159.7,244.8c17.1-9,34.3-18,51.4-27.1c0.4,1.1,0.6,1.7,1,2.8c-17.1,9-34.3,18-51.4,27
						C160.3,246.5,160.1,246,159.7,244.8z"/>
				</g>
			</g>
			<g>
				<g>
					<path class="st0" d="M107.1,294.4c-9.1-25.6-8.8-47-3.5-73.5c32.7,11.6,65.6,7.3,97.4-4.7c-5.3,25.6-3.7,48.4,3.5,73.5
						C171,300.4,141.7,302.5,107.1,294.4z"/>
					<path class="st1" d="M157.4,292.5c-6-19.3-7.8-36.5-6.2-56.7c1.2-0.1,1.8-0.1,2.9-0.2c-1.6,20.2,0.1,37.3,6,56.6
						C159.1,292.4,158.5,292.4,157.4,292.5z"/>
					<path class="st1" d="M192.8,285.5c-4.7-19.7-6-37.3-3.6-57.5c1.2-0.4,1.9-0.7,3.1-1.1c-3.6,18.9-1.8,39.3,3.4,57.7
						C194.5,284.9,193.9,285.1,192.8,285.5z"/>
					<path class="st1" d="M183.7,288c-5-19.5-6.4-36.9-4.2-57c1.2-0.3,1.8-0.5,3.1-0.9c-2.3,20.1-0.9,37.6,4,57.1
						C185.4,287.6,184.9,287.7,183.7,288z"/>
					<path class="st1" d="M174.9,290c-5.3-19.4-6.9-36.7-4.9-56.7c1.2-0.2,1.8-0.4,3-0.7c-2.1,20.1-0.6,37.4,4.7,56.8
						C176.6,289.7,176,289.8,174.9,290z"/>
					<path class="st1" d="M166.1,291.6c-5.7-19.3-7.4-36.5-5.6-56.6c1.2-0.2,1.8-0.2,3-0.4c-1.8,20.1-0.2,37.3,5.4,56.7
						C167.8,291.3,167.3,291.4,166.1,291.6z"/>
					<path class="st1" d="M111.8,288.6c-5.7-19.7-6.4-36.8-4-57.2c1,0.3,1.5,0.4,2.6,0.7c-2.3,20.5-1.3,37.5,4.5,57.2
						C113.7,289,113,288.9,111.8,288.6z"/>
					<path class="st1" d="M148.7,292.9c-6.2-19.3-8-36.5-6.6-56.8c1.2,0,1.7,0,2.9,0c-1.5,20.3,0.4,37.4,6.5,56.7
						C150.4,292.9,149.8,292.9,148.7,292.9z"/>
					<path class="st1" d="M139.8,292.8c-6.3-19.4-8.1-36.5-6.6-56.9c1.1,0.1,1.7,0.1,2.8,0.2c-1.5,20.4,0.4,37.5,6.6,56.9
						C141.5,292.8,140.9,292.8,139.8,292.8z"/>
					<path class="st1" d="M130.7,292c-6.2-19.5-7.9-36.6-6.3-57.1c1.1,0.2,1.6,0.2,2.8,0.4c-1.6,20.5,0.2,37.6,6.4,57
						C132.5,292.2,131.9,292.1,130.7,292z"/>
					<path class="st1" d="M121.4,290.6c-6.1-19.6-7.4-36.7-5.4-57.2c1.1,0.2,1.6,0.3,2.7,0.5c-1.8,20.5-0.4,37.6,5.8,57.2
						C123.2,290.9,122.6,290.8,121.4,290.6z"/>
				</g>
			</g>
			<g>
				<g>
					<path class="st7" d="M305.9,260.4c-13,20.8-26.1,41.5-39.1,62.3c-24.8-22.9-51.2-39.6-82.6-51.8c12.1-19.2,24.1-38.4,36.2-57.6
						C252.9,223.4,281.9,235.1,305.9,260.4z"/>
					<path class="st1" d="M259.6,236c-10,15.9-19.9,31.7-29.9,47.6c-1-0.6-1.5-0.9-2.5-1.4c9.9-15.8,19.8-31.6,29.7-47.3
						C258,235.2,258.5,235.5,259.6,236z"/>
					<path class="st1" d="M225.4,222.7c-9.3,15-18.7,30-28,44.9c-1.1-0.4-1.6-0.7-2.7-1.1c9.3-14.9,18.6-29.8,28-44.8
						C223.7,222.1,224.3,222.3,225.4,222.7z"/>
					<path class="st1" d="M234.2,225.6c-9.5,15.2-18.9,30.4-28.4,45.6c-1.1-0.5-1.6-0.7-2.7-1.2c9.4-15.1,18.8-30.2,28.3-45.4
						C232.5,225,233,225.2,234.2,225.6z"/>
					<path class="st1" d="M242.8,228.8c-9.6,15.4-19.2,30.8-28.9,46.2c-1-0.5-1.5-0.8-2.6-1.2c9.6-15.3,19.1-30.7,28.7-46
						C241.2,228.1,241.7,228.4,242.8,228.8z"/>
					<path class="st1" d="M251.3,232.2c-9.8,15.6-19.6,31.3-29.4,46.9c-1-0.5-1.5-0.8-2.5-1.3c9.7-15.6,19.5-31.1,29.2-46.7
						C249.7,231.5,250.2,231.7,251.3,232.2z"/>
					<path class="st1" d="M296.8,261.9c-10.3,16.3-20.6,32.7-30.9,49c-0.9-0.8-1.3-1.2-2.2-2c10.3-16.4,20.7-32.7,31-49.1
						C295.5,260.6,296,261,296.8,261.9z"/>
					<path class="st1" d="M267.6,240.1c-10.1,16-20.3,32.1-30.4,48.1c-1-0.6-1.4-0.9-2.4-1.5c10.1-16,20.2-32,30.2-48
						C266.1,239.3,266.6,239.6,267.6,240.1z"/>
					<path class="st1" d="M275.4,244.7c-10.3,16.2-20.5,32.4-30.8,48.6c-0.9-0.7-1.4-1-2.3-1.7c10.2-16.2,20.5-32.3,30.7-48.5
						C273.9,243.8,274.4,244.1,275.4,244.7z"/>
					<path class="st1" d="M282.9,249.8c-10.4,16.3-20.7,32.6-31.1,48.9c-0.9-0.7-1.4-1.1-2.3-1.8c10.3-16.3,20.7-32.6,31-48.9
						C281.5,248.8,282,249.2,282.9,249.8z"/>
					<path class="st1" d="M290,255.5c-10.4,16.4-20.7,32.7-31.1,49.1c-0.9-0.8-1.3-1.2-2.2-1.9c10.4-16.4,20.7-32.7,31.1-49.1
						C288.7,254.4,289.1,254.8,290,255.5z"/>
				</g>
			</g>
			<g>
				<g>
					<path class="st7" d="M82.4,368.7c10-25.5,31.3-38.4,55.5-48.2c-34.2-14.4-55.9-32.5-71-66.4c-24.1,6.4-32.5,15.2-44.3,37.5
						C29.7,329.8,45.2,354.7,82.4,368.7z"/>
					<path class="st1" d="M42.8,330.4c9.9-17.7,19.7-27.6,37.9-36.9c-0.7-0.8-1.1-1.2-1.8-2.1c-18.1,9.2-27.8,19-37.6,36.5
						C41.8,329,42.2,329.4,42.8,330.4z"/>
					<path class="st1" d="M28.7,294.6c8.9-14.9,17.3-24.7,34.4-30.1c-0.4-1-0.7-1.6-1.1-2.6c-17,5.1-25.1,14.7-34,29.3
						C28.3,292.6,28.4,293.2,28.7,294.6z"/>
					<path class="st1" d="M31.2,304.6c9.1-15.5,18-26,35.5-32.2c-0.5-1-0.7-1.5-1.2-2.5c-17.4,5.9-26.1,16.2-35.2,31.5
						C30.6,302.8,30.8,303.4,31.2,304.6z"/>
					<path class="st1" d="M34.3,313.9c9.7-16.8,18.7-25.8,36.4-34c-0.6-0.9-0.8-1.4-1.4-2.3c-17.7,8-26.5,16.9-36.1,33.5
						C33.7,312.2,33.9,312.8,34.3,313.9z"/>
					<path class="st1" d="M38.2,322.5c9.8-17.3,19.2-26.8,37.2-35.6c-0.6-0.9-0.9-1.3-1.5-2.2c-17.9,8.7-27.2,18-36.9,35.2
						C37.4,320.9,37.7,321.5,38.2,322.5z"/>
					<path class="st1" d="M78.1,359.2c9.1-18.5,24.3-29.4,42.1-38.5c-1.3-0.6-2-0.9-3.3-1.5c-17.8,9.2-32.7,20.1-41.7,38.7
						C76.3,358.4,76.9,358.7,78.1,359.2z"/>
					<path class="st1" d="M48.1,337.6c10-18,20.3-28.2,38.5-37.9c-0.8-0.8-1.2-1.1-2-1.9c-18.2,9.6-28.4,19.8-38.3,37.6
						C47.1,336.3,47.4,336.7,48.1,337.6z"/>
					<path class="st1" d="M54.3,344c10.1-18.2,20.8-28.6,39.2-38.6c-0.9-0.7-1.4-1.1-2.3-1.8c-18.4,9.9-29,20.3-39,38.4
						C53.1,342.8,53.5,343.2,54.3,344z"/>
					<path class="st1" d="M61.3,349.8c10.2-18.3,21.5-28.8,40-38.9c-1.1-0.7-1.6-1-2.6-1.7C80.2,319.3,69.2,329.7,59,348
						C59.9,348.7,60.4,349.1,61.3,349.8z"/>
					<path class="st1" d="M69.2,354.8c10.5-18.4,22.2-28.8,41-38.9c-1.2-0.6-1.8-0.9-2.9-1.6c-18.7,10.1-30.3,20.6-40.6,39
						C67.6,353.9,68.2,354.2,69.2,354.8z"/>
				</g>
			</g>
			<g>
				<g>
					<path class="st7" d="M137.5,237.6c9.3,24.8,20,43.9,39.5,62c-31.3,12.6-57.7,29.3-82.3,52.4c-16.6-16.5-29.2-28.7-36.6-51.5
						C76.7,267.8,101.6,248.5,137.5,237.6z"/>
					<path class="st1" d="M92.2,269.9c7.9,18.4,17.8,32.2,31.4,46.9c-1,0.6-1.4,0.9-2.4,1.6c-13.7-14.6-23.5-28.3-31.4-46.6
						C90.7,271,91.2,270.6,92.2,269.9z"/>
					<path class="st1" d="M65.9,298.8c7.1,16.5,16.8,27.6,29.5,40.3c-0.9,0.8-1.3,1.2-2.1,2c-11.7-11.6-24-23.3-29.1-39.6
						C64.9,300.4,65.2,299.9,65.9,298.8z"/>
					<path class="st1" d="M71.8,290.5c7.5,17.2,17.3,29.1,30.3,42.4c-0.9,0.8-1.3,1.1-2.2,1.9C87,321.7,77.3,310,69.9,293
						C70.6,292,71,291.5,71.8,290.5z"/>
					<path class="st1" d="M78.2,282.9c7.7,17.7,17.6,30.3,30.9,44.3c-0.9,0.7-1.3,1.1-2.2,1.8c-13.3-13.8-23.1-26.2-30.8-43.7
						C76.9,284.3,77.3,283.9,78.2,282.9z"/>
					<path class="st1" d="M84.9,276.1c7.9,18.1,17.7,31.4,31.3,45.8c-0.9,0.7-1.4,1-2.3,1.7c-13.5-14.2-23.4-27.3-31.2-45.3
						C83.6,277.3,84.1,276.9,84.9,276.1z"/>
					<path class="st1" d="M133.6,248c7.9,18.7,16.8,33.6,30.6,48.6c-1.1,0.4-1.7,0.6-2.8,1.1c-13.8-15-22.8-30-30.7-48.7
						C131.8,248.6,132.4,248.4,133.6,248z"/>
					<path class="st1" d="M99.8,264.3c8,18.7,17.7,32.9,31.4,47.8c-1,0.6-1.5,0.9-2.4,1.5c-13.7-14.9-23.5-29-31.5-47.6
						C98.3,265.3,98.8,265,99.8,264.3z"/>
					<path class="st1" d="M107.7,259.4c8,18.8,17.5,33.3,31.3,48.5c-1,0.5-1.5,0.8-2.5,1.3c-13.8-15.1-23.4-29.5-31.4-48.3
						C106.2,260.2,106.7,259.9,107.7,259.4z"/>
					<path class="st1" d="M116,255c7.6,18.3,16.8,34.8,31.1,48.8c-1,0.5-1.6,0.7-2.6,1.2c-14.2-14-23.6-30.4-31.2-48.7
						C114.4,255.8,114.9,255.5,116,255z"/>
					<path class="st1" d="M124.7,251.2c7.5,18.2,16.6,35,30.8,48.8c-1.1,0.5-1.6,0.7-2.7,1.2c-14.3-13.9-23.4-30.6-30.9-48.8
						C123,251.9,123.5,251.7,124.7,251.2z"/>
				</g>
			</g>
			<g>
				<g>
					<path class="st7" d="M465.4,235.3c15.8,18.7,31.6,37.5,47.4,56.2c-29.3,16.6-53.3,36.7-74.6,62.8c-14.6-17.3-29.2-34.7-43.8-52
						C414,274.4,434.1,250.4,465.4,235.3z"/>
					<path class="st1" d="M428,272c12,14.3,24.1,28.7,36.1,43c-0.9,0.8-1.3,1.1-2.1,1.9c-12-14.3-24-28.5-36-42.8
						C426.8,273.2,427.2,272.8,428,272z"/>
					<path class="st1" d="M404.9,300.4c11.4,13.5,22.8,27,34.2,40.4c-0.7,0.9-1.1,1.4-1.9,2.3c-11.4-13.4-22.7-26.9-34.1-40.3
						C403.9,301.9,404.2,301.4,404.9,300.4z"/>
					<path class="st1" d="M410.4,293c11.6,13.7,23.1,27.3,34.7,41c-0.8,0.9-1.2,1.3-1.9,2.2c-11.5-13.6-23-27.2-34.5-40.8
						C409.3,294.4,409.7,293.9,410.4,293z"/>
					<path class="st1" d="M416,285.7c11.7,13.9,23.5,27.7,35.2,41.6c-0.8,0.8-1.2,1.2-2,2.1c-11.7-13.8-23.4-27.6-35-41.4
						C414.9,287.1,415.3,286.6,416,285.7z"/>
					<path class="st1" d="M421.9,278.7c11.9,14.1,23.8,28.2,35.7,42.3c-0.8,0.8-1.2,1.2-2,2c-11.8-14-23.7-28-35.5-42.1
						C420.7,280,421.1,279.6,421.9,278.7z"/>
					<path class="st1" d="M464,244.4c12.4,14.8,24.8,29.6,37.2,44.4c-1.1,0.6-1.6,0.9-2.6,1.5c-12.4-14.8-24.8-29.7-37.2-44.5
						C462.4,245.2,463,245,464,244.4z"/>
					<path class="st1" d="M434.4,265.5c12.2,14.6,24.4,29.1,36.5,43.7c-0.9,0.7-1.3,1.1-2.2,1.8c-12.1-14.5-24.3-29-36.4-43.5
						C433.2,266.7,433.6,266.3,434.4,265.5z"/>
					<path class="st1" d="M441.2,259.5c12.3,14.7,24.6,29.5,36.9,44.2c-0.9,0.7-1.4,1-2.3,1.7c-12.3-14.7-24.5-29.4-36.8-44
						C439.9,260.7,440.3,260.3,441.2,259.5z"/>
					<path class="st1" d="M448.3,254c12.4,14.8,24.7,29.7,37.1,44.5c-1,0.6-1.4,1-2.4,1.6c-12.4-14.8-24.7-29.6-37.1-44.4
						C446.9,255,447.4,254.7,448.3,254z"/>
					<path class="st1" d="M455.9,248.9c12.4,14.9,24.8,29.7,37.2,44.6c-1,0.6-1.5,0.9-2.5,1.6c-12.4-14.9-24.8-29.7-37.2-44.6
						C454.5,249.8,454.9,249.5,455.9,248.9z"/>
				</g>
			</g>
			<g>
				<g>
					<path class="st7" d="M350.1,220.6c-23-8.6-45.9-17.2-68.9-25.8c-5.9,33.2-16.7,62.5-34.2,91.3c21.2,8,42.5,15.9,63.7,23.9
						C330.4,282.1,346.3,255.2,350.1,220.6z"/>
					<path class="st1" d="M328,268.1c-17.5-6.6-35.1-13.1-52.6-19.7c-0.4,1.1-0.6,1.6-1.1,2.6c17.5,6.5,34.9,13.1,52.4,19.6
						C327.2,269.6,327.5,269.1,328,268.1z"/>
					<path class="st1" d="M308.9,299.4c-16.5-6.2-33-12.5-49.6-18.7c-0.6,1-0.9,1.5-1.5,2.5c16.5,6.2,32.9,12.4,49.4,18.6
						C307.9,300.8,308.2,300.4,308.9,299.4z"/>
					<path class="st1" d="M314.1,291.7c-16.7-6.3-33.5-12.7-50.2-19c-0.6,1-0.8,1.5-1.4,2.5c16.7,6.3,33.3,12.6,50,18.9
						C313.1,293.2,313.4,292.7,314.1,291.7z"/>
					<path class="st1" d="M319.1,284c-17-6.4-34-12.8-51-19.2c-0.5,1-0.8,1.5-1.3,2.6c16.9,6.4,33.8,12.8,50.7,19.2
						C318.1,285.5,318.4,285,319.1,284z"/>
					<path class="st1" d="M323.7,276.1c-17.3-6.5-34.5-13-51.8-19.5c-0.5,1-0.7,1.6-1.2,2.6c17.2,6.5,34.4,12.9,51.5,19.4
						C322.9,277.6,323.1,277.1,323.7,276.1z"/>
					<path class="st1" d="M341.9,224.9c-18.1-6.7-36.2-13.5-54.3-20.2c-0.2,1.2-0.3,1.8-0.5,3c18.1,6.7,36.3,13.5,54.4,20.2
						C341.7,226.7,341.8,226.1,341.9,224.9z"/>
					<path class="st1" d="M331.9,259.9c-17.8-6.6-35.6-13.2-53.4-19.8c-0.4,1.1-0.6,1.6-1,2.7c17.7,6.6,35.4,13.2,53.1,19.8
						C331.2,261.5,331.4,260.9,331.9,259.9z"/>
					<path class="st1" d="M335.3,251.5c-18-6.7-36-13.3-54-20c-0.3,1.1-0.5,1.6-0.9,2.7c17.9,6.6,35.9,13.3,53.8,19.9
						C334.7,253.1,334.9,252.6,335.3,251.5z"/>
					<path class="st1" d="M338.1,242.9c-18.1-6.7-36.3-13.4-54.4-20.1c-0.3,1.1-0.4,1.7-0.7,2.8c18.1,6.7,36.2,13.4,54.3,20
						C337.7,244.6,337.8,244,338.1,242.9z"/>
					<path class="st1" d="M340.4,234c-18.2-6.7-36.3-13.4-54.5-20.1c-0.2,1.2-0.4,1.7-0.6,2.9c18.2,6.7,36.3,13.4,54.5,20.1
						C340,235.7,340.1,235.2,340.4,234z"/>
				</g>
			</g>
			<g>
				<g>
					<path class="st0" d="M435.6,283.3c-18.4,20-26.5,39.8-32,66.2c34.7,2.1,63.3,19,87.8,42.5c5.1-25.7,15.6-45.9,32-66.2
						C496.8,302.7,470.6,289.3,435.6,283.3z"/>
					<path class="st1" d="M481.2,304.7c-13,15.4-21.4,30.5-27.9,49.7c1.1,0.5,1.6,0.8,2.6,1.4c6.4-19.2,14.7-34.3,27.7-49.8
						C482.7,305.4,482.2,305.2,481.2,304.7z"/>
					<path class="st1" d="M510.9,325c-12,16.3-20.1,32-25.8,51.5c1,0.9,1.4,1.3,2.4,2.2c4.1-18.8,13.7-36.9,25.7-51.8
						C512.3,326.2,511.9,325.8,510.9,325z"/>
					<path class="st1" d="M503.6,319.1c-12.2,16-20.3,31.5-26.2,50.8c1,0.8,1.5,1.2,2.5,2c5.8-19.4,13.8-35,26-51
						C505,320.2,504.5,319.8,503.6,319.1z"/>
					<path class="st1" d="M496.3,313.8c-12.5,15.7-20.7,31-26.7,50.3c1,0.7,1.5,1.1,2.5,1.8c6-19.3,14.1-34.6,26.5-50.4
						C497.7,314.8,497.2,314.4,496.3,313.8z"/>
					<path class="st1" d="M488.8,309c-12.8,15.6-21.1,30.7-27.3,49.9c1,0.6,1.6,0.9,2.6,1.6c6.2-19.2,14.4-34.4,27.1-50
						C490.3,309.8,489.8,309.5,488.8,309z"/>
					<path class="st1" d="M437.6,290.5c-12.9,16-20.3,31.3-26,51.1c1.1,0.1,1.6,0.2,2.7,0.4c5.9-19.7,13.5-35,26.5-50.9
						C439.5,290.8,438.9,290.7,437.6,290.5z"/>
					<path class="st1" d="M473.3,300.9c-13.2,15.4-21.7,30.4-28.2,49.7c1.1,0.4,1.6,0.7,2.7,1.2c6.5-19.3,15-34.3,28.1-49.7
						C474.8,301.6,474.3,301.3,473.3,300.9z"/>
					<path class="st1" d="M465,297.6c-13.4,15.4-21.7,30.5-28.4,49.8c1.1,0.4,1.6,0.6,2.7,0.9c6.6-19.3,15-34.4,28.4-49.8
						C466.7,298.1,466.1,297.9,465,297.6z"/>
					<path class="st1" d="M456.4,294.7c-13.4,15.5-21.6,30.6-28.1,50.1c1.1,0.3,1.6,0.4,2.7,0.7c6.6-19.4,14.8-34.5,28.2-50
						C458.1,295.2,457.5,295.1,456.4,294.7z"/>
					<path class="st1" d="M447.3,292.4c-13.2,15.7-21.1,30.9-27.4,50.5c1.1,0.2,1.6,0.3,2.7,0.5c6.3-19.6,14.4-34.7,27.7-50.4
						C449.1,292.8,448.5,292.6,447.3,292.4z"/>
				</g>
			</g>
			<g>
				<g>
					<path class="st0" d="M41,337.1c-18.4,20-26.5,39.8-32,66.2c34.7,2.1,63.3,19,87.8,42.5c5.1-25.7,15.6-45.9,32-66.2
						C102.1,356.5,75.9,343.1,41,337.1z"/>
					<path class="st1" d="M86.5,358.4c-13,15.4-21.4,30.5-27.9,49.7c1.1,0.5,1.6,0.8,2.6,1.4c6.4-19.2,14.7-34.3,27.7-49.8
						C88,359.2,87.5,359,86.5,358.4z"/>
					<path class="st1" d="M116.3,378.8c-12,16.3-20.1,32-25.8,51.5c1,0.9,1.4,1.3,2.4,2.2c4.1-18.8,13.7-36.9,25.7-51.8
						C117.7,379.9,117.2,379.5,116.3,378.8z"/>
					<path class="st1" d="M109,372.9c-12.2,16-20.3,31.5-26.2,50.8c1,0.8,1.5,1.2,2.5,2c5.8-19.4,13.8-35,26-51
						C110.4,374,109.9,373.6,109,372.9z"/>
					<path class="st1" d="M101.6,367.6c-12.5,15.7-20.7,31-26.7,50.3c1,0.7,1.5,1.1,2.5,1.8c6-19.3,14.1-34.6,26.5-50.4
						C103,368.5,102.6,368.2,101.6,367.6z"/>
					<path class="st1" d="M94.2,362.7c-12.8,15.6-21.1,30.7-27.3,49.9c1,0.6,1.6,0.9,2.6,1.6c6.2-19.2,14.4-34.4,27.1-50
						C95.6,363.6,95.1,363.3,94.2,362.7z"/>
					<path class="st1" d="M43,344.2c-12.9,16-20.3,31.3-26,51.1c1.1,0.1,1.6,0.2,2.7,0.4c5.9-19.7,13.5-35,26.5-50.9
						C44.9,344.6,44.2,344.5,43,344.2z"/>
					<path class="st1" d="M78.6,354.7C65.4,370,57,385.1,50.4,404.3c1.1,0.4,1.6,0.7,2.7,1.2c6.5-19.3,15-34.3,28.1-49.7
						C80.2,355.3,79.6,355.1,78.6,354.7z"/>
					<path class="st1" d="M70.4,351.3C57,366.7,48.6,381.8,42,401.2c1.1,0.4,1.6,0.6,2.7,0.9c6.6-19.3,15-34.4,28.4-49.8
						C72,351.9,71.5,351.7,70.4,351.3z"/>
					<path class="st1" d="M61.7,348.5c-13.4,15.5-21.6,30.6-28.1,50.1c1.1,0.3,1.6,0.4,2.7,0.7c6.6-19.4,14.8-34.5,28.2-50
						C63.4,349,62.9,348.8,61.7,348.5z"/>
					<path class="st1" d="M52.6,346.2c-13.2,15.7-21.1,30.9-27.4,50.5c1.1,0.2,1.6,0.3,2.7,0.5c6.3-19.6,14.4-34.7,27.7-50.4
						C54.4,346.6,53.8,346.4,52.6,346.2z"/>
				</g>
			</g>
			<g>
				<g>
					<path class="st0" d="M179.1,348.5c22,15.9,42.6,21.7,69.5,24c-2-34.7,11.4-65,31.9-92.2c-26.1-2.1-47.4-10.1-69.5-24
						C191.2,285.5,181,313,179.1,348.5z"/>
					<path class="st1" d="M194.9,300.7c16.9,11.1,32.8,17.7,52.7,21.8c0.4-1.1,0.6-1.7,1-2.8c-19.8-4.1-35.8-10.6-52.7-21.7
						C195.5,299.1,195.3,299.7,194.9,300.7z"/>
					<path class="st1" d="M211.6,268.8c17.5,10,34.2,16.2,54.2,19.6c0.8-1.1,1.2-1.6,1.9-2.6c-19.1-1.8-38.2-9.3-54.4-19.5
						C212.6,267.3,212.3,267.8,211.6,268.8z"/>
					<path class="st1" d="M206.7,276.7c17.3,10.3,33.6,16.5,53.5,20c0.7-1.1,1-1.6,1.7-2.7c-19.9-3.5-36.3-9.7-53.7-19.9
						C207.6,275.2,207.3,275.7,206.7,276.7z"/>
					<path class="st1" d="M202.2,284.7c17.1,10.6,33.3,16.9,53.1,20.6c0.6-1.1,0.9-1.6,1.5-2.7c-19.8-3.7-36.1-10-53.2-20.4
						C203,283.1,202.8,283.6,202.2,284.7z"/>
					<path class="st1" d="M198.3,292.6c16.9,10.9,33,17.3,52.8,21.3c0.5-1.1,0.7-1.7,1.3-2.8c-19.8-3.9-35.9-10.3-52.9-21.1
						C199,291.1,198.8,291.6,198.3,292.6z"/>
					<path class="st1" d="M185.9,345.6c17.4,11,33.5,16.5,53.8,19.9c0-1.1,0-1.6,0-2.7c-20.3-3.6-36.4-9.3-53.7-20.4
						C186,343.7,186,344.3,185.9,345.6z"/>
					<path class="st1" d="M192.1,309c16.8,11.3,32.7,18,52.7,22.2c0.3-1.1,0.5-1.7,0.8-2.8c-19.9-4.2-35.8-10.8-52.6-22.1
						C192.6,307.4,192.4,307.9,192.1,309z"/>
					<path class="st1" d="M189.8,317.6c16.9,11.5,32.8,18,52.8,22.3c0.2-1.1,0.4-1.7,0.6-2.8c-20-4.3-35.9-10.9-52.7-22.3
						C190.2,315.9,190,316.4,189.8,317.6z"/>
					<path class="st1" d="M188,326.5c17,11.5,32.9,17.9,53,22.1c0.2-1.1,0.2-1.6,0.4-2.7c-20.1-4.2-36-10.7-52.9-22.2
						C188.3,324.7,188.2,325.3,188,326.5z"/>
					<path class="st1" d="M186.7,335.8c17.1,11.3,33.2,17.4,53.4,21.3c0.1-1.1,0.1-1.6,0.2-2.7c-20.2-4-36.2-10.2-53.3-21.6
						C186.9,334,186.8,334.6,186.7,335.8z"/>
				</g>
			</g>
			<g>
				<g>
					<path class="st0" d="M338.7,306.5c-5.6-23.9-11.1-47.7-16.7-71.6c33.7-0.5,64-9.6,95-22.2c5.6,23.9,11.1,47.7,16.7,71.6
						C402.6,301,374.1,308.3,338.7,306.5z"/>
					<path class="st1" d="M390.1,294.3c-4.9-19.4-9.8-38.7-14.7-58.1c1.1-0.3,1.7-0.5,2.8-0.8c4.9,19.4,9.8,38.7,14.6,58.1
						C391.7,293.9,391.1,294,390.1,294.3z"/>
					<path class="st1" d="M423.1,281.2c-4.4-19-8.8-37.9-13.3-56.9c1.1-0.5,1.6-0.7,2.7-1.1c4.4,18.9,8.8,37.8,13.2,56.7
						C424.7,280.4,424.2,280.6,423.1,281.2z"/>
					<path class="st1" d="M414.8,285.2c-4.5-19.2-9-38.3-13.6-57.5c1.1-0.4,1.6-0.6,2.7-1.1c4.5,19.1,9,38.2,13.5,57.3
						C416.4,284.5,415.8,284.7,414.8,285.2z"/>
					<path class="st1" d="M406.6,288.7c-4.7-19.3-9.3-38.6-14-57.9c1.1-0.4,1.6-0.6,2.7-1c4.6,19.3,9.2,38.5,13.8,57.8
						C408.1,288.1,407.6,288.3,406.6,288.7z"/>
					<path class="st1" d="M398.4,291.8c-4.8-19.3-9.6-38.7-14.4-58c1.1-0.3,1.7-0.5,2.8-0.9c4.7,19.3,9.5,38.7,14.2,58
						C399.9,291.2,399.4,291.4,398.4,291.8z"/>
					<path class="st1" d="M344.7,299.2c-4.6-18.8-9.3-37.6-13.9-56.4c1.2,0,1.8,0,2.9-0.1c4.7,18.9,9.5,37.7,14.2,56.6
						C346.7,299.2,346,299.2,344.7,299.2z"/>
					<path class="st1" d="M381.6,296.4c-5-19.3-10-38.6-15-57.9c1.1-0.3,1.7-0.4,2.8-0.6c5,19.3,10,38.7,14.9,58
						C383.3,296,382.7,296.1,381.6,296.4z"/>
					<path class="st1" d="M373,297.9c-5-19.2-10.1-38.5-15.1-57.7c1.1-0.2,1.7-0.3,2.8-0.5c5,19.3,10.1,38.5,15.1,57.8
						C374.6,297.6,374.1,297.7,373,297.9z"/>
					<path class="st1" d="M364,298.9c-5-19.1-10-38.2-15-57.3c1.1-0.1,1.7-0.2,2.8-0.4c5,19.2,10.1,38.3,15.1,57.5
						C365.7,298.7,365.1,298.8,364,298.9z"/>
					<path class="st1" d="M354.6,299.3c-4.9-19-9.8-37.9-14.6-56.9c1.2-0.1,1.7-0.1,2.9-0.2c4.9,19,9.9,38,14.8,57.1
						C356.4,299.3,355.8,299.3,354.6,299.3z"/>
				</g>
			</g>
			<g>
				<g>
					<path class="st7" d="M413.8,264.1c-6.3,24.9-5.2,49.8,6,73.3c-34.7-6.7-64.4-5.8-97.2,8c-9.1-23.7-8.8-42.7-5.6-67.8
						C348,258.3,378.6,257.1,413.8,264.1z"/>
					<path class="st1" d="M359,269.3c-1.8,20.3-0.3,36.9,6.2,56.3c-1.1,0.1-1.7,0.1-2.8,0.2c-6.5-19.3-8-35.8-6.3-56.1
						C357.3,269.5,357.9,269.5,359,269.3z"/>
					<path class="st1" d="M324.3,281.3c-1.7,19-1,34.3,4.9,52.6c-1.2,0.5-1.8,0.7-2.9,1.2c-5.8-18.1-6.4-33.4-4.6-52.2
						C322.7,282.2,323.3,281.9,324.3,281.3z"/>
					<path class="st1" d="M332.8,277c-1.6,19.4-0.6,35.1,5.6,53.7c-1.2,0.4-1.7,0.5-2.9,0.9c-6.1-18.5-7.1-34.1-5.5-53.3
						C331.1,277.7,331.7,277.5,332.8,277z"/>
					<path class="st1" d="M341.4,273.6c-1.6,19.7-0.3,35.8,6.1,54.7c-1.1,0.3-1.7,0.4-2.9,0.7c-6.3-18.8-7.5-34.7-6-54.4
						C339.7,274.1,340.3,273.9,341.4,273.6z"/>
					<path class="st1" d="M350.1,271c-1.7,20-0.2,36.4,6.2,55.5c-1.1,0.2-1.7,0.3-2.8,0.5c-6.5-19-7.8-35.3-6.2-55.3
						C348.4,271.4,349,271.3,350.1,271z"/>
					<path class="st1" d="M404.6,270.7c-4,19.1-2,40.3,5.3,58.5c-1.2-0.2-1.7-0.4-2.9-0.6c-7.6-18.8-8.2-38.6-5.3-58.4
						C402.9,270.4,403.4,270.5,404.6,270.7z"/>
					<path class="st1" d="M368,268.3c-2,20.5-0.4,37.3,6.1,56.9c-1.1,0-1.7,0-2.8,0c-6.5-19.5-8.1-36.3-6.2-56.7
						C366.3,268.4,366.9,268.4,368,268.3z"/>
					<path class="st1" d="M377.1,268c-2.3,19.6-1.7,38.9,5.9,57.4c-1.1-0.1-1.7-0.1-2.8-0.1c-7.6-18.5-8.1-37.7-6-57.3
						C375.3,268,375.9,268,377.1,268z"/>
					<path class="st1" d="M386.2,268.3c-2.5,19.7-1.9,39.2,5.6,57.9c-1.1-0.1-1.7-0.2-2.8-0.3c-7.6-18.6-8.1-38.1-5.7-57.7
						C384.5,268.2,385.1,268.3,386.2,268.3z"/>
					<path class="st1" d="M395.4,269.3c-2.7,19.8-2.1,39.4,5.4,58.2c-1.1-0.2-1.7-0.3-2.9-0.4c-7.6-18.8-8.1-38.3-5.5-58.1
						C393.7,269,394.2,269.1,395.4,269.3z"/>
				</g>
			</g>
			<g>
				<g>
					<path class="st7" d="M468.3,332.7c-25.6-2.4-48.7-11.8-67-30.2c-5.3,35-16.1,62.6-40.1,88.9c19.3,16.5,37.2,22.6,62,28
						C451.8,396.6,463.2,368.3,468.3,332.7z"/>
					<path class="st1" d="M445.1,382.6c-19.7-5.1-34.9-12.1-50.9-24.7c-0.5,1-0.7,1.6-1.2,2.6c16,12.6,31.1,19.5,50.7,24.7
						C444.3,384.1,444.6,383.6,445.1,382.6z"/>
					<path class="st1" d="M422.2,411.2c-18.4-4.8-32.7-10.6-47.9-22.3c-0.8,1-1.3,1.4-2.1,2.4c15.1,11.5,29.3,17.2,47.6,21.9
						C420.8,412.4,421.2,412,422.2,411.2z"/>
					<path class="st1" d="M429.1,404.7c-18.8-5-33.3-11.3-48.7-23.3c-0.7,1-1.1,1.5-1.9,2.4c15.3,12,29.7,18.1,48.4,23
						C427.8,406,428.3,405.6,429.1,404.7z"/>
					<path class="st1" d="M435.2,397.8c-19.1-5.1-33.8-11.7-49.5-24c-0.6,1-1,1.5-1.6,2.5c15.6,12.3,30.2,18.7,49.2,23.8
						C434.1,399.2,434.5,398.7,435.2,397.8z"/>
					<path class="st1" d="M440.5,390.4c-19.4-5.2-34.4-12-50.2-24.5c-0.5,1-0.8,1.5-1.4,2.5c15.8,12.5,30.7,19.2,50,24.4
						C439.6,391.8,439.9,391.4,440.5,390.4z"/>
					<path class="st1" d="M459.1,339.2c-19.3-2.7-38.7-11.7-53.3-24.6c-0.2,1.2-0.3,1.8-0.4,2.9c15.2,13.4,33.6,20.6,53.2,24.6
						C458.8,340.9,458.9,340.3,459.1,339.2z"/>
					<path class="st1" d="M449.1,374.4c-20-5-35.3-12.1-51.6-24.8c-0.4,1.1-0.6,1.6-1,2.6c16.2,12.7,31.5,19.8,51.4,24.8
						C448.4,376,448.6,375.5,449.1,374.4z"/>
					<path class="st1" d="M452.4,366c-19.2-4.4-37.3-11.4-52.1-24.8c-0.3,1.1-0.5,1.6-0.8,2.7c14.8,13.4,32.8,20.3,52,24.8
						C451.8,367.6,452,367.1,452.4,366z"/>
					<path class="st1" d="M455.1,357.2c-19.4-4.3-37.6-11.3-52.6-24.7c-0.3,1.1-0.4,1.7-0.7,2.8c15,13.4,33.1,20.4,52.5,24.8
						C454.7,358.9,454.8,358.4,455.1,357.2z"/>
					<path class="st1" d="M457.4,348.3c-19.5-4.1-37.9-11.2-53-24.6c-0.2,1.1-0.3,1.7-0.5,2.9c15.1,13.4,33.4,20.5,52.9,24.7
						C457,350,457.1,349.4,457.4,348.3z"/>
				</g>
			</g>
			<g>
				<g>
					<path class="st0" d="M163.7,261.9c-24.5,11.8-39.3,27.3-54.1,49.8c31.5,14.7,51.8,40.9,66.1,71.8c14.2-22,31.4-37,54.1-49.8
						C213.4,302.4,194,280.3,163.7,261.9z"/>
					<path class="st1" d="M198.2,298.5c-17.8,9.6-31.1,20.5-44.2,36c0.8,0.9,1.2,1.3,1.9,2.2c13-15.5,26.3-26.5,44.1-36.1
						C199.3,299.8,198.9,299.3,198.2,298.5z"/>
					<path class="st1" d="M218.4,328.3c-17.2,10.7-30.5,22.4-42.9,38.4c0.6,1.2,0.9,1.8,1.4,3c10.7-16,26.3-29.2,42.9-38.7
						C219.2,329.9,219,329.4,218.4,328.3z"/>
					<path class="st1" d="M213.7,320.2c-17.3,10.3-30.5,21.8-43,37.6c0.6,1.1,0.9,1.7,1.6,2.8c12.5-15.9,25.7-27.4,43-37.9
						C214.7,321.7,214.4,321.2,213.7,320.2z"/>
					<path class="st1" d="M208.9,312.5c-17.4,10-30.6,21.3-43.3,36.9c0.7,1,1,1.5,1.7,2.6c12.6-15.7,25.9-27,43.2-37.2
						C209.8,313.9,209.5,313.5,208.9,312.5z"/>
					<path class="st1" d="M203.7,305.3c-17.6,9.8-30.9,20.8-43.8,36.4c0.7,1,1.1,1.4,1.8,2.4c12.8-15.6,26.1-26.7,43.6-36.5
						C204.7,306.6,204.4,306.2,203.7,305.3z"/>
					<path class="st1" d="M162.9,269.2c-17.9,10.1-30.4,21.7-43,38c0.9,0.5,1.4,0.8,2.3,1.3c12.8-16.2,25.4-27.6,43.4-37.6
						C164.6,270.3,164,269.9,162.9,269.2z"/>
					<path class="st1" d="M192.2,292c-18,9.4-31.3,20.3-44.5,35.8c0.8,0.8,1.2,1.2,2,2c13.2-15.5,26.5-26.4,44.4-35.9
						C193.4,293.2,193,292.8,192.2,292z"/>
					<path class="st1" d="M185.8,285.9c-18.1,9.4-31.4,20.3-44.7,35.9c0.9,0.7,1.3,1.1,2.1,1.9c13.3-15.5,26.6-26.4,44.7-35.8
						C187.1,287.1,186.7,286.7,185.8,285.9z"/>
					<path class="st1" d="M178.8,280.1c-18.1,9.5-31.3,20.5-44.6,36.2c0.9,0.7,1.3,1,2.2,1.7c13.3-15.7,26.5-26.6,44.6-36.1
						C180.2,281.2,179.7,280.9,178.8,280.1z"/>
					<path class="st1" d="M171.2,274.6c-18.1,9.7-31,21-44,36.9c0.9,0.6,1.4,0.9,2.3,1.5c13.1-15.9,26.1-27,44.2-36.7
						C172.7,275.6,172.2,275.3,171.2,274.6z"/>
				</g>
			</g>
			<g>
				<g>
					<path class="st7" d="M124.6,416.1c-8.1-23.1-16.3-46.2-24.4-69.4c33.3-5.2,62.9-15.5,92-32.4c7.5,21.4,15.1,42.8,22.6,64.2
						C186.5,397.7,159.2,413.1,124.6,416.1z"/>
					<path class="st1" d="M172.5,395.1c-6.2-17.7-12.4-35.3-18.6-53c1.1-0.4,1.6-0.6,2.7-1c6.2,17.6,12.4,35.2,18.5,52.8
						C174.1,394.3,173.6,394.6,172.5,395.1z"/>
					<path class="st1" d="M204.2,376.6c-5.9-16.6-11.8-33.3-17.7-49.9c1-0.6,1.5-0.9,2.5-1.5c5.9,16.6,11.8,33.2,17.6,49.8
						C205.7,375.6,205.2,375.9,204.2,376.6z"/>
					<path class="st1" d="M196.4,381.6c-6-16.9-12-33.7-18-50.6c1-0.5,1.5-0.8,2.6-1.4c6,16.8,11.9,33.6,17.9,50.4
						C197.9,380.7,197.4,381,196.4,381.6z"/>
					<path class="st1" d="M188.6,386.4c-6.1-17.1-12.1-34.2-18.2-51.4c1-0.5,1.6-0.7,2.6-1.2c6,17,12.1,34.1,18.1,51.1
						C190.1,385.5,189.6,385.8,188.6,386.4z"/>
					<path class="st1" d="M180.6,390.9c-6.1-17.4-12.3-34.8-18.4-52.2c1-0.4,1.6-0.7,2.6-1.1c6.1,17.3,12.2,34.6,18.4,51.9
						C182.2,390.1,181.7,390.4,180.6,390.9z"/>
					<path class="st1" d="M129.1,408.1c-6.4-18.2-12.7-36.5-19.1-54.7c1.2-0.2,1.8-0.3,3-0.5c6.4,18.3,12.7,36.5,19.1,54.8
						C130.9,407.9,130.3,408,129.1,408.1z"/>
					<path class="st1" d="M164.3,398.8c-6.2-17.9-12.5-35.8-18.7-53.8c1.1-0.4,1.6-0.5,2.7-0.9c6.2,17.8,12.5,35.7,18.7,53.5
						C165.9,398.1,165.3,398.3,164.3,398.8z"/>
					<path class="st1" d="M155.8,402c-6.3-18.1-12.6-36.2-18.9-54.4c1.1-0.3,1.7-0.5,2.8-0.8c6.3,18.1,12.6,36.1,18.8,54.2
						C157.4,401.4,156.9,401.6,155.8,402z"/>
					<path class="st1" d="M147.1,404.7c-6.3-18.3-12.6-36.5-19-54.8c1.1-0.3,1.7-0.4,2.8-0.7c6.3,18.2,12.6,36.4,18.9,54.7
						C148.8,404.2,148.3,404.4,147.1,404.7z"/>
					<path class="st1" d="M138.2,406.7c-6.3-18.3-12.7-36.6-19-54.9c1.2-0.2,1.7-0.3,2.9-0.6c6.3,18.3,12.7,36.6,19,54.9
						C140,406.4,139.4,406.5,138.2,406.7z"/>
				</g>
			</g>
			<g>
				<g>
					<path class="st7" d="M318.8,289.8c6.3,21.7,6.5,39.9,4.4,62.2c-36.5-6.6-67.8-4.1-101.7,11.7c5.5-24,5.2-43.9-0.2-68
						C255.3,278,283.7,271.4,318.8,289.8z"/>
					<path class="st1" d="M270,286.4c3.4,18.6,3.5,35.2,1.1,54c-1.2,0.1-1.8,0.2-2.9,0.4c2.5-18.8,2.4-35.3-1-54
						C268.3,286.7,268.8,286.6,270,286.4z"/>
					<path class="st1" d="M233.3,298.3c3.2,18.4,3.3,34.3,0.2,52.8c-1.2,0.5-1.8,0.8-3.1,1.4c3.2-18.4,3-34.3-0.2-52.7
						C231.5,299.2,232.1,298.9,233.3,298.3z"/>
					<path class="st1" d="M242.8,294.1c3.2,18.5,3.3,34.6,0.3,53.2c-1.2,0.4-1.8,0.7-3,1.1c3-18.5,3-34.6-0.2-53
						C241,294.8,241.6,294.6,242.8,294.1z"/>
					<path class="st1" d="M252,290.6c3.2,18.6,3.3,34.9,0.5,53.6c-1.2,0.3-1.8,0.5-3,0.9c2.9-18.6,2.8-34.9-0.4-53.4
						C250.3,291.2,250.8,291,252,290.6z"/>
					<path class="st1" d="M261.1,288.1c3.3,18.6,3.4,35.1,0.7,53.9c-1.2,0.2-1.8,0.4-3,0.6c2.7-18.7,2.6-35.2-0.6-53.8
						C259.3,288.5,259.9,288.3,261.1,288.1z"/>
					<path class="st1" d="M314.2,293.6c3.7,16.8,4.1,31.8,2.7,49c-1.2-0.2-1.8-0.4-2.9-0.6c1.4-17.4,1.1-32.6-2.6-49.7
						C312.5,292.8,313.1,293.1,314.2,293.6z"/>
					<path class="st1" d="M278.8,285.8c3.4,18.5,3.6,35.1,1.4,53.8c-1.2,0.1-1.8,0.1-2.9,0.2c2.3-18.8,2.1-35.3-1.3-53.9
						C277.1,285.8,277.7,285.8,278.8,285.8z"/>
					<path class="st1" d="M287.6,286.1c3.5,18.3,3.8,34.7,1.8,53.3c-1.2,0-1.8,0-2.9,0c2-18.7,1.8-35.1-1.7-53.5
						C285.9,285.9,286.5,286,287.6,286.1z"/>
					<path class="st1" d="M296.4,287.5c3.6,18,3.9,34.1,2.1,52.4c-1.2-0.1-1.8-0.1-2.9-0.2c1.8-18.4,1.5-34.6-2-52.8
						C294.7,287.1,295.3,287.2,296.4,287.5z"/>
					<path class="st1" d="M305.3,290c3.7,17.5,4,33.2,2.5,51c-1.2-0.2-1.8-0.3-2.9-0.4c1.6-18,1.3-33.8-2.4-51.5
						C303.6,289.4,304.1,289.6,305.3,290z"/>
				</g>
			</g>
			<g>
				<g>
					<path class="st7" d="M304.1,264.4c23.1,8.2,46.2,16.4,69.3,24.6c-16.9,29.2-27.5,58.6-32.6,91.9c-21.4-7.6-42.8-15.2-64.1-22.7
						C279.6,324.1,284.7,293.3,304.1,264.4z"/>
					<path class="st1" d="M290.4,314.9c17.6,6.3,35.3,12.6,52.9,18.8c-0.4,1.1-0.5,1.6-0.9,2.7c-17.6-6.2-35.1-12.5-52.7-18.7
						C290,316.6,290.1,316.1,290.4,314.9z"/>
					<path class="st1" d="M284.9,351.2c16.7,5.9,33.3,11.7,50,17.6c-0.2,1.2-0.3,1.7-0.5,2.9c-16.6-5.8-33.2-11.7-49.8-17.5
						C284.7,353,284.8,352.4,284.9,351.2z"/>
					<path class="st1" d="M285.8,342c16.9,5.9,33.8,11.9,50.6,17.8c-0.2,1.1-0.3,1.7-0.6,2.8c-16.8-5.9-33.6-11.8-50.4-17.7
						C285.6,343.7,285.7,343.2,285.8,342z"/>
					<path class="st1" d="M287,332.9c17.1,6,34.3,12.1,51.4,18.1c-0.3,1.1-0.4,1.7-0.7,2.8c-17.1-6-34.1-12-51.2-18
						C286.8,334.6,286.9,334,287,332.9z"/>
					<path class="st1" d="M288.5,323.8c17.4,6.2,34.8,12.3,52.2,18.5c-0.3,1.1-0.5,1.6-0.8,2.7c-17.3-6.1-34.6-12.2-51.9-18.3
						C288.2,325.6,288.3,325,288.5,323.8z"/>
					<path class="st1" d="M307.6,272.9c18.2,6.5,36.4,13,54.6,19.5c-0.6,1-0.9,1.6-1.5,2.6c-18.2-6.5-36.4-13.1-54.6-19.6
						C306.6,274.5,306.9,273.9,307.6,272.9z"/>
					<path class="st1" d="M292.7,306.2c17.9,6.4,35.7,12.8,53.6,19.2c-0.4,1.1-0.6,1.6-1,2.7c-17.8-6.4-35.6-12.7-53.4-19.1
						C292.2,307.8,292.4,307.3,292.7,306.2z"/>
					<path class="st1" d="M295.5,297.6c18.1,6.5,36.1,13,54.2,19.5c-0.5,1.1-0.7,1.6-1.1,2.6c-18-6.5-36-12.9-54-19.4
						C294.9,299.2,295.1,298.6,295.5,297.6z"/>
					<path class="st1" d="M298.9,289.1c18.2,6.5,36.4,13.1,54.5,19.6c-0.5,1-0.8,1.6-1.2,2.6c-18.1-6.5-36.3-13.1-54.4-19.6
						C298.2,290.7,298.4,290.2,298.9,289.1z"/>
					<path class="st1" d="M302.9,280.9c18.2,6.6,36.5,13.1,54.7,19.7c-0.6,1-0.8,1.6-1.4,2.6c-18.2-6.6-36.4-13.1-54.7-19.7
						C302.1,282.5,302.3,282,302.9,280.9z"/>
				</g>
			</g>
			<g>
				<g>
					<path class="st0" d="M306.2,323.9c-26.4-6.4-47.7-3.8-73.4,4.2c15,31.3,14.1,64.5,5.5,97.4c24.9-8,47.7-8.7,73.4-4.2
						C319,386.8,317.9,357.4,306.2,323.9z"/>
					<path class="st1" d="M309.7,374.1c-19.8-3.9-37.1-3.9-57-0.2c0,1.2,0.1,1.8,0.1,3c19.9-3.7,37.2-3.8,57,0
						C309.7,375.8,309.7,375.2,309.7,374.1z"/>
					<path class="st1" d="M306.3,410c-20-2.6-37.7-2-57.5,2.5c-0.3,1.3-0.5,1.9-0.8,3.2c18.4-5.6,38.9-5.9,57.7-2.7
						C306,411.8,306.1,411.2,306.3,410z"/>
					<path class="st1" d="M307.9,400.7c-19.9-2.9-37.4-2.5-57.1,1.8c-0.2,1.3-0.3,1.9-0.6,3.1c19.7-4.4,37.3-4.9,57.2-2
						C307.7,402.5,307.8,401.9,307.9,400.7z"/>
					<path class="st1" d="M309,391.7c-19.8-3.3-37.2-3-56.9,1.1c-0.1,1.2-0.2,1.8-0.3,3.1c19.7-4.1,37.1-4.5,57-1.3
						C308.9,393.4,308.9,392.8,309,391.7z"/>
					<path class="st1" d="M309.6,382.9c-19.8-3.6-37.1-3.5-56.9,0.4c0,1.2-0.1,1.8-0.1,3c19.8-3.9,37.1-4.1,56.9-0.6
						C309.5,384.5,309.6,384,309.6,382.9z"/>
					<path class="st1" d="M300.9,329.1c-20.2-3.6-37.3-2.5-57.3,2.1c0.4,1,0.6,1.5,1,2.5c20.1-4.4,37.2-5.2,57.4-1.5
						C301.6,330.9,301.4,330.3,300.9,329.1z"/>
					<path class="st1" d="M309.1,365.3c-19.9-4.1-37.1-4.2-57.2-0.6c0.1,1.1,0.2,1.7,0.3,2.9c20-3.6,37.2-3.6,57.1,0.5
						C309.3,367,309.2,366.5,309.1,365.3z"/>
					<path class="st1" d="M308,356.5c-20-4.2-37.2-4.2-57.3-0.6c0.2,1.1,0.3,1.7,0.5,2.8c20.1-3.6,37.3-3.5,57.3,0.6
						C308.3,358.2,308.2,357.7,308,356.5z"/>
					<path class="st1" d="M306.3,347.6c-20-4.2-37.2-4-57.4-0.3c0.3,1.1,0.4,1.6,0.6,2.7c20.2-3.7,37.4-3.8,57.4,0.4
						C306.7,349.3,306.6,348.8,306.3,347.6z"/>
					<path class="st1" d="M304,338.5c-20.1-4-37.3-3.5-57.5,0.6c0.3,1,0.5,1.6,0.8,2.6c20.2-4,37.3-4.3,57.5-0.3
						C304.5,340.3,304.3,339.7,304,338.5z"/>
				</g>
			</g>
			<g>
				<g>
					<path class="st7" d="M223,335.4c23.7,14.5,39.7,28.9,47.4,56.2c-28.2,15.3-52.1,31-72.9,55.8c-12.1-21.6-23-34.2-45.6-45
						C171.6,374.5,191.7,350.5,223,335.4z"/>
					<path class="st1" d="M187.5,369.7c16.9,10.8,27.4,21.7,37,39.5c-0.9,0.6-1.3,1-2.1,1.6c-9.6-17.6-20.1-28.4-36.9-39
						C186.3,370.9,186.7,370.5,187.5,369.7z"/>
					<path class="st1" d="M164.4,397.8c16.1,7.2,26,19.8,35,34.5c-0.8,0.9-1.1,1.3-1.9,2.2c-9-14.6-18.8-27.1-34.9-34.3
						C163.3,399.2,163.7,398.7,164.4,397.8z"/>
					<path class="st1" d="M169.9,390.4c16.2,9.3,25.9,19.3,35.6,35.4c-0.8,0.8-1.2,1.2-1.9,2c-9.1-15-19.1-27.6-35.4-35.1
						C168.8,391.8,169.2,391.3,169.9,390.4z"/>
					<path class="st1" d="M175.5,383.2c16.5,9.7,26.4,20,36.1,36.6c-0.8,0.7-1.2,1.1-2,1.8c-9.7-16.5-19.6-26.6-36-36.2
						C174.4,384.6,174.8,384.1,175.5,383.2z"/>
					<path class="st1" d="M181.4,376.3c16.7,10.2,26.9,20.8,36.6,38c-0.8,0.7-1.2,1-2,1.7c-9.7-17-19.8-27.5-36.5-37.6
						C180.3,377.6,180.6,377.2,181.4,376.3z"/>
					<path class="st1" d="M223.6,342.7c16.3,10.3,32.2,25.1,38.2,44c-1.1,0.6-1.6,0.8-2.7,1.4c-6.1-18.9-21.9-33.7-38.2-44
						C222,343.5,222.5,343.2,223.6,342.7z"/>
					<path class="st1" d="M193.9,363.4c17.1,11.3,27.9,22.6,37.4,40.9c-0.9,0.6-1.3,0.9-2.2,1.5c-9.6-18.2-20.3-29.4-37.3-40.5
						C192.7,364.6,193.1,364.2,193.9,363.4z"/>
					<path class="st1" d="M200.7,357.5c17.3,11.7,28.3,23.4,37.8,42.2c-0.9,0.6-1.4,0.9-2.3,1.4c-9.5-18.7-20.4-30.2-37.7-41.8
						C199.4,358.6,199.8,358.2,200.7,357.5z"/>
					<path class="st1" d="M207.9,352.1c17.6,10.9,29.3,24.6,38,43.2c-1,0.6-1.4,0.8-2.4,1.4c-8.7-18.5-20.3-32.2-37.9-42.9
						C206.5,353.1,206.9,352.7,207.9,352.1z"/>
					<path class="st1" d="M215.5,347.1c17.7,11.1,29.7,24.9,38.2,43.9c-1,0.5-1.5,0.8-2.5,1.4c-8.6-18.8-20.4-32.6-38.1-43.7
						C214,348,214.5,347.7,215.5,347.1z"/>
				</g>
			</g>
			<g>
				<g>
					<path class="st0" d="M368.4,266.5c-4.9-26.7-15.9-45.1-33.7-65.3c-22.5,26.5-53.1,39.2-86.7,44.8c17.5,19.5,27.4,40,33.7,65.3
						C316.1,303.8,342.6,290.9,368.4,266.5z"/>
					<path class="st1" d="M323.9,290.2c-4.5-19.7-11.6-35.4-23.1-52.1c-1.1,0.5-1.6,0.8-2.7,1.3c11.5,16.6,18.6,32.4,23.2,52
						C322.4,290.9,322.9,290.6,323.9,290.2z"/>
					<path class="st1" d="M289.8,301.8c-5.8-19.4-13.6-35.3-25.7-51.5c-1.3,0.2-1.9,0.4-3.2,0.6c12.6,14.5,21.3,33.1,26,51.6
						C288,302.2,288.6,302,289.8,301.8z"/>
					<path class="st1" d="M298.9,299.4c-5.4-19.4-13-35.2-24.9-51.4c-1.2,0.3-1.8,0.5-3.1,0.8c12,16.3,19.7,32.1,25.2,51.4
						C297.2,299.9,297.8,299.8,298.9,299.4z"/>
					<path class="st1" d="M307.6,296.8c-5.1-19.4-12.4-35.2-24.2-51.5c-1.2,0.4-1.8,0.6-3,1c11.8,16.3,19.2,32.1,24.4,51.5
						C305.9,297.3,306.5,297.1,307.6,296.8z"/>
					<path class="st1" d="M315.9,293.7c-4.8-19.6-11.9-35.3-23.5-51.8c-1.1,0.5-1.7,0.7-2.8,1.1c11.7,16.5,18.9,32.2,23.7,51.7
						C314.3,294.3,314.9,294.1,315.9,293.7z"/>
					<path class="st1" d="M361.4,263.8c-5-19.9-12.9-35-25.3-51.5c-0.7,0.8-1.1,1.2-1.9,1.9c12.2,16.6,19.9,31.8,24.8,51.8
						C360,265.2,360.5,264.7,361.4,263.8z"/>
					<path class="st1" d="M331.7,286.1c-4.4-19.8-11.3-35.6-22.8-52.4c-1,0.6-1.5,0.9-2.5,1.4c11.5,16.8,18.4,32.6,22.8,52.3
						C330.2,286.9,330.7,286.7,331.7,286.1z"/>
					<path class="st1" d="M339.3,281.5c-4.3-19.9-11.3-35.7-22.8-52.6c-0.9,0.6-1.4,0.9-2.4,1.6c11.5,16.9,18.5,32.6,22.8,52.6
						C337.9,282.5,338.3,282.1,339.3,281.5z"/>
					<path class="st1" d="M346.7,276.3c-4.4-20-11.5-35.6-23.2-52.5c-0.9,0.7-1.3,1-2.2,1.7c11.6,16.9,18.7,32.6,23,52.6
						C345.3,277.4,345.8,277,346.7,276.3z"/>
					<path class="st1" d="M354.1,270.4c-4.6-20-12-35.5-24-52.2c-0.8,0.7-1.2,1.1-2,1.8c11.8,16.8,19.2,32.3,23.7,52.4
						C352.7,271.6,353.2,271.2,354.1,270.4z"/>
				</g>
			</g>
			<g>
				<g>
					<path class="st0" d="M509.8,429.6c-4.9-26.7-15.9-45.1-33.7-65.3c-22.5,26.5-53.1,39.2-86.7,44.8c17.5,19.5,27.4,40,33.7,65.3
						C457.6,466.9,484,453.9,509.8,429.6z"/>
					<path class="st1" d="M465.4,453.2c-4.5-19.7-11.6-35.4-23.1-52.1c-1.1,0.5-1.6,0.8-2.7,1.3c11.5,16.6,18.6,32.4,23.2,52
						C463.8,454,464.3,453.7,465.4,453.2z"/>
					<path class="st1" d="M431.2,464.8c-5.8-19.4-13.6-35.3-25.7-51.5c-1.3,0.2-1.9,0.4-3.2,0.6c12.6,14.5,21.3,33.1,26,51.6
						C429.5,465.2,430.1,465.1,431.2,464.8z"/>
					<path class="st1" d="M440.3,462.5c-5.4-19.4-13-35.2-24.9-51.4c-1.2,0.3-1.8,0.5-3.1,0.8c12,16.3,19.7,32.1,25.2,51.4
						C438.6,463,439.2,462.8,440.3,462.5z"/>
					<path class="st1" d="M449,459.8c-5.1-19.4-12.4-35.2-24.2-51.5c-1.2,0.4-1.8,0.6-3,1c11.8,16.3,19.2,32.1,24.4,51.5
						C447.4,460.4,447.9,460.2,449,459.8z"/>
					<path class="st1" d="M457.3,456.8c-4.8-19.6-11.9-35.3-23.5-51.8c-1.1,0.5-1.7,0.7-2.8,1.1c11.7,16.5,18.9,32.2,23.7,51.7
						C455.8,457.4,456.3,457.2,457.3,456.8z"/>
					<path class="st1" d="M502.9,426.9c-5-19.9-12.9-35-25.3-51.5c-0.7,0.8-1.1,1.2-1.9,1.9c12.2,16.6,19.9,31.8,24.8,51.8
						C501.5,428.2,501.9,427.8,502.9,426.9z"/>
					<path class="st1" d="M473.1,449.2c-4.4-19.8-11.3-35.6-22.8-52.4c-1,0.6-1.5,0.9-2.5,1.4c11.5,16.8,18.4,32.6,22.8,52.3
						C471.7,450,472.2,449.7,473.1,449.2z"/>
					<path class="st1" d="M480.7,444.6c-4.3-19.9-11.3-35.7-22.8-52.6c-0.9,0.6-1.4,0.9-2.4,1.6c11.5,16.9,18.5,32.6,22.8,52.6
						C479.3,445.5,479.8,445.2,480.7,444.6z"/>
					<path class="st1" d="M488.2,439.4c-4.4-20-11.5-35.6-23.2-52.5c-0.9,0.7-1.3,1-2.2,1.7c11.6,16.9,18.7,32.6,23,52.6
						C486.8,440.4,487.2,440.1,488.2,439.4z"/>
					<path class="st1" d="M495.5,433.5c-4.6-20-12-35.5-24-52.2c-0.8,0.7-1.2,1.1-2,1.8c11.8,16.8,19.2,32.3,23.7,52.4
						C494.1,434.7,494.6,434.3,495.5,433.5z"/>
				</g>
			</g>
			<g>
				<g>
					<path class="st0" d="M144.7,377.4c-24.9,10.9-40.3,25.8-55.9,47.7c30.9,15.9,50.3,42.8,63.3,74.2c15-21.4,32.7-35.8,55.9-47.7
						C192.9,419.7,174.2,397,144.7,377.4z"/>
					<path class="st1" d="M177.8,415.3c-18.1,8.9-31.9,19.3-45.5,34.3c0.7,0.9,1.1,1.4,1.9,2.3c13.6-15,27.3-25.5,45.4-34.4
						C178.8,416.6,178.5,416.1,177.8,415.3z"/>
					<path class="st1" d="M196.9,445.8c-17.6,10-31.3,21.2-44.3,36.8c0.5,1.2,0.8,1.8,1.3,3c11.3-15.6,27.4-28.2,44.4-37.1
						C197.7,447.5,197.4,446.9,196.9,445.8z"/>
					<path class="st1" d="M192.5,437.5c-17.6,9.7-31.3,20.6-44.4,36c0.6,1.1,0.9,1.7,1.5,2.8c13.1-15.4,26.7-26.4,44.3-36.2
						C193.4,439.1,193.1,438.5,192.5,437.5z"/>
					<path class="st1" d="M188,429.7c-17.8,9.4-31.4,20.1-44.7,35.3c0.6,1.1,1,1.6,1.6,2.7c13.2-15.2,26.8-26,44.6-35.5
						C188.9,431.1,188.6,430.7,188,429.7z"/>
					<path class="st1" d="M183.1,422.3c-18,9.1-31.6,19.7-45.1,34.7c0.7,1,1,1.5,1.7,2.5c13.4-15.1,27.1-25.7,45-34.9
						C184,423.7,183.7,423.2,183.1,422.3z"/>
					<path class="st1" d="M143.6,384.7c-18.3,9.4-31.2,20.5-44.4,36.3c0.9,0.5,1.4,0.8,2.3,1.4c13.4-15.7,26.4-26.7,44.8-35.9
						C145.2,385.8,144.7,385.4,143.6,384.7z"/>
					<path class="st1" d="M172.1,408.6c-18.3,8.8-32.1,19.1-45.8,34.1c0.8,0.8,1.2,1.3,2,2.1c13.7-15,27.5-25.4,45.8-34.2
						C173.2,409.9,172.9,409.4,172.1,408.6z"/>
					<path class="st1" d="M165.9,402.3c-18.4,8.7-32.2,19.1-46,34.2c0.8,0.8,1.2,1.2,2.1,1.9c13.8-15,27.6-25.4,46-34.1
						C167.1,403.5,166.7,403.1,165.9,402.3z"/>
					<path class="st1" d="M159.1,396.2c-18.5,8.8-32.1,19.3-45.9,34.5c0.9,0.7,1.3,1,2.1,1.8c13.8-15.2,27.5-25.6,46-34.4
						C160.5,397.3,160,397,159.1,396.2z"/>
					<path class="st1" d="M151.7,390.4c-18.4,9-31.8,19.8-45.4,35.2c0.9,0.6,1.3,0.9,2.2,1.6c13.7-15.4,27.1-26,45.6-35
						C153.2,391.5,152.7,391.1,151.7,390.4z"/>
				</g>
			</g>
			<g>
				<g>
					<path class="st0" d="M301.7,342.4c-2.9,27,2.3,47.8,13.6,72.3c24.5-23.5,56.7-23.6,88.3-19.1c-9.6-22.9-11.3-46.9-6-71.2
						C361.4,317.6,333.1,323,301.7,342.4z"/>
					<path class="st1" d="M349.5,329c-3.5,18.8-2.8,39.5,3.7,57.6c1.1-0.2,1.6-0.3,2.7-0.4c-6.5-18.1-7.1-38.9-3.6-57.6
						C351.2,328.7,350.6,328.8,349.5,329z"/>
					<path class="st1" d="M386.1,328.8c-3.2,18.7-3.2,39.8,3.6,57.8c1.3,0.2,1.9,0.3,3.2,0.4c-6.8-17.9-6.8-39.1-3.7-57.8
						C388,329,387.3,328.9,386.1,328.8z"/>
					<path class="st1" d="M376.5,327.8c-3.3,18.7-3.2,39.8,3.4,57.8c1.2,0.1,1.8,0.1,3.1,0.2c-6.7-18-6.7-39.1-3.5-57.8
						C378.3,327.9,377.7,327.8,376.5,327.8z"/>
					<path class="st1" d="M367.3,327.4c-3.4,18.7-3.2,39.7,3.3,57.8c1.2,0,1.7,0,2.9,0c-6.6-18.1-6.8-39.1-3.4-57.8
						C369,327.4,368.4,327.4,367.3,327.4z"/>
					<path class="st1" d="M358.3,327.8c-3.5,18.7-3,39.6,3.4,57.7c1.1-0.1,1.7-0.1,2.8-0.2c-6.5-18.1-6.9-39-3.4-57.7
						C360,327.7,359.4,327.7,358.3,327.8z"/>
					<path class="st1" d="M307.1,346.3c-1,20.4,2.2,37.1,9.3,56.4c0.8-0.7,1.2-1,2.1-1.6c-6.9-19.3-9.8-36.1-8.6-56.5
						C308.7,345.2,308.2,345.6,307.1,346.3z"/>
					<path class="st1" d="M340.9,330.9c-3.4,18.8-2.4,39.4,4.2,57.4c1-0.3,1.5-0.4,2.5-0.6c-6.5-18.1-7.4-38.7-4-57.5
						C342.5,330.4,342,330.6,340.9,330.9z"/>
					<path class="st1" d="M332.4,333.5c-2.3,20.3-0.8,37.5,5,57.2c1-0.4,1.4-0.5,2.4-0.9c-5.7-19.7-7.1-37-4.7-57.3
						C334,332.9,333.5,333.1,332.4,333.5z"/>
					<path class="st1" d="M323.9,337c-2,20.3-0.1,37.4,6,57c0.9-0.5,1.4-0.7,2.3-1.1c-6-19.6-7.8-36.7-5.7-57
						C325.5,336.2,325,336.5,323.9,337z"/>
					<path class="st1" d="M315.5,341.2c-1.6,20.4,0.9,37.3,7.5,56.7c0.9-0.6,1.3-0.8,2.2-1.4c-6.4-19.5-8.7-36.4-7-56.8
						C317.1,340.3,316.6,340.6,315.5,341.2z"/>
				</g>
			</g>
			<g>
				<g>
					<path class="st0" d="M127.1,302.4c20.5,17.8,30.7,36.7,39.1,62.3c-34-0.6-57.7,21.2-77.9,45.9c-8.5-23.3-23.5-42.1-43.9-56.4
						C66.4,324.7,90.8,309.4,127.1,302.4z"/>
					<path class="st1" d="M82.8,325c15.3,11.4,28.8,27.1,36.3,44.8c-0.9,0.6-1.3,0.9-2.2,1.5c-7.5-17.7-21.2-33.4-36.5-44.8
						C81.4,325.9,81.9,325.6,82.8,325z"/>
					<path class="st1" d="M55.8,349.6c15,11.6,29.3,27.1,36.6,44.9c-0.8,1-1.2,1.5-2,2.5c-7.2-17.8-21.5-33.3-36.5-44.9
						C54.6,351.1,55,350.6,55.8,349.6z"/>
					<path class="st1" d="M62.1,342.4c15.1,11.5,29.4,27.1,36.7,44.8c-0.8,0.9-1.3,1.3-2.1,2.3c-7.3-17.8-21.6-33.3-36.7-44.8
						C60.9,343.7,61.3,343.3,62.1,342.4z"/>
					<path class="st1" d="M68.7,335.9c15.2,11.4,29.3,27,36.7,44.7c-0.9,0.8-1.3,1.2-2.1,2c-7.4-17.7-21.6-33.3-36.8-44.8
						C67.4,337.1,67.9,336.7,68.7,335.9z"/>
					<path class="st1" d="M75.6,330.1c15.3,11.4,29.1,27,36.6,44.7c-0.9,0.7-1.3,1-2.2,1.8c-7.5-17.7-21.4-33.3-36.7-44.7
						C74.3,331.1,74.7,330.8,75.6,330.1z"/>
					<path class="st1" d="M125.7,308.9c14.6,14.3,23.6,28.8,31.4,47.7c-1.1,0.1-1.6,0.1-2.6,0.2c-8-18.9-17.2-33.2-32-47.4
						C123.8,309.2,124.5,309.1,125.7,308.9z"/>
					<path class="st1" d="M90.4,320.5c15.2,11.5,28.4,27.3,35.9,45c-0.9,0.5-1.4,0.7-2.3,1.3c-7.5-17.7-20.8-33.5-36-44.9
						C88.9,321.3,89.4,321,90.4,320.5z"/>
					<path class="st1" d="M98.5,316.7c15.5,13.3,26,27,35.2,45.4c-1,0.4-1.4,0.6-2.4,1c-9.2-18.3-19.9-32-35.4-45.3
						C96.9,317.3,97.4,317.1,98.5,316.7z"/>
					<path class="st1" d="M107,313.5c15.3,13.6,25.4,27.4,34.2,45.9c-1,0.3-1.5,0.4-2.4,0.8c-8.9-18.5-19.2-32.3-34.5-45.7
						C105.3,314,105.9,313.8,107,313.5z"/>
					<path class="st1" d="M116.1,310.9c15,13.9,24.6,28,33,46.7c-1,0.2-1.5,0.3-2.5,0.5c-8.5-18.6-18.3-32.7-33.4-46.4
						C114.3,311.3,114.9,311.2,116.1,310.9z"/>
				</g>
			</g>
			<g>
				<g>
					<path class="st7" d="M352.2,460.1c10-25.5,31.3-38.4,55.5-48.2c-34.2-14.4-55.9-32.5-71-66.4c-24.1,6.4-32.5,15.2-44.3,37.5
						C299.5,421.2,315,446.1,352.2,460.1z"/>
					<path class="st1" d="M312.6,421.9c9.9-17.7,19.7-27.6,37.9-36.9c-0.7-0.8-1.1-1.2-1.8-2.1c-18.1,9.2-27.8,19-37.6,36.5
						C311.6,420.4,311.9,420.9,312.6,421.9z"/>
					<path class="st1" d="M298.5,386c8.9-14.9,17.3-24.7,34.4-30.1c-0.4-1-0.7-1.6-1.1-2.6c-17,5.1-25.1,14.7-34,29.3
						C298,384,298.2,384.7,298.5,386z"/>
					<path class="st1" d="M301,396.1c9.1-15.5,18-26,35.5-32.2c-0.5-1-0.7-1.5-1.2-2.5c-17.4,5.9-26.1,16.2-35.2,31.5
						C300.4,394.2,300.6,394.8,301,396.1z"/>
					<path class="st1" d="M304.1,405.4c9.7-16.8,18.7-25.8,36.4-34c-0.6-0.9-0.8-1.4-1.4-2.3c-17.7,8-26.5,16.9-36.1,33.5
						C303.5,403.7,303.7,404.3,304.1,405.4z"/>
					<path class="st1" d="M308,414c9.8-17.3,19.2-26.8,37.2-35.6c-0.6-0.9-0.9-1.3-1.5-2.2c-17.9,8.7-27.2,18-36.9,35.2
						C307.2,412.4,307.5,412.9,308,414z"/>
					<path class="st1" d="M347.9,450.7c9.1-18.5,24.3-29.4,42.1-38.5c-1.3-0.6-2-0.9-3.3-1.5c-17.8,9.2-32.7,20.1-41.7,38.7
						C346.1,449.9,346.7,450.2,347.9,450.7z"/>
					<path class="st1" d="M317.9,429c10-18,20.3-28.2,38.5-37.9c-0.8-0.8-1.2-1.1-2-1.9c-18.2,9.6-28.4,19.8-38.3,37.6
						C316.8,427.7,317.2,428.2,317.9,429z"/>
					<path class="st1" d="M324.1,435.5c10.1-18.2,20.8-28.6,39.2-38.6c-0.9-0.7-1.4-1.1-2.3-1.8c-18.4,9.9-29,20.3-39,38.4
						C322.9,434.3,323.3,434.7,324.1,435.5z"/>
					<path class="st1" d="M331.1,441.2c10.2-18.3,21.5-28.8,40-38.9c-1.1-0.7-1.6-1-2.6-1.7c-18.5,10.1-29.6,20.5-39.8,38.9
						C329.7,440.2,330.2,440.5,331.1,441.2z"/>
					<path class="st1" d="M339,446.3c10.5-18.4,22.2-28.8,41-38.9c-1.2-0.6-1.8-0.9-2.9-1.6c-18.7,10.1-30.3,20.6-40.6,39
						C337.4,445.4,338,445.7,339,446.3z"/>
				</g>
			</g>
			<g>
				<g>
					<path class="st0" d="M426.3,412.5c6.3,26.4,3.6,47.7-4.5,73.4c-27.3-20.3-59.2-16.3-90-8c6.7-23.9,5.4-47.9-2.9-71.4
						C364,395.3,392.7,397,426.3,412.5z"/>
					<path class="st1" d="M377.2,405c5.8,18.2,7.7,38.8,3.5,57.6c-1.1,0-1.6-0.1-2.7-0.1c4.2-18.8,2.2-39.5-3.6-57.6
						C375.5,405,376.1,405,377.2,405z"/>
					<path class="st1" d="M340.9,409.4c5.5,18.1,8.1,39.1,3.6,57.8c-1.2,0.3-1.9,0.5-3.1,0.8c4.5-18.6,1.9-39.6-3.5-57.8
						C339,409.9,339.7,409.7,340.9,409.4z"/>
					<path class="st1" d="M350.2,407.2c5.6,18.1,8.1,39.1,3.8,57.8c-1.2,0.2-1.8,0.4-3,0.6c4.4-18.7,1.8-39.7-3.7-57.8
						C348.5,407.6,349,407.4,350.2,407.2z"/>
					<path class="st1" d="M359.4,405.7c5.7,18.2,8.1,39,3.9,57.8c-1.2,0.1-1.7,0.2-2.9,0.4c4.3-18.7,1.9-39.6-3.8-57.8
						C357.6,405.9,358.2,405.9,359.4,405.7z"/>
					<path class="st1" d="M368.4,405c5.8,18.2,7.9,38.9,3.8,57.7c-1.1,0.1-1.7,0.1-2.8,0.2c4.2-18.8,2-39.6-3.8-57.7
						C366.6,405.1,367.2,405.1,368.4,405z"/>
					<path class="st1" d="M421.4,417c3.5,20.2,2.5,37.1-2.2,57.1c-0.9-0.6-1.4-0.8-2.3-1.3c4.5-20,5.3-37,1.6-57.1
						C419.7,416.1,420.3,416.4,421.4,417z"/>
					<path class="st1" d="M386,405.8c5.7,18.2,7.2,38.8,3,57.5c-1-0.1-1.6-0.2-2.6-0.3c4.2-18.7,2.6-39.3-3.1-57.5
						C384.3,405.6,384.9,405.7,386,405.8z"/>
					<path class="st1" d="M394.8,407.4c4.8,19.9,5.4,37.1,2.2,57.4c-1-0.2-1.5-0.3-2.5-0.6c3.2-20.3,2.5-37.6-2.5-57.4
						C393.1,407.1,393.6,407.2,394.8,407.4z"/>
					<path class="st1" d="M403.6,409.8c4.5,19.9,4.7,37.1,1.1,57.3c-1-0.3-1.4-0.5-2.4-0.8c3.5-20.2,3.2-37.4-1.5-57.3
						C401.9,409.3,402.4,409.4,403.6,409.8z"/>
					<path class="st1" d="M412.4,413c4.1,20,3.7,37.1-0.4,57.2c-0.9-0.4-1.4-0.7-2.3-1.1c3.9-20.1,4.1-37.2-0.1-57.2
						C410.7,412.3,411.3,412.5,412.4,413z"/>
				</g>
			</g>
			<g>
				<g>
					<path class="st0" d="M221.7,398c26.1,7.7,43.2,20.5,61.5,40.3c-31.1,13.6-43.5,43.3-51.6,74.2c-17.4-17.7-38.9-28.4-63.4-32.9
						C175.9,443.6,191.7,419.6,221.7,398z"/>
					<path class="st1" d="M190.9,437c18.7,4,37.5,12.6,51.7,25.5c-0.6,0.9-0.8,1.4-1.4,2.3c-14.2-12.9-33.2-21.5-51.8-25.5
						C190,438.4,190.3,437.9,190.9,437z"/>
					<path class="st1" d="M176.7,470.7c18.5,4.2,38,12.4,52,25.5c-0.3,1.2-0.5,1.9-0.8,3.1c-14-13.2-33.5-21.3-51.9-25.6
						C176.2,472.5,176.4,471.9,176.7,470.7z"/>
					<path class="st1" d="M179.4,461.5c18.5,4.1,38,12.3,52.1,25.4c-0.4,1.2-0.6,1.7-0.9,2.9c-14.1-13.1-33.5-21.3-52.1-25.4
						C178.9,463.2,179,462.6,179.4,461.5z"/>
					<path class="st1" d="M182.7,452.8c18.6,4,37.9,12.3,52.1,25.3c-0.4,1.1-0.7,1.6-1.1,2.7c-14.2-13-33.5-21.3-52.1-25.3
						C182,454.4,182.2,453.9,182.7,452.8z"/>
					<path class="st1" d="M186.5,444.7c18.6,4,37.7,12.4,52,25.3c-0.5,1-0.8,1.5-1.2,2.5c-14.2-12.9-33.4-21.3-52-25.3
						C185.7,446.2,186,445.7,186.5,444.7z"/>
					<path class="st1" d="M223.2,404.5c19.3,6.9,33.5,16.3,48.5,30.2c-0.9,0.5-1.4,0.8-2.3,1.3c-15.2-13.8-29.5-22.9-48.8-29.7
						C221.6,405.6,222.1,405.2,223.2,404.5z"/>
					<path class="st1" d="M196,429.8c18.6,4.1,37.3,13,51.4,25.9c-0.6,0.8-0.9,1.3-1.6,2.1c-14.2-13-32.9-21.7-51.5-25.8
						C195,431.1,195.3,430.7,196,429.8z"/>
					<path class="st1" d="M201.7,422.9c19.6,5.6,34.9,13.7,50.9,26.6c-0.7,0.8-1,1.1-1.7,1.9c-16-12.8-31.4-20.8-51.1-26.3
						C200.6,424.2,200.9,423.8,201.7,422.9z"/>
					<path class="st1" d="M208.1,416.5c19.5,6,34.5,14.3,50.3,27.5c-0.8,0.7-1.2,1-1.9,1.7c-15.8-13.1-30.9-21.3-50.5-27.1
						C206.8,417.7,207.3,417.3,208.1,416.5z"/>
					<path class="st1" d="M215.3,410.3c19.4,6.4,34,15.2,49.5,28.7c-0.8,0.6-1.3,0.9-2.1,1.5c-15.5-13.4-30.3-22-49.7-28.2
						C213.9,411.5,214.3,411.1,215.3,410.3z"/>
				</g>
			</g>
			<g>
				<g>
					<path class="st7" d="M255.1,483.9c-1.6-27.4-8.1-47-24.4-69.4c37.3,1.3,66.4-3.4,92-32.4c16,20.4,21.6,38.3,22.6,64.2
						C321.1,472.8,290.8,483.9,255.1,483.9z"/>
					<path class="st1" d="M307.7,466.4c-2.6-19.2-7.9-33.5-18.9-49.6c1.1-0.4,1.7-0.6,2.7-1c11,16,16.4,30.1,18.9,49.3
						C309.3,465.7,308.8,465.9,307.7,466.4z"/>
					<path class="st1" d="M338.7,445.2c-2.3-18.9-7.2-32.7-18.1-48.5c0.9-1,1.4-1.4,2.2-2.5c10.9,15.9,15.7,29.8,17.9,48.8
						C339.9,443.9,339.5,444.3,338.7,445.2z"/>
					<path class="st1" d="M331.8,451.6c-2.5-18.8-7.5-32.5-18.6-48.1c1-0.8,1.4-1.2,2.4-2c11,15.6,16,29.3,18.4,48.2
						C333.2,450.5,332.7,450.8,331.8,451.6z"/>
					<path class="st1" d="M324.3,457.3c-2.6-18.9-7.8-32.6-18.8-48.2c1-0.6,1.5-1,2.5-1.6c11,15.6,16.2,29.3,18.8,48.1
						C325.7,456.3,325.3,456.6,324.3,457.3z"/>
					<path class="st1" d="M316.2,462.2c-2.6-19-7.9-32.9-18.9-48.8c1.1-0.5,1.6-0.7,2.6-1.3c11.1,15.8,16.3,29.6,18.9,48.6
						C317.8,461.3,317.2,461.6,316.2,462.2z"/>
					<path class="st1" d="M261.7,476.3c-2.2-20.4-7.5-36.2-18.2-53.9c1.2,0,1.8,0,2.9,0c10.8,17.7,16,33.4,18.3,53.8
						C263.5,476.3,262.9,476.3,261.7,476.3z"/>
					<path class="st1" d="M298.8,469.9c-2.5-19.5-7.8-34.1-18.8-50.6c1.1-0.3,1.7-0.4,2.8-0.7c11,16.4,16.3,30.8,18.9,50.3
						C300.5,469.3,299.9,469.5,298.8,469.9z"/>
					<path class="st1" d="M289.7,472.6c-2.5-19.8-7.7-34.8-18.7-51.6c1.2-0.2,1.7-0.3,2.9-0.5c10.9,16.7,16.2,31.6,18.7,51.3
						C291.4,472.1,290.8,472.3,289.7,472.6z"/>
					<path class="st1" d="M280.4,474.5c-2.4-20.1-7.6-35.4-18.5-52.6c1.2-0.1,1.8-0.1,2.9-0.3c10.9,17.1,16.2,32.3,18.6,52.3
						C282.2,474.2,281.6,474.3,280.4,474.5z"/>
					<path class="st1" d="M271,475.8c-2.3-20.3-7.5-35.9-18.4-53.4c1.2,0,1.8,0,2.9-0.1c10.8,17.4,16.1,32.9,18.4,53.2
						C272.8,475.6,272.2,475.7,271,475.8z"/>
				</g>
			</g>
			<g>
				<g>
					<path class="st7" d="M74.3,475.6c-14.5-23.4-29.6-37.4-54.6-49.3c33.4-16.7,56.8-34.7,65.4-72.4c23.8,10.3,37.2,23.4,50.5,45.6
						C127,434.4,105.7,458.6,74.3,475.6z"/>
					<path class="st1" d="M112.2,435.1c-11.4-15.7-22.9-25.6-40.3-34.5c0.8-0.9,1.2-1.3,1.9-2.2c17.4,8.8,28.8,18.7,40.2,34.3
						C113.3,433.7,112.9,434.2,112.2,435.1z"/>
					<path class="st1" d="M129.3,401.7c-11.1-15.5-21.9-25.3-39.1-34c0.3-1.3,0.5-1.9,0.8-3.2c17.1,8.8,28,18.7,39,34.3
						C129.8,400,129.7,400.5,129.3,401.7z"/>
					<path class="st1" d="M126.3,410.6c-11.2-15.4-22.1-25-39.3-33.4c0.5-1.2,0.7-1.7,1.1-2.9c17.1,8.5,28.1,18.1,39.2,33.5
						C127,408.9,126.8,409.5,126.3,410.6z"/>
					<path class="st1" d="M122.4,419.2c-11.3-15.3-22.4-24.9-39.6-33.4c0.6-1,0.9-1.6,1.4-2.6c17.2,8.4,28.2,18,39.5,33.4
						C123.2,417.6,123,418.1,122.4,419.2z"/>
					<path class="st1" d="M117.7,427.4c-11.4-15.5-22.6-25.2-39.9-33.8c0.7-0.9,1-1.4,1.7-2.4c17.2,8.6,28.5,18.2,39.8,33.6
						C118.7,425.9,118.3,426.4,117.7,427.4z"/>
					<path class="st1" d="M76.6,465.8c-11.7-16.9-23.9-28.2-41.8-38.6c1-0.5,1.6-0.8,2.6-1.4c17.9,10.4,30,21.7,41.7,38.5
						C78.1,464.9,77.6,465.2,76.6,465.8z"/>
					<path class="st1" d="M106.1,442.4c-11.5-15.9-23.2-26.2-40.7-35.5c0.9-0.8,1.3-1.2,2.1-2c17.5,9.1,29.1,19.3,40.6,35.2
						C107.3,441.1,106.9,441.5,106.1,442.4z"/>
					<path class="st1" d="M99.3,449.1c-11.6-16.2-23.4-26.8-41-36.5c0.9-0.7,1.4-1.1,2.3-1.8c17.6,9.5,29.3,20,40.9,36.1
						C100.7,447.9,100.2,448.3,99.3,449.1z"/>
					<path class="st1" d="M92.1,455.3c-11.7-16.5-23.6-27.4-41.4-37.4c1-0.6,1.5-1,2.4-1.6c17.7,9.8,29.6,20.7,41.3,37.1
						C93.5,454.2,93.1,454.6,92.1,455.3z"/>
					<path class="st1" d="M84.5,460.9c-11.7-16.7-23.8-27.9-41.6-38.2c1-0.6,1.5-0.9,2.5-1.5c17.8,10.2,29.8,21.3,41.5,37.9
						C86,459.9,85.5,460.2,84.5,460.9z"/>
				</g>
			</g>
		</g>
	</g>
</g>
</svg>
