<?xml version="1.0" encoding="utf-8"?>
<!-- Generator: Adobe Illustrator 20.0.0, SVG Export Plug-In . SVG Version: 6.00 Build 0)  -->
<svg version="1.1" xmlns="http://www.w3.org/2000/svg" xmlns:xlink="http://www.w3.org/1999/xlink" x="0px" y="0px"
	 viewBox="0 0 46 46" style="enable-background:new 0 0 46 46;" xml:space="preserve">
<style type="text/css">
	.st0{fill:#FFFFFF;stroke:#56565A;stroke-miterlimit:10;}
	.st1{fill:#425FA1;}
	.st2{fill:#FFFFFF;}
	.st3{fill:#A7A9AC;}
	.st4{fill:#50ABF1;}
	.st5{fill:#DC6553;}
	.st6{fill:#56565A;}
	.st7{fill:none;}
	.st8{fill:#E8C51E;}
	.st9{fill:#FAA31E;}
	.st10{fill:#A9AE37;}
	.st11{fill:#B3282D;}
</style>
<g id="outline">
	<g>
		<g id="Layer_4_copy_9_">
			<g>
				<rect class="st3" width="46" height="46"/>
			</g>
		</g>
		<g id="Layer_4_copy_8_">
			<g>
				<rect x="2" y="2" class="st2" width="42" height="42"/>
			</g>
		</g>
	</g>
	<g id="Official_copy_2_1_">
		<g>
			<path class="st5" d="M27.4,11.2c0,0-6.1,0-8.2,0c-3.7,0-7.3,2.6-7.3,5.9c0,3.3,2.5,6,6.3,6c0.3,0,0.5-0.1,0.8-0.1
				c-0.2,0.5-0.4,1-0.4,1.5c0,0.9,0.5,1.7,1.1,2.3c-0.5,0-0.9,0-1.4,0c-4.6,0-8.2,2.9-8.2,6c0,3,3.9,4.9,8.5,4.9c5.3,0,8.2-3,8.2-6
				c0-2.4-0.7-3.9-2.9-5.4c-0.8-0.5-2.2-1.8-2.2-2.6c0-0.9,0.3-1.3,1.6-2.4c1.4-1.1,2.4-2.4,2.4-4.1c0-2.1-0.9-4.6-2.7-4.6h3
				L27.4,11.2z M24.7,31.1c0.1,0.3,0.1,0.6,0.1,0.9c0,2.4-1.6,4.3-6.1,4.3c-3.2,0-5.5-2-5.5-4.5c0-2.4,2.9-4.4,6.1-4.3
				c0.7,0,1.4,0.1,2.1,0.3C23.1,29.1,24.4,29.8,24.7,31.1z M19.6,22.1c-2.1-0.1-4.2-2.4-4.6-5.2c-0.4-2.8,1.1-5,3.2-4.9
				c2.1,0.1,4.2,2.3,4.6,5.1C23.2,19.9,21.7,22.1,19.6,22.1z"/>
			<polygon class="st5" points="34.1,21.8 34.1,17.8 31.4,17.8 31.4,21.8 27.4,21.8 27.4,24.4 31.4,24.4 31.4,28.4 34.1,28.4 
				34.1,24.4 38,24.4 38,21.8 			"/>
		</g>
	</g>
</g>
<g id="icon">
	<g id="Doc_icon">
	</g>
	<g id="PDF_icon">
	</g>
	<g id="JPG_icon">
	</g>
</g>
</svg>
