<?xml version="1.0" encoding="utf-8"?>
<!-- Generator: Adobe Illustrator 20.0.0, SVG Export Plug-In . SVG Version: 6.00 Build 0)  -->
<svg version="1.1" xmlns="http://www.w3.org/2000/svg" xmlns:xlink="http://www.w3.org/1999/xlink" x="0px" y="0px"
	 viewBox="0 0 46 46" style="enable-background:new 0 0 46 46;" xml:space="preserve">
<style type="text/css">
	.st0{fill:#FFFFFF;stroke:#56565A;stroke-miterlimit:10;}
	.st1{fill:#425FA1;}
	.st2{fill:#FFFFFF;}
	.st3{fill:#A7A9AC;}
	.st4{fill:#50ABF1;}
	.st5{fill:#DC6553;}
	.st6{fill:#56565A;}
	.st7{fill:none;}
	.st8{fill:#E8C51E;}
	.st9{fill:#FAA31E;}
	.st10{fill:#A9AE37;}
	.st11{fill:#B3282D;}
</style>
<g id="outline">
	<g id="Layer_4_copy_1_">
		<g>
			<rect class="st4" width="46" height="46"/>
		</g>
	</g>
	<g id="Official_copy_3_74_">
		<path class="st2" d="M28,12.1c-2.5,0.9-4,3.2-3.8,5.7l0.1,1l-1-0.1c-3.6-0.5-6.7-2-9.3-4.6l-1.3-1.3l-0.3,1
			c-0.7,2.1-0.3,4.4,1.2,5.9c0.8,0.8,0.6,1-0.7,0.5c-0.5-0.2-0.9-0.3-0.9-0.2c-0.1,0.1,0.3,1.9,0.7,2.7c0.5,1,1.5,2,2.7,2.5l1,0.5
			l-1.1,0c-1.1,0-1.1,0-1,0.4c0.4,1.3,1.9,2.7,3.7,3.3l1.2,0.4l-1.1,0.6c-1.6,0.9-3.4,1.4-5.3,1.5c-0.9,0-1.6,0.1-1.6,0.2
			c0,0.2,2.4,1.3,3.8,1.7c4.2,1.3,9.1,0.7,12.9-1.5c2.6-1.6,5.3-4.7,6.5-7.7c0.7-1.6,1.3-4.5,1.3-5.9c0-0.9,0.1-1,1.2-2.1
			c0.6-0.6,1.3-1.3,1.4-1.5c0.2-0.4,0.2-0.4-0.8,0c-1.7,0.6-1.9,0.5-1.1-0.4c0.6-0.6,1.3-1.8,1.3-2.1c0-0.1-0.3,0-0.6,0.2
			c-0.4,0.2-1.1,0.5-1.7,0.7l-1.1,0.3l-1-0.7c-0.5-0.4-1.3-0.8-1.7-0.9C30.5,11.8,28.9,11.8,28,12.1z"/>
	</g>
</g>
<g id="icon">
	<g id="Doc_icon">
	</g>
	<g id="PDF_icon">
	</g>
	<g id="JPG_icon">
	</g>
</g>
</svg>
