<?xml version="1.0" encoding="utf-8"?>
<!-- Generator: Adobe Illustrator 20.0.0, SVG Export Plug-In . SVG Version: 6.00 Build 0)  -->
<svg version="1.1" xmlns="http://www.w3.org/2000/svg" xmlns:xlink="http://www.w3.org/1999/xlink" x="0px" y="0px"
	 viewBox="0 0 46 46" style="enable-background:new 0 0 46 46;" xml:space="preserve">
<style type="text/css">
	.st0{fill:#FFFFFF;stroke:#56565A;stroke-miterlimit:10;}
	.st1{fill:#425FA1;}
	.st2{fill:#FFFFFF;}
	.st3{fill:#A7A9AC;}
	.st4{fill:#50ABF1;}
	.st5{fill:#DC6553;}
	.st6{fill:#56565A;}
	.st7{fill:none;}
	.st8{fill:#E8C51E;}
	.st9{fill:#FAA31E;}
	.st10{fill:#A9AE37;}
	.st11{fill:#B3282D;}
</style>
<g id="outline">
	<g id="Layer_4_copy_3_">
		<g>
			<rect class="st1" width="46" height="46"/>
		</g>
	</g>
	<g id="Official_copy_3_73_">
		<path class="st2" d="M37.3,34.2v-9.3c0-5-2.7-7.3-6.2-7.3c-2.9,0-4.2,1.6-4.9,2.7v-2.3h-5.4c0.1,1.5,0,16.3,0,16.3h5.4v-9.1
			c0-0.5,0-1,0.2-1.3c0.4-1,1.3-2,2.8-2c2,0,2.7,1.5,2.7,3.7v8.7L37.3,34.2L37.3,34.2z M15.1,15.7c1.9,0,3.1-1.2,3.1-2.8
			c0-1.6-1.2-2.8-3-2.8s-3.1,1.2-3.1,2.8C12.1,14.4,13.3,15.7,15.1,15.7L15.1,15.7z M17.8,34.2V17.9h-5.4v16.3H17.8z"/>
	</g>
</g>
<g id="icon">
	<g id="Doc_icon">
	</g>
	<g id="PDF_icon">
	</g>
	<g id="JPG_icon">
	</g>
</g>
</svg>
