<?xml version="1.0" encoding="utf-8"?>
<!-- Generator: Adobe Illustrator 20.0.0, SVG Export Plug-In . SVG Version: 6.00 Build 0)  -->
<svg version="1.1" id="Layer_1" xmlns="http://www.w3.org/2000/svg" xmlns:xlink="http://www.w3.org/1999/xlink" x="0px" y="0px"
	 viewBox="0 0 225 67.8" style="enable-background:new 0 0 225 67.8;" xml:space="preserve">
<style type="text/css">
	.st0{fill-rule:evenodd;clip-rule:evenodd;fill:#FFFFFF;}
	.st1{fill-rule:evenodd;clip-rule:evenodd;fill:none;}
</style>
<path class="st0" d="M21.3,41.4c0,1.7,0,6.6,0.1,7.1c0.1,0.8,0.5,1.2,1.3,1.2h2.6c0.3,0,0.3,0.1,0.3,0.3v0.9c0,0.2,0,0.3-0.4,0.3
	c-0.6,0-1.8-0.1-5.6-0.1c-3.5,0-5.1,0.1-5.5,0.1c-0.3,0-0.3-0.1-0.3-0.3v-0.9c0-0.2,0-0.3,0.2-0.3h1.7c1.4,0,1.6-0.2,1.8-1.2
	c0-0.4,0.2-6,0.2-10.2v-4.2c0-2.4,0-6.3-0.1-6.7c-0.1-0.7-0.5-0.8-1.6-0.8h-2.3c-0.2,0-0.2-0.1-0.2-0.3v-0.9c0-0.2,0-0.3,0.2-0.3
	c0.4,0,1.9,0.1,5.7,0.1c0.7,0,3.1-0.1,4.4-0.1c4.5,0,6.6,0.4,8.9,1.8c1.9,1.2,3,3.2,3,5.2c0,4.6-3.8,7.4-10.2,7.4
	c-1.5,0-3.1,0-4.4-0.2V41.4z M21.3,38.2c0.8,0.2,2.1,0.3,3.7,0.3c2.4,0,4.6-1.2,5.6-2.5c0.9-1,1-2.4,1-3.6c0-4.7-4.9-6-7.2-6
	c-0.7,0-2.3,0-3.1,0.3V38.2z"/>
<path class="st0" d="M37.3,41.4c0-1.8-0.3-2.2-1.4-2.7l-0.8-0.4c-0.2-0.1-0.3-0.1-0.3-0.3v-0.2c0-0.1,0.1-0.2,0.3-0.3l4-1.8
	c0.2-0.1,0.4-0.1,0.6-0.1c0.2,0,0.3,0.2,0.3,0.4l0.2,2.5h0.2c1.2-1.7,3.1-3.1,4.8-3.1c1.4,0,2,0.8,2,1.6c0,1-1,1.8-1.7,1.8
	c-0.4,0-0.8-0.1-1.2-0.3C44,38.1,43.5,38,43,38c-0.6,0-1.7,0.4-2.4,1.5c-0.2,0.4-0.4,1-0.4,1.2v7.6c0,1.1,0.3,1.5,1.1,1.5h1.9
	c0.2,0,0.3,0.1,0.3,0.3v0.6c0,0.2,0,0.3-0.2,0.3c-0.2,0-2.1-0.1-4.2-0.1c-2.5,0-4.2,0.1-4.4,0.1c-0.2,0-0.2-0.1-0.2-0.4v-0.6
	c0-0.3,0.1-0.3,0.4-0.3h1.6c0.6,0,0.9-0.2,0.9-0.7c0-1.2,0-2.5,0-4.3V41.4z"/>
<path class="st0" d="M48.7,48.9c-1.8-2-2.2-3.3-2.2-5.9c0-1.8,1.1-4.2,3.4-5.8c2.1-1.4,4-1.7,5.4-1.7c2.2,0,4.4,1,5.6,2.1
	c1.8,1.7,2.7,3.5,2.7,5.9c0,3.9-3.9,7.9-8.8,7.9C52.9,51.4,50.4,50.7,48.7,48.9 M60.3,43.1c0-4-3.2-6.5-5.3-6.5
	c-1.1,0-2.1,0.2-3.1,1.2c-1.6,1.4-2.1,2.9-2.1,5.7c0,2,0.2,3.4,1.5,5.1c0.9,1.2,2.1,1.9,4,1.9C58.3,50.3,60.3,47,60.3,43.1"/>
<path class="st0" d="M67.4,37.6h-2.7c-0.2,0-0.3-0.1-0.3-0.4l0.2-1.1c0-0.2,0.2-0.3,0.5-0.3h2.3v-0.6c0-3.6,1.3-5.7,3-7.4
	c2.2-2.2,5.2-3,7.2-3c2.2,0,4,1.2,4,2.5c0,1.2-1,1.8-1.9,1.8c-0.9,0-1.6-0.4-2.4-1.4c-0.5-0.6-1.1-1.1-2-1.1c-1.1,0-2.2,0.4-3,1.3
	c-1.9,1.8-2,4.8-2,7.3v0.7H76c1.5,0,3-0.3,4.4-0.5c0.4-0.1,0.6-0.1,0.8-0.1c0.3,0,0.3,0.2,0.2,0.4c-0.1,0.6-0.1,2.9-0.1,6.1v3.9
	c0,1.4,0,2.7,0,3.1c0,0.6,0.2,0.9,0.8,0.9h1.7c0.3,0,0.4,0.1,0.4,0.3v0.6c0,0.2-0.1,0.3-0.3,0.3c-0.3,0-1.3-0.1-3.8-0.1
	c-2.4,0-3.5,0.1-3.9,0.1c-0.2,0-0.3-0.1-0.3-0.3v-0.7c0-0.2,0.1-0.3,0.4-0.3h1.6c0.4,0,0.6-0.2,0.6-0.8v-3.2v-5.4
	c0-2.1-0.5-2.7-3.4-2.7h-4.9v3.2c0,4.3,0,7.6,0.1,8c0,0.5,0.1,0.9,0.7,0.9h1.8c0.3,0,0.4,0.1,0.4,0.3v0.6c0,0.2-0.1,0.4-0.2,0.4
	c-0.2,0-1.4-0.1-4-0.1c-2.7,0-4.2,0.1-4.6,0.1c-0.2,0-0.3-0.1-0.3-0.3V50c0-0.2,0.1-0.3,0.4-0.3h2.1c0.6,0,0.8-0.4,0.8-1.3v-6.8
	V37.6z"/>
<path class="st0" d="M90.5,46.5c0,2.7,1.4,3.2,2.1,3.2c0.9,0,2.1-0.1,2.6-0.5c0.2-0.1,0.4-0.1,0.5,0.1l0.2,0.3
	c0.1,0.1,0,0.3-0.1,0.4c-0.4,0.4-2,1.4-4.4,1.4c-2,0-3.9-1.7-3.9-3.1c0-1.5,0.1-4.7,0.1-5.2v-0.8c0-0.6,0-3.1,0.1-4.6h-2.4
	c-0.4,0-0.6-0.1-0.6-0.4s0.2-0.4,0.7-0.6c1-0.5,4-3.3,4.6-4.6c0.1-0.3,0.3-0.4,0.6-0.4c0.3,0,0.4,0.3,0.4,0.5l-0.2,3.6h5.6
	c0.2,0,0.4,0.2,0.3,0.3l-0.4,1.3c0,0.2-0.1,0.3-0.4,0.3h-5.2c-0.1,1.7-0.1,3.4-0.1,5.1V46.5z"/>
<path class="st0" d="M100.7,49.6c-0.5-0.3-0.7-0.4-0.9-0.4c-0.2,0-0.4,0.3-0.6,0.6c-0.2,0.4-0.4,0.4-0.7,0.4c-0.2,0-0.4-0.2-0.4-0.6
	c0.2-0.9,0.6-5.5,0.7-6.5c0-0.2,0.1-0.2,0.3-0.2l0.6,0c0.2,0,0.2,0.1,0.2,0.3c0,1.2,0.1,2.4,1.4,4.2c1.2,1.7,3.4,2.7,5.6,2.7
	c2.4,0,5.4-1.3,5.4-4.6c0-3.7-3-5.1-6.2-6.1c-1.2-0.4-4.1-1.3-5.8-2.9c-1.3-1.2-2-2.9-2-5.3c0-1.8,1.2-3.6,2.5-4.6
	c1.4-1.2,3.4-1.7,5.6-1.7c2.3,0,4,0.6,4.7,0.9c0.4,0.2,0.6,0.1,0.8,0l0.5-0.4c0.2-0.1,0.3-0.2,0.5-0.2s0.3,0.3,0.3,0.6
	c0,1.3,0.5,5,0.6,5.7c0,0.2,0,0.3-0.2,0.3l-0.5,0.1c-0.1,0-0.2,0-0.2-0.1c-0.3-1-0.8-2.5-2.5-4c-1.1-1-2.5-1.6-4.4-1.6
	c-3.6,0-4.8,2.4-4.8,4.2c0,1,0.2,2.2,1.2,3.1c1.2,1,3.4,1.8,4.6,2.2c2.8,0.8,5,1.4,6.4,3c1,1.1,1.8,2.5,1.8,4.9
	c0,4.3-2.9,7.9-8.2,7.9C104.3,51.5,102.3,50.8,100.7,49.6"/>
<path class="st0" d="M121.5,46.5c0,2.7,1.4,3.2,2.1,3.2c0.9,0,2.1-0.1,2.6-0.5c0.2-0.1,0.4-0.1,0.5,0.1l0.2,0.3
	c0.1,0.1,0,0.3-0.1,0.4c-0.4,0.4-2,1.4-4.4,1.4c-2,0-3.9-1.7-3.9-3.1c0-1.5,0.1-4.7,0.1-5.2v-0.8c0-0.6,0-3.1,0.1-4.6h-2.4
	c-0.4,0-0.6-0.1-0.6-0.4s0.2-0.4,0.7-0.6c1-0.5,4-3.3,4.6-4.6c0.1-0.3,0.3-0.4,0.6-0.4c0.3,0,0.4,0.3,0.4,0.5l-0.2,3.6h5.6
	c0.2,0,0.4,0.2,0.3,0.3l-0.4,1.3c0,0.2-0.1,0.3-0.4,0.3h-5.2c-0.1,1.7-0.1,3.4-0.1,5.1V46.5z"/>
<path class="st0" d="M140.1,46.7c0,2.1,0.5,2.7,1.2,2.7c0.6,0,1.2-0.3,1.4-0.5c0.2-0.2,0.2-0.3,0.4-0.1l0.4,0.3
	c0.1,0.1,0.2,0.3,0,0.7c-0.3,0.5-1.1,1.8-3.1,1.8c-1.4,0-2.5-0.9-2.8-2.4h-0.1c-0.8,0.9-2.2,1.7-4,2.2c-0.8,0.2-1.5,0.2-2.4,0.2
	c-1,0-2.4-0.7-2.4-3c0-1.7,0.8-3.1,4-4.4c1.8-0.7,3.9-1.6,4.5-2.1v-2.3c-0.1-0.6-0.1-1.6-0.6-2c-0.4-0.5-1.2-0.8-2.4-0.8
	c-0.8,0-2,0.3-2.6,0.8c-0.6,0.5-0.2,1-0.2,1.7c0,1.3-0.5,2.1-2.1,2.1c-0.6,0-1-0.3-1-1.2c0-1.2,1.1-2.5,2.8-3.4
	c1.7-0.9,3.1-1.3,4.9-1.3c1.9,0,2.6,0.5,3.2,1c0.8,0.8,0.9,1.6,0.9,2.6v5.5V46.7z M137.2,43c-1.4,1-5.4,1.7-5.4,4.7
	c0,1.3,0.9,2,2.1,2c1.2,0,3.3-1.3,3.3-2.2V43z"/>
<path class="st0" d="M146.5,41.4c0-1.8-0.3-2.2-1.4-2.7l-0.8-0.4c-0.2-0.1-0.3-0.1-0.3-0.3v-0.2c0-0.1,0.1-0.2,0.3-0.3l4-1.8
	c0.2-0.1,0.4-0.1,0.6-0.1c0.2,0,0.3,0.2,0.3,0.4l0.2,2.5h0.2c1.2-1.7,3.1-3.1,4.8-3.1c1.4,0,2,0.8,2,1.6c0,1-1,1.8-1.7,1.8
	c-0.4,0-0.8-0.1-1.2-0.3c-0.3-0.2-0.8-0.3-1.3-0.3c-0.6,0-1.7,0.4-2.4,1.5c-0.2,0.4-0.4,1-0.4,1.2v7.6c0,1.1,0.3,1.5,1.1,1.5h1.9
	c0.2,0,0.3,0.1,0.3,0.3v0.6c0,0.2,0,0.3-0.2,0.3c-0.2,0-2.1-0.1-4.2-0.1c-2.5,0-4.2,0.1-4.4,0.1c-0.2,0-0.2-0.1-0.2-0.4v-0.6
	c0-0.3,0.1-0.3,0.4-0.3h1.6c0.6,0,0.9-0.2,0.9-0.7c0-1.2,0-2.5,0-4.3V41.4z"/>
<path class="st0" d="M158.5,50.4c-0.2-0.1-0.2-0.3-0.2-0.5l-0.7-3.4c0-0.2,0.1-0.3,0.2-0.3l0.5-0.1c0.2,0,0.3,0,0.4,0.2l1,1.8
	c0.8,1.3,1.4,2.2,3.5,2.2c1.4,0,3.2-0.8,3.2-2.5c0-1.6-0.9-2.6-3.9-3.3c-2.4-0.6-4.7-1.7-4.7-4.6c0-2.5,2.6-4.4,5.6-4.4
	c1.9,0,3,0.4,3.7,0.8c0.6,0.3,0.7,0.4,0.7,0.6l0.6,2.5c0,0.1-0.1,0.3-0.3,0.3l-0.5,0.1c-0.2,0-0.2,0-0.4-0.2l-1.4-1.7
	c-0.5-0.7-1.2-1.4-2.8-1.4c-1.5,0-3.1,0.8-3.1,2.4c0,2.1,1.9,2.5,3.8,3c2.9,0.8,4.8,1.8,4.8,4.6c0,2.9-2.7,4.8-6.1,4.8
	C160.6,51.4,159,50.7,158.5,50.4"/>
<path class="st0" d="M172.1,33.8c0,1-0.7,1.8-1.9,1.8c-1.2,0-1.9-0.8-1.9-1.8c0-1,0.8-1.8,1.9-1.8C171.3,32,172.1,32.7,172.1,33.8z
	 M171.7,33.8c0-1.1-0.9-1.5-1.5-1.5c-0.9,0-1.5,0.6-1.5,1.5c0,1.2,0.9,1.6,1.5,1.6C171.4,35.3,171.7,34.5,171.7,33.8z M170,34
	c0,0.2,0,0.5,0,0.5c0,0.1,0,0.1,0.1,0.1h0.1c0,0,0,0,0,0v0.1c0,0,0,0,0,0c0,0-0.3,0-0.5,0c-0.1,0-0.4,0-0.4,0c0,0,0,0,0,0v-0.1
	c0,0,0,0,0,0h0.1c0.1,0,0.1,0,0.1-0.2V33c0-0.1,0-0.1-0.1-0.1h-0.1c0,0,0,0,0,0v-0.1c0,0,0,0,0,0c0,0,0.3,0,0.4,0c0.1,0,0.5,0,0.5,0
	c0.3,0,0.6,0.1,0.7,0.2c0.1,0.1,0.1,0.2,0.1,0.4c0,0.4-0.4,0.6-0.5,0.6v0c0,0,0.1,0.1,0.2,0.1c0.1,0.1,0.2,0.3,0.3,0.4
	c0.1,0.1,0.2,0.3,0.2,0.3c0,0.1,0.1,0.1,0.1,0.1c0,0,0,0,0,0v0.1c0,0,0,0,0,0c0,0-0.2,0-0.2,0c-0.1,0-0.3,0-0.3,0
	c0,0-0.1-0.1-0.1-0.2c0,0-0.2-0.3-0.2-0.4c-0.1-0.2-0.2-0.4-0.3-0.4H170V34z M170,33.7L170,33.7c0.5,0,0.5-0.4,0.5-0.5
	c0-0.3-0.3-0.4-0.4-0.4c0,0-0.1,0-0.1,0V33.7z"/>
<path class="st0" d="M185.9,13.5l13-3.6c0,0,1.1-0.3,0.7,0.7l-3.3,5.9c0,0-0.2,0.4-0.7,0.6c-0.4,0.2-0.8,0.3-1.2,0.2
	c-1.2-0.3-9-2.9-9-2.9S184.6,13.9,185.9,13.5"/>
<path class="st0" d="M200.7,34.3l6.4-2c0,0,0.8-0.3,1.1,0c0.2,0.2,0.2,0.3,0,0.7c-0.2,0.3-5.8,11.5-5.8,11.5s-0.3,0.5-0.5,0.4
	c-0.2-0.1-0.3-0.3-0.3-0.4c-0.1-0.2-1.8-8.2-1.8-8.2S199.3,34.9,200.7,34.3"/>
<path class="st0" d="M202.5,16.6l12.2,13c0,0,0.4,0.4,0.4,0.5c0,0.1,0.2,0.5-0.5,0.2c-0.7-0.3-8.1-3.1-8.5-3.3s-1.5-0.6-1.9-1.9
	l-2.3-8.4c0,0-0.1-0.5,0.1-0.5C202.2,16.3,202.5,16.6,202.5,16.6"/>
<path class="st0" d="M180.7,34.7c0,0,6.9-1.7,7.2-1.7c0.7-0.1,1.6,0.1,2.1,0.7c0.7,0.7,6.9,7,6.9,7s0.5,0.4,0.3,0.6
	c-0.1,0.1-0.3,0-0.7-0.1c-0.4-0.1-16-5.7-16.1-5.7c-0.1-0.1-0.4-0.2-0.4-0.4C180.1,34.8,180.6,34.7,180.7,34.7"/>
<path class="st0" d="M180.2,14.1l6.6,7.4c0,0,0.8,0.9,0.4,2.1c0,0-2.8,6.2-2.8,6.2s-0.2,0.6-0.5,0.6c-0.3,0-0.4-0.4-0.4-0.5
	c0-0.1-3.9-15.5-3.9-15.5s-0.1-0.4,0.1-0.5C179.9,13.7,180.2,14.1,180.2,14.1"/>
<rect class="st1" width="225" height="67.8"/>
</svg>
