<?xml version="1.0" encoding="utf-8"?>
<!-- Generator: Adobe Illustrator 20.0.0, SVG Export Plug-In . SVG Version: 6.00 Build 0)  -->
<svg version="1.1" id="Layer_1" xmlns="http://www.w3.org/2000/svg" xmlns:xlink="http://www.w3.org/1999/xlink" x="0px" y="0px"
	 viewBox="0 0 8.2 1450" style="enable-background:new 0 0 8.2 1450;" xml:space="preserve">
<style type="text/css">
	.st0{fill:#FFFFFF;}
	.st1{opacity:0.2;}
</style>
<g>
	<g>
		<g>
			<g>
				<path class="st0" d="M7.3,1.8L7.3,1.8L7.3,1.8C7.5,1.4,7.7,1,7.9,0.5C8,0.4,8,0.2,8.1,0H1.1c-0.5,0.5-0.8,1-1,1.5
					c-0.4,1.2,0.2,3.3,1,4.8c0,0,0,0,0,0l0,0c-0.5,0.5-0.8,1-1,1.5c-0.4,1.2,0.2,3.3,1,4.8h0h6.9C8.4,11,7.7,8.9,7.3,8.1l0,0
					c0.2-0.4,0.5-0.7,0.6-1.2C8.6,5.1,7.8,2.6,7.3,1.8z"/>
				<path class="st1" d="M1.1,12.7C1.1,12.7,1.1,12.7,1.1,12.7C1.1,12.7,1.1,12.7,1.1,12.7h1.3c0.6-0.6,1.3-1.2,2.1-1.6
					c1.5-0.8,2.4-1.8,2.8-3c-1.1,1.7-2.8,2.5-4,3.1c-0.1,0.1-0.3,0.2-0.4,0.2C1.7,11,1.1,8.7,1.5,7.8c0.5-1.3,1.7-2.3,3-3
					C6,4,6.9,2.9,7.3,1.8c-1.1,1.7-2.8,2.5-4,3.1C3.1,4.9,3,5,2.8,5.1C1.7,4.6,1.1,2.3,1.5,1.4C1.7,0.9,2,0.4,2.4,0H1.1
					c-0.5,0.5-0.8,1-1,1.5c-0.4,1.2,0.2,3.3,1,4.8c0,0,0,0,0,0c-0.5,0.5-0.8,1-1,1.5C-0.3,9.1,0.3,11.2,1.1,12.7z"/>
			</g>
			<g>
				<path class="st0" d="M7.3,14.5L7.3,14.5L7.3,14.5c0.2-0.4,0.5-0.8,0.6-1.2C8,13.1,8,12.9,8.1,12.7H1.1c-0.5,0.5-0.8,1-1,1.5
					c-0.4,1.2,0.2,3.3,1,4.8c0,0,0,0,0,0l0,0c-0.5,0.5-0.8,1-1,1.5c-0.4,1.2,0.2,3.3,1,4.8h0h6.9c0.4-1.7-0.3-3.9-0.8-4.6l0,0
					c0.2-0.4,0.5-0.7,0.6-1.2C8.6,17.9,7.8,15.3,7.3,14.5z"/>
				<path class="st1" d="M1.1,25.4C1.1,25.4,1.1,25.4,1.1,25.4C1.1,25.4,1.1,25.4,1.1,25.4h1.3c0.6-0.6,1.3-1.2,2.1-1.6
					C6,23,6.9,22,7.3,20.8c-1.1,1.7-2.8,2.5-4,3.1C3.1,24,3,24.1,2.8,24.2c-1.1-0.5-1.7-2.8-1.3-3.7c0.5-1.3,1.7-2.3,3-3
					c1.5-0.8,2.4-1.8,2.8-3c-1.1,1.7-2.8,2.5-4,3.1c-0.1,0.1-0.3,0.2-0.4,0.2c-1.1-0.5-1.7-2.8-1.4-3.7c0.2-0.5,0.5-1,0.9-1.4H1.1
					c-0.5,0.5-0.8,1-1,1.5c-0.4,1.2,0.2,3.3,1,4.8c0,0,0,0,0,0c-0.5,0.5-0.8,1-1,1.5C-0.3,21.8,0.3,23.9,1.1,25.4z"/>
			</g>
			<g>
				<path class="st0" d="M7.3,27.2L7.3,27.2L7.3,27.2c0.2-0.4,0.5-0.8,0.6-1.2C8,25.8,8,25.6,8.1,25.4H1.1c-0.5,0.5-0.8,1-1,1.5
					c-0.4,1.2,0.2,3.3,1,4.8c0,0,0,0,0,0l0,0c-0.5,0.5-0.8,1-1,1.5c-0.4,1.2,0.2,3.3,1,4.8h0h6.9c0.4-1.7-0.3-3.9-0.8-4.6l0,0
					c0.2-0.4,0.5-0.7,0.6-1.2C8.6,30.6,7.8,28,7.3,27.2z"/>
				<path class="st1" d="M1.1,38.2C1.1,38.2,1.1,38.2,1.1,38.2C1.1,38.2,1.1,38.2,1.1,38.2h1.3C3,37.5,3.7,37,4.5,36.6
					c1.5-0.8,2.4-1.8,2.8-3c-1.1,1.7-2.8,2.5-4,3.1c-0.1,0.1-0.3,0.2-0.4,0.2c-1.1-0.5-1.7-2.8-1.3-3.7c0.5-1.3,1.7-2.3,3-3
					c1.5-0.8,2.4-1.8,2.8-3c-1.1,1.7-2.8,2.5-4,3.1c-0.1,0.1-0.3,0.2-0.4,0.2c-1.1-0.5-1.7-2.8-1.4-3.7c0.2-0.5,0.5-1,0.9-1.4H1.1
					c-0.5,0.5-0.8,1-1,1.5c-0.4,1.2,0.2,3.3,1,4.8c0,0,0,0,0,0c-0.5,0.5-0.8,1-1,1.5C-0.3,34.6,0.3,36.7,1.1,38.2z"/>
			</g>
			<g>
				<path class="st0" d="M7.3,39.9L7.3,39.9L7.3,39.9c0.2-0.4,0.5-0.8,0.6-1.2C8,38.5,8,38.3,8.1,38.2H1.1c-0.5,0.5-0.8,1-1,1.5
					c-0.4,1.2,0.2,3.3,1,4.8c0,0,0,0,0,0l0,0c-0.5,0.5-0.8,1-1,1.5c-0.4,1.2,0.2,3.3,1,4.8h0h6.9c0.4-1.7-0.3-3.9-0.8-4.6l0,0
					c0.2-0.4,0.5-0.7,0.6-1.2C8.6,43.3,7.8,40.7,7.3,39.9z"/>
				<path class="st1" d="M1.1,50.9C1.1,50.9,1.1,50.9,1.1,50.9C1.1,50.9,1.1,50.9,1.1,50.9h1.3c0.6-0.6,1.3-1.2,2.1-1.6
					c1.5-0.8,2.4-1.8,2.8-3c-1.1,1.7-2.8,2.5-4,3.1c-0.1,0.1-0.3,0.2-0.4,0.2c-1.1-0.5-1.7-2.8-1.3-3.7c0.5-1.3,1.7-2.3,3-3
					c1.5-0.8,2.4-1.8,2.8-3c-1.1,1.7-2.8,2.5-4,3.1c-0.1,0.1-0.3,0.2-0.4,0.2c-1.1-0.5-1.7-2.8-1.4-3.7c0.2-0.5,0.5-1,0.9-1.4H1.1
					c-0.5,0.5-0.8,1-1,1.5c-0.4,1.2,0.2,3.3,1,4.8c0,0,0,0,0,0c-0.5,0.5-0.8,1-1,1.5C-0.3,47.3,0.3,49.4,1.1,50.9z"/>
			</g>
			<g>
				<path class="st0" d="M7.3,52.6L7.3,52.6L7.3,52.6c0.2-0.4,0.5-0.8,0.6-1.2C8,51.3,8,51.1,8.1,50.9H1.1c-0.5,0.5-0.8,1-1,1.5
					c-0.4,1.2,0.2,3.3,1,4.8c0,0,0,0,0,0l0,0c-0.5,0.5-0.8,1-1,1.5c-0.4,1.2,0.2,3.3,1,4.8h0h6.9c0.4-1.7-0.3-3.9-0.8-4.6l0,0
					c0.2-0.4,0.5-0.7,0.6-1.2C8.6,56,7.8,53.5,7.3,52.6z"/>
				<path class="st1" d="M1.1,63.6C1.1,63.6,1.1,63.6,1.1,63.6C1.1,63.6,1.1,63.6,1.1,63.6h1.3C3,63,3.7,62.4,4.5,62
					c1.5-0.8,2.4-1.8,2.8-3c-1.1,1.7-2.8,2.5-4,3.1c-0.1,0.1-0.3,0.2-0.4,0.2c-1.1-0.5-1.7-2.8-1.3-3.7c0.5-1.3,1.7-2.3,3-3
					c1.5-0.8,2.4-1.8,2.8-3c-1.1,1.7-2.8,2.5-4,3.1C3.1,55.8,3,55.9,2.8,56c-1.1-0.5-1.7-2.8-1.4-3.7c0.2-0.5,0.5-1,0.9-1.4H1.1
					c-0.5,0.5-0.8,1-1,1.5c-0.4,1.2,0.2,3.3,1,4.8c0,0,0,0,0,0c-0.5,0.5-0.8,1-1,1.5C-0.3,60,0.3,62.1,1.1,63.6z"/>
			</g>
			<g>
				<path class="st0" d="M7.3,65.4L7.3,65.4L7.3,65.4c0.2-0.4,0.5-0.8,0.6-1.2C8,64,8,63.8,8.1,63.6H1.1c-0.5,0.5-0.8,1-1,1.5
					c-0.4,1.2,0.2,3.3,1,4.8c0,0,0,0,0,0l0,0c-0.5,0.5-0.8,1-1,1.5c-0.4,1.2,0.2,3.3,1,4.8h0h6.9c0.4-1.7-0.3-3.9-0.8-4.6l0,0
					c0.2-0.4,0.5-0.7,0.6-1.2C8.6,68.7,7.8,66.2,7.3,65.4z"/>
				<path class="st1" d="M1.1,76.3C1.1,76.3,1.1,76.3,1.1,76.3C1.1,76.3,1.1,76.3,1.1,76.3h1.3c0.6-0.6,1.3-1.2,2.1-1.6
					c1.5-0.8,2.4-1.8,2.8-3c-1.1,1.7-2.8,2.5-4,3.1C3.1,74.9,3,75,2.8,75.1c-1.1-0.5-1.7-2.8-1.3-3.7c0.5-1.3,1.7-2.3,3-3
					c1.5-0.8,2.4-1.8,2.8-3c-1.1,1.7-2.8,2.5-4,3.1c-0.1,0.1-0.3,0.2-0.4,0.2c-1.1-0.5-1.7-2.8-1.4-3.7c0.2-0.5,0.5-1,0.9-1.4H1.1
					c-0.5,0.5-0.8,1-1,1.5c-0.4,1.2,0.2,3.3,1,4.8c0,0,0,0,0,0c-0.5,0.5-0.8,1-1,1.5C-0.3,72.7,0.3,74.8,1.1,76.3z"/>
			</g>
			<g>
				<path class="st0" d="M7.3,78.1L7.3,78.1L7.3,78.1c0.2-0.4,0.5-0.8,0.6-1.2C8,76.7,8,76.5,8.1,76.3H1.1c-0.5,0.5-0.8,1-1,1.5
					c-0.4,1.2,0.2,3.3,1,4.8c0,0,0,0,0,0l0,0c-0.5,0.5-0.8,1-1,1.5c-0.4,1.2,0.2,3.3,1,4.8h0h6.9c0.4-1.7-0.3-3.9-0.8-4.6l0,0
					c0.2-0.4,0.5-0.7,0.6-1.2C8.6,81.5,7.8,78.9,7.3,78.1z"/>
				<path class="st1" d="M1.1,89C1.1,89,1.1,89,1.1,89C1.1,89,1.1,89,1.1,89h1.3c0.6-0.6,1.3-1.2,2.1-1.6c1.5-0.8,2.4-1.8,2.8-3
					c-1.1,1.7-2.8,2.5-4,3.1c-0.1,0.1-0.3,0.2-0.4,0.2c-1.1-0.5-1.7-2.8-1.3-3.7c0.5-1.3,1.7-2.3,3-3c1.5-0.8,2.4-1.8,2.8-3
					c-1.1,1.7-2.8,2.5-4,3.1c-0.1,0.1-0.3,0.2-0.4,0.2c-1.1-0.5-1.7-2.8-1.4-3.7c0.2-0.5,0.5-1,0.9-1.4H1.1c-0.5,0.5-0.8,1-1,1.5
					c-0.4,1.2,0.2,3.3,1,4.8c0,0,0,0,0,0c-0.5,0.5-0.8,1-1,1.5C-0.3,85.4,0.3,87.5,1.1,89z"/>
			</g>
			<g>
				<path class="st0" d="M7.3,90.8L7.3,90.8L7.3,90.8c0.2-0.4,0.5-0.8,0.6-1.2C8,89.4,8,89.2,8.1,89H1.1c-0.5,0.5-0.8,1-1,1.5
					c-0.4,1.2,0.2,3.3,1,4.8c0,0,0,0,0,0l0,0c-0.5,0.5-0.8,1-1,1.5c-0.4,1.2,0.2,3.3,1,4.8h0h6.9c0.4-1.7-0.3-3.9-0.8-4.6l0,0
					c0.2-0.4,0.5-0.7,0.6-1.2C8.6,94.2,7.8,91.6,7.3,90.8z"/>
				<path class="st1" d="M1.1,101.8C1.1,101.8,1.1,101.8,1.1,101.8C1.1,101.8,1.1,101.8,1.1,101.8h1.3c0.6-0.6,1.3-1.2,2.1-1.6
					c1.5-0.8,2.4-1.8,2.8-3c-1.1,1.7-2.8,2.5-4,3.1c-0.1,0.1-0.3,0.2-0.4,0.2c-1.1-0.5-1.7-2.8-1.3-3.7c0.5-1.3,1.7-2.3,3-3
					c1.5-0.8,2.4-1.8,2.8-3c-1.1,1.7-2.8,2.5-4,3.1C3.1,94,3,94.1,2.8,94.1c-1.1-0.5-1.7-2.8-1.4-3.7C1.7,90,2,89.5,2.4,89H1.1
					c-0.5,0.5-0.8,1-1,1.5c-0.4,1.2,0.2,3.3,1,4.8c0,0,0,0,0,0c-0.5,0.5-0.8,1-1,1.5C-0.3,98.2,0.3,100.3,1.1,101.8z"/>
			</g>
			<g>
				<path class="st0" d="M7.3,103.5L7.3,103.5L7.3,103.5c0.2-0.4,0.5-0.8,0.6-1.2c0.1-0.2,0.1-0.4,0.2-0.5H1.1c-0.5,0.5-0.8,1-1,1.5
					c-0.4,1.2,0.2,3.3,1,4.8c0,0,0,0,0,0l0,0c-0.5,0.5-0.8,1-1,1.5c-0.4,1.2,0.2,3.3,1,4.8h0h6.9c0.4-1.7-0.3-3.9-0.8-4.6l0,0
					c0.2-0.4,0.5-0.7,0.6-1.2C8.6,106.9,7.8,104.3,7.3,103.5z"/>
				<path class="st1" d="M1.1,114.5C1.1,114.5,1.1,114.5,1.1,114.5C1.1,114.5,1.1,114.5,1.1,114.5h1.3c0.6-0.6,1.3-1.2,2.1-1.6
					c1.5-0.8,2.4-1.8,2.8-3c-1.1,1.7-2.8,2.5-4,3.1c-0.1,0.1-0.3,0.2-0.4,0.2c-1.1-0.5-1.7-2.8-1.3-3.7c0.5-1.3,1.7-2.3,3-3
					c1.5-0.8,2.4-1.8,2.8-3c-1.1,1.7-2.8,2.5-4,3.1c-0.1,0.1-0.3,0.2-0.4,0.2c-1.1-0.5-1.7-2.8-1.4-3.7c0.2-0.5,0.5-1,0.9-1.4H1.1
					c-0.5,0.5-0.8,1-1,1.5c-0.4,1.2,0.2,3.3,1,4.8c0,0,0,0,0,0c-0.5,0.5-0.8,1-1,1.5C-0.3,110.9,0.3,113,1.1,114.5z"/>
			</g>
			<g>
				<path class="st0" d="M7.3,116.2L7.3,116.2L7.3,116.2c0.2-0.4,0.5-0.8,0.6-1.2c0.1-0.2,0.1-0.4,0.2-0.5H1.1c-0.5,0.5-0.8,1-1,1.5
					c-0.4,1.2,0.2,3.3,1,4.8c0,0,0,0,0,0l0,0c-0.5,0.5-0.8,1-1,1.5c-0.4,1.2,0.2,3.3,1,4.8h0h6.9c0.4-1.7-0.3-3.9-0.8-4.6l0,0
					c0.2-0.4,0.5-0.7,0.6-1.2C8.6,119.6,7.8,117.1,7.3,116.2z"/>
				<path class="st1" d="M1.1,127.2C1.1,127.2,1.1,127.2,1.1,127.2C1.1,127.2,1.1,127.2,1.1,127.2h1.3c0.6-0.6,1.3-1.2,2.1-1.6
					c1.5-0.8,2.4-1.8,2.8-3c-1.1,1.7-2.8,2.5-4,3.1c-0.1,0.1-0.3,0.2-0.4,0.2c-1.1-0.5-1.7-2.8-1.3-3.7c0.5-1.3,1.7-2.3,3-3
					c1.5-0.8,2.4-1.8,2.8-3c-1.1,1.7-2.8,2.5-4,3.1c-0.1,0.1-0.3,0.2-0.4,0.2c-1.1-0.5-1.7-2.8-1.4-3.7c0.2-0.5,0.5-1,0.9-1.4H1.1
					c-0.5,0.5-0.8,1-1,1.5c-0.4,1.2,0.2,3.3,1,4.8c0,0,0,0,0,0c-0.5,0.5-0.8,1-1,1.5C-0.3,123.6,0.3,125.7,1.1,127.2z"/>
			</g>
			<g>
				<path class="st0" d="M7.3,129L7.3,129L7.3,129c0.2-0.4,0.5-0.8,0.6-1.2c0.1-0.2,0.1-0.4,0.2-0.5H1.1c-0.5,0.5-0.8,1-1,1.5
					c-0.4,1.2,0.2,3.3,1,4.8c0,0,0,0,0,0l0,0c-0.5,0.5-0.8,1-1,1.5c-0.4,1.2,0.2,3.3,1,4.8h0h6.9c0.4-1.7-0.3-3.9-0.8-4.6l0,0
					c0.2-0.4,0.5-0.7,0.6-1.2C8.6,132.3,7.8,129.8,7.3,129z"/>
				<path class="st1" d="M1.1,139.9C1.1,139.9,1.1,139.9,1.1,139.9C1.1,139.9,1.1,139.9,1.1,139.9h1.3c0.6-0.6,1.3-1.2,2.1-1.6
					c1.5-0.8,2.4-1.8,2.8-3c-1.1,1.7-2.8,2.5-4,3.1c-0.1,0.1-0.3,0.2-0.4,0.2c-1.1-0.5-1.7-2.8-1.3-3.7c0.5-1.3,1.7-2.3,3-3
					c1.5-0.8,2.4-1.8,2.8-3c-1.1,1.7-2.8,2.5-4,3.1c-0.1,0.1-0.3,0.2-0.4,0.2c-1.1-0.5-1.7-2.8-1.4-3.7c0.2-0.5,0.5-1,0.9-1.4H1.1
					c-0.5,0.5-0.8,1-1,1.5c-0.4,1.2,0.2,3.3,1,4.8c0,0,0,0,0,0c-0.5,0.5-0.8,1-1,1.5C-0.3,136.3,0.3,138.4,1.1,139.9z"/>
			</g>
			<g>
				<path class="st0" d="M7.3,141.7L7.3,141.7L7.3,141.7c0.2-0.4,0.5-0.8,0.6-1.2c0.1-0.2,0.1-0.4,0.2-0.5H1.1c-0.5,0.5-0.8,1-1,1.5
					c-0.4,1.2,0.2,3.3,1,4.8c0,0,0,0,0,0l0,0c-0.5,0.5-0.8,1-1,1.5c-0.4,1.2,0.2,3.3,1,4.8h0h6.9c0.4-1.7-0.3-3.9-0.8-4.6l0,0
					c0.2-0.4,0.5-0.7,0.6-1.2C8.6,145.1,7.8,142.5,7.3,141.7z"/>
				<path class="st1" d="M1.1,152.6C1.1,152.6,1.1,152.6,1.1,152.6C1.1,152.6,1.1,152.6,1.1,152.6h1.3c0.6-0.6,1.3-1.2,2.1-1.6
					c1.5-0.8,2.4-1.8,2.8-3c-1.1,1.7-2.8,2.5-4,3.1c-0.1,0.1-0.3,0.2-0.4,0.2c-1.1-0.5-1.7-2.8-1.3-3.7c0.5-1.3,1.7-2.3,3-3
					c1.5-0.8,2.4-1.8,2.8-3c-1.1,1.7-2.8,2.5-4,3.1c-0.1,0.1-0.3,0.2-0.4,0.2c-1.1-0.5-1.7-2.8-1.4-3.7c0.2-0.5,0.5-1,0.9-1.4H1.1
					c-0.5,0.5-0.8,1-1,1.5c-0.4,1.2,0.2,3.3,1,4.8c0,0,0,0,0,0c-0.5,0.5-0.8,1-1,1.5C-0.3,149,0.3,151.1,1.1,152.6z"/>
			</g>
			<g>
				<path class="st0" d="M7.3,154.4L7.3,154.4L7.3,154.4c0.2-0.4,0.5-0.8,0.6-1.2c0.1-0.2,0.1-0.4,0.2-0.5H1.1c-0.5,0.5-0.8,1-1,1.5
					c-0.4,1.2,0.2,3.3,1,4.8c0,0,0,0,0,0l0,0c-0.5,0.5-0.8,1-1,1.5c-0.4,1.2,0.2,3.3,1,4.8h0h6.9c0.4-1.7-0.3-3.9-0.8-4.6l0,0
					c0.2-0.4,0.5-0.7,0.6-1.2C8.6,157.8,7.8,155.2,7.3,154.4z"/>
				<path class="st1" d="M1.1,165.4C1.1,165.4,1.1,165.4,1.1,165.4C1.1,165.4,1.1,165.4,1.1,165.4h1.3c0.6-0.6,1.3-1.2,2.1-1.6
					c1.5-0.8,2.4-1.8,2.8-3c-1.1,1.7-2.8,2.5-4,3.1c-0.1,0.1-0.3,0.2-0.4,0.2c-1.1-0.5-1.7-2.8-1.3-3.7c0.5-1.3,1.7-2.3,3-3
					c1.5-0.8,2.4-1.8,2.8-3c-1.1,1.7-2.8,2.5-4,3.1c-0.1,0.1-0.3,0.2-0.4,0.2c-1.1-0.5-1.7-2.8-1.4-3.7c0.2-0.5,0.5-1,0.9-1.4H1.1
					c-0.5,0.5-0.8,1-1,1.5c-0.4,1.2,0.2,3.3,1,4.8c0,0,0,0,0,0c-0.5,0.5-0.8,1-1,1.5C-0.3,161.8,0.3,163.9,1.1,165.4z"/>
			</g>
			<g>
				<path class="st0" d="M7.3,167.1L7.3,167.1L7.3,167.1c0.2-0.4,0.5-0.8,0.6-1.2c0.1-0.2,0.1-0.4,0.2-0.5H1.1c-0.5,0.5-0.8,1-1,1.5
					c-0.4,1.2,0.2,3.3,1,4.8c0,0,0,0,0,0l0,0c-0.5,0.5-0.8,1-1,1.5c-0.4,1.2,0.2,3.3,1,4.8h0h6.9c0.4-1.7-0.3-3.9-0.8-4.6l0,0
					c0.2-0.4,0.5-0.7,0.6-1.2C8.6,170.5,7.8,167.9,7.3,167.1z"/>
				<path class="st1" d="M1.1,178.1C1.1,178.1,1.1,178.1,1.1,178.1C1.1,178.1,1.1,178.1,1.1,178.1h1.3c0.6-0.6,1.3-1.2,2.1-1.6
					c1.5-0.8,2.4-1.8,2.8-3c-1.1,1.7-2.8,2.5-4,3.1c-0.1,0.1-0.3,0.2-0.4,0.2c-1.1-0.5-1.7-2.8-1.3-3.7c0.5-1.3,1.7-2.3,3-3
					c1.5-0.8,2.4-1.8,2.8-3c-1.1,1.7-2.8,2.5-4,3.1c-0.1,0.1-0.3,0.2-0.4,0.2c-1.1-0.5-1.7-2.8-1.4-3.7c0.2-0.5,0.5-1,0.9-1.4H1.1
					c-0.5,0.5-0.8,1-1,1.5c-0.4,1.2,0.2,3.3,1,4.8c0,0,0,0,0,0c-0.5,0.5-0.8,1-1,1.5C-0.3,174.5,0.3,176.6,1.1,178.1z"/>
			</g>
			<g>
				<path class="st0" d="M7.3,179.8L7.3,179.8L7.3,179.8c0.2-0.4,0.5-0.8,0.6-1.2c0.1-0.2,0.1-0.4,0.2-0.5H1.1c-0.5,0.5-0.8,1-1,1.5
					c-0.4,1.2,0.2,3.3,1,4.8c0,0,0,0,0,0l0,0c-0.5,0.5-0.8,1-1,1.5c-0.4,1.2,0.2,3.3,1,4.8h0h6.9c0.4-1.7-0.3-3.9-0.8-4.6l0,0
					c0.2-0.4,0.5-0.7,0.6-1.2C8.6,183.2,7.8,180.7,7.3,179.8z"/>
				<path class="st1" d="M1.1,190.8C1.1,190.8,1.1,190.8,1.1,190.8C1.1,190.8,1.1,190.8,1.1,190.8h1.3c0.6-0.6,1.3-1.2,2.1-1.6
					c1.5-0.8,2.4-1.8,2.8-3c-1.1,1.7-2.8,2.5-4,3.1c-0.1,0.1-0.3,0.2-0.4,0.2c-1.1-0.5-1.7-2.8-1.3-3.7c0.5-1.3,1.7-2.3,3-3
					c1.5-0.8,2.4-1.8,2.8-3c-1.1,1.7-2.8,2.5-4,3.1c-0.1,0.1-0.3,0.2-0.4,0.2c-1.1-0.5-1.7-2.8-1.4-3.7c0.2-0.5,0.5-1,0.9-1.4H1.1
					c-0.5,0.5-0.8,1-1,1.5c-0.4,1.2,0.2,3.3,1,4.8c0,0,0,0,0,0c-0.5,0.5-0.8,1-1,1.5C-0.3,187.2,0.3,189.3,1.1,190.8z"/>
			</g>
			<g>
				<path class="st0" d="M7.3,192.6L7.3,192.6L7.3,192.6c0.2-0.4,0.5-0.8,0.6-1.2c0.1-0.2,0.1-0.4,0.2-0.5H1.1c-0.5,0.5-0.8,1-1,1.5
					c-0.4,1.2,0.2,3.3,1,4.8c0,0,0,0,0,0l0,0c-0.5,0.5-0.8,1-1,1.5c-0.4,1.2,0.2,3.3,1,4.8h0h6.9c0.4-1.7-0.3-3.9-0.8-4.6l0,0
					c0.2-0.4,0.5-0.7,0.6-1.2C8.6,195.9,7.8,193.4,7.3,192.6z"/>
				<path class="st1" d="M1.1,203.5C1.1,203.5,1.1,203.5,1.1,203.5C1.1,203.5,1.1,203.5,1.1,203.5h1.3c0.6-0.6,1.3-1.2,2.1-1.6
					c1.5-0.8,2.4-1.8,2.8-3c-1.1,1.7-2.8,2.5-4,3.1c-0.1,0.1-0.3,0.2-0.4,0.2c-1.1-0.5-1.7-2.8-1.3-3.7c0.5-1.3,1.7-2.3,3-3
					c1.5-0.8,2.4-1.8,2.8-3c-1.1,1.7-2.8,2.5-4,3.1c-0.1,0.1-0.3,0.2-0.4,0.2c-1.1-0.5-1.7-2.8-1.4-3.7c0.2-0.5,0.5-1,0.9-1.4H1.1
					c-0.5,0.5-0.8,1-1,1.5c-0.4,1.2,0.2,3.3,1,4.8c0,0,0,0,0,0c-0.5,0.5-0.8,1-1,1.5C-0.3,199.9,0.3,202,1.1,203.5z"/>
			</g>
			<g>
				<path class="st0" d="M7.3,205.3L7.3,205.3L7.3,205.3c0.2-0.4,0.5-0.8,0.6-1.2c0.1-0.2,0.1-0.4,0.2-0.5H1.1c-0.5,0.5-0.8,1-1,1.5
					c-0.4,1.2,0.2,3.3,1,4.8c0,0,0,0,0,0l0,0c-0.5,0.5-0.8,1-1,1.5c-0.4,1.2,0.2,3.3,1,4.8h0h6.9c0.4-1.7-0.3-3.9-0.8-4.6l0,0
					c0.2-0.4,0.5-0.7,0.6-1.2C8.6,208.6,7.8,206.1,7.3,205.3z"/>
				<path class="st1" d="M1.1,216.2C1.1,216.2,1.1,216.2,1.1,216.2C1.1,216.2,1.1,216.2,1.1,216.2h1.3c0.6-0.6,1.3-1.2,2.1-1.6
					c1.5-0.8,2.4-1.8,2.8-3c-1.1,1.7-2.8,2.5-4,3.1c-0.1,0.1-0.3,0.2-0.4,0.2c-1.1-0.5-1.7-2.8-1.3-3.7c0.5-1.3,1.7-2.3,3-3
					c1.5-0.8,2.4-1.8,2.8-3c-1.1,1.7-2.8,2.5-4,3.1c-0.1,0.1-0.3,0.2-0.4,0.2c-1.1-0.5-1.7-2.8-1.4-3.7c0.2-0.5,0.5-1,0.9-1.4H1.1
					c-0.5,0.5-0.8,1-1,1.5c-0.4,1.2,0.2,3.3,1,4.8c0,0,0,0,0,0c-0.5,0.5-0.8,1-1,1.5C-0.3,212.6,0.3,214.7,1.1,216.2z"/>
			</g>
			<g>
				<path class="st0" d="M7.3,218L7.3,218L7.3,218c0.2-0.4,0.5-0.8,0.6-1.2c0.1-0.2,0.1-0.4,0.2-0.5H1.1c-0.5,0.5-0.8,1-1,1.5
					c-0.4,1.2,0.2,3.3,1,4.8c0,0,0,0,0,0l0,0c-0.5,0.5-0.8,1-1,1.5c-0.4,1.2,0.2,3.3,1,4.8h0h6.9c0.4-1.7-0.3-3.9-0.8-4.6l0,0
					c0.2-0.4,0.5-0.7,0.6-1.2C8.6,221.4,7.8,218.8,7.3,218z"/>
				<path class="st1" d="M1.1,228.9C1.1,228.9,1.1,228.9,1.1,228.9C1.1,228.9,1.1,228.9,1.1,228.9h1.3c0.6-0.6,1.3-1.2,2.1-1.6
					c1.5-0.8,2.4-1.8,2.8-3c-1.1,1.7-2.8,2.5-4,3.1c-0.1,0.1-0.3,0.2-0.4,0.2c-1.1-0.5-1.7-2.8-1.3-3.7c0.5-1.3,1.7-2.3,3-3
					c1.5-0.8,2.4-1.8,2.8-3c-1.1,1.7-2.8,2.5-4,3.1c-0.1,0.1-0.3,0.2-0.4,0.2c-1.1-0.5-1.7-2.8-1.4-3.7c0.2-0.5,0.5-1,0.9-1.4H1.1
					c-0.5,0.5-0.8,1-1,1.5c-0.4,1.2,0.2,3.3,1,4.8c0,0,0,0,0,0c-0.5,0.5-0.8,1-1,1.5C-0.3,225.4,0.3,227.4,1.1,228.9z"/>
			</g>
			<g>
				<path class="st0" d="M7.3,230.7L7.3,230.7L7.3,230.7c0.2-0.4,0.5-0.8,0.6-1.2c0.1-0.2,0.1-0.4,0.2-0.5H1.1c-0.5,0.5-0.8,1-1,1.5
					c-0.4,1.2,0.2,3.3,1,4.8c0,0,0,0,0,0l0,0c-0.5,0.5-0.8,1-1,1.5c-0.4,1.2,0.2,3.3,1,4.8h0h6.9c0.4-1.7-0.3-3.9-0.8-4.6l0,0
					c0.2-0.4,0.5-0.7,0.6-1.2C8.6,234.1,7.8,231.5,7.3,230.7z"/>
				<path class="st1" d="M1.1,241.7C1.1,241.7,1.1,241.7,1.1,241.7C1.1,241.7,1.1,241.7,1.1,241.7h1.3c0.6-0.6,1.3-1.2,2.1-1.6
					c1.5-0.8,2.4-1.8,2.8-3c-1.1,1.7-2.8,2.5-4,3.1c-0.1,0.1-0.3,0.2-0.4,0.2c-1.1-0.5-1.7-2.8-1.3-3.7c0.5-1.3,1.7-2.3,3-3
					c1.5-0.8,2.4-1.8,2.8-3c-1.1,1.7-2.8,2.5-4,3.1c-0.1,0.1-0.3,0.2-0.4,0.2c-1.1-0.5-1.7-2.8-1.4-3.7c0.2-0.5,0.5-1,0.9-1.4H1.1
					c-0.5,0.5-0.8,1-1,1.5c-0.4,1.2,0.2,3.3,1,4.8c0,0,0,0,0,0c-0.5,0.5-0.8,1-1,1.5C-0.3,238.1,0.3,240.2,1.1,241.7z"/>
			</g>
			<g>
				<path class="st0" d="M7.3,243.4L7.3,243.4L7.3,243.4c0.2-0.4,0.5-0.8,0.6-1.2c0.1-0.2,0.1-0.4,0.2-0.5H1.1c-0.5,0.5-0.8,1-1,1.5
					c-0.4,1.2,0.2,3.3,1,4.8c0,0,0,0,0,0l0,0c-0.5,0.5-0.8,1-1,1.5c-0.4,1.2,0.2,3.3,1,4.8h0h6.9c0.4-1.7-0.3-3.9-0.8-4.6l0,0
					c0.2-0.4,0.5-0.7,0.6-1.2C8.6,246.8,7.8,244.2,7.3,243.4z"/>
				<path class="st1" d="M1.1,254.4C1.1,254.4,1.1,254.4,1.1,254.4C1.1,254.4,1.1,254.4,1.1,254.4h1.3c0.6-0.6,1.3-1.2,2.1-1.6
					c1.5-0.8,2.4-1.8,2.8-3c-1.1,1.7-2.8,2.5-4,3.1C3.1,253,3,253,2.8,253.1c-1.1-0.5-1.7-2.8-1.3-3.7c0.5-1.3,1.7-2.3,3-3
					c1.5-0.8,2.4-1.8,2.8-3c-1.1,1.7-2.8,2.5-4,3.1c-0.1,0.1-0.3,0.2-0.4,0.2c-1.1-0.5-1.7-2.8-1.4-3.7c0.2-0.5,0.5-1,0.9-1.4H1.1
					c-0.5,0.5-0.8,1-1,1.5c-0.4,1.2,0.2,3.3,1,4.8c0,0,0,0,0,0c-0.5,0.5-0.8,1-1,1.5C-0.3,250.8,0.3,252.9,1.1,254.4z"/>
			</g>
			<g>
				<path class="st0" d="M7.3,256.2L7.3,256.2L7.3,256.2c0.2-0.4,0.5-0.8,0.6-1.2c0.1-0.2,0.1-0.4,0.2-0.5H1.1c-0.5,0.5-0.8,1-1,1.5
					c-0.4,1.2,0.2,3.3,1,4.8c0,0,0,0,0,0l0,0c-0.5,0.5-0.8,1-1,1.5c-0.4,1.2,0.2,3.3,1,4.8h0h6.9c0.4-1.7-0.3-3.9-0.8-4.6l0,0
					c0.2-0.4,0.5-0.7,0.6-1.2C8.6,259.5,7.8,257,7.3,256.2z"/>
				<path class="st1" d="M1.1,267.1C1.1,267.1,1.1,267.1,1.1,267.1C1.1,267.1,1.1,267.1,1.1,267.1h1.3c0.6-0.6,1.3-1.2,2.1-1.6
					c1.5-0.8,2.4-1.8,2.8-3c-1.1,1.7-2.8,2.5-4,3.1c-0.1,0.1-0.3,0.2-0.4,0.2c-1.1-0.5-1.7-2.8-1.3-3.7c0.5-1.3,1.7-2.3,3-3
					c1.5-0.8,2.4-1.8,2.8-3c-1.1,1.7-2.8,2.5-4,3.1c-0.1,0.1-0.3,0.2-0.4,0.2c-1.1-0.5-1.7-2.8-1.4-3.7c0.2-0.5,0.5-1,0.9-1.4H1.1
					c-0.5,0.5-0.8,1-1,1.5c-0.4,1.2,0.2,3.3,1,4.8c0,0,0,0,0,0c-0.5,0.5-0.8,1-1,1.5C-0.3,263.5,0.3,265.6,1.1,267.1z"/>
			</g>
			<g>
				<path class="st0" d="M7.3,268.9L7.3,268.9L7.3,268.9c0.2-0.4,0.5-0.8,0.6-1.2c0.1-0.2,0.1-0.4,0.2-0.5H1.1c-0.5,0.5-0.8,1-1,1.5
					c-0.4,1.2,0.2,3.3,1,4.8c0,0,0,0,0,0l0,0c-0.5,0.5-0.8,1-1,1.5c-0.4,1.2,0.2,3.3,1,4.8h0h6.9c0.4-1.7-0.3-3.9-0.8-4.6l0,0
					c0.2-0.4,0.5-0.7,0.6-1.2C8.6,272.2,7.8,269.7,7.3,268.9z"/>
				<path class="st1" d="M1.1,279.8C1.1,279.8,1.1,279.8,1.1,279.8C1.1,279.8,1.1,279.8,1.1,279.8h1.3c0.6-0.6,1.3-1.2,2.1-1.6
					c1.5-0.8,2.4-1.8,2.8-3c-1.1,1.7-2.8,2.5-4,3.1c-0.1,0.1-0.3,0.2-0.4,0.2c-1.1-0.5-1.7-2.8-1.3-3.7c0.5-1.3,1.7-2.3,3-3
					c1.5-0.8,2.4-1.8,2.8-3c-1.1,1.7-2.8,2.5-4,3.1c-0.1,0.1-0.3,0.2-0.4,0.2c-1.1-0.5-1.7-2.8-1.4-3.7c0.2-0.5,0.5-1,0.9-1.4H1.1
					c-0.5,0.5-0.8,1-1,1.5c-0.4,1.2,0.2,3.3,1,4.8c0,0,0,0,0,0c-0.5,0.5-0.8,1-1,1.5C-0.3,276.2,0.3,278.3,1.1,279.8z"/>
			</g>
			<g>
				<path class="st0" d="M7.3,281.6L7.3,281.6L7.3,281.6c0.2-0.4,0.5-0.8,0.6-1.2c0.1-0.2,0.1-0.4,0.2-0.5H1.1c-0.5,0.5-0.8,1-1,1.5
					c-0.4,1.2,0.2,3.3,1,4.8c0,0,0,0,0,0l0,0c-0.5,0.5-0.8,1-1,1.5c-0.4,1.2,0.2,3.3,1,4.8h0h6.9c0.4-1.7-0.3-3.9-0.8-4.6l0,0
					c0.2-0.4,0.5-0.7,0.6-1.2C8.6,285,7.8,282.4,7.3,281.6z"/>
				<path class="st1" d="M1.1,292.5C1.1,292.5,1.1,292.5,1.1,292.5C1.1,292.5,1.1,292.5,1.1,292.5h1.3c0.6-0.6,1.3-1.2,2.1-1.6
					c1.5-0.8,2.4-1.8,2.8-3c-1.1,1.7-2.8,2.5-4,3.1c-0.1,0.1-0.3,0.2-0.4,0.2c-1.1-0.5-1.7-2.8-1.3-3.7c0.5-1.3,1.7-2.3,3-3
					c1.5-0.8,2.4-1.8,2.8-3c-1.1,1.7-2.8,2.5-4,3.1c-0.1,0.1-0.3,0.2-0.4,0.2c-1.1-0.5-1.7-2.8-1.4-3.7c0.2-0.5,0.5-1,0.9-1.4H1.1
					c-0.5,0.5-0.8,1-1,1.5c-0.4,1.2,0.2,3.3,1,4.8c0,0,0,0,0,0c-0.5,0.5-0.8,1-1,1.5C-0.3,288.9,0.3,291,1.1,292.5z"/>
			</g>
			<g>
				<path class="st0" d="M7.3,294.3L7.3,294.3L7.3,294.3c0.2-0.4,0.5-0.8,0.6-1.2c0.1-0.2,0.1-0.4,0.2-0.5H1.1c-0.5,0.5-0.8,1-1,1.5
					c-0.4,1.2,0.2,3.3,1,4.8c0,0,0,0,0,0l0,0c-0.5,0.5-0.8,1-1,1.5c-0.4,1.2,0.2,3.3,1,4.8h0h6.9c0.4-1.7-0.3-3.9-0.8-4.6l0,0
					c0.2-0.4,0.5-0.7,0.6-1.2C8.6,297.7,7.8,295.1,7.3,294.3z"/>
				<path class="st1" d="M1.1,305.3C1.1,305.3,1.1,305.3,1.1,305.3C1.1,305.3,1.1,305.3,1.1,305.3h1.3c0.6-0.6,1.3-1.2,2.1-1.6
					c1.5-0.8,2.4-1.8,2.8-3c-1.1,1.7-2.8,2.5-4,3.1c-0.1,0.1-0.3,0.2-0.4,0.2c-1.1-0.5-1.7-2.8-1.3-3.7c0.5-1.3,1.7-2.3,3-3
					c1.5-0.8,2.4-1.8,2.8-3c-1.1,1.7-2.8,2.5-4,3.1c-0.1,0.1-0.3,0.2-0.4,0.2c-1.1-0.5-1.7-2.8-1.4-3.7c0.2-0.5,0.5-1,0.9-1.4H1.1
					c-0.5,0.5-0.8,1-1,1.5c-0.4,1.2,0.2,3.3,1,4.8c0,0,0,0,0,0c-0.5,0.5-0.8,1-1,1.5C-0.3,301.7,0.3,303.8,1.1,305.3z"/>
			</g>
			<g>
				<path class="st0" d="M7.3,307L7.3,307L7.3,307c0.2-0.4,0.5-0.8,0.6-1.2c0.1-0.2,0.1-0.4,0.2-0.5H1.1c-0.5,0.5-0.8,1-1,1.5
					c-0.4,1.2,0.2,3.3,1,4.8c0,0,0,0,0,0l0,0c-0.5,0.5-0.8,1-1,1.5c-0.4,1.2,0.2,3.3,1,4.8h0h6.9c0.4-1.7-0.3-3.9-0.8-4.6l0,0
					c0.2-0.4,0.5-0.7,0.6-1.2C8.6,310.4,7.8,307.8,7.3,307z"/>
				<path class="st1" d="M1.1,318C1.1,318,1.1,318,1.1,318C1.1,318,1.1,318,1.1,318h1.3c0.6-0.6,1.3-1.2,2.1-1.6
					c1.5-0.8,2.4-1.8,2.8-3c-1.1,1.7-2.8,2.5-4,3.1c-0.1,0.1-0.3,0.2-0.4,0.2c-1.1-0.5-1.7-2.8-1.3-3.7c0.5-1.3,1.7-2.3,3-3
					c1.5-0.8,2.4-1.8,2.8-3c-1.1,1.7-2.8,2.5-4,3.1c-0.1,0.1-0.3,0.2-0.4,0.2c-1.1-0.5-1.7-2.8-1.4-3.7c0.2-0.5,0.5-1,0.9-1.4H1.1
					c-0.5,0.5-0.8,1-1,1.5c-0.4,1.2,0.2,3.3,1,4.8c0,0,0,0,0,0c-0.5,0.5-0.8,1-1,1.5C-0.3,314.4,0.3,316.5,1.1,318z"/>
			</g>
			<g>
				<path class="st0" d="M7.3,319.7L7.3,319.7L7.3,319.7c0.2-0.4,0.5-0.8,0.6-1.2c0.1-0.2,0.1-0.4,0.2-0.5H1.1c-0.5,0.5-0.8,1-1,1.5
					c-0.4,1.2,0.2,3.3,1,4.8c0,0,0,0,0,0l0,0c-0.5,0.5-0.8,1-1,1.5c-0.4,1.2,0.2,3.3,1,4.8h0h6.9c0.4-1.7-0.3-3.9-0.8-4.6l0,0
					c0.2-0.4,0.5-0.7,0.6-1.2C8.6,323.1,7.8,320.6,7.3,319.7z"/>
				<path class="st1" d="M1.1,330.7C1.1,330.7,1.1,330.7,1.1,330.7C1.1,330.7,1.1,330.7,1.1,330.7h1.3c0.6-0.6,1.3-1.2,2.1-1.6
					c1.5-0.8,2.4-1.8,2.8-3c-1.1,1.7-2.8,2.5-4,3.1c-0.1,0.1-0.3,0.2-0.4,0.2c-1.1-0.5-1.7-2.8-1.3-3.7c0.5-1.3,1.7-2.3,3-3
					c1.5-0.8,2.4-1.8,2.8-3c-1.1,1.7-2.8,2.5-4,3.1c-0.1,0.1-0.3,0.2-0.4,0.2c-1.1-0.5-1.7-2.8-1.4-3.7c0.2-0.5,0.5-1,0.9-1.4H1.1
					c-0.5,0.5-0.8,1-1,1.5c-0.4,1.2,0.2,3.3,1,4.8c0,0,0,0,0,0c-0.5,0.5-0.8,1-1,1.5C-0.3,327.1,0.3,329.2,1.1,330.7z"/>
			</g>
			<g>
				<path class="st0" d="M7.3,332.5L7.3,332.5L7.3,332.5c0.2-0.4,0.5-0.8,0.6-1.2c0.1-0.2,0.1-0.4,0.2-0.5H1.1c-0.5,0.5-0.8,1-1,1.5
					c-0.4,1.2,0.2,3.3,1,4.8c0,0,0,0,0,0l0,0c-0.5,0.5-0.8,1-1,1.5c-0.4,1.2,0.2,3.3,1,4.8h0h6.9c0.4-1.7-0.3-3.9-0.8-4.6l0,0
					c0.2-0.4,0.5-0.7,0.6-1.2C8.6,335.8,7.8,333.3,7.3,332.5z"/>
				<path class="st1" d="M1.1,343.4C1.1,343.4,1.1,343.4,1.1,343.4C1.1,343.4,1.1,343.4,1.1,343.4h1.3c0.6-0.6,1.3-1.2,2.1-1.6
					c1.5-0.8,2.4-1.8,2.8-3c-1.1,1.7-2.8,2.5-4,3.1c-0.1,0.1-0.3,0.2-0.4,0.2c-1.1-0.5-1.7-2.8-1.3-3.7c0.5-1.3,1.7-2.3,3-3
					c1.5-0.8,2.4-1.8,2.8-3c-1.1,1.7-2.8,2.5-4,3.1c-0.1,0.1-0.3,0.2-0.4,0.2c-1.1-0.5-1.7-2.8-1.4-3.7c0.2-0.5,0.5-1,0.9-1.4H1.1
					c-0.5,0.5-0.8,1-1,1.5c-0.4,1.2,0.2,3.3,1,4.8c0,0,0,0,0,0c-0.5,0.5-0.8,1-1,1.5C-0.3,339.8,0.3,341.9,1.1,343.4z"/>
			</g>
			<g>
				<path class="st0" d="M7.3,345.2L7.3,345.2L7.3,345.2c0.2-0.4,0.5-0.8,0.6-1.2c0.1-0.2,0.1-0.4,0.2-0.5H1.1c-0.5,0.5-0.8,1-1,1.5
					c-0.4,1.2,0.2,3.3,1,4.8c0,0,0,0,0,0l0,0c-0.5,0.5-0.8,1-1,1.5c-0.4,1.2,0.2,3.3,1,4.8h0h6.9c0.4-1.7-0.3-3.9-0.8-4.6l0,0
					c0.2-0.4,0.5-0.7,0.6-1.2C8.6,348.6,7.8,346,7.3,345.2z"/>
				<path class="st1" d="M1.1,356.1C1.1,356.1,1.1,356.1,1.1,356.1C1.1,356.1,1.1,356.1,1.1,356.1h1.3c0.6-0.6,1.3-1.2,2.1-1.6
					c1.5-0.8,2.4-1.8,2.8-3c-1.1,1.7-2.8,2.5-4,3.1c-0.1,0.1-0.3,0.2-0.4,0.2c-1.1-0.5-1.7-2.8-1.3-3.7c0.5-1.3,1.7-2.3,3-3
					c1.5-0.8,2.4-1.8,2.8-3c-1.1,1.7-2.8,2.5-4,3.1c-0.1,0.1-0.3,0.2-0.4,0.2c-1.1-0.5-1.7-2.8-1.4-3.7c0.2-0.5,0.5-1,0.9-1.4H1.1
					c-0.5,0.5-0.8,1-1,1.5c-0.4,1.2,0.2,3.3,1,4.8c0,0,0,0,0,0c-0.5,0.5-0.8,1-1,1.5C-0.3,352.5,0.3,354.6,1.1,356.1z"/>
			</g>
			<g>
				<path class="st0" d="M7.3,357.9L7.3,357.9L7.3,357.9c0.2-0.4,0.5-0.8,0.6-1.2c0.1-0.2,0.1-0.4,0.2-0.5H1.1c-0.5,0.5-0.8,1-1,1.5
					c-0.4,1.2,0.2,3.3,1,4.8c0,0,0,0,0,0l0,0c-0.5,0.5-0.8,1-1,1.5c-0.4,1.2,0.2,3.3,1,4.8h0h6.9c0.4-1.7-0.3-3.9-0.8-4.6l0,0
					c0.2-0.4,0.5-0.7,0.6-1.2C8.6,361.3,7.8,358.7,7.3,357.9z"/>
				<path class="st1" d="M1.1,368.9C1.1,368.9,1.1,368.9,1.1,368.9C1.1,368.9,1.1,368.9,1.1,368.9h1.3c0.6-0.6,1.3-1.2,2.1-1.6
					c1.5-0.8,2.4-1.8,2.8-3c-1.1,1.7-2.8,2.5-4,3.1c-0.1,0.1-0.3,0.2-0.4,0.2c-1.1-0.5-1.7-2.8-1.3-3.7c0.5-1.3,1.7-2.3,3-3
					c1.5-0.8,2.4-1.8,2.8-3c-1.1,1.7-2.8,2.5-4,3.1c-0.1,0.1-0.3,0.2-0.4,0.2c-1.1-0.5-1.7-2.8-1.4-3.7c0.2-0.5,0.5-1,0.9-1.4H1.1
					c-0.5,0.5-0.8,1-1,1.5c-0.4,1.2,0.2,3.3,1,4.8c0,0,0,0,0,0c-0.5,0.5-0.8,1-1,1.5C-0.3,365.3,0.3,367.4,1.1,368.9z"/>
			</g>
			<g>
				<path class="st0" d="M7.3,370.6L7.3,370.6L7.3,370.6c0.2-0.4,0.5-0.8,0.6-1.2c0.1-0.2,0.1-0.4,0.2-0.5H1.1c-0.5,0.5-0.8,1-1,1.5
					c-0.4,1.2,0.2,3.3,1,4.8c0,0,0,0,0,0l0,0c-0.5,0.5-0.8,1-1,1.5c-0.4,1.2,0.2,3.3,1,4.8h0h6.9c0.4-1.7-0.3-3.9-0.8-4.6l0,0
					c0.2-0.4,0.5-0.7,0.6-1.2C8.6,374,7.8,371.4,7.3,370.6z"/>
				<path class="st1" d="M1.1,381.6C1.1,381.6,1.1,381.6,1.1,381.6C1.1,381.6,1.1,381.6,1.1,381.6h1.3c0.6-0.6,1.3-1.2,2.1-1.6
					c1.5-0.8,2.4-1.8,2.8-3c-1.1,1.7-2.8,2.5-4,3.1c-0.1,0.1-0.3,0.2-0.4,0.2c-1.1-0.5-1.7-2.8-1.3-3.7c0.5-1.3,1.7-2.3,3-3
					c1.5-0.8,2.4-1.8,2.8-3c-1.1,1.7-2.8,2.5-4,3.1c-0.1,0.1-0.3,0.2-0.4,0.2c-1.1-0.5-1.7-2.8-1.4-3.7c0.2-0.5,0.5-1,0.9-1.4H1.1
					c-0.5,0.5-0.8,1-1,1.5c-0.4,1.2,0.2,3.3,1,4.8c0,0,0,0,0,0c-0.5,0.5-0.8,1-1,1.5C-0.3,378,0.3,380.1,1.1,381.6z"/>
			</g>
			<g>
				<path class="st0" d="M7.3,383.3L7.3,383.3L7.3,383.3c0.2-0.4,0.5-0.8,0.6-1.2c0.1-0.2,0.1-0.4,0.2-0.5H1.1c-0.5,0.5-0.8,1-1,1.5
					c-0.4,1.2,0.2,3.3,1,4.8c0,0,0,0,0,0l0,0c-0.5,0.5-0.8,1-1,1.5c-0.4,1.2,0.2,3.3,1,4.8h0h6.9c0.4-1.7-0.3-3.9-0.8-4.6l0,0
					c0.2-0.4,0.5-0.7,0.6-1.2C8.6,386.7,7.8,384.2,7.3,383.3z"/>
				<path class="st1" d="M1.1,394.3C1.1,394.3,1.1,394.3,1.1,394.3C1.1,394.3,1.1,394.3,1.1,394.3h1.3c0.6-0.6,1.3-1.2,2.1-1.6
					c1.5-0.8,2.4-1.8,2.8-3c-1.1,1.7-2.8,2.5-4,3.1C3.1,392.9,3,393,2.8,393c-1.1-0.5-1.7-2.8-1.3-3.7c0.5-1.3,1.7-2.3,3-3
					c1.5-0.8,2.4-1.8,2.8-3c-1.1,1.7-2.8,2.5-4,3.1c-0.1,0.1-0.3,0.2-0.4,0.2c-1.1-0.5-1.7-2.8-1.4-3.7c0.2-0.5,0.5-1,0.9-1.4H1.1
					c-0.5,0.5-0.8,1-1,1.5c-0.4,1.2,0.2,3.3,1,4.8c0,0,0,0,0,0c-0.5,0.5-0.8,1-1,1.5C-0.3,390.7,0.3,392.8,1.1,394.3z"/>
			</g>
			<g>
				<path class="st0" d="M7.3,396.1L7.3,396.1L7.3,396.1c0.2-0.4,0.5-0.8,0.6-1.2c0.1-0.2,0.1-0.4,0.2-0.5H1.1c-0.5,0.5-0.8,1-1,1.5
					c-0.4,1.2,0.2,3.3,1,4.8c0,0,0,0,0,0l0,0c-0.5,0.5-0.8,1-1,1.5c-0.4,1.2,0.2,3.3,1,4.8h0h6.9c0.4-1.7-0.3-3.9-0.8-4.6l0,0
					c0.2-0.4,0.5-0.7,0.6-1.2C8.6,399.4,7.8,396.9,7.3,396.1z"/>
				<path class="st1" d="M1.1,407C1.1,407,1.1,407,1.1,407C1.1,407,1.1,407,1.1,407h1.3c0.6-0.6,1.3-1.2,2.1-1.6
					c1.5-0.8,2.4-1.8,2.8-3c-1.1,1.7-2.8,2.5-4,3.1c-0.1,0.1-0.3,0.2-0.4,0.2c-1.1-0.5-1.7-2.8-1.3-3.7c0.5-1.3,1.7-2.3,3-3
					c1.5-0.8,2.4-1.8,2.8-3c-1.1,1.7-2.8,2.5-4,3.1c-0.1,0.1-0.3,0.2-0.4,0.2c-1.1-0.5-1.7-2.8-1.4-3.7c0.2-0.5,0.5-1,0.9-1.4H1.1
					c-0.5,0.5-0.8,1-1,1.5c-0.4,1.2,0.2,3.3,1,4.8c0,0,0,0,0,0c-0.5,0.5-0.8,1-1,1.5C-0.3,403.4,0.3,405.5,1.1,407z"/>
			</g>
			<g>
				<path class="st0" d="M7.3,408.8L7.3,408.8L7.3,408.8c0.2-0.4,0.5-0.8,0.6-1.2c0.1-0.2,0.1-0.4,0.2-0.5H1.1c-0.5,0.5-0.8,1-1,1.5
					c-0.4,1.2,0.2,3.3,1,4.8c0,0,0,0,0,0l0,0c-0.5,0.5-0.8,1-1,1.5c-0.4,1.2,0.2,3.3,1,4.8h0h6.9c0.4-1.7-0.3-3.9-0.8-4.6l0,0
					c0.2-0.4,0.5-0.7,0.6-1.2C8.6,412.2,7.8,409.6,7.3,408.8z"/>
				<path class="st1" d="M1.1,419.7C1.1,419.7,1.1,419.7,1.1,419.7C1.1,419.7,1.1,419.7,1.1,419.7h1.3c0.6-0.6,1.3-1.2,2.1-1.6
					c1.5-0.8,2.4-1.8,2.8-3c-1.1,1.7-2.8,2.5-4,3.1c-0.1,0.1-0.3,0.2-0.4,0.2c-1.1-0.5-1.7-2.8-1.3-3.7c0.5-1.3,1.7-2.3,3-3
					c1.5-0.8,2.4-1.8,2.8-3c-1.1,1.7-2.8,2.5-4,3.1C3.1,412,3,412,2.8,412.1c-1.1-0.5-1.7-2.8-1.4-3.7c0.2-0.5,0.5-1,0.9-1.4H1.1
					c-0.5,0.5-0.8,1-1,1.5c-0.4,1.2,0.2,3.3,1,4.8c0,0,0,0,0,0c-0.5,0.5-0.8,1-1,1.5C-0.3,416.1,0.3,418.2,1.1,419.7z"/>
			</g>
			<g>
				<path class="st0" d="M7.3,421.5L7.3,421.5L7.3,421.5c0.2-0.4,0.5-0.8,0.6-1.2c0.1-0.2,0.1-0.4,0.2-0.5H1.1c-0.5,0.5-0.8,1-1,1.5
					c-0.4,1.2,0.2,3.3,1,4.8c0,0,0,0,0,0l0,0c-0.5,0.5-0.8,1-1,1.5c-0.4,1.2,0.2,3.3,1,4.8h0h6.9c0.4-1.7-0.3-3.9-0.8-4.6l0,0
					c0.2-0.4,0.5-0.7,0.6-1.2C8.6,424.9,7.8,422.3,7.3,421.5z"/>
				<path class="st1" d="M1.1,432.5C1.1,432.5,1.1,432.5,1.1,432.5C1.1,432.5,1.1,432.5,1.1,432.5h1.3c0.6-0.6,1.3-1.2,2.1-1.6
					c1.5-0.8,2.4-1.8,2.8-3c-1.1,1.7-2.8,2.5-4,3.1c-0.1,0.1-0.3,0.2-0.4,0.2c-1.1-0.5-1.7-2.8-1.3-3.7c0.5-1.3,1.7-2.3,3-3
					c1.5-0.8,2.4-1.8,2.8-3c-1.1,1.7-2.8,2.5-4,3.1c-0.1,0.1-0.3,0.2-0.4,0.2c-1.1-0.5-1.7-2.8-1.4-3.7c0.2-0.5,0.5-1,0.9-1.4H1.1
					c-0.5,0.5-0.8,1-1,1.5c-0.4,1.2,0.2,3.3,1,4.8c0,0,0,0,0,0c-0.5,0.5-0.8,1-1,1.5C-0.3,428.9,0.3,431,1.1,432.5z"/>
			</g>
			<g>
				<path class="st0" d="M7.3,434.2L7.3,434.2L7.3,434.2c0.2-0.4,0.5-0.8,0.6-1.2c0.1-0.2,0.1-0.4,0.2-0.5H1.1c-0.5,0.5-0.8,1-1,1.5
					c-0.4,1.2,0.2,3.3,1,4.8c0,0,0,0,0,0l0,0c-0.5,0.5-0.8,1-1,1.5c-0.4,1.2,0.2,3.3,1,4.8h0h6.9c0.4-1.7-0.3-3.9-0.8-4.6l0,0
					c0.2-0.4,0.5-0.7,0.6-1.2C8.6,437.6,7.8,435,7.3,434.2z"/>
				<path class="st1" d="M1.1,445.2C1.1,445.2,1.1,445.2,1.1,445.2C1.1,445.2,1.1,445.2,1.1,445.2h1.3c0.6-0.6,1.3-1.2,2.1-1.6
					c1.5-0.8,2.4-1.8,2.8-3c-1.1,1.7-2.8,2.5-4,3.1c-0.1,0.1-0.3,0.2-0.4,0.2c-1.1-0.5-1.7-2.8-1.3-3.7c0.5-1.3,1.7-2.3,3-3
					c1.5-0.8,2.4-1.8,2.8-3c-1.1,1.7-2.8,2.5-4,3.1c-0.1,0.1-0.3,0.2-0.4,0.2c-1.1-0.5-1.7-2.8-1.4-3.7c0.2-0.5,0.5-1,0.9-1.4H1.1
					c-0.5,0.5-0.8,1-1,1.5c-0.4,1.2,0.2,3.3,1,4.8c0,0,0,0,0,0c-0.5,0.5-0.8,1-1,1.5C-0.3,441.6,0.3,443.7,1.1,445.2z"/>
			</g>
			<g>
				<path class="st0" d="M7.3,446.9L7.3,446.9L7.3,446.9c0.2-0.4,0.5-0.8,0.6-1.2c0.1-0.2,0.1-0.4,0.2-0.5H1.1c-0.5,0.5-0.8,1-1,1.5
					c-0.4,1.2,0.2,3.3,1,4.8c0,0,0,0,0,0l0,0c-0.5,0.5-0.8,1-1,1.5c-0.4,1.2,0.2,3.3,1,4.8h0h6.9c0.4-1.7-0.3-3.9-0.8-4.6l0,0
					c0.2-0.4,0.5-0.7,0.6-1.2C8.6,450.3,7.8,447.8,7.3,446.9z"/>
				<path class="st1" d="M1.1,457.9C1.1,457.9,1.1,457.9,1.1,457.9C1.1,457.9,1.1,457.9,1.1,457.9h1.3c0.6-0.6,1.3-1.2,2.1-1.6
					c1.5-0.8,2.4-1.8,2.8-3c-1.1,1.7-2.8,2.5-4,3.1c-0.1,0.1-0.3,0.2-0.4,0.2c-1.1-0.5-1.7-2.8-1.3-3.7c0.5-1.3,1.7-2.3,3-3
					c1.5-0.8,2.4-1.8,2.8-3c-1.1,1.7-2.8,2.5-4,3.1c-0.1,0.1-0.3,0.2-0.4,0.2c-1.1-0.5-1.7-2.8-1.4-3.7c0.2-0.5,0.5-1,0.9-1.4H1.1
					c-0.5,0.5-0.8,1-1,1.5c-0.4,1.2,0.2,3.3,1,4.8c0,0,0,0,0,0c-0.5,0.5-0.8,1-1,1.5C-0.3,454.3,0.3,456.4,1.1,457.9z"/>
			</g>
			<g>
				<path class="st0" d="M7.3,459.7L7.3,459.7L7.3,459.7c0.2-0.4,0.5-0.8,0.6-1.2c0.1-0.2,0.1-0.4,0.2-0.5H1.1c-0.5,0.5-0.8,1-1,1.5
					c-0.4,1.2,0.2,3.3,1,4.8c0,0,0,0,0,0l0,0c-0.5,0.5-0.8,1-1,1.5c-0.4,1.2,0.2,3.3,1,4.8h0h6.9c0.4-1.7-0.3-3.9-0.8-4.6l0,0
					c0.2-0.4,0.5-0.7,0.6-1.2C8.6,463,7.8,460.5,7.3,459.7z"/>
				<path class="st1" d="M1.1,470.6C1.1,470.6,1.1,470.6,1.1,470.6C1.1,470.6,1.1,470.6,1.1,470.6h1.3c0.6-0.6,1.3-1.2,2.1-1.6
					c1.5-0.8,2.4-1.8,2.8-3c-1.1,1.7-2.8,2.5-4,3.1c-0.1,0.1-0.3,0.2-0.4,0.2c-1.1-0.5-1.7-2.8-1.3-3.7c0.5-1.3,1.7-2.3,3-3
					c1.5-0.8,2.4-1.8,2.8-3c-1.1,1.7-2.8,2.5-4,3.1c-0.1,0.1-0.3,0.2-0.4,0.2c-1.1-0.5-1.7-2.8-1.4-3.7c0.2-0.5,0.5-1,0.9-1.4H1.1
					c-0.5,0.5-0.8,1-1,1.5c-0.4,1.2,0.2,3.3,1,4.8c0,0,0,0,0,0c-0.5,0.5-0.8,1-1,1.5C-0.3,467,0.3,469.1,1.1,470.6z"/>
			</g>
			<g>
				<path class="st0" d="M7.3,472.4L7.3,472.4L7.3,472.4c0.2-0.4,0.5-0.8,0.6-1.2c0.1-0.2,0.1-0.4,0.2-0.5H1.1c-0.5,0.5-0.8,1-1,1.5
					c-0.4,1.2,0.2,3.3,1,4.8c0,0,0,0,0,0l0,0c-0.5,0.5-0.8,1-1,1.5c-0.4,1.2,0.2,3.3,1,4.8h0h6.9c0.4-1.7-0.3-3.9-0.8-4.6l0,0
					c0.2-0.4,0.5-0.7,0.6-1.2C8.6,475.8,7.8,473.2,7.3,472.4z"/>
				<path class="st1" d="M1.1,483.3C1.1,483.3,1.1,483.3,1.1,483.3C1.1,483.3,1.1,483.3,1.1,483.3h1.3c0.6-0.6,1.3-1.2,2.1-1.6
					c1.5-0.8,2.4-1.8,2.8-3c-1.1,1.7-2.8,2.5-4,3.1c-0.1,0.1-0.3,0.2-0.4,0.2c-1.1-0.5-1.7-2.8-1.3-3.7c0.5-1.3,1.7-2.3,3-3
					c1.5-0.8,2.4-1.8,2.8-3c-1.1,1.7-2.8,2.5-4,3.1c-0.1,0.1-0.3,0.2-0.4,0.2c-1.1-0.5-1.7-2.8-1.4-3.7c0.2-0.5,0.5-1,0.9-1.4H1.1
					c-0.5,0.5-0.8,1-1,1.5c-0.4,1.2,0.2,3.3,1,4.8c0,0,0,0,0,0c-0.5,0.5-0.8,1-1,1.5C-0.3,479.7,0.3,481.8,1.1,483.3z"/>
			</g>
			<g>
				<path class="st0" d="M7.3,485.1L7.3,485.1L7.3,485.1c0.2-0.4,0.5-0.8,0.6-1.2c0.1-0.2,0.1-0.4,0.2-0.5H1.1c-0.5,0.5-0.8,1-1,1.5
					c-0.4,1.2,0.2,3.3,1,4.8c0,0,0,0,0,0l0,0c-0.5,0.5-0.8,1-1,1.5c-0.4,1.2,0.2,3.3,1,4.8h0h6.9c0.4-1.7-0.3-3.9-0.8-4.6l0,0
					c0.2-0.4,0.5-0.7,0.6-1.2C8.6,488.5,7.8,485.9,7.3,485.1z"/>
				<path class="st1" d="M1.1,496.1C1.1,496.1,1.1,496.1,1.1,496.1C1.1,496.1,1.1,496.1,1.1,496.1h1.3c0.6-0.6,1.3-1.2,2.1-1.6
					c1.5-0.8,2.4-1.8,2.8-3c-1.1,1.7-2.8,2.5-4,3.1c-0.1,0.1-0.3,0.2-0.4,0.2c-1.1-0.5-1.7-2.8-1.3-3.7c0.5-1.3,1.7-2.3,3-3
					c1.5-0.8,2.4-1.8,2.8-3c-1.1,1.7-2.8,2.5-4,3.1c-0.1,0.1-0.3,0.2-0.4,0.2c-1.1-0.5-1.7-2.8-1.4-3.7c0.2-0.5,0.5-1,0.9-1.4H1.1
					c-0.5,0.5-0.8,1-1,1.5c-0.4,1.2,0.2,3.3,1,4.8c0,0,0,0,0,0c-0.5,0.5-0.8,1-1,1.5C-0.3,492.5,0.3,494.6,1.1,496.1z"/>
			</g>
			<g>
				<path class="st0" d="M7.3,497.8L7.3,497.8L7.3,497.8c0.2-0.4,0.5-0.8,0.6-1.2c0.1-0.2,0.1-0.4,0.2-0.5H1.1c-0.5,0.5-0.8,1-1,1.5
					c-0.4,1.2,0.2,3.3,1,4.8c0,0,0,0,0,0l0,0c-0.5,0.5-0.8,1-1,1.5c-0.4,1.2,0.2,3.3,1,4.8h0h6.9c0.4-1.7-0.3-3.9-0.8-4.6l0,0
					c0.2-0.4,0.5-0.7,0.6-1.2C8.6,501.2,7.8,498.6,7.3,497.8z"/>
				<path class="st1" d="M1.1,508.8C1.1,508.8,1.1,508.8,1.1,508.8C1.1,508.8,1.1,508.8,1.1,508.8h1.3c0.6-0.6,1.3-1.2,2.1-1.6
					c1.5-0.8,2.4-1.8,2.8-3c-1.1,1.7-2.8,2.5-4,3.1c-0.1,0.1-0.3,0.2-0.4,0.2c-1.1-0.5-1.7-2.8-1.3-3.7c0.5-1.3,1.7-2.3,3-3
					c1.5-0.8,2.4-1.8,2.8-3c-1.1,1.7-2.8,2.5-4,3.1c-0.1,0.1-0.3,0.2-0.4,0.2c-1.1-0.5-1.7-2.8-1.4-3.7c0.2-0.5,0.5-1,0.9-1.4H1.1
					c-0.5,0.5-0.8,1-1,1.5c-0.4,1.2,0.2,3.3,1,4.8c0,0,0,0,0,0c-0.5,0.5-0.8,1-1,1.5C-0.3,505.2,0.3,507.3,1.1,508.8z"/>
			</g>
			<g>
				<path class="st0" d="M7.3,510.5L7.3,510.5L7.3,510.5c0.2-0.4,0.5-0.8,0.6-1.2c0.1-0.2,0.1-0.4,0.2-0.5H1.1c-0.5,0.5-0.8,1-1,1.5
					c-0.4,1.2,0.2,3.3,1,4.8c0,0,0,0,0,0l0,0c-0.5,0.5-0.8,1-1,1.5c-0.4,1.2,0.2,3.3,1,4.8h0h6.9c0.4-1.7-0.3-3.9-0.8-4.6l0,0
					c0.2-0.4,0.5-0.7,0.6-1.2C8.6,513.9,7.8,511.4,7.3,510.5z"/>
				<path class="st1" d="M1.1,521.5C1.1,521.5,1.1,521.5,1.1,521.5C1.1,521.5,1.1,521.5,1.1,521.5h1.3c0.6-0.6,1.3-1.2,2.1-1.6
					c1.5-0.8,2.4-1.8,2.8-3c-1.1,1.7-2.8,2.5-4,3.1c-0.1,0.1-0.3,0.2-0.4,0.2c-1.1-0.5-1.7-2.8-1.3-3.7c0.5-1.3,1.7-2.3,3-3
					c1.5-0.8,2.4-1.8,2.8-3c-1.1,1.7-2.8,2.5-4,3.1c-0.1,0.1-0.3,0.2-0.4,0.2c-1.1-0.5-1.7-2.8-1.4-3.7c0.2-0.5,0.5-1,0.9-1.4H1.1
					c-0.5,0.5-0.8,1-1,1.5c-0.4,1.2,0.2,3.3,1,4.8c0,0,0,0,0,0c-0.5,0.5-0.8,1-1,1.5C-0.3,517.9,0.3,520,1.1,521.5z"/>
			</g>
			<g>
				<path class="st0" d="M7.3,523.3L7.3,523.3L7.3,523.3c0.2-0.4,0.5-0.8,0.6-1.2c0.1-0.2,0.1-0.4,0.2-0.5H1.1c-0.5,0.5-0.8,1-1,1.5
					c-0.4,1.2,0.2,3.3,1,4.8c0,0,0,0,0,0l0,0c-0.5,0.5-0.8,1-1,1.5c-0.4,1.2,0.2,3.3,1,4.8h0h6.9c0.4-1.7-0.3-3.9-0.8-4.6l0,0
					c0.2-0.4,0.5-0.7,0.6-1.2C8.6,526.6,7.8,524.1,7.3,523.3z"/>
				<path class="st1" d="M1.1,534.2C1.1,534.2,1.1,534.2,1.1,534.2C1.1,534.2,1.1,534.2,1.1,534.2h1.3c0.6-0.6,1.3-1.2,2.1-1.6
					c1.5-0.8,2.4-1.8,2.8-3c-1.1,1.7-2.8,2.5-4,3.1c-0.1,0.1-0.3,0.2-0.4,0.2c-1.1-0.5-1.7-2.8-1.3-3.7c0.5-1.3,1.7-2.3,3-3
					c1.5-0.8,2.4-1.8,2.8-3c-1.1,1.7-2.8,2.5-4,3.1c-0.1,0.1-0.3,0.2-0.4,0.2c-1.1-0.5-1.7-2.8-1.4-3.7c0.2-0.5,0.5-1,0.9-1.4H1.1
					c-0.5,0.5-0.8,1-1,1.5c-0.4,1.2,0.2,3.3,1,4.8c0,0,0,0,0,0c-0.5,0.5-0.8,1-1,1.5C-0.3,530.6,0.3,532.7,1.1,534.2z"/>
			</g>
			<g>
				<path class="st0" d="M7.3,536L7.3,536L7.3,536c0.2-0.4,0.5-0.8,0.6-1.2c0.1-0.2,0.1-0.4,0.2-0.5H1.1c-0.5,0.5-0.8,1-1,1.5
					c-0.4,1.2,0.2,3.3,1,4.8c0,0,0,0,0,0l0,0c-0.5,0.5-0.8,1-1,1.5c-0.4,1.2,0.2,3.3,1,4.8h0h6.9c0.4-1.7-0.3-3.9-0.8-4.6l0,0
					c0.2-0.4,0.5-0.7,0.6-1.2C8.6,539.3,7.8,536.8,7.3,536z"/>
				<path class="st1" d="M1.1,546.9C1.1,546.9,1.1,546.9,1.1,546.9C1.1,546.9,1.1,546.9,1.1,546.9h1.3c0.6-0.6,1.3-1.2,2.1-1.6
					c1.5-0.8,2.4-1.8,2.8-3c-1.1,1.7-2.8,2.5-4,3.1c-0.1,0.1-0.3,0.2-0.4,0.2c-1.1-0.5-1.7-2.8-1.3-3.7c0.5-1.3,1.7-2.3,3-3
					c1.5-0.8,2.4-1.8,2.8-3c-1.1,1.7-2.8,2.5-4,3.1c-0.1,0.1-0.3,0.2-0.4,0.2c-1.1-0.5-1.7-2.8-1.4-3.7c0.2-0.5,0.5-1,0.9-1.4H1.1
					c-0.5,0.5-0.8,1-1,1.5c-0.4,1.2,0.2,3.3,1,4.8c0,0,0,0,0,0c-0.5,0.5-0.8,1-1,1.5C-0.3,543.3,0.3,545.4,1.1,546.9z"/>
			</g>
			<g>
				<path class="st0" d="M7.3,548.7L7.3,548.7L7.3,548.7c0.2-0.4,0.5-0.8,0.6-1.2c0.1-0.2,0.1-0.4,0.2-0.5H1.1c-0.5,0.5-0.8,1-1,1.5
					c-0.4,1.2,0.2,3.3,1,4.8c0,0,0,0,0,0l0,0c-0.5,0.5-0.8,1-1,1.5c-0.4,1.2,0.2,3.3,1,4.8h0h6.9c0.4-1.7-0.3-3.9-0.8-4.6l0,0
					c0.2-0.4,0.5-0.7,0.6-1.2C8.6,552.1,7.8,549.5,7.3,548.7z"/>
				<path class="st1" d="M1.1,559.6C1.1,559.6,1.1,559.6,1.1,559.6C1.1,559.6,1.1,559.6,1.1,559.6h1.3c0.6-0.6,1.3-1.2,2.1-1.6
					c1.5-0.8,2.4-1.8,2.8-3c-1.1,1.7-2.8,2.5-4,3.1c-0.1,0.1-0.3,0.2-0.4,0.2c-1.1-0.5-1.7-2.8-1.3-3.7c0.5-1.3,1.7-2.3,3-3
					c1.5-0.8,2.4-1.8,2.8-3c-1.1,1.7-2.8,2.5-4,3.1C3.1,551.9,3,552,2.8,552c-1.1-0.5-1.7-2.8-1.4-3.7c0.2-0.5,0.5-1,0.9-1.4H1.1
					c-0.5,0.5-0.8,1-1,1.5c-0.4,1.2,0.2,3.3,1,4.8c0,0,0,0,0,0c-0.5,0.5-0.8,1-1,1.5C-0.3,556.1,0.3,558.2,1.1,559.6z"/>
			</g>
			<g>
				<path class="st0" d="M7.3,561.4L7.3,561.4L7.3,561.4c0.2-0.4,0.5-0.8,0.6-1.2c0.1-0.2,0.1-0.4,0.2-0.5H1.1c-0.5,0.5-0.8,1-1,1.5
					c-0.4,1.2,0.2,3.3,1,4.8c0,0,0,0,0,0l0,0c-0.5,0.5-0.8,1-1,1.5c-0.4,1.2,0.2,3.3,1,4.8h0h6.9c0.4-1.7-0.3-3.9-0.8-4.6l0,0
					c0.2-0.4,0.5-0.7,0.6-1.2C8.6,564.8,7.8,562.2,7.3,561.4z"/>
				<path class="st1" d="M1.1,572.4C1.1,572.4,1.1,572.4,1.1,572.4C1.1,572.4,1.1,572.4,1.1,572.4h1.3c0.6-0.6,1.3-1.2,2.1-1.6
					c1.5-0.8,2.4-1.8,2.8-3c-1.1,1.7-2.8,2.5-4,3.1c-0.1,0.1-0.3,0.2-0.4,0.2c-1.1-0.5-1.7-2.8-1.3-3.7c0.5-1.3,1.7-2.3,3-3
					c1.5-0.8,2.4-1.8,2.8-3c-1.1,1.7-2.8,2.5-4,3.1c-0.1,0.1-0.3,0.2-0.4,0.2c-1.1-0.5-1.7-2.8-1.4-3.7c0.2-0.5,0.5-1,0.9-1.4H1.1
					c-0.5,0.5-0.8,1-1,1.5c-0.4,1.2,0.2,3.3,1,4.8c0,0,0,0,0,0c-0.5,0.5-0.8,1-1,1.5C-0.3,568.8,0.3,570.9,1.1,572.4z"/>
			</g>
			<g>
				<path class="st0" d="M7.3,574.1L7.3,574.1L7.3,574.1c0.2-0.4,0.5-0.8,0.6-1.2c0.1-0.2,0.1-0.4,0.2-0.5H1.1c-0.5,0.5-0.8,1-1,1.5
					c-0.4,1.2,0.2,3.3,1,4.8c0,0,0,0,0,0l0,0c-0.5,0.5-0.8,1-1,1.5c-0.4,1.2,0.2,3.3,1,4.8h0h6.9c0.4-1.7-0.3-3.9-0.8-4.6l0,0
					c0.2-0.4,0.5-0.7,0.6-1.2C8.6,577.5,7.8,574.9,7.3,574.1z"/>
				<path class="st1" d="M1.1,585.1C1.1,585.1,1.1,585.1,1.1,585.1C1.1,585.1,1.1,585.1,1.1,585.1h1.3c0.6-0.6,1.3-1.2,2.1-1.6
					c1.5-0.8,2.4-1.8,2.8-3c-1.1,1.7-2.8,2.5-4,3.1c-0.1,0.1-0.3,0.2-0.4,0.2c-1.1-0.5-1.7-2.8-1.3-3.7c0.5-1.3,1.7-2.3,3-3
					c1.5-0.8,2.4-1.8,2.8-3c-1.1,1.7-2.8,2.5-4,3.1c-0.1,0.1-0.3,0.2-0.4,0.2c-1.1-0.5-1.7-2.8-1.4-3.7c0.2-0.5,0.5-1,0.9-1.4H1.1
					c-0.5,0.5-0.8,1-1,1.5c-0.4,1.2,0.2,3.3,1,4.8c0,0,0,0,0,0c-0.5,0.5-0.8,1-1,1.5C-0.3,581.5,0.3,583.6,1.1,585.1z"/>
			</g>
			<g>
				<path class="st0" d="M7.3,586.9L7.3,586.9L7.3,586.9c0.2-0.4,0.5-0.8,0.6-1.2c0.1-0.2,0.1-0.4,0.2-0.5H1.1c-0.5,0.5-0.8,1-1,1.5
					c-0.4,1.2,0.2,3.3,1,4.8c0,0,0,0,0,0l0,0c-0.5,0.5-0.8,1-1,1.5c-0.4,1.2,0.2,3.3,1,4.8h0h6.9c0.4-1.7-0.3-3.9-0.8-4.6l0,0
					c0.2-0.4,0.5-0.7,0.6-1.2C8.6,590.2,7.8,587.7,7.3,586.9z"/>
				<path class="st1" d="M1.1,597.8C1.1,597.8,1.1,597.8,1.1,597.8C1.1,597.8,1.1,597.8,1.1,597.8h1.3c0.6-0.6,1.3-1.2,2.1-1.6
					c1.5-0.8,2.4-1.8,2.8-3c-1.1,1.7-2.8,2.5-4,3.1c-0.1,0.1-0.3,0.2-0.4,0.2c-1.1-0.5-1.7-2.8-1.3-3.7c0.5-1.3,1.7-2.3,3-3
					c1.5-0.8,2.4-1.8,2.8-3c-1.1,1.7-2.8,2.5-4,3.1c-0.1,0.1-0.3,0.2-0.4,0.2c-1.1-0.5-1.7-2.8-1.4-3.7c0.2-0.5,0.5-1,0.9-1.4H1.1
					c-0.5,0.5-0.8,1-1,1.5c-0.4,1.2,0.2,3.3,1,4.8c0,0,0,0,0,0c-0.5,0.5-0.8,1-1,1.5C-0.3,594.2,0.3,596.3,1.1,597.8z"/>
			</g>
			<g>
				<path class="st0" d="M7.3,599.6L7.3,599.6L7.3,599.6c0.2-0.4,0.5-0.8,0.6-1.2c0.1-0.2,0.1-0.4,0.2-0.5H1.1c-0.5,0.5-0.8,1-1,1.5
					c-0.4,1.2,0.2,3.3,1,4.8c0,0,0,0,0,0l0,0c-0.5,0.5-0.8,1-1,1.5c-0.4,1.2,0.2,3.3,1,4.8h0h6.9c0.4-1.7-0.3-3.9-0.8-4.6l0,0
					c0.2-0.4,0.5-0.7,0.6-1.2C8.6,602.9,7.8,600.4,7.3,599.6z"/>
				<path class="st1" d="M1.1,610.5C1.1,610.5,1.1,610.5,1.1,610.5C1.1,610.5,1.1,610.5,1.1,610.5h1.3c0.6-0.6,1.3-1.2,2.1-1.6
					c1.5-0.8,2.4-1.8,2.8-3c-1.1,1.7-2.8,2.5-4,3.1c-0.1,0.1-0.3,0.2-0.4,0.2c-1.1-0.5-1.7-2.8-1.3-3.7c0.5-1.3,1.7-2.3,3-3
					c1.5-0.8,2.4-1.8,2.8-3c-1.1,1.7-2.8,2.5-4,3.1c-0.1,0.1-0.3,0.2-0.4,0.2c-1.1-0.5-1.7-2.8-1.4-3.7c0.2-0.5,0.5-1,0.9-1.4H1.1
					c-0.5,0.5-0.8,1-1,1.5c-0.4,1.2,0.2,3.3,1,4.8c0,0,0,0,0,0c-0.5,0.5-0.8,1-1,1.5C-0.3,606.9,0.3,609,1.1,610.5z"/>
			</g>
			<g>
				<path class="st0" d="M7.3,612.3L7.3,612.3L7.3,612.3c0.2-0.4,0.5-0.8,0.6-1.2c0.1-0.2,0.1-0.4,0.2-0.5H1.1c-0.5,0.5-0.8,1-1,1.5
					c-0.4,1.2,0.2,3.3,1,4.8c0,0,0,0,0,0l0,0c-0.5,0.5-0.8,1-1,1.5c-0.4,1.2,0.2,3.3,1,4.8h0h6.9c0.4-1.7-0.3-3.9-0.8-4.6l0,0
					c0.2-0.4,0.5-0.7,0.6-1.2C8.6,615.7,7.8,613.1,7.3,612.3z"/>
				<path class="st1" d="M1.1,623.2C1.1,623.2,1.1,623.2,1.1,623.2C1.1,623.2,1.1,623.2,1.1,623.2h1.3c0.6-0.6,1.3-1.2,2.1-1.6
					c1.5-0.8,2.4-1.8,2.8-3c-1.1,1.7-2.8,2.5-4,3.1c-0.1,0.1-0.3,0.2-0.4,0.2c-1.1-0.5-1.7-2.8-1.3-3.7c0.5-1.3,1.7-2.3,3-3
					c1.5-0.8,2.4-1.8,2.8-3c-1.1,1.7-2.8,2.5-4,3.1c-0.1,0.1-0.3,0.2-0.4,0.2c-1.1-0.5-1.7-2.8-1.4-3.7c0.2-0.5,0.5-1,0.9-1.4H1.1
					c-0.5,0.5-0.8,1-1,1.5c-0.4,1.2,0.2,3.3,1,4.8c0,0,0,0,0,0c-0.5,0.5-0.8,1-1,1.5C-0.3,619.6,0.3,621.7,1.1,623.2z"/>
			</g>
			<g>
				<path class="st0" d="M7.3,625L7.3,625L7.3,625c0.2-0.4,0.5-0.8,0.6-1.2c0.1-0.2,0.1-0.4,0.2-0.5H1.1c-0.5,0.5-0.8,1-1,1.5
					c-0.4,1.2,0.2,3.3,1,4.8c0,0,0,0,0,0l0,0c-0.5,0.5-0.8,1-1,1.5c-0.4,1.2,0.2,3.3,1,4.8h0h6.9c0.4-1.7-0.3-3.9-0.8-4.6l0,0
					c0.2-0.4,0.5-0.7,0.6-1.2C8.6,628.4,7.8,625.8,7.3,625z"/>
				<path class="st1" d="M1.1,636C1.1,636,1.1,636,1.1,636C1.1,636,1.1,636,1.1,636h1.3c0.6-0.6,1.3-1.2,2.1-1.6
					c1.5-0.8,2.4-1.8,2.8-3c-1.1,1.7-2.8,2.5-4,3.1c-0.1,0.1-0.3,0.2-0.4,0.2c-1.1-0.5-1.7-2.8-1.3-3.7c0.5-1.3,1.7-2.3,3-3
					c1.5-0.8,2.4-1.8,2.8-3c-1.1,1.7-2.8,2.5-4,3.1c-0.1,0.1-0.3,0.2-0.4,0.2c-1.1-0.5-1.7-2.8-1.4-3.7c0.2-0.5,0.5-1,0.9-1.4H1.1
					c-0.5,0.5-0.8,1-1,1.5c-0.4,1.2,0.2,3.3,1,4.8c0,0,0,0,0,0c-0.5,0.5-0.8,1-1,1.5C-0.3,632.4,0.3,634.5,1.1,636z"/>
			</g>
			<g>
				<path class="st0" d="M7.3,637.7L7.3,637.7L7.3,637.7c0.2-0.4,0.5-0.8,0.6-1.2c0.1-0.2,0.1-0.4,0.2-0.5H1.1c-0.5,0.5-0.8,1-1,1.5
					c-0.4,1.2,0.2,3.3,1,4.8c0,0,0,0,0,0l0,0c-0.5,0.5-0.8,1-1,1.5c-0.4,1.2,0.2,3.3,1,4.8h0h6.9c0.4-1.7-0.3-3.9-0.8-4.6l0,0
					c0.2-0.4,0.5-0.7,0.6-1.2C8.6,641.1,7.8,638.5,7.3,637.7z"/>
				<path class="st1" d="M1.1,648.7C1.1,648.7,1.1,648.7,1.1,648.7C1.1,648.7,1.1,648.7,1.1,648.7h1.3c0.6-0.6,1.3-1.2,2.1-1.6
					c1.5-0.8,2.4-1.8,2.8-3c-1.1,1.7-2.8,2.5-4,3.1c-0.1,0.1-0.3,0.2-0.4,0.2c-1.1-0.5-1.7-2.8-1.3-3.7c0.5-1.3,1.7-2.3,3-3
					c1.5-0.8,2.4-1.8,2.8-3c-1.1,1.7-2.8,2.5-4,3.1c-0.1,0.1-0.3,0.2-0.4,0.2c-1.1-0.5-1.7-2.8-1.4-3.7c0.2-0.5,0.5-1,0.9-1.4H1.1
					c-0.5,0.5-0.8,1-1,1.5c-0.4,1.2,0.2,3.3,1,4.8c0,0,0,0,0,0c-0.5,0.5-0.8,1-1,1.5C-0.3,645.1,0.3,647.2,1.1,648.7z"/>
			</g>
			<g>
				<path class="st0" d="M7.3,650.4L7.3,650.4L7.3,650.4c0.2-0.4,0.5-0.8,0.6-1.2c0.1-0.2,0.1-0.4,0.2-0.5H1.1c-0.5,0.5-0.8,1-1,1.5
					c-0.4,1.2,0.2,3.3,1,4.8c0,0,0,0,0,0l0,0c-0.5,0.5-0.8,1-1,1.5c-0.4,1.2,0.2,3.3,1,4.8h0h6.9c0.4-1.7-0.3-3.9-0.8-4.6l0,0
					c0.2-0.4,0.5-0.7,0.6-1.2C8.6,653.8,7.8,651.3,7.3,650.4z"/>
				<path class="st1" d="M1.1,661.4C1.1,661.4,1.1,661.4,1.1,661.4C1.1,661.4,1.1,661.4,1.1,661.4h1.3c0.6-0.6,1.3-1.2,2.1-1.6
					c1.5-0.8,2.4-1.8,2.8-3c-1.1,1.7-2.8,2.5-4,3.1c-0.1,0.1-0.3,0.2-0.4,0.2c-1.1-0.5-1.7-2.8-1.3-3.7c0.5-1.3,1.7-2.3,3-3
					c1.5-0.8,2.4-1.8,2.8-3c-1.1,1.7-2.8,2.5-4,3.1c-0.1,0.1-0.3,0.2-0.4,0.2c-1.1-0.5-1.7-2.8-1.4-3.7c0.2-0.5,0.5-1,0.9-1.4H1.1
					c-0.5,0.5-0.8,1-1,1.5c-0.4,1.2,0.2,3.3,1,4.8c0,0,0,0,0,0c-0.5,0.5-0.8,1-1,1.5C-0.3,657.8,0.3,659.9,1.1,661.4z"/>
			</g>
			<g>
				<path class="st0" d="M7.3,663.2L7.3,663.2L7.3,663.2c0.2-0.4,0.5-0.8,0.6-1.2c0.1-0.2,0.1-0.4,0.2-0.5H1.1c-0.5,0.5-0.8,1-1,1.5
					c-0.4,1.2,0.2,3.3,1,4.8c0,0,0,0,0,0l0,0c-0.5,0.5-0.8,1-1,1.5c-0.4,1.2,0.2,3.3,1,4.8h0h6.9c0.4-1.7-0.3-3.9-0.8-4.6l0,0
					c0.2-0.4,0.5-0.7,0.6-1.2C8.6,666.5,7.8,664,7.3,663.2z"/>
				<path class="st1" d="M1.1,674.1C1.1,674.1,1.1,674.1,1.1,674.1C1.1,674.1,1.1,674.1,1.1,674.1h1.3c0.6-0.6,1.3-1.2,2.1-1.6
					c1.5-0.8,2.4-1.8,2.8-3c-1.1,1.7-2.8,2.5-4,3.1c-0.1,0.1-0.3,0.2-0.4,0.2c-1.1-0.5-1.7-2.8-1.3-3.7c0.5-1.3,1.7-2.3,3-3
					c1.5-0.8,2.4-1.8,2.8-3c-1.1,1.7-2.8,2.5-4,3.1c-0.1,0.1-0.3,0.2-0.4,0.2c-1.1-0.5-1.7-2.8-1.4-3.7c0.2-0.5,0.5-1,0.9-1.4H1.1
					c-0.5,0.5-0.8,1-1,1.5c-0.4,1.2,0.2,3.3,1,4.8c0,0,0,0,0,0c-0.5,0.5-0.8,1-1,1.5C-0.3,670.5,0.3,672.6,1.1,674.1z"/>
			</g>
			<g>
				<path class="st0" d="M7.3,675.9L7.3,675.9L7.3,675.9c0.2-0.4,0.5-0.8,0.6-1.2c0.1-0.2,0.1-0.4,0.2-0.5H1.1c-0.5,0.5-0.8,1-1,1.5
					c-0.4,1.2,0.2,3.3,1,4.8c0,0,0,0,0,0l0,0c-0.5,0.5-0.8,1-1,1.5c-0.4,1.2,0.2,3.3,1,4.8h0h6.9c0.4-1.7-0.3-3.9-0.8-4.6l0,0
					c0.2-0.4,0.5-0.7,0.6-1.2C8.6,679.3,7.8,676.7,7.3,675.9z"/>
				<path class="st1" d="M1.1,686.8C1.1,686.8,1.1,686.8,1.1,686.8C1.1,686.8,1.1,686.8,1.1,686.8h1.3c0.6-0.6,1.3-1.2,2.1-1.6
					c1.5-0.8,2.4-1.8,2.8-3c-1.1,1.7-2.8,2.5-4,3.1c-0.1,0.1-0.3,0.2-0.4,0.2c-1.1-0.5-1.7-2.8-1.3-3.7c0.5-1.3,1.7-2.3,3-3
					c1.5-0.8,2.4-1.8,2.8-3c-1.1,1.7-2.8,2.5-4,3.1c-0.1,0.1-0.3,0.2-0.4,0.2c-1.1-0.5-1.7-2.8-1.4-3.7c0.2-0.5,0.5-1,0.9-1.4H1.1
					c-0.5,0.5-0.8,1-1,1.5c-0.4,1.2,0.2,3.3,1,4.8c0,0,0,0,0,0c-0.5,0.5-0.8,1-1,1.5C-0.3,683.2,0.3,685.3,1.1,686.8z"/>
			</g>
			<g>
				<path class="st0" d="M7.3,688.6L7.3,688.6L7.3,688.6c0.2-0.4,0.5-0.8,0.6-1.2c0.1-0.2,0.1-0.4,0.2-0.5H1.1c-0.5,0.5-0.8,1-1,1.5
					c-0.4,1.2,0.2,3.3,1,4.8c0,0,0,0,0,0l0,0c-0.5,0.5-0.8,1-1,1.5c-0.4,1.2,0.2,3.3,1,4.8h0h6.9c0.4-1.7-0.3-3.9-0.8-4.6l0,0
					c0.2-0.4,0.5-0.7,0.6-1.2C8.6,692,7.8,689.4,7.3,688.6z"/>
				<path class="st1" d="M1.1,699.6C1.1,699.6,1.1,699.6,1.1,699.6C1.1,699.6,1.1,699.6,1.1,699.6h1.3c0.6-0.6,1.3-1.2,2.1-1.6
					c1.5-0.8,2.4-1.8,2.8-3c-1.1,1.7-2.8,2.5-4,3.1c-0.1,0.1-0.3,0.2-0.4,0.2c-1.1-0.5-1.7-2.8-1.3-3.7c0.5-1.3,1.7-2.3,3-3
					c1.5-0.8,2.4-1.8,2.8-3c-1.1,1.7-2.8,2.5-4,3.1c-0.1,0.1-0.3,0.2-0.4,0.2c-1.1-0.5-1.7-2.8-1.4-3.7c0.2-0.5,0.5-1,0.9-1.4H1.1
					c-0.5,0.5-0.8,1-1,1.5c-0.4,1.2,0.2,3.3,1,4.8c0,0,0,0,0,0c-0.5,0.5-0.8,1-1,1.5C-0.3,696,0.3,698.1,1.1,699.6z"/>
			</g>
			<g>
				<path class="st0" d="M7.3,701.3L7.3,701.3L7.3,701.3c0.2-0.4,0.5-0.8,0.6-1.2c0.1-0.2,0.1-0.4,0.2-0.5H1.1c-0.5,0.5-0.8,1-1,1.5
					c-0.4,1.2,0.2,3.3,1,4.8c0,0,0,0,0,0l0,0c-0.5,0.5-0.8,1-1,1.5c-0.4,1.2,0.2,3.3,1,4.8h0h6.9c0.4-1.7-0.3-3.9-0.8-4.6l0,0
					c0.2-0.4,0.5-0.7,0.6-1.2C8.6,704.7,7.8,702.1,7.3,701.3z"/>
				<path class="st1" d="M1.1,712.3C1.1,712.3,1.1,712.3,1.1,712.3C1.1,712.3,1.1,712.3,1.1,712.3h1.3c0.6-0.6,1.3-1.2,2.1-1.6
					c1.5-0.8,2.4-1.8,2.8-3c-1.1,1.7-2.8,2.5-4,3.1c-0.1,0.1-0.3,0.2-0.4,0.2c-1.1-0.5-1.7-2.8-1.3-3.7c0.5-1.3,1.7-2.3,3-3
					c1.5-0.8,2.4-1.8,2.8-3c-1.1,1.7-2.8,2.5-4,3.1c-0.1,0.1-0.3,0.2-0.4,0.2c-1.1-0.5-1.7-2.8-1.4-3.7c0.2-0.5,0.5-1,0.9-1.4H1.1
					c-0.5,0.5-0.8,1-1,1.5c-0.4,1.2,0.2,3.3,1,4.8c0,0,0,0,0,0c-0.5,0.5-0.8,1-1,1.5C-0.3,708.7,0.3,710.8,1.1,712.3z"/>
			</g>
			<g>
				<path class="st0" d="M7.3,714L7.3,714L7.3,714c0.2-0.4,0.5-0.8,0.6-1.2c0.1-0.2,0.1-0.4,0.2-0.5H1.1c-0.5,0.5-0.8,1-1,1.5
					c-0.4,1.2,0.2,3.3,1,4.8c0,0,0,0,0,0l0,0c-0.5,0.5-0.8,1-1,1.5c-0.4,1.2,0.2,3.3,1,4.8h0h6.9c0.4-1.7-0.3-3.9-0.8-4.6l0,0
					c0.2-0.4,0.5-0.7,0.6-1.2C8.6,717.4,7.8,714.9,7.3,714z"/>
				<path class="st1" d="M1.1,725C1.1,725,1.1,725,1.1,725C1.1,725,1.1,725,1.1,725h1.3c0.6-0.6,1.3-1.2,2.1-1.6
					c1.5-0.8,2.4-1.8,2.8-3c-1.1,1.7-2.8,2.5-4,3.1c-0.1,0.1-0.3,0.2-0.4,0.2c-1.1-0.5-1.7-2.8-1.3-3.7c0.5-1.3,1.7-2.3,3-3
					c1.5-0.8,2.4-1.8,2.8-3c-1.1,1.7-2.8,2.5-4,3.1c-0.1,0.1-0.3,0.2-0.4,0.2c-1.1-0.5-1.7-2.8-1.4-3.7c0.2-0.5,0.5-1,0.9-1.4H1.1
					c-0.5,0.5-0.8,1-1,1.5c-0.4,1.2,0.2,3.3,1,4.8c0,0,0,0,0,0c-0.5,0.5-0.8,1-1,1.5C-0.3,721.4,0.3,723.5,1.1,725z"/>
			</g>
			<g>
				<path class="st0" d="M7.3,726.8L7.3,726.8L7.3,726.8c0.2-0.4,0.5-0.8,0.6-1.2c0.1-0.2,0.1-0.4,0.2-0.5H1.1c-0.5,0.5-0.8,1-1,1.5
					c-0.4,1.2,0.2,3.3,1,4.8c0,0,0,0,0,0l0,0c-0.5,0.5-0.8,1-1,1.5c-0.4,1.2,0.2,3.3,1,4.8h0h6.9c0.4-1.7-0.3-3.9-0.8-4.6l0,0
					c0.2-0.4,0.5-0.7,0.6-1.2C8.6,730.1,7.8,727.6,7.3,726.8z"/>
				<path class="st1" d="M1.1,737.7C1.1,737.7,1.1,737.7,1.1,737.7C1.1,737.7,1.1,737.7,1.1,737.7h1.3c0.6-0.6,1.3-1.2,2.1-1.6
					c1.5-0.8,2.4-1.8,2.8-3c-1.1,1.7-2.8,2.5-4,3.1c-0.1,0.1-0.3,0.2-0.4,0.2c-1.1-0.5-1.7-2.8-1.3-3.7c0.5-1.3,1.7-2.3,3-3
					c1.5-0.8,2.4-1.8,2.8-3c-1.1,1.7-2.8,2.5-4,3.1c-0.1,0.1-0.3,0.2-0.4,0.2c-1.1-0.5-1.7-2.8-1.4-3.7c0.2-0.5,0.5-1,0.9-1.4H1.1
					c-0.5,0.5-0.8,1-1,1.5c-0.4,1.2,0.2,3.3,1,4.8c0,0,0,0,0,0c-0.5,0.5-0.8,1-1,1.5C-0.3,734.1,0.3,736.2,1.1,737.7z"/>
			</g>
			<g>
				<path class="st0" d="M7.3,739.5L7.3,739.5L7.3,739.5c0.2-0.4,0.5-0.8,0.6-1.2c0.1-0.2,0.1-0.4,0.2-0.5H1.1c-0.5,0.5-0.8,1-1,1.5
					c-0.4,1.2,0.2,3.3,1,4.8c0,0,0,0,0,0l0,0c-0.5,0.5-0.8,1-1,1.5c-0.4,1.2,0.2,3.3,1,4.8h0h6.9c0.4-1.7-0.3-3.9-0.8-4.6l0,0
					c0.2-0.4,0.5-0.7,0.6-1.2C8.6,742.9,7.8,740.3,7.3,739.5z"/>
				<path class="st1" d="M1.1,750.4C1.1,750.4,1.1,750.4,1.1,750.4C1.1,750.4,1.1,750.4,1.1,750.4h1.3c0.6-0.6,1.3-1.2,2.1-1.6
					c1.5-0.8,2.4-1.8,2.8-3c-1.1,1.7-2.8,2.5-4,3.1c-0.1,0.1-0.3,0.2-0.4,0.2c-1.1-0.5-1.7-2.8-1.3-3.7c0.5-1.3,1.7-2.3,3-3
					c1.5-0.8,2.4-1.8,2.8-3c-1.1,1.7-2.8,2.5-4,3.1c-0.1,0.1-0.3,0.2-0.4,0.2c-1.1-0.5-1.7-2.8-1.4-3.7c0.2-0.5,0.5-1,0.9-1.4H1.1
					c-0.5,0.5-0.8,1-1,1.5c-0.4,1.2,0.2,3.3,1,4.8c0,0,0,0,0,0c-0.5,0.5-0.8,1-1,1.5C-0.3,746.8,0.3,748.9,1.1,750.4z"/>
			</g>
			<g>
				<path class="st0" d="M7.3,752.2L7.3,752.2L7.3,752.2c0.2-0.4,0.5-0.8,0.6-1.2c0.1-0.2,0.1-0.4,0.2-0.5H1.1c-0.5,0.5-0.8,1-1,1.5
					c-0.4,1.2,0.2,3.3,1,4.8c0,0,0,0,0,0l0,0c-0.5,0.5-0.8,1-1,1.5c-0.4,1.2,0.2,3.3,1,4.8h0h6.9c0.4-1.7-0.3-3.9-0.8-4.6l0,0
					c0.2-0.4,0.5-0.7,0.6-1.2C8.6,755.6,7.8,753,7.3,752.2z"/>
				<path class="st1" d="M1.1,763.2C1.1,763.2,1.1,763.2,1.1,763.2C1.1,763.2,1.1,763.2,1.1,763.2h1.3c0.6-0.6,1.3-1.2,2.1-1.6
					c1.5-0.8,2.4-1.8,2.8-3c-1.1,1.7-2.8,2.5-4,3.1c-0.1,0.1-0.3,0.2-0.4,0.2c-1.1-0.5-1.7-2.8-1.3-3.7c0.5-1.3,1.7-2.3,3-3
					c1.5-0.8,2.4-1.8,2.8-3c-1.1,1.7-2.8,2.5-4,3.1c-0.1,0.1-0.3,0.2-0.4,0.2c-1.1-0.5-1.7-2.8-1.4-3.7c0.2-0.5,0.5-1,0.9-1.4H1.1
					c-0.5,0.5-0.8,1-1,1.5c-0.4,1.2,0.2,3.3,1,4.8c0,0,0,0,0,0c-0.5,0.5-0.8,1-1,1.5C-0.3,759.6,0.3,761.7,1.1,763.2z"/>
			</g>
			<g>
				<path class="st0" d="M7.3,764.9L7.3,764.9L7.3,764.9c0.2-0.4,0.5-0.8,0.6-1.2c0.1-0.2,0.1-0.4,0.2-0.5H1.1c-0.5,0.5-0.8,1-1,1.5
					c-0.4,1.2,0.2,3.3,1,4.8c0,0,0,0,0,0l0,0c-0.5,0.5-0.8,1-1,1.5c-0.4,1.2,0.2,3.3,1,4.8h0h6.9c0.4-1.7-0.3-3.9-0.8-4.6l0,0
					c0.2-0.4,0.5-0.7,0.6-1.2C8.6,768.3,7.8,765.7,7.3,764.9z"/>
				<path class="st1" d="M1.1,775.9C1.1,775.9,1.1,775.9,1.1,775.9C1.1,775.9,1.1,775.9,1.1,775.9h1.3c0.6-0.6,1.3-1.2,2.1-1.6
					c1.5-0.8,2.4-1.8,2.8-3c-1.1,1.7-2.8,2.5-4,3.1c-0.1,0.1-0.3,0.2-0.4,0.2c-1.1-0.5-1.7-2.8-1.3-3.7c0.5-1.3,1.7-2.3,3-3
					c1.5-0.8,2.4-1.8,2.8-3c-1.1,1.7-2.8,2.5-4,3.1c-0.1,0.1-0.3,0.2-0.4,0.2c-1.1-0.5-1.7-2.8-1.4-3.7c0.2-0.5,0.5-1,0.9-1.4H1.1
					c-0.5,0.5-0.8,1-1,1.5c-0.4,1.2,0.2,3.3,1,4.8c0,0,0,0,0,0c-0.5,0.5-0.8,1-1,1.5C-0.3,772.3,0.3,774.4,1.1,775.9z"/>
			</g>
			<g>
				<path class="st0" d="M7.3,777.6L7.3,777.6L7.3,777.6c0.2-0.4,0.5-0.8,0.6-1.2c0.1-0.2,0.1-0.4,0.2-0.5H1.1c-0.5,0.5-0.8,1-1,1.5
					c-0.4,1.2,0.2,3.3,1,4.8c0,0,0,0,0,0l0,0c-0.5,0.5-0.8,1-1,1.5c-0.4,1.2,0.2,3.3,1,4.8h0h6.9c0.4-1.7-0.3-3.9-0.8-4.6l0,0
					c0.2-0.4,0.5-0.7,0.6-1.2C8.6,781,7.8,778.5,7.3,777.6z"/>
				<path class="st1" d="M1.1,788.6C1.1,788.6,1.1,788.6,1.1,788.6C1.1,788.6,1.1,788.6,1.1,788.6h1.3c0.6-0.6,1.3-1.2,2.1-1.6
					c1.5-0.8,2.4-1.8,2.8-3c-1.1,1.7-2.8,2.5-4,3.1c-0.1,0.1-0.3,0.2-0.4,0.2c-1.1-0.5-1.7-2.8-1.3-3.7c0.5-1.3,1.7-2.3,3-3
					c1.5-0.8,2.4-1.8,2.8-3c-1.1,1.7-2.8,2.5-4,3.1c-0.1,0.1-0.3,0.2-0.4,0.2c-1.1-0.5-1.7-2.8-1.4-3.7c0.2-0.5,0.5-1,0.9-1.4H1.1
					c-0.5,0.5-0.8,1-1,1.5c-0.4,1.2,0.2,3.3,1,4.8c0,0,0,0,0,0c-0.5,0.5-0.8,1-1,1.5C-0.3,785,0.3,787.1,1.1,788.6z"/>
			</g>
			<g>
				<path class="st0" d="M7.3,790.4L7.3,790.4L7.3,790.4c0.2-0.4,0.5-0.8,0.6-1.2c0.1-0.2,0.1-0.4,0.2-0.5H1.1c-0.5,0.5-0.8,1-1,1.5
					c-0.4,1.2,0.2,3.3,1,4.8c0,0,0,0,0,0l0,0c-0.5,0.5-0.8,1-1,1.5c-0.4,1.2,0.2,3.3,1,4.8h0h6.9c0.4-1.7-0.3-3.9-0.8-4.6l0,0
					c0.2-0.4,0.5-0.7,0.6-1.2C8.6,793.7,7.8,791.2,7.3,790.4z"/>
				<path class="st1" d="M1.1,801.3C1.1,801.3,1.1,801.3,1.1,801.3C1.1,801.3,1.1,801.3,1.1,801.3h1.3c0.6-0.6,1.3-1.2,2.1-1.6
					c1.5-0.8,2.4-1.8,2.8-3c-1.1,1.7-2.8,2.5-4,3.1c-0.1,0.1-0.3,0.2-0.4,0.2c-1.1-0.5-1.7-2.8-1.3-3.7c0.5-1.3,1.7-2.3,3-3
					c1.5-0.8,2.4-1.8,2.8-3c-1.1,1.7-2.8,2.5-4,3.1c-0.1,0.1-0.3,0.2-0.4,0.2c-1.1-0.5-1.7-2.8-1.4-3.7c0.2-0.5,0.5-1,0.9-1.4H1.1
					c-0.5,0.5-0.8,1-1,1.5c-0.4,1.2,0.2,3.3,1,4.8c0,0,0,0,0,0c-0.5,0.5-0.8,1-1,1.5C-0.3,797.7,0.3,799.8,1.1,801.3z"/>
			</g>
			<g>
				<path class="st0" d="M7.3,803.1L7.3,803.1L7.3,803.1c0.2-0.4,0.5-0.8,0.6-1.2c0.1-0.2,0.1-0.4,0.2-0.5H1.1c-0.5,0.5-0.8,1-1,1.5
					c-0.4,1.2,0.2,3.3,1,4.8c0,0,0,0,0,0l0,0c-0.5,0.5-0.8,1-1,1.5c-0.4,1.2,0.2,3.3,1,4.8h0h6.9c0.4-1.7-0.3-3.9-0.8-4.6l0,0
					c0.2-0.4,0.5-0.7,0.6-1.2C8.6,806.5,7.8,803.9,7.3,803.1z"/>
				<path class="st1" d="M1.1,814C1.1,814,1.1,814,1.1,814C1.1,814,1.1,814,1.1,814h1.3c0.6-0.6,1.3-1.2,2.1-1.6
					c1.5-0.8,2.4-1.8,2.8-3c-1.1,1.7-2.8,2.5-4,3.1c-0.1,0.1-0.3,0.2-0.4,0.2c-1.1-0.5-1.7-2.8-1.3-3.7c0.5-1.3,1.7-2.3,3-3
					c1.5-0.8,2.4-1.8,2.8-3c-1.1,1.7-2.8,2.5-4,3.1c-0.1,0.1-0.3,0.2-0.4,0.2c-1.1-0.5-1.7-2.8-1.4-3.7c0.2-0.5,0.5-1,0.9-1.4H1.1
					c-0.5,0.5-0.8,1-1,1.5c-0.4,1.2,0.2,3.3,1,4.8c0,0,0,0,0,0c-0.5,0.5-0.8,1-1,1.5C-0.3,810.4,0.3,812.5,1.1,814z"/>
			</g>
			<g>
				<path class="st0" d="M7.3,815.8L7.3,815.8L7.3,815.8c0.2-0.4,0.5-0.8,0.6-1.2c0.1-0.2,0.1-0.4,0.2-0.5H1.1c-0.5,0.5-0.8,1-1,1.5
					c-0.4,1.2,0.2,3.3,1,4.8c0,0,0,0,0,0l0,0c-0.5,0.5-0.8,1-1,1.5c-0.4,1.2,0.2,3.3,1,4.8h0h6.9c0.4-1.7-0.3-3.9-0.8-4.6l0,0
					c0.2-0.4,0.5-0.7,0.6-1.2C8.6,819.2,7.8,816.6,7.3,815.8z"/>
				<path class="st1" d="M1.1,826.8C1.1,826.8,1.1,826.8,1.1,826.8C1.1,826.8,1.1,826.8,1.1,826.8h1.3c0.6-0.6,1.3-1.2,2.1-1.6
					c1.5-0.8,2.4-1.8,2.8-3c-1.1,1.7-2.8,2.5-4,3.1c-0.1,0.1-0.3,0.2-0.4,0.2c-1.1-0.5-1.7-2.8-1.3-3.7c0.5-1.3,1.7-2.3,3-3
					c1.5-0.8,2.4-1.8,2.8-3c-1.1,1.7-2.8,2.5-4,3.1c-0.1,0.1-0.3,0.2-0.4,0.2c-1.1-0.5-1.7-2.8-1.4-3.7c0.2-0.5,0.5-1,0.9-1.4H1.1
					c-0.5,0.5-0.8,1-1,1.5c-0.4,1.2,0.2,3.3,1,4.8c0,0,0,0,0,0c-0.5,0.5-0.8,1-1,1.5C-0.3,823.2,0.3,825.3,1.1,826.8z"/>
			</g>
			<g>
				<path class="st0" d="M7.3,828.5L7.3,828.5L7.3,828.5c0.2-0.4,0.5-0.8,0.6-1.2c0.1-0.2,0.1-0.4,0.2-0.5H1.1c-0.5,0.5-0.8,1-1,1.5
					c-0.4,1.2,0.2,3.3,1,4.8c0,0,0,0,0,0l0,0c-0.5,0.5-0.8,1-1,1.5c-0.4,1.2,0.2,3.3,1,4.8h0h6.9c0.4-1.7-0.3-3.9-0.8-4.6l0,0
					c0.2-0.4,0.5-0.7,0.6-1.2C8.6,831.9,7.8,829.3,7.3,828.5z"/>
				<path class="st1" d="M1.1,839.5C1.1,839.5,1.1,839.5,1.1,839.5C1.1,839.5,1.1,839.5,1.1,839.5h1.3c0.6-0.6,1.3-1.2,2.1-1.6
					c1.5-0.8,2.4-1.8,2.8-3c-1.1,1.7-2.8,2.5-4,3.1c-0.1,0.1-0.3,0.2-0.4,0.2c-1.1-0.5-1.7-2.8-1.3-3.7c0.5-1.3,1.7-2.3,3-3
					c1.5-0.8,2.4-1.8,2.8-3c-1.1,1.7-2.8,2.5-4,3.1c-0.1,0.1-0.3,0.2-0.4,0.2c-1.1-0.5-1.7-2.8-1.4-3.7c0.2-0.5,0.5-1,0.9-1.4H1.1
					c-0.5,0.5-0.8,1-1,1.5c-0.4,1.2,0.2,3.3,1,4.8c0,0,0,0,0,0c-0.5,0.5-0.8,1-1,1.5C-0.3,835.9,0.3,838,1.1,839.5z"/>
			</g>
			<g>
				<path class="st0" d="M7.3,841.2L7.3,841.2L7.3,841.2c0.2-0.4,0.5-0.8,0.6-1.2c0.1-0.2,0.1-0.4,0.2-0.5H1.1c-0.5,0.5-0.8,1-1,1.5
					c-0.4,1.2,0.2,3.3,1,4.8c0,0,0,0,0,0l0,0c-0.5,0.5-0.8,1-1,1.5c-0.4,1.2,0.2,3.3,1,4.8h0h6.9c0.4-1.7-0.3-3.9-0.8-4.6l0,0
					c0.2-0.4,0.5-0.7,0.6-1.2C8.6,844.6,7.8,842.1,7.3,841.2z"/>
				<path class="st1" d="M1.1,852.2C1.1,852.2,1.1,852.2,1.1,852.2C1.1,852.2,1.1,852.2,1.1,852.2h1.3c0.6-0.6,1.3-1.2,2.1-1.6
					c1.5-0.8,2.4-1.8,2.8-3c-1.1,1.7-2.8,2.5-4,3.1c-0.1,0.1-0.3,0.2-0.4,0.2c-1.1-0.5-1.7-2.8-1.3-3.7c0.5-1.3,1.7-2.3,3-3
					c1.5-0.8,2.4-1.8,2.8-3c-1.1,1.7-2.8,2.5-4,3.1c-0.1,0.1-0.3,0.2-0.4,0.2c-1.1-0.5-1.7-2.8-1.4-3.7c0.2-0.5,0.5-1,0.9-1.4H1.1
					c-0.5,0.5-0.8,1-1,1.5c-0.4,1.2,0.2,3.3,1,4.8c0,0,0,0,0,0c-0.5,0.5-0.8,1-1,1.5C-0.3,848.6,0.3,850.7,1.1,852.2z"/>
			</g>
			<g>
				<path class="st0" d="M7.3,854L7.3,854L7.3,854c0.2-0.4,0.5-0.8,0.6-1.2c0.1-0.2,0.1-0.4,0.2-0.5H1.1c-0.5,0.5-0.8,1-1,1.5
					c-0.4,1.2,0.2,3.3,1,4.8c0,0,0,0,0,0l0,0c-0.5,0.5-0.8,1-1,1.5c-0.4,1.2,0.2,3.3,1,4.8h0h6.9c0.4-1.7-0.3-3.9-0.8-4.6l0,0
					c0.2-0.4,0.5-0.7,0.6-1.2C8.6,857.3,7.8,854.8,7.3,854z"/>
				<path class="st1" d="M1.1,864.9C1.1,864.9,1.1,864.9,1.1,864.9C1.1,864.9,1.1,864.9,1.1,864.9h1.3c0.6-0.6,1.3-1.2,2.1-1.6
					c1.5-0.8,2.4-1.8,2.8-3c-1.1,1.7-2.8,2.5-4,3.1c-0.1,0.1-0.3,0.2-0.4,0.2c-1.1-0.5-1.7-2.8-1.3-3.7c0.5-1.3,1.7-2.3,3-3
					c1.5-0.8,2.4-1.8,2.8-3c-1.1,1.7-2.8,2.5-4,3.1c-0.1,0.1-0.3,0.2-0.4,0.2c-1.1-0.5-1.7-2.8-1.4-3.7c0.2-0.5,0.5-1,0.9-1.4H1.1
					c-0.5,0.5-0.8,1-1,1.5c-0.4,1.2,0.2,3.3,1,4.8c0,0,0,0,0,0c-0.5,0.5-0.8,1-1,1.5C-0.3,861.3,0.3,863.4,1.1,864.9z"/>
			</g>
			<g>
				<path class="st0" d="M7.3,866.7L7.3,866.7L7.3,866.7c0.2-0.4,0.5-0.8,0.6-1.2c0.1-0.2,0.1-0.4,0.2-0.5H1.1c-0.5,0.5-0.8,1-1,1.5
					c-0.4,1.2,0.2,3.3,1,4.8c0,0,0,0,0,0l0,0c-0.5,0.5-0.8,1-1,1.5c-0.4,1.2,0.2,3.3,1,4.8h0h6.9c0.4-1.7-0.3-3.9-0.8-4.6l0,0
					c0.2-0.4,0.5-0.7,0.6-1.2C8.6,870.1,7.8,867.5,7.3,866.7z"/>
				<path class="st1" d="M1.1,877.6C1.1,877.6,1.1,877.6,1.1,877.6C1.1,877.6,1.1,877.6,1.1,877.6h1.3c0.6-0.6,1.3-1.2,2.1-1.6
					c1.5-0.8,2.4-1.8,2.8-3c-1.1,1.7-2.8,2.5-4,3.1c-0.1,0.1-0.3,0.2-0.4,0.2c-1.1-0.5-1.7-2.8-1.3-3.7c0.5-1.3,1.7-2.3,3-3
					c1.5-0.8,2.4-1.8,2.8-3c-1.1,1.7-2.8,2.5-4,3.1c-0.1,0.1-0.3,0.2-0.4,0.2c-1.1-0.5-1.7-2.8-1.4-3.7c0.2-0.5,0.5-1,0.9-1.4H1.1
					c-0.5,0.5-0.8,1-1,1.5c-0.4,1.2,0.2,3.3,1,4.8c0,0,0,0,0,0c-0.5,0.5-0.8,1-1,1.5C-0.3,874,0.3,876.1,1.1,877.6z"/>
			</g>
			<g>
				<path class="st0" d="M7.3,879.4L7.3,879.4L7.3,879.4c0.2-0.4,0.5-0.8,0.6-1.2c0.1-0.2,0.1-0.4,0.2-0.5H1.1c-0.5,0.5-0.8,1-1,1.5
					c-0.4,1.2,0.2,3.3,1,4.8c0,0,0,0,0,0l0,0c-0.5,0.5-0.8,1-1,1.5c-0.4,1.2,0.2,3.3,1,4.8h0h6.9c0.4-1.7-0.3-3.9-0.8-4.6l0,0
					c0.2-0.4,0.5-0.7,0.6-1.2C8.6,882.8,7.8,880.2,7.3,879.4z"/>
				<path class="st1" d="M1.1,890.4C1.1,890.4,1.1,890.4,1.1,890.4C1.1,890.4,1.1,890.4,1.1,890.4h1.3c0.6-0.6,1.3-1.2,2.1-1.6
					c1.5-0.8,2.4-1.8,2.8-3c-1.1,1.7-2.8,2.5-4,3.1c-0.1,0.1-0.3,0.2-0.4,0.2c-1.1-0.5-1.7-2.8-1.3-3.7c0.5-1.3,1.7-2.3,3-3
					c1.5-0.8,2.4-1.8,2.8-3c-1.1,1.7-2.8,2.5-4,3.1c-0.1,0.1-0.3,0.2-0.4,0.2c-1.1-0.5-1.7-2.8-1.4-3.7c0.2-0.5,0.5-1,0.9-1.4H1.1
					c-0.5,0.5-0.8,1-1,1.5c-0.4,1.2,0.2,3.3,1,4.8c0,0,0,0,0,0c-0.5,0.5-0.8,1-1,1.5C-0.3,886.8,0.3,888.9,1.1,890.4z"/>
			</g>
			<g>
				<path class="st0" d="M7.3,892.1L7.3,892.1L7.3,892.1c0.2-0.4,0.5-0.8,0.6-1.2c0.1-0.2,0.1-0.4,0.2-0.5H1.1c-0.5,0.5-0.8,1-1,1.5
					c-0.4,1.2,0.2,3.3,1,4.8c0,0,0,0,0,0l0,0c-0.5,0.5-0.8,1-1,1.5c-0.4,1.2,0.2,3.3,1,4.8h0h6.9c0.4-1.7-0.3-3.9-0.8-4.6l0,0
					c0.2-0.4,0.5-0.7,0.6-1.2C8.6,895.5,7.8,892.9,7.3,892.1z"/>
				<path class="st1" d="M1.1,903.1C1.1,903.1,1.1,903.1,1.1,903.1C1.1,903.1,1.1,903.1,1.1,903.1h1.3c0.6-0.6,1.3-1.2,2.1-1.6
					c1.5-0.8,2.4-1.8,2.8-3c-1.1,1.7-2.8,2.5-4,3.1c-0.1,0.1-0.3,0.2-0.4,0.2c-1.1-0.5-1.7-2.8-1.3-3.7c0.5-1.3,1.7-2.3,3-3
					c1.5-0.8,2.4-1.8,2.8-3c-1.1,1.7-2.8,2.5-4,3.1c-0.1,0.1-0.3,0.2-0.4,0.2c-1.1-0.5-1.7-2.8-1.4-3.7c0.2-0.5,0.5-1,0.9-1.4H1.1
					c-0.5,0.5-0.8,1-1,1.5c-0.4,1.2,0.2,3.3,1,4.8c0,0,0,0,0,0c-0.5,0.5-0.8,1-1,1.5C-0.3,899.5,0.3,901.6,1.1,903.1z"/>
			</g>
			<g>
				<path class="st0" d="M7.3,904.8L7.3,904.8L7.3,904.8c0.2-0.4,0.5-0.8,0.6-1.2c0.1-0.2,0.1-0.4,0.2-0.5H1.1c-0.5,0.5-0.8,1-1,1.5
					c-0.4,1.2,0.2,3.3,1,4.8c0,0,0,0,0,0l0,0c-0.5,0.5-0.8,1-1,1.5c-0.4,1.2,0.2,3.3,1,4.8h0h6.9c0.4-1.7-0.3-3.9-0.8-4.6l0,0
					c0.2-0.4,0.5-0.7,0.6-1.2C8.6,908.2,7.8,905.7,7.3,904.8z"/>
				<path class="st1" d="M1.1,915.8C1.1,915.8,1.1,915.8,1.1,915.8C1.1,915.8,1.1,915.8,1.1,915.8h1.3c0.6-0.6,1.3-1.2,2.1-1.6
					c1.5-0.8,2.4-1.8,2.8-3c-1.1,1.7-2.8,2.5-4,3.1c-0.1,0.1-0.3,0.2-0.4,0.2c-1.1-0.5-1.7-2.8-1.3-3.7c0.5-1.3,1.7-2.3,3-3
					c1.5-0.8,2.4-1.8,2.8-3c-1.1,1.7-2.8,2.5-4,3.1c-0.1,0.1-0.3,0.2-0.4,0.2c-1.1-0.5-1.7-2.8-1.4-3.7c0.2-0.5,0.5-1,0.9-1.4H1.1
					c-0.5,0.5-0.8,1-1,1.5c-0.4,1.2,0.2,3.3,1,4.8c0,0,0,0,0,0c-0.5,0.5-0.8,1-1,1.5C-0.3,912.2,0.3,914.3,1.1,915.8z"/>
			</g>
			<g>
				<path class="st0" d="M7.3,917.6L7.3,917.6L7.3,917.6c0.2-0.4,0.5-0.8,0.6-1.2c0.1-0.2,0.1-0.4,0.2-0.5H1.1c-0.5,0.5-0.8,1-1,1.5
					c-0.4,1.2,0.2,3.3,1,4.8c0,0,0,0,0,0l0,0c-0.5,0.5-0.8,1-1,1.5c-0.4,1.2,0.2,3.3,1,4.8h0h6.9c0.4-1.7-0.3-3.9-0.8-4.6l0,0
					c0.2-0.4,0.5-0.7,0.6-1.2C8.6,920.9,7.8,918.4,7.3,917.6z"/>
				<path class="st1" d="M1.1,928.5C1.1,928.5,1.1,928.5,1.1,928.5C1.1,928.5,1.1,928.5,1.1,928.5h1.3c0.6-0.6,1.3-1.2,2.1-1.6
					c1.5-0.8,2.4-1.8,2.8-3c-1.1,1.7-2.8,2.5-4,3.1c-0.1,0.1-0.3,0.2-0.4,0.2c-1.1-0.5-1.7-2.8-1.3-3.7c0.5-1.3,1.7-2.3,3-3
					c1.5-0.8,2.4-1.8,2.8-3c-1.1,1.7-2.8,2.5-4,3.1c-0.1,0.1-0.3,0.2-0.4,0.2c-1.1-0.5-1.7-2.8-1.4-3.7c0.2-0.5,0.5-1,0.9-1.4H1.1
					c-0.5,0.5-0.8,1-1,1.5c-0.4,1.2,0.2,3.3,1,4.8c0,0,0,0,0,0c-0.5,0.5-0.8,1-1,1.5C-0.3,924.9,0.3,927,1.1,928.5z"/>
			</g>
			<g>
				<path class="st0" d="M7.3,930.3L7.3,930.3L7.3,930.3c0.2-0.4,0.5-0.8,0.6-1.2c0.1-0.2,0.1-0.4,0.2-0.5H1.1c-0.5,0.5-0.8,1-1,1.5
					c-0.4,1.2,0.2,3.3,1,4.8c0,0,0,0,0,0l0,0c-0.5,0.5-0.8,1-1,1.5c-0.4,1.2,0.2,3.3,1,4.8h0h6.9c0.4-1.7-0.3-3.9-0.8-4.6l0,0
					c0.2-0.4,0.5-0.7,0.6-1.2C8.6,933.6,7.8,931.1,7.3,930.3z"/>
				<path class="st1" d="M1.1,941.2C1.1,941.2,1.1,941.2,1.1,941.2C1.1,941.2,1.1,941.2,1.1,941.2h1.3c0.6-0.6,1.3-1.2,2.1-1.6
					c1.5-0.8,2.4-1.8,2.8-3c-1.1,1.7-2.8,2.5-4,3.1c-0.1,0.1-0.3,0.2-0.4,0.2c-1.1-0.5-1.7-2.8-1.3-3.7c0.5-1.3,1.7-2.3,3-3
					c1.5-0.8,2.4-1.8,2.8-3c-1.1,1.7-2.8,2.5-4,3.1c-0.1,0.1-0.3,0.2-0.4,0.2c-1.1-0.5-1.7-2.8-1.4-3.7c0.2-0.5,0.5-1,0.9-1.4H1.1
					c-0.5,0.5-0.8,1-1,1.5c-0.4,1.2,0.2,3.3,1,4.8c0,0,0,0,0,0c-0.5,0.5-0.8,1-1,1.5C-0.3,937.6,0.3,939.7,1.1,941.2z"/>
			</g>
			<g>
				<path class="st0" d="M7.3,943L7.3,943L7.3,943c0.2-0.4,0.5-0.8,0.6-1.2c0.1-0.2,0.1-0.4,0.2-0.5H1.1c-0.5,0.5-0.8,1-1,1.5
					c-0.4,1.2,0.2,3.3,1,4.8c0,0,0,0,0,0l0,0c-0.5,0.5-0.8,1-1,1.5c-0.4,1.2,0.2,3.3,1,4.8h0h6.9c0.4-1.7-0.3-3.9-0.8-4.6l0,0
					c0.2-0.4,0.5-0.7,0.6-1.2C8.6,946.4,7.8,943.8,7.3,943z"/>
				<path class="st1" d="M1.1,953.9C1.1,953.9,1.1,953.9,1.1,953.9C1.1,953.9,1.1,953.9,1.1,953.9h1.3c0.6-0.6,1.3-1.2,2.1-1.6
					c1.5-0.8,2.4-1.8,2.8-3c-1.1,1.7-2.8,2.5-4,3.1c-0.1,0.1-0.3,0.2-0.4,0.2c-1.1-0.5-1.7-2.8-1.3-3.7c0.5-1.3,1.7-2.3,3-3
					c1.5-0.8,2.4-1.8,2.8-3c-1.1,1.7-2.8,2.5-4,3.1c-0.1,0.1-0.3,0.2-0.4,0.2c-1.1-0.5-1.7-2.8-1.4-3.7c0.2-0.5,0.5-1,0.9-1.4H1.1
					c-0.5,0.5-0.8,1-1,1.5c-0.4,1.2,0.2,3.3,1,4.8c0,0,0,0,0,0c-0.5,0.5-0.8,1-1,1.5C-0.3,950.4,0.3,952.4,1.1,953.9z"/>
			</g>
			<g>
				<path class="st0" d="M7.3,955.7L7.3,955.7L7.3,955.7c0.2-0.4,0.5-0.8,0.6-1.2c0.1-0.2,0.1-0.4,0.2-0.5H1.1c-0.5,0.5-0.8,1-1,1.5
					c-0.4,1.2,0.2,3.3,1,4.8c0,0,0,0,0,0l0,0c-0.5,0.5-0.8,1-1,1.5c-0.4,1.2,0.2,3.3,1,4.8h0h6.9c0.4-1.7-0.3-3.9-0.8-4.6l0,0
					c0.2-0.4,0.5-0.7,0.6-1.2C8.6,959.1,7.8,956.5,7.3,955.7z"/>
				<path class="st1" d="M1.1,966.7C1.1,966.7,1.1,966.7,1.1,966.7C1.1,966.7,1.1,966.7,1.1,966.7h1.3c0.6-0.6,1.3-1.2,2.1-1.6
					c1.5-0.8,2.4-1.8,2.8-3c-1.1,1.7-2.8,2.5-4,3.1c-0.1,0.1-0.3,0.2-0.4,0.2c-1.1-0.5-1.7-2.8-1.3-3.7c0.5-1.3,1.7-2.3,3-3
					c1.5-0.8,2.4-1.8,2.8-3c-1.1,1.7-2.8,2.5-4,3.1c-0.1,0.1-0.3,0.2-0.4,0.2c-1.1-0.5-1.7-2.8-1.4-3.7c0.2-0.5,0.5-1,0.9-1.4H1.1
					c-0.5,0.5-0.8,1-1,1.5c-0.4,1.2,0.2,3.3,1,4.8c0,0,0,0,0,0c-0.5,0.5-0.8,1-1,1.5C-0.3,963.1,0.3,965.2,1.1,966.7z"/>
			</g>
			<g>
				<path class="st0" d="M7.3,968.4L7.3,968.4L7.3,968.4c0.2-0.4,0.5-0.8,0.6-1.2c0.1-0.2,0.1-0.4,0.2-0.5H1.1c-0.5,0.5-0.8,1-1,1.5
					c-0.4,1.2,0.2,3.3,1,4.8c0,0,0,0,0,0l0,0c-0.5,0.5-0.8,1-1,1.5c-0.4,1.2,0.2,3.3,1,4.8h0h6.9c0.4-1.7-0.3-3.9-0.8-4.6l0,0
					c0.2-0.4,0.5-0.7,0.6-1.2C8.6,971.8,7.8,969.2,7.3,968.4z"/>
				<path class="st1" d="M1.1,979.4C1.1,979.4,1.1,979.4,1.1,979.4C1.1,979.4,1.1,979.4,1.1,979.4h1.3c0.6-0.6,1.3-1.2,2.1-1.6
					c1.5-0.8,2.4-1.8,2.8-3c-1.1,1.7-2.8,2.5-4,3.1C3.1,978,3,978,2.8,978.1c-1.1-0.5-1.7-2.8-1.3-3.7c0.5-1.3,1.7-2.3,3-3
					c1.5-0.8,2.4-1.8,2.8-3c-1.1,1.7-2.8,2.5-4,3.1c-0.1,0.1-0.3,0.2-0.4,0.2c-1.1-0.5-1.7-2.8-1.4-3.7c0.2-0.5,0.5-1,0.9-1.4H1.1
					c-0.5,0.5-0.8,1-1,1.5c-0.4,1.2,0.2,3.3,1,4.8c0,0,0,0,0,0c-0.5,0.5-0.8,1-1,1.5C-0.3,975.8,0.3,977.9,1.1,979.4z"/>
			</g>
			<g>
				<path class="st0" d="M7.3,981.2L7.3,981.2L7.3,981.2c0.2-0.4,0.5-0.8,0.6-1.2c0.1-0.2,0.1-0.4,0.2-0.5H1.1c-0.5,0.5-0.8,1-1,1.5
					c-0.4,1.2,0.2,3.3,1,4.8c0,0,0,0,0,0l0,0c-0.5,0.5-0.8,1-1,1.5c-0.4,1.2,0.2,3.3,1,4.8h0h6.9c0.4-1.7-0.3-3.9-0.8-4.6l0,0
					c0.2-0.4,0.5-0.7,0.6-1.2C8.6,984.5,7.8,982,7.3,981.2z"/>
				<path class="st1" d="M1.1,992.1C1.1,992.1,1.1,992.1,1.1,992.1C1.1,992.1,1.1,992.1,1.1,992.1h1.3c0.6-0.6,1.3-1.2,2.1-1.6
					c1.5-0.8,2.4-1.8,2.8-3c-1.1,1.7-2.8,2.5-4,3.1c-0.1,0.1-0.3,0.2-0.4,0.2c-1.1-0.5-1.7-2.8-1.3-3.7c0.5-1.3,1.7-2.3,3-3
					c1.5-0.8,2.4-1.8,2.8-3c-1.1,1.7-2.8,2.5-4,3.1c-0.1,0.1-0.3,0.2-0.4,0.2c-1.1-0.5-1.7-2.8-1.4-3.7c0.2-0.5,0.5-1,0.9-1.4H1.1
					c-0.5,0.5-0.8,1-1,1.5c-0.4,1.2,0.2,3.3,1,4.8c0,0,0,0,0,0c-0.5,0.5-0.8,1-1,1.5C-0.3,988.5,0.3,990.6,1.1,992.1z"/>
			</g>
			<g>
				<path class="st0" d="M7.3,993.9L7.3,993.9L7.3,993.9c0.2-0.4,0.5-0.8,0.6-1.2c0.1-0.2,0.1-0.4,0.2-0.5H1.1c-0.5,0.5-0.8,1-1,1.5
					c-0.4,1.2,0.2,3.3,1,4.8c0,0,0,0,0,0l0,0c-0.5,0.5-0.8,1-1,1.5c-0.4,1.2,0.2,3.3,1,4.8h0h6.9c0.4-1.7-0.3-3.9-0.8-4.6l0,0
					c0.2-0.4,0.5-0.7,0.6-1.2C8.6,997.2,7.8,994.7,7.3,993.9z"/>
				<path class="st1" d="M1.1,1004.8C1.1,1004.8,1.1,1004.8,1.1,1004.8C1.1,1004.8,1.1,1004.8,1.1,1004.8h1.3
					c0.6-0.6,1.3-1.2,2.1-1.6c1.5-0.8,2.4-1.8,2.8-3c-1.1,1.7-2.8,2.5-4,3.1c-0.1,0.1-0.3,0.2-0.4,0.2c-1.1-0.5-1.7-2.8-1.3-3.7
					c0.5-1.3,1.7-2.3,3-3c1.5-0.8,2.4-1.8,2.8-3c-1.1,1.7-2.8,2.5-4,3.1c-0.1,0.1-0.3,0.2-0.4,0.2c-1.1-0.5-1.7-2.8-1.4-3.7
					c0.2-0.5,0.5-1,0.9-1.4H1.1c-0.5,0.5-0.8,1-1,1.5c-0.4,1.2,0.2,3.3,1,4.8c0,0,0,0,0,0c-0.5,0.5-0.8,1-1,1.5
					C-0.3,1001.2,0.3,1003.3,1.1,1004.8z"/>
			</g>
			<g>
				<path class="st0" d="M7.3,1006.6L7.3,1006.6L7.3,1006.6c0.2-0.4,0.5-0.8,0.6-1.2c0.1-0.2,0.1-0.4,0.2-0.5H1.1
					c-0.5,0.5-0.8,1-1,1.5c-0.4,1.2,0.2,3.3,1,4.8c0,0,0,0,0,0l0,0c-0.5,0.5-0.8,1-1,1.5c-0.4,1.2,0.2,3.3,1,4.8h0h6.9
					c0.4-1.7-0.3-3.9-0.8-4.6l0,0c0.2-0.4,0.5-0.7,0.6-1.2C8.6,1010,7.8,1007.4,7.3,1006.6z"/>
				<path class="st1" d="M1.1,1017.5C1.1,1017.5,1.1,1017.5,1.1,1017.5C1.1,1017.5,1.1,1017.5,1.1,1017.5h1.3
					c0.6-0.6,1.3-1.2,2.1-1.6c1.5-0.8,2.4-1.8,2.8-3c-1.1,1.7-2.8,2.5-4,3.1c-0.1,0.1-0.3,0.2-0.4,0.2c-1.1-0.5-1.7-2.8-1.3-3.7
					c0.5-1.3,1.7-2.3,3-3c1.5-0.8,2.4-1.8,2.8-3c-1.1,1.7-2.8,2.5-4,3.1c-0.1,0.1-0.3,0.2-0.4,0.2c-1.1-0.5-1.7-2.8-1.4-3.7
					c0.2-0.5,0.5-1,0.9-1.4H1.1c-0.5,0.5-0.8,1-1,1.5c-0.4,1.2,0.2,3.3,1,4.8c0,0,0,0,0,0c-0.5,0.5-0.8,1-1,1.5
					C-0.3,1013.9,0.3,1016,1.1,1017.5z"/>
			</g>
			<g>
				<path class="st0" d="M7.3,1019.3L7.3,1019.3L7.3,1019.3c0.2-0.4,0.5-0.8,0.6-1.2c0.1-0.2,0.1-0.4,0.2-0.5H1.1
					c-0.5,0.5-0.8,1-1,1.5c-0.4,1.2,0.2,3.3,1,4.8c0,0,0,0,0,0l0,0c-0.5,0.5-0.8,1-1,1.5c-0.4,1.2,0.2,3.3,1,4.8h0h6.9
					c0.4-1.7-0.3-3.9-0.8-4.6l0,0c0.2-0.4,0.5-0.7,0.6-1.2C8.6,1022.7,7.8,1020.1,7.3,1019.3z"/>
				<path class="st1" d="M1.1,1030.3C1.1,1030.3,1.1,1030.3,1.1,1030.3C1.1,1030.3,1.1,1030.3,1.1,1030.3h1.3
					c0.6-0.6,1.3-1.2,2.1-1.6c1.5-0.8,2.4-1.8,2.8-3c-1.1,1.7-2.8,2.5-4,3.1c-0.1,0.1-0.3,0.2-0.4,0.2c-1.1-0.5-1.7-2.8-1.3-3.7
					c0.5-1.3,1.7-2.3,3-3c1.5-0.8,2.4-1.8,2.8-3c-1.1,1.7-2.8,2.5-4,3.1c-0.1,0.1-0.3,0.2-0.4,0.2c-1.1-0.5-1.7-2.8-1.4-3.7
					c0.2-0.5,0.5-1,0.9-1.4H1.1c-0.5,0.5-0.8,1-1,1.5c-0.4,1.2,0.2,3.3,1,4.8c0,0,0,0,0,0c-0.5,0.5-0.8,1-1,1.5
					C-0.3,1026.7,0.3,1028.8,1.1,1030.3z"/>
			</g>
			<g>
				<path class="st0" d="M7.3,1032L7.3,1032L7.3,1032c0.2-0.4,0.5-0.8,0.6-1.2c0.1-0.2,0.1-0.4,0.2-0.5H1.1c-0.5,0.5-0.8,1-1,1.5
					c-0.4,1.2,0.2,3.3,1,4.8c0,0,0,0,0,0l0,0c-0.5,0.5-0.8,1-1,1.5c-0.4,1.2,0.2,3.3,1,4.8h0h6.9c0.4-1.7-0.3-3.9-0.8-4.6l0,0
					c0.2-0.4,0.5-0.7,0.6-1.2C8.6,1035.4,7.8,1032.8,7.3,1032z"/>
				<path class="st1" d="M1.1,1043C1.1,1043,1.1,1043,1.1,1043C1.1,1043,1.1,1043,1.1,1043h1.3c0.6-0.6,1.3-1.2,2.1-1.6
					c1.5-0.8,2.4-1.8,2.8-3c-1.1,1.7-2.8,2.5-4,3.1c-0.1,0.1-0.3,0.2-0.4,0.2c-1.1-0.5-1.7-2.8-1.3-3.7c0.5-1.3,1.7-2.3,3-3
					c1.5-0.8,2.4-1.8,2.8-3c-1.1,1.7-2.8,2.5-4,3.1c-0.1,0.1-0.3,0.2-0.4,0.2c-1.1-0.5-1.7-2.8-1.4-3.7c0.2-0.5,0.5-1,0.9-1.4H1.1
					c-0.5,0.5-0.8,1-1,1.5c-0.4,1.2,0.2,3.3,1,4.8c0,0,0,0,0,0c-0.5,0.5-0.8,1-1,1.5C-0.3,1039.4,0.3,1041.5,1.1,1043z"/>
			</g>
			<g>
				<path class="st0" d="M7.3,1044.7L7.3,1044.7L7.3,1044.7c0.2-0.4,0.5-0.8,0.6-1.2c0.1-0.2,0.1-0.4,0.2-0.5H1.1
					c-0.5,0.5-0.8,1-1,1.5c-0.4,1.2,0.2,3.3,1,4.8c0,0,0,0,0,0l0,0c-0.5,0.5-0.8,1-1,1.5c-0.4,1.2,0.2,3.3,1,4.8h0h6.9
					c0.4-1.7-0.3-3.9-0.8-4.6l0,0c0.2-0.4,0.5-0.7,0.6-1.2C8.6,1048.1,7.8,1045.6,7.3,1044.7z"/>
				<path class="st1" d="M1.1,1055.7C1.1,1055.7,1.1,1055.7,1.1,1055.7C1.1,1055.7,1.1,1055.7,1.1,1055.7h1.3
					c0.6-0.6,1.3-1.2,2.1-1.6c1.5-0.8,2.4-1.8,2.8-3c-1.1,1.7-2.8,2.5-4,3.1c-0.1,0.1-0.3,0.2-0.4,0.2c-1.1-0.5-1.7-2.8-1.3-3.7
					c0.5-1.3,1.7-2.3,3-3c1.5-0.8,2.4-1.8,2.8-3c-1.1,1.7-2.8,2.5-4,3.1c-0.1,0.1-0.3,0.2-0.4,0.2c-1.1-0.5-1.7-2.8-1.4-3.7
					c0.2-0.5,0.5-1,0.9-1.4H1.1c-0.5,0.5-0.8,1-1,1.5c-0.4,1.2,0.2,3.3,1,4.8c0,0,0,0,0,0c-0.5,0.5-0.8,1-1,1.5
					C-0.3,1052.1,0.3,1054.2,1.1,1055.7z"/>
			</g>
			<g>
				<path class="st0" d="M7.3,1057.5L7.3,1057.5L7.3,1057.5c0.2-0.4,0.5-0.8,0.6-1.2c0.1-0.2,0.1-0.4,0.2-0.5H1.1
					c-0.5,0.5-0.8,1-1,1.5c-0.4,1.2,0.2,3.3,1,4.8c0,0,0,0,0,0l0,0c-0.5,0.5-0.8,1-1,1.5c-0.4,1.2,0.2,3.3,1,4.8h0h6.9
					c0.4-1.7-0.3-3.9-0.8-4.6l0,0c0.2-0.4,0.5-0.7,0.6-1.2C8.6,1060.8,7.8,1058.3,7.3,1057.5z"/>
				<path class="st1" d="M1.1,1068.4C1.1,1068.4,1.1,1068.4,1.1,1068.4C1.1,1068.4,1.1,1068.4,1.1,1068.4h1.3
					c0.6-0.6,1.3-1.2,2.1-1.6c1.5-0.8,2.4-1.8,2.8-3c-1.1,1.7-2.8,2.5-4,3.1c-0.1,0.1-0.3,0.2-0.4,0.2c-1.1-0.5-1.7-2.8-1.3-3.7
					c0.5-1.3,1.7-2.3,3-3c1.5-0.8,2.4-1.8,2.8-3c-1.1,1.7-2.8,2.5-4,3.1c-0.1,0.1-0.3,0.2-0.4,0.2c-1.1-0.5-1.7-2.8-1.4-3.7
					c0.2-0.5,0.5-1,0.9-1.4H1.1c-0.5,0.5-0.8,1-1,1.5c-0.4,1.2,0.2,3.3,1,4.8c0,0,0,0,0,0c-0.5,0.5-0.8,1-1,1.5
					C-0.3,1064.8,0.3,1066.9,1.1,1068.4z"/>
			</g>
			<g>
				<path class="st0" d="M7.3,1070.2L7.3,1070.2L7.3,1070.2c0.2-0.4,0.5-0.8,0.6-1.2c0.1-0.2,0.1-0.4,0.2-0.5H1.1
					c-0.5,0.5-0.8,1-1,1.5c-0.4,1.2,0.2,3.3,1,4.8c0,0,0,0,0,0l0,0c-0.5,0.5-0.8,1-1,1.5c-0.4,1.2,0.2,3.3,1,4.8h0h6.9
					c0.4-1.7-0.3-3.9-0.8-4.6l0,0c0.2-0.4,0.5-0.7,0.6-1.2C8.6,1073.6,7.8,1071,7.3,1070.2z"/>
				<path class="st1" d="M1.1,1081.1C1.1,1081.1,1.1,1081.1,1.1,1081.1C1.1,1081.1,1.1,1081.1,1.1,1081.1h1.3
					c0.6-0.6,1.3-1.2,2.1-1.6c1.5-0.8,2.4-1.8,2.8-3c-1.1,1.7-2.8,2.5-4,3.1c-0.1,0.1-0.3,0.2-0.4,0.2c-1.1-0.5-1.7-2.8-1.3-3.7
					c0.5-1.3,1.7-2.3,3-3c1.5-0.8,2.4-1.8,2.8-3c-1.1,1.7-2.8,2.5-4,3.1c-0.1,0.1-0.3,0.2-0.4,0.2c-1.1-0.5-1.7-2.8-1.4-3.7
					c0.2-0.5,0.5-1,0.9-1.4H1.1c-0.5,0.5-0.8,1-1,1.5c-0.4,1.2,0.2,3.3,1,4.8c0,0,0,0,0,0c-0.5,0.5-0.8,1-1,1.5
					C-0.3,1077.5,0.3,1079.6,1.1,1081.1z"/>
			</g>
			<g>
				<path class="st0" d="M7.3,1082.9L7.3,1082.9L7.3,1082.9c0.2-0.4,0.5-0.8,0.6-1.2c0.1-0.2,0.1-0.4,0.2-0.5H1.1
					c-0.5,0.5-0.8,1-1,1.5c-0.4,1.2,0.2,3.3,1,4.8c0,0,0,0,0,0l0,0c-0.5,0.5-0.8,1-1,1.5c-0.4,1.2,0.2,3.3,1,4.8h0h6.9
					c0.4-1.7-0.3-3.9-0.8-4.6l0,0c0.2-0.4,0.5-0.7,0.6-1.2C8.6,1086.3,7.8,1083.7,7.3,1082.9z"/>
				<path class="st1" d="M1.1,1093.9C1.1,1093.9,1.1,1093.9,1.1,1093.9C1.1,1093.9,1.1,1093.9,1.1,1093.9h1.3
					c0.6-0.6,1.3-1.2,2.1-1.6c1.5-0.8,2.4-1.8,2.8-3c-1.1,1.7-2.8,2.5-4,3.1c-0.1,0.1-0.3,0.2-0.4,0.2c-1.1-0.5-1.7-2.8-1.3-3.7
					c0.5-1.3,1.7-2.3,3-3c1.5-0.8,2.4-1.8,2.8-3c-1.1,1.7-2.8,2.5-4,3.1c-0.1,0.1-0.3,0.2-0.4,0.2c-1.1-0.5-1.7-2.8-1.4-3.7
					c0.2-0.5,0.5-1,0.9-1.4H1.1c-0.5,0.5-0.8,1-1,1.5c-0.4,1.2,0.2,3.3,1,4.8c0,0,0,0,0,0c-0.5,0.5-0.8,1-1,1.5
					C-0.3,1090.3,0.3,1092.4,1.1,1093.9z"/>
			</g>
			<g>
				<path class="st0" d="M7.3,1095.6L7.3,1095.6L7.3,1095.6c0.2-0.4,0.5-0.8,0.6-1.2c0.1-0.2,0.1-0.4,0.2-0.5H1.1
					c-0.5,0.5-0.8,1-1,1.5c-0.4,1.2,0.2,3.3,1,4.8c0,0,0,0,0,0l0,0c-0.5,0.5-0.8,1-1,1.5c-0.4,1.2,0.2,3.3,1,4.8h0h6.9
					c0.4-1.7-0.3-3.9-0.8-4.6l0,0c0.2-0.4,0.5-0.7,0.6-1.2C8.6,1099,7.8,1096.4,7.3,1095.6z"/>
				<path class="st1" d="M1.1,1106.6C1.1,1106.6,1.1,1106.6,1.1,1106.6C1.1,1106.6,1.1,1106.6,1.1,1106.6h1.3
					c0.6-0.6,1.3-1.2,2.1-1.6c1.5-0.8,2.4-1.8,2.8-3c-1.1,1.7-2.8,2.5-4,3.1c-0.1,0.1-0.3,0.2-0.4,0.2c-1.1-0.5-1.7-2.8-1.3-3.7
					c0.5-1.3,1.7-2.3,3-3c1.5-0.8,2.4-1.8,2.8-3c-1.1,1.7-2.8,2.5-4,3.1c-0.1,0.1-0.3,0.2-0.4,0.2c-1.1-0.5-1.7-2.8-1.4-3.7
					c0.2-0.5,0.5-1,0.9-1.4H1.1c-0.5,0.5-0.8,1-1,1.5c-0.4,1.2,0.2,3.3,1,4.8c0,0,0,0,0,0c-0.5,0.5-0.8,1-1,1.5
					C-0.3,1103,0.3,1105.1,1.1,1106.6z"/>
			</g>
			<g>
				<path class="st0" d="M7.3,1108.3L7.3,1108.3L7.3,1108.3c0.2-0.4,0.5-0.8,0.6-1.2c0.1-0.2,0.1-0.4,0.2-0.5H1.1
					c-0.5,0.5-0.8,1-1,1.5c-0.4,1.2,0.2,3.3,1,4.8c0,0,0,0,0,0l0,0c-0.5,0.5-0.8,1-1,1.5c-0.4,1.2,0.2,3.3,1,4.8h0h6.9
					c0.4-1.7-0.3-3.9-0.8-4.6l0,0c0.2-0.4,0.5-0.7,0.6-1.2C8.6,1111.7,7.8,1109.2,7.3,1108.3z"/>
				<path class="st1" d="M1.1,1119.3C1.1,1119.3,1.1,1119.3,1.1,1119.3C1.1,1119.3,1.1,1119.3,1.1,1119.3h1.3
					c0.6-0.6,1.3-1.2,2.1-1.6c1.5-0.8,2.4-1.8,2.8-3c-1.1,1.7-2.8,2.5-4,3.1c-0.1,0.1-0.3,0.2-0.4,0.2c-1.1-0.5-1.7-2.8-1.3-3.7
					c0.5-1.3,1.7-2.3,3-3c1.5-0.8,2.4-1.8,2.8-3c-1.1,1.7-2.8,2.5-4,3.1c-0.1,0.1-0.3,0.2-0.4,0.2c-1.1-0.5-1.7-2.8-1.4-3.7
					c0.2-0.5,0.5-1,0.9-1.4H1.1c-0.5,0.5-0.8,1-1,1.5c-0.4,1.2,0.2,3.3,1,4.8c0,0,0,0,0,0c-0.5,0.5-0.8,1-1,1.5
					C-0.3,1115.7,0.3,1117.8,1.1,1119.3z"/>
			</g>
			<g>
				<path class="st0" d="M7.3,1121.1L7.3,1121.1L7.3,1121.1c0.2-0.4,0.5-0.8,0.6-1.2c0.1-0.2,0.1-0.4,0.2-0.5H1.1
					c-0.5,0.5-0.8,1-1,1.5c-0.4,1.2,0.2,3.3,1,4.8c0,0,0,0,0,0l0,0c-0.5,0.5-0.8,1-1,1.5c-0.4,1.2,0.2,3.3,1,4.8h0h6.9
					c0.4-1.7-0.3-3.9-0.8-4.6l0,0c0.2-0.4,0.5-0.7,0.6-1.2C8.6,1124.4,7.8,1121.9,7.3,1121.1z"/>
				<path class="st1" d="M1.1,1132C1.1,1132,1.1,1132,1.1,1132C1.1,1132,1.1,1132,1.1,1132h1.3c0.6-0.6,1.3-1.2,2.1-1.6
					c1.5-0.8,2.4-1.8,2.8-3c-1.1,1.7-2.8,2.5-4,3.1c-0.1,0.1-0.3,0.2-0.4,0.2c-1.1-0.5-1.7-2.8-1.3-3.7c0.5-1.3,1.7-2.3,3-3
					c1.5-0.8,2.4-1.8,2.8-3c-1.1,1.7-2.8,2.5-4,3.1c-0.1,0.1-0.3,0.2-0.4,0.2c-1.1-0.5-1.7-2.8-1.4-3.7c0.2-0.5,0.5-1,0.9-1.4H1.1
					c-0.5,0.5-0.8,1-1,1.5c-0.4,1.2,0.2,3.3,1,4.8c0,0,0,0,0,0c-0.5,0.5-0.8,1-1,1.5C-0.3,1128.4,0.3,1130.5,1.1,1132z"/>
			</g>
			<g>
				<path class="st0" d="M7.3,1133.8L7.3,1133.8L7.3,1133.8c0.2-0.4,0.5-0.8,0.6-1.2c0.1-0.2,0.1-0.4,0.2-0.5H1.1
					c-0.5,0.5-0.8,1-1,1.5c-0.4,1.2,0.2,3.3,1,4.8c0,0,0,0,0,0l0,0c-0.5,0.5-0.8,1-1,1.5c-0.4,1.2,0.2,3.3,1,4.8h0h6.9
					c0.4-1.7-0.3-3.9-0.8-4.6l0,0c0.2-0.4,0.5-0.7,0.6-1.2C8.6,1137.2,7.8,1134.6,7.3,1133.8z"/>
				<path class="st1" d="M1.1,1144.7C1.1,1144.7,1.1,1144.7,1.1,1144.7C1.1,1144.7,1.1,1144.7,1.1,1144.7h1.3
					c0.6-0.6,1.3-1.2,2.1-1.6c1.5-0.8,2.4-1.8,2.8-3c-1.1,1.7-2.8,2.5-4,3.1c-0.1,0.1-0.3,0.2-0.4,0.2c-1.1-0.5-1.7-2.8-1.3-3.7
					c0.5-1.3,1.7-2.3,3-3c1.5-0.8,2.4-1.8,2.8-3c-1.1,1.7-2.8,2.5-4,3.1c-0.1,0.1-0.3,0.2-0.4,0.2c-1.1-0.5-1.7-2.8-1.4-3.7
					c0.2-0.5,0.5-1,0.9-1.4H1.1c-0.5,0.5-0.8,1-1,1.5c-0.4,1.2,0.2,3.3,1,4.8c0,0,0,0,0,0c-0.5,0.5-0.8,1-1,1.5
					C-0.3,1141.1,0.3,1143.2,1.1,1144.7z"/>
			</g>
			<g>
				<path class="st0" d="M7.3,1146.5L7.3,1146.5L7.3,1146.5c0.2-0.4,0.5-0.8,0.6-1.2c0.1-0.2,0.1-0.4,0.2-0.5H1.1
					c-0.5,0.5-0.8,1-1,1.5c-0.4,1.2,0.2,3.3,1,4.8c0,0,0,0,0,0l0,0c-0.5,0.5-0.8,1-1,1.5c-0.4,1.2,0.2,3.3,1,4.8h0h6.9
					c0.4-1.7-0.3-3.9-0.8-4.6l0,0c0.2-0.4,0.5-0.7,0.6-1.2C8.6,1149.9,7.8,1147.3,7.3,1146.5z"/>
				<path class="st1" d="M1.1,1157.5C1.1,1157.5,1.1,1157.5,1.1,1157.5C1.1,1157.5,1.1,1157.5,1.1,1157.5h1.3
					c0.6-0.6,1.3-1.2,2.1-1.6c1.5-0.8,2.4-1.8,2.8-3c-1.1,1.7-2.8,2.5-4,3.1c-0.1,0.1-0.3,0.2-0.4,0.2c-1.1-0.5-1.7-2.8-1.3-3.7
					c0.5-1.3,1.7-2.3,3-3c1.5-0.8,2.4-1.8,2.8-3c-1.1,1.7-2.8,2.5-4,3.1c-0.1,0.1-0.3,0.2-0.4,0.2c-1.1-0.5-1.7-2.8-1.4-3.7
					c0.2-0.5,0.5-1,0.9-1.4H1.1c-0.5,0.5-0.8,1-1,1.5c-0.4,1.2,0.2,3.3,1,4.8c0,0,0,0,0,0c-0.5,0.5-0.8,1-1,1.5
					C-0.3,1153.9,0.3,1156,1.1,1157.5z"/>
			</g>
			<g>
				<path class="st0" d="M7.3,1159.2L7.3,1159.2L7.3,1159.2c0.2-0.4,0.5-0.8,0.6-1.2c0.1-0.2,0.1-0.4,0.2-0.5H1.1
					c-0.5,0.5-0.8,1-1,1.5c-0.4,1.2,0.2,3.3,1,4.8c0,0,0,0,0,0l0,0c-0.5,0.5-0.8,1-1,1.5c-0.4,1.2,0.2,3.3,1,4.8h0h6.9
					c0.4-1.7-0.3-3.9-0.8-4.6l0,0c0.2-0.4,0.5-0.7,0.6-1.2C8.6,1162.6,7.8,1160,7.3,1159.2z"/>
				<path class="st1" d="M1.1,1170.2C1.1,1170.2,1.1,1170.2,1.1,1170.2C1.1,1170.2,1.1,1170.2,1.1,1170.2h1.3
					c0.6-0.6,1.3-1.2,2.1-1.6c1.5-0.8,2.4-1.8,2.8-3c-1.1,1.7-2.8,2.5-4,3.1c-0.1,0.1-0.3,0.2-0.4,0.2c-1.1-0.5-1.7-2.8-1.3-3.7
					c0.5-1.3,1.7-2.3,3-3c1.5-0.8,2.4-1.8,2.8-3c-1.1,1.7-2.8,2.5-4,3.1c-0.1,0.1-0.3,0.2-0.4,0.2c-1.1-0.5-1.7-2.8-1.4-3.7
					c0.2-0.5,0.5-1,0.9-1.4H1.1c-0.5,0.5-0.8,1-1,1.5c-0.4,1.2,0.2,3.3,1,4.8c0,0,0,0,0,0c-0.5,0.5-0.8,1-1,1.5
					C-0.3,1166.6,0.3,1168.7,1.1,1170.2z"/>
			</g>
			<g>
				<path class="st0" d="M7.3,1171.9L7.3,1171.9L7.3,1171.9c0.2-0.4,0.5-0.8,0.6-1.2c0.1-0.2,0.1-0.4,0.2-0.5H1.1
					c-0.5,0.5-0.8,1-1,1.5c-0.4,1.2,0.2,3.3,1,4.8c0,0,0,0,0,0l0,0c-0.5,0.5-0.8,1-1,1.5c-0.4,1.2,0.2,3.3,1,4.8h0h6.9
					c0.4-1.7-0.3-3.9-0.8-4.6l0,0c0.2-0.4,0.5-0.7,0.6-1.2C8.6,1175.3,7.8,1172.8,7.3,1171.9z"/>
				<path class="st1" d="M1.1,1182.9C1.1,1182.9,1.1,1182.9,1.1,1182.9C1.1,1182.9,1.1,1182.9,1.1,1182.9h1.3
					c0.6-0.6,1.3-1.2,2.1-1.6c1.5-0.8,2.4-1.8,2.8-3c-1.1,1.7-2.8,2.5-4,3.1c-0.1,0.1-0.3,0.2-0.4,0.2c-1.1-0.5-1.7-2.8-1.3-3.7
					c0.5-1.3,1.7-2.3,3-3c1.5-0.8,2.4-1.8,2.8-3c-1.1,1.7-2.8,2.5-4,3.1c-0.1,0.1-0.3,0.2-0.4,0.2c-1.1-0.5-1.7-2.8-1.4-3.7
					c0.2-0.5,0.5-1,0.9-1.4H1.1c-0.5,0.5-0.8,1-1,1.5c-0.4,1.2,0.2,3.3,1,4.8c0,0,0,0,0,0c-0.5,0.5-0.8,1-1,1.5
					C-0.3,1179.3,0.3,1181.4,1.1,1182.9z"/>
			</g>
			<g>
				<path class="st0" d="M7.3,1184.7L7.3,1184.7L7.3,1184.7c0.2-0.4,0.5-0.8,0.6-1.2c0.1-0.2,0.1-0.4,0.2-0.5H1.1
					c-0.5,0.5-0.8,1-1,1.5c-0.4,1.2,0.2,3.3,1,4.8c0,0,0,0,0,0l0,0c-0.5,0.5-0.8,1-1,1.5c-0.4,1.2,0.2,3.3,1,4.8h0h6.9
					c0.4-1.7-0.3-3.9-0.8-4.6l0,0c0.2-0.4,0.5-0.7,0.6-1.2C8.6,1188,7.8,1185.5,7.3,1184.7z"/>
				<path class="st1" d="M1.1,1195.6C1.1,1195.6,1.1,1195.6,1.1,1195.6C1.1,1195.6,1.1,1195.6,1.1,1195.6h1.3
					c0.6-0.6,1.3-1.2,2.1-1.6c1.5-0.8,2.4-1.8,2.8-3c-1.1,1.7-2.8,2.5-4,3.1c-0.1,0.1-0.3,0.2-0.4,0.2c-1.1-0.5-1.7-2.8-1.3-3.7
					c0.5-1.3,1.7-2.3,3-3c1.5-0.8,2.4-1.8,2.8-3c-1.1,1.7-2.8,2.5-4,3.1c-0.1,0.1-0.3,0.2-0.4,0.2c-1.1-0.5-1.7-2.8-1.4-3.7
					c0.2-0.5,0.5-1,0.9-1.4H1.1c-0.5,0.5-0.8,1-1,1.5c-0.4,1.2,0.2,3.3,1,4.8c0,0,0,0,0,0c-0.5,0.5-0.8,1-1,1.5
					C-0.3,1192,0.3,1194.1,1.1,1195.6z"/>
			</g>
			<g>
				<path class="st0" d="M7.3,1197.4L7.3,1197.4L7.3,1197.4c0.2-0.4,0.5-0.8,0.6-1.2c0.1-0.2,0.1-0.4,0.2-0.5H1.1
					c-0.5,0.5-0.8,1-1,1.5c-0.4,1.2,0.2,3.3,1,4.8c0,0,0,0,0,0l0,0c-0.5,0.5-0.8,1-1,1.5c-0.4,1.2,0.2,3.3,1,4.8h0h6.9
					c0.4-1.7-0.3-3.9-0.8-4.6l0,0c0.2-0.4,0.5-0.7,0.6-1.2C8.6,1200.8,7.8,1198.2,7.3,1197.4z"/>
				<path class="st1" d="M1.1,1208.3C1.1,1208.3,1.1,1208.3,1.1,1208.3C1.1,1208.3,1.1,1208.3,1.1,1208.3h1.3
					c0.6-0.6,1.3-1.2,2.1-1.6c1.5-0.8,2.4-1.8,2.8-3c-1.1,1.7-2.8,2.5-4,3.1c-0.1,0.1-0.3,0.2-0.4,0.2c-1.1-0.5-1.7-2.8-1.3-3.7
					c0.5-1.3,1.7-2.3,3-3c1.5-0.8,2.4-1.8,2.8-3c-1.1,1.7-2.8,2.5-4,3.1c-0.1,0.1-0.3,0.2-0.4,0.2c-1.1-0.5-1.7-2.8-1.4-3.7
					c0.2-0.5,0.5-1,0.9-1.4H1.1c-0.5,0.5-0.8,1-1,1.5c-0.4,1.2,0.2,3.3,1,4.8c0,0,0,0,0,0c-0.5,0.5-0.8,1-1,1.5
					C-0.3,1204.7,0.3,1206.8,1.1,1208.3z"/>
			</g>
			<g>
				<path class="st0" d="M7.3,1210.1L7.3,1210.1L7.3,1210.1c0.2-0.4,0.5-0.8,0.6-1.2c0.1-0.2,0.1-0.4,0.2-0.5H1.1
					c-0.5,0.5-0.8,1-1,1.5c-0.4,1.2,0.2,3.3,1,4.8c0,0,0,0,0,0l0,0c-0.5,0.5-0.8,1-1,1.5c-0.4,1.2,0.2,3.3,1,4.8h0h6.9
					c0.4-1.7-0.3-3.9-0.8-4.6l0,0c0.2-0.4,0.5-0.7,0.6-1.2C8.6,1213.5,7.8,1210.9,7.3,1210.1z"/>
				<path class="st1" d="M1.1,1221.1C1.1,1221.1,1.1,1221.1,1.1,1221.1C1.1,1221.1,1.1,1221.1,1.1,1221.1h1.3
					c0.6-0.6,1.3-1.2,2.1-1.6c1.5-0.8,2.4-1.8,2.8-3c-1.1,1.7-2.8,2.5-4,3.1c-0.1,0.1-0.3,0.2-0.4,0.2c-1.1-0.5-1.7-2.8-1.3-3.7
					c0.5-1.3,1.7-2.3,3-3c1.5-0.8,2.4-1.8,2.8-3c-1.1,1.7-2.8,2.5-4,3.1c-0.1,0.1-0.3,0.2-0.4,0.2c-1.1-0.5-1.7-2.8-1.4-3.7
					c0.2-0.5,0.5-1,0.9-1.4H1.1c-0.5,0.5-0.8,1-1,1.5c-0.4,1.2,0.2,3.3,1,4.8c0,0,0,0,0,0c-0.5,0.5-0.8,1-1,1.5
					C-0.3,1217.5,0.3,1219.6,1.1,1221.1z"/>
			</g>
			<g>
				<path class="st0" d="M7.3,1222.8L7.3,1222.8L7.3,1222.8c0.2-0.4,0.5-0.8,0.6-1.2c0.1-0.2,0.1-0.4,0.2-0.5H1.1
					c-0.5,0.5-0.8,1-1,1.5c-0.4,1.2,0.2,3.3,1,4.8c0,0,0,0,0,0l0,0c-0.5,0.5-0.8,1-1,1.5c-0.4,1.2,0.2,3.3,1,4.8h0h6.9
					c0.4-1.7-0.3-3.9-0.8-4.6l0,0c0.2-0.4,0.5-0.7,0.6-1.2C8.6,1226.2,7.8,1223.6,7.3,1222.8z"/>
				<path class="st1" d="M1.1,1233.8C1.1,1233.8,1.1,1233.8,1.1,1233.8C1.1,1233.8,1.1,1233.8,1.1,1233.8h1.3
					c0.6-0.6,1.3-1.2,2.1-1.6c1.5-0.8,2.4-1.8,2.8-3c-1.1,1.7-2.8,2.5-4,3.1c-0.1,0.1-0.3,0.2-0.4,0.2c-1.1-0.5-1.7-2.8-1.3-3.7
					c0.5-1.3,1.7-2.3,3-3c1.5-0.8,2.4-1.8,2.8-3c-1.1,1.7-2.8,2.5-4,3.1c-0.1,0.1-0.3,0.2-0.4,0.2c-1.1-0.5-1.7-2.8-1.4-3.7
					c0.2-0.5,0.5-1,0.9-1.4H1.1c-0.5,0.5-0.8,1-1,1.5c-0.4,1.2,0.2,3.3,1,4.8c0,0,0,0,0,0c-0.5,0.5-0.8,1-1,1.5
					C-0.3,1230.2,0.3,1232.3,1.1,1233.8z"/>
			</g>
			<g>
				<path class="st0" d="M7.3,1235.5L7.3,1235.5L7.3,1235.5c0.2-0.4,0.5-0.8,0.6-1.2c0.1-0.2,0.1-0.4,0.2-0.5H1.1
					c-0.5,0.5-0.8,1-1,1.5c-0.4,1.2,0.2,3.3,1,4.8c0,0,0,0,0,0l0,0c-0.5,0.5-0.8,1-1,1.5c-0.4,1.2,0.2,3.3,1,4.8h0h6.9
					c0.4-1.7-0.3-3.9-0.8-4.6l0,0c0.2-0.4,0.5-0.7,0.6-1.2C8.6,1238.9,7.8,1236.4,7.3,1235.5z"/>
				<path class="st1" d="M1.1,1246.5C1.1,1246.5,1.1,1246.5,1.1,1246.5C1.1,1246.5,1.1,1246.5,1.1,1246.5h1.3
					c0.6-0.6,1.3-1.2,2.1-1.6c1.5-0.8,2.4-1.8,2.8-3c-1.1,1.7-2.8,2.5-4,3.1c-0.1,0.1-0.3,0.2-0.4,0.2c-1.1-0.5-1.7-2.8-1.3-3.7
					c0.5-1.3,1.7-2.3,3-3c1.5-0.8,2.4-1.8,2.8-3c-1.1,1.7-2.8,2.5-4,3.1c-0.1,0.1-0.3,0.2-0.4,0.2c-1.1-0.5-1.7-2.8-1.4-3.7
					c0.2-0.5,0.5-1,0.9-1.4H1.1c-0.5,0.5-0.8,1-1,1.5c-0.4,1.2,0.2,3.3,1,4.8c0,0,0,0,0,0c-0.5,0.5-0.8,1-1,1.5
					C-0.3,1242.9,0.3,1245,1.1,1246.5z"/>
			</g>
			<g>
				<path class="st0" d="M7.3,1248.3L7.3,1248.3L7.3,1248.3c0.2-0.4,0.5-0.8,0.6-1.2c0.1-0.2,0.1-0.4,0.2-0.5H1.1
					c-0.5,0.5-0.8,1-1,1.5c-0.4,1.2,0.2,3.3,1,4.8c0,0,0,0,0,0l0,0c-0.5,0.5-0.8,1-1,1.5c-0.4,1.2,0.2,3.3,1,4.8h0h6.9
					c0.4-1.7-0.3-3.9-0.8-4.6l0,0c0.2-0.4,0.5-0.7,0.6-1.2C8.6,1251.6,7.8,1249.1,7.3,1248.3z"/>
				<path class="st1" d="M1.1,1259.2C1.1,1259.2,1.1,1259.2,1.1,1259.2C1.1,1259.2,1.1,1259.2,1.1,1259.2h1.3
					c0.6-0.6,1.3-1.2,2.1-1.6c1.5-0.8,2.4-1.8,2.8-3c-1.1,1.7-2.8,2.5-4,3.1c-0.1,0.1-0.3,0.2-0.4,0.2c-1.1-0.5-1.7-2.8-1.3-3.7
					c0.5-1.3,1.7-2.3,3-3c1.5-0.8,2.4-1.8,2.8-3c-1.1,1.7-2.8,2.5-4,3.1c-0.1,0.1-0.3,0.2-0.4,0.2c-1.1-0.5-1.7-2.8-1.4-3.7
					c0.2-0.5,0.5-1,0.9-1.4H1.1c-0.5,0.5-0.8,1-1,1.5c-0.4,1.2,0.2,3.3,1,4.8c0,0,0,0,0,0c-0.5,0.5-0.8,1-1,1.5
					C-0.3,1255.6,0.3,1257.7,1.1,1259.2z"/>
			</g>
			<g>
				<path class="st0" d="M7.3,1261L7.3,1261L7.3,1261c0.2-0.4,0.5-0.8,0.6-1.2c0.1-0.2,0.1-0.4,0.2-0.5H1.1c-0.5,0.5-0.8,1-1,1.5
					c-0.4,1.2,0.2,3.3,1,4.8c0,0,0,0,0,0l0,0c-0.5,0.5-0.8,1-1,1.5c-0.4,1.2,0.2,3.3,1,4.8h0h6.9c0.4-1.7-0.3-3.9-0.8-4.6l0,0
					c0.2-0.4,0.5-0.7,0.6-1.2C8.6,1264.3,7.8,1261.8,7.3,1261z"/>
				<path class="st1" d="M1.1,1271.9C1.1,1271.9,1.1,1271.9,1.1,1271.9C1.1,1271.9,1.1,1271.9,1.1,1271.9h1.3
					c0.6-0.6,1.3-1.2,2.1-1.6c1.5-0.8,2.4-1.8,2.8-3c-1.1,1.7-2.8,2.5-4,3.1c-0.1,0.1-0.3,0.2-0.4,0.2c-1.1-0.5-1.7-2.8-1.3-3.7
					c0.5-1.3,1.7-2.3,3-3c1.5-0.8,2.4-1.8,2.8-3c-1.1,1.7-2.8,2.5-4,3.1c-0.1,0.1-0.3,0.2-0.4,0.2c-1.1-0.5-1.7-2.8-1.4-3.7
					c0.2-0.5,0.5-1,0.9-1.4H1.1c-0.5,0.5-0.8,1-1,1.5c-0.4,1.2,0.2,3.3,1,4.8c0,0,0,0,0,0c-0.5,0.5-0.8,1-1,1.5
					C-0.3,1268.3,0.3,1270.4,1.1,1271.9z"/>
			</g>
			<g>
				<path class="st0" d="M7.3,1273.7L7.3,1273.7L7.3,1273.7c0.2-0.4,0.5-0.8,0.6-1.2c0.1-0.2,0.1-0.4,0.2-0.5H1.1
					c-0.5,0.5-0.8,1-1,1.5c-0.4,1.2,0.2,3.3,1,4.8c0,0,0,0,0,0l0,0c-0.5,0.5-0.8,1-1,1.5c-0.4,1.2,0.2,3.3,1,4.8h0h6.9
					c0.4-1.7-0.3-3.9-0.8-4.6l0,0c0.2-0.4,0.5-0.7,0.6-1.2C8.6,1277.1,7.8,1274.5,7.3,1273.7z"/>
				<path class="st1" d="M1.1,1284.6C1.1,1284.6,1.1,1284.6,1.1,1284.6C1.1,1284.6,1.1,1284.6,1.1,1284.6h1.3
					c0.6-0.6,1.3-1.2,2.1-1.6c1.5-0.8,2.4-1.8,2.8-3c-1.1,1.7-2.8,2.5-4,3.1c-0.1,0.1-0.3,0.2-0.4,0.2c-1.1-0.5-1.7-2.8-1.3-3.7
					c0.5-1.3,1.7-2.3,3-3c1.5-0.8,2.4-1.8,2.8-3c-1.1,1.7-2.8,2.5-4,3.1c-0.1,0.1-0.3,0.2-0.4,0.2c-1.1-0.5-1.7-2.8-1.4-3.7
					c0.2-0.5,0.5-1,0.9-1.4H1.1c-0.5,0.5-0.8,1-1,1.5c-0.4,1.2,0.2,3.3,1,4.8c0,0,0,0,0,0c-0.5,0.5-0.8,1-1,1.5
					C-0.3,1281.1,0.3,1283.2,1.1,1284.6z"/>
			</g>
			<g>
				<path class="st0" d="M7.3,1286.4L7.3,1286.4L7.3,1286.4c0.2-0.4,0.5-0.8,0.6-1.2c0.1-0.2,0.1-0.4,0.2-0.5H1.1
					c-0.5,0.5-0.8,1-1,1.5c-0.4,1.2,0.2,3.3,1,4.8c0,0,0,0,0,0l0,0c-0.5,0.5-0.8,1-1,1.5c-0.4,1.2,0.2,3.3,1,4.8h0h6.9
					c0.4-1.7-0.3-3.9-0.8-4.6l0,0c0.2-0.4,0.5-0.7,0.6-1.2C8.6,1289.8,7.8,1287.2,7.3,1286.4z"/>
				<path class="st1" d="M1.1,1297.4C1.1,1297.4,1.1,1297.4,1.1,1297.4C1.1,1297.4,1.1,1297.4,1.1,1297.4h1.3
					c0.6-0.6,1.3-1.2,2.1-1.6c1.5-0.8,2.4-1.8,2.8-3c-1.1,1.7-2.8,2.5-4,3.1c-0.1,0.1-0.3,0.2-0.4,0.2c-1.1-0.5-1.7-2.8-1.3-3.7
					c0.5-1.3,1.7-2.3,3-3c1.5-0.8,2.4-1.8,2.8-3c-1.1,1.7-2.8,2.5-4,3.1c-0.1,0.1-0.3,0.2-0.4,0.2c-1.1-0.5-1.7-2.8-1.4-3.7
					c0.2-0.5,0.5-1,0.9-1.4H1.1c-0.5,0.5-0.8,1-1,1.5c-0.4,1.2,0.2,3.3,1,4.8c0,0,0,0,0,0c-0.5,0.5-0.8,1-1,1.5
					C-0.3,1293.8,0.3,1295.9,1.1,1297.4z"/>
			</g>
			<g>
				<path class="st0" d="M7.3,1299.1L7.3,1299.1L7.3,1299.1c0.2-0.4,0.5-0.8,0.6-1.2c0.1-0.2,0.1-0.4,0.2-0.5H1.1
					c-0.5,0.5-0.8,1-1,1.5c-0.4,1.2,0.2,3.3,1,4.8c0,0,0,0,0,0l0,0c-0.5,0.5-0.8,1-1,1.5c-0.4,1.2,0.2,3.3,1,4.8h0h6.9
					c0.4-1.7-0.3-3.9-0.8-4.6l0,0c0.2-0.4,0.5-0.7,0.6-1.2C8.6,1302.5,7.8,1299.9,7.3,1299.1z"/>
				<path class="st1" d="M1.1,1310.1C1.1,1310.1,1.1,1310.1,1.1,1310.1C1.1,1310.1,1.1,1310.1,1.1,1310.1h1.3
					c0.6-0.6,1.3-1.2,2.1-1.6c1.5-0.8,2.4-1.8,2.8-3c-1.1,1.7-2.8,2.5-4,3.1c-0.1,0.1-0.3,0.2-0.4,0.2c-1.1-0.5-1.7-2.8-1.3-3.7
					c0.5-1.3,1.7-2.3,3-3c1.5-0.8,2.4-1.8,2.8-3c-1.1,1.7-2.8,2.5-4,3.1c-0.1,0.1-0.3,0.2-0.4,0.2c-1.1-0.5-1.7-2.8-1.4-3.7
					c0.2-0.5,0.5-1,0.9-1.4H1.1c-0.5,0.5-0.8,1-1,1.5c-0.4,1.2,0.2,3.3,1,4.8c0,0,0,0,0,0c-0.5,0.5-0.8,1-1,1.5
					C-0.3,1306.5,0.3,1308.6,1.1,1310.1z"/>
			</g>
			<g>
				<path class="st0" d="M7.3,1311.9L7.3,1311.9L7.3,1311.9c0.2-0.4,0.5-0.8,0.6-1.2c0.1-0.2,0.1-0.4,0.2-0.5H1.1
					c-0.5,0.5-0.8,1-1,1.5c-0.4,1.2,0.2,3.3,1,4.8c0,0,0,0,0,0l0,0c-0.5,0.5-0.8,1-1,1.5c-0.4,1.2,0.2,3.3,1,4.8h0h6.9
					c0.4-1.7-0.3-3.9-0.8-4.6l0,0c0.2-0.4,0.5-0.7,0.6-1.2C8.6,1315.2,7.8,1312.7,7.3,1311.9z"/>
				<path class="st1" d="M1.1,1322.8C1.1,1322.8,1.1,1322.8,1.1,1322.8C1.1,1322.8,1.1,1322.8,1.1,1322.8h1.3
					c0.6-0.6,1.3-1.2,2.1-1.6c1.5-0.8,2.4-1.8,2.8-3c-1.1,1.7-2.8,2.5-4,3.1c-0.1,0.1-0.3,0.2-0.4,0.2c-1.1-0.5-1.7-2.8-1.3-3.7
					c0.5-1.3,1.7-2.3,3-3c1.5-0.8,2.4-1.8,2.8-3c-1.1,1.7-2.8,2.5-4,3.1c-0.1,0.1-0.3,0.2-0.4,0.2c-1.1-0.5-1.7-2.8-1.4-3.7
					c0.2-0.5,0.5-1,0.9-1.4H1.1c-0.5,0.5-0.8,1-1,1.5c-0.4,1.2,0.2,3.3,1,4.8c0,0,0,0,0,0c-0.5,0.5-0.8,1-1,1.5
					C-0.3,1319.2,0.3,1321.3,1.1,1322.8z"/>
			</g>
			<g>
				<path class="st0" d="M7.3,1324.6L7.3,1324.6L7.3,1324.6c0.2-0.4,0.5-0.8,0.6-1.2c0.1-0.2,0.1-0.4,0.2-0.5H1.1
					c-0.5,0.5-0.8,1-1,1.5c-0.4,1.2,0.2,3.3,1,4.8c0,0,0,0,0,0l0,0c-0.5,0.5-0.8,1-1,1.5c-0.4,1.2,0.2,3.3,1,4.8h0h6.9
					c0.4-1.7-0.3-3.9-0.8-4.6l0,0c0.2-0.4,0.5-0.7,0.6-1.2C8.6,1327.9,7.8,1325.4,7.3,1324.6z"/>
				<path class="st1" d="M1.1,1335.5C1.1,1335.5,1.1,1335.5,1.1,1335.5C1.1,1335.5,1.1,1335.5,1.1,1335.5h1.3
					c0.6-0.6,1.3-1.2,2.1-1.6c1.5-0.8,2.4-1.8,2.8-3c-1.1,1.7-2.8,2.5-4,3.1c-0.1,0.1-0.3,0.2-0.4,0.2c-1.1-0.5-1.7-2.8-1.3-3.7
					c0.5-1.3,1.7-2.3,3-3c1.5-0.8,2.4-1.8,2.8-3c-1.1,1.7-2.8,2.5-4,3.1c-0.1,0.1-0.3,0.2-0.4,0.2c-1.1-0.5-1.7-2.8-1.4-3.7
					c0.2-0.5,0.5-1,0.9-1.4H1.1c-0.5,0.5-0.8,1-1,1.5c-0.4,1.2,0.2,3.3,1,4.8c0,0,0,0,0,0c-0.5,0.5-0.8,1-1,1.5
					C-0.3,1331.9,0.3,1334,1.1,1335.5z"/>
			</g>
			<g>
				<path class="st0" d="M7.3,1337.3L7.3,1337.3L7.3,1337.3c0.2-0.4,0.5-0.8,0.6-1.2c0.1-0.2,0.1-0.4,0.2-0.5H1.1
					c-0.5,0.5-0.8,1-1,1.5c-0.4,1.2,0.2,3.3,1,4.8c0,0,0,0,0,0l0,0c-0.5,0.5-0.8,1-1,1.5c-0.4,1.2,0.2,3.3,1,4.8h0h6.9
					c0.4-1.7-0.3-3.9-0.8-4.6l0,0c0.2-0.4,0.5-0.7,0.6-1.2C8.6,1340.7,7.8,1338.1,7.3,1337.3z"/>
				<path class="st1" d="M1.1,1348.2C1.1,1348.2,1.1,1348.2,1.1,1348.2C1.1,1348.2,1.1,1348.2,1.1,1348.2h1.3
					c0.6-0.6,1.3-1.2,2.1-1.6c1.5-0.8,2.4-1.8,2.8-3c-1.1,1.7-2.8,2.5-4,3.1c-0.1,0.1-0.3,0.2-0.4,0.2c-1.1-0.5-1.7-2.8-1.3-3.7
					c0.5-1.3,1.7-2.3,3-3c1.5-0.8,2.4-1.8,2.8-3c-1.1,1.7-2.8,2.5-4,3.1c-0.1,0.1-0.3,0.2-0.4,0.2c-1.1-0.5-1.7-2.8-1.4-3.7
					c0.2-0.5,0.5-1,0.9-1.4H1.1c-0.5,0.5-0.8,1-1,1.5c-0.4,1.2,0.2,3.3,1,4.8c0,0,0,0,0,0c-0.5,0.5-0.8,1-1,1.5
					C-0.3,1344.6,0.3,1346.7,1.1,1348.2z"/>
			</g>
			<g>
				<path class="st0" d="M7.3,1350L7.3,1350L7.3,1350c0.2-0.4,0.5-0.8,0.6-1.2c0.1-0.2,0.1-0.4,0.2-0.5H1.1c-0.5,0.5-0.8,1-1,1.5
					c-0.4,1.2,0.2,3.3,1,4.8c0,0,0,0,0,0l0,0c-0.5,0.5-0.8,1-1,1.5c-0.4,1.2,0.2,3.3,1,4.8h0h6.9c0.4-1.7-0.3-3.9-0.8-4.6l0,0
					c0.2-0.4,0.5-0.7,0.6-1.2C8.6,1353.4,7.8,1350.8,7.3,1350z"/>
				<path class="st1" d="M1.1,1361C1.1,1361,1.1,1361,1.1,1361C1.1,1361,1.1,1361,1.1,1361h1.3c0.6-0.6,1.3-1.2,2.1-1.6
					c1.5-0.8,2.4-1.8,2.8-3c-1.1,1.7-2.8,2.5-4,3.1c-0.1,0.1-0.3,0.2-0.4,0.2c-1.1-0.5-1.7-2.8-1.3-3.7c0.5-1.3,1.7-2.3,3-3
					c1.5-0.8,2.4-1.8,2.8-3c-1.1,1.7-2.8,2.5-4,3.1c-0.1,0.1-0.3,0.2-0.4,0.2c-1.1-0.5-1.7-2.8-1.4-3.7c0.2-0.5,0.5-1,0.9-1.4H1.1
					c-0.5,0.5-0.8,1-1,1.5c-0.4,1.2,0.2,3.3,1,4.8c0,0,0,0,0,0c-0.5,0.5-0.8,1-1,1.5C-0.3,1357.4,0.3,1359.5,1.1,1361z"/>
			</g>
			<g>
				<path class="st0" d="M7.3,1362.7L7.3,1362.7L7.3,1362.7c0.2-0.4,0.5-0.8,0.6-1.2c0.1-0.2,0.1-0.4,0.2-0.5H1.1
					c-0.5,0.5-0.8,1-1,1.5c-0.4,1.2,0.2,3.3,1,4.8c0,0,0,0,0,0l0,0c-0.5,0.5-0.8,1-1,1.5c-0.4,1.2,0.2,3.3,1,4.8h0h6.9
					c0.4-1.7-0.3-3.9-0.8-4.6l0,0c0.2-0.4,0.5-0.7,0.6-1.2C8.6,1366.1,7.8,1363.5,7.3,1362.7z"/>
				<path class="st1" d="M1.1,1373.7C1.1,1373.7,1.1,1373.7,1.1,1373.7C1.1,1373.7,1.1,1373.7,1.1,1373.7h1.3
					c0.6-0.6,1.3-1.2,2.1-1.6c1.5-0.8,2.4-1.8,2.8-3c-1.1,1.7-2.8,2.5-4,3.1c-0.1,0.1-0.3,0.2-0.4,0.2c-1.1-0.5-1.7-2.8-1.3-3.7
					c0.5-1.3,1.7-2.3,3-3c1.5-0.8,2.4-1.8,2.8-3c-1.1,1.7-2.8,2.5-4,3.1c-0.1,0.1-0.3,0.2-0.4,0.2c-1.1-0.5-1.7-2.8-1.4-3.7
					c0.2-0.5,0.5-1,0.9-1.4H1.1c-0.5,0.5-0.8,1-1,1.5c-0.4,1.2,0.2,3.3,1,4.8c0,0,0,0,0,0c-0.5,0.5-0.8,1-1,1.5
					C-0.3,1370.1,0.3,1372.2,1.1,1373.7z"/>
			</g>
			<g>
				<path class="st0" d="M7.3,1375.4L7.3,1375.4L7.3,1375.4c0.2-0.4,0.5-0.8,0.6-1.2c0.1-0.2,0.1-0.4,0.2-0.5H1.1
					c-0.5,0.5-0.8,1-1,1.5c-0.4,1.2,0.2,3.3,1,4.8c0,0,0,0,0,0l0,0c-0.5,0.5-0.8,1-1,1.5c-0.4,1.2,0.2,3.3,1,4.8h0h6.9
					c0.4-1.7-0.3-3.9-0.8-4.6l0,0c0.2-0.4,0.5-0.7,0.6-1.2C8.6,1378.8,7.8,1376.3,7.3,1375.4z"/>
				<path class="st1" d="M1.1,1386.4C1.1,1386.4,1.1,1386.4,1.1,1386.4C1.1,1386.4,1.1,1386.4,1.1,1386.4h1.3
					c0.6-0.6,1.3-1.2,2.1-1.6c1.5-0.8,2.4-1.8,2.8-3c-1.1,1.7-2.8,2.5-4,3.1c-0.1,0.1-0.3,0.2-0.4,0.2c-1.1-0.5-1.7-2.8-1.3-3.7
					c0.5-1.3,1.7-2.3,3-3c1.5-0.8,2.4-1.8,2.8-3c-1.1,1.7-2.8,2.5-4,3.1c-0.1,0.1-0.3,0.2-0.4,0.2c-1.1-0.5-1.7-2.8-1.4-3.7
					c0.2-0.5,0.5-1,0.9-1.4H1.1c-0.5,0.5-0.8,1-1,1.5c-0.4,1.2,0.2,3.3,1,4.8c0,0,0,0,0,0c-0.5,0.5-0.8,1-1,1.5
					C-0.3,1382.8,0.3,1384.9,1.1,1386.4z"/>
			</g>
			<g>
				<path class="st0" d="M7.3,1388.2L7.3,1388.2L7.3,1388.2c0.2-0.4,0.5-0.8,0.6-1.2c0.1-0.2,0.1-0.4,0.2-0.5H1.1
					c-0.5,0.5-0.8,1-1,1.5c-0.4,1.2,0.2,3.3,1,4.8c0,0,0,0,0,0l0,0c-0.5,0.5-0.8,1-1,1.5c-0.4,1.2,0.2,3.3,1,4.8h0h6.9
					c0.4-1.7-0.3-3.9-0.8-4.6l0,0c0.2-0.4,0.5-0.7,0.6-1.2C8.6,1391.5,7.8,1389,7.3,1388.2z"/>
				<path class="st1" d="M1.1,1399.1C1.1,1399.1,1.1,1399.1,1.1,1399.1C1.1,1399.1,1.1,1399.1,1.1,1399.1h1.3
					c0.6-0.6,1.3-1.2,2.1-1.6c1.5-0.8,2.4-1.8,2.8-3c-1.1,1.7-2.8,2.5-4,3.1c-0.1,0.1-0.3,0.2-0.4,0.2c-1.1-0.5-1.7-2.8-1.3-3.7
					c0.5-1.3,1.7-2.3,3-3c1.5-0.8,2.4-1.8,2.8-3c-1.1,1.7-2.8,2.5-4,3.1c-0.1,0.1-0.3,0.2-0.4,0.2c-1.1-0.5-1.7-2.8-1.4-3.7
					c0.2-0.5,0.5-1,0.9-1.4H1.1c-0.5,0.5-0.8,1-1,1.5c-0.4,1.2,0.2,3.3,1,4.8c0,0,0,0,0,0c-0.5,0.5-0.8,1-1,1.5
					C-0.3,1395.5,0.3,1397.6,1.1,1399.1z"/>
			</g>
			<g>
				<path class="st0" d="M7.3,1400.9L7.3,1400.9L7.3,1400.9c0.2-0.4,0.5-0.8,0.6-1.2c0.1-0.2,0.1-0.4,0.2-0.5H1.1
					c-0.5,0.5-0.8,1-1,1.5c-0.4,1.2,0.2,3.3,1,4.8c0,0,0,0,0,0l0,0c-0.5,0.5-0.8,1-1,1.5c-0.4,1.2,0.2,3.3,1,4.8h0h6.9
					c0.4-1.7-0.3-3.9-0.8-4.6l0,0c0.2-0.4,0.5-0.7,0.6-1.2C8.6,1404.3,7.8,1401.7,7.3,1400.9z"/>
				<path class="st1" d="M1.1,1411.8C1.1,1411.8,1.1,1411.8,1.1,1411.8C1.1,1411.8,1.1,1411.8,1.1,1411.8h1.3
					c0.6-0.6,1.3-1.2,2.1-1.6c1.5-0.8,2.4-1.8,2.8-3c-1.1,1.7-2.8,2.5-4,3.1c-0.1,0.1-0.3,0.2-0.4,0.2c-1.1-0.5-1.7-2.8-1.3-3.7
					c0.5-1.3,1.7-2.3,3-3c1.5-0.8,2.4-1.8,2.8-3c-1.1,1.7-2.8,2.5-4,3.1c-0.1,0.1-0.3,0.2-0.4,0.2c-1.1-0.5-1.7-2.8-1.4-3.7
					c0.2-0.5,0.5-1,0.9-1.4H1.1c-0.5,0.5-0.8,1-1,1.5c-0.4,1.2,0.2,3.3,1,4.8c0,0,0,0,0,0c-0.5,0.5-0.8,1-1,1.5
					C-0.3,1408.2,0.3,1410.3,1.1,1411.8z"/>
			</g>
			<g>
				<path class="st0" d="M7.3,1413.6L7.3,1413.6L7.3,1413.6c0.2-0.4,0.5-0.8,0.6-1.2c0.1-0.2,0.1-0.4,0.2-0.5H1.1
					c-0.5,0.5-0.8,1-1,1.5c-0.4,1.2,0.2,3.3,1,4.8c0,0,0,0,0,0l0,0c-0.5,0.5-0.8,1-1,1.5c-0.4,1.2,0.2,3.3,1,4.8h0h6.9
					c0.4-1.7-0.3-3.9-0.8-4.6l0,0c0.2-0.4,0.5-0.7,0.6-1.2C8.6,1417,7.8,1414.4,7.3,1413.6z"/>
				<path class="st1" d="M1.1,1424.6C1.1,1424.6,1.1,1424.6,1.1,1424.6C1.1,1424.6,1.1,1424.6,1.1,1424.6h1.3
					c0.6-0.6,1.3-1.2,2.1-1.6c1.5-0.8,2.4-1.8,2.8-3c-1.1,1.7-2.8,2.5-4,3.1c-0.1,0.1-0.3,0.2-0.4,0.2c-1.1-0.5-1.7-2.8-1.3-3.7
					c0.5-1.3,1.7-2.3,3-3c1.5-0.8,2.4-1.8,2.8-3c-1.1,1.7-2.8,2.5-4,3.1c-0.1,0.1-0.3,0.2-0.4,0.2c-1.1-0.5-1.7-2.8-1.4-3.7
					c0.2-0.5,0.5-1,0.9-1.4H1.1c-0.5,0.5-0.8,1-1,1.5c-0.4,1.2,0.2,3.3,1,4.8c0,0,0,0,0,0c-0.5,0.5-0.8,1-1,1.5
					C-0.3,1421,0.3,1423.1,1.1,1424.6z"/>
			</g>
			<g>
				<path class="st0" d="M7.3,1426.3L7.3,1426.3L7.3,1426.3c0.2-0.4,0.5-0.8,0.6-1.2c0.1-0.2,0.1-0.4,0.2-0.5H1.1
					c-0.5,0.5-0.8,1-1,1.5c-0.4,1.2,0.2,3.3,1,4.8c0,0,0,0,0,0l0,0c-0.5,0.5-0.8,1-1,1.5c-0.4,1.2,0.2,3.3,1,4.8h0h6.9
					c0.4-1.7-0.3-3.9-0.8-4.6l0,0c0.2-0.4,0.5-0.7,0.6-1.2C8.6,1429.7,7.8,1427.1,7.3,1426.3z"/>
				<path class="st1" d="M1.1,1437.3C1.1,1437.3,1.1,1437.3,1.1,1437.3C1.1,1437.3,1.1,1437.3,1.1,1437.3h1.3
					c0.6-0.6,1.3-1.2,2.1-1.6c1.5-0.8,2.4-1.8,2.8-3c-1.1,1.7-2.8,2.5-4,3.1c-0.1,0.1-0.3,0.2-0.4,0.2c-1.1-0.5-1.7-2.8-1.3-3.7
					c0.5-1.3,1.7-2.3,3-3c1.5-0.8,2.4-1.8,2.8-3c-1.1,1.7-2.8,2.5-4,3.1c-0.1,0.1-0.3,0.2-0.4,0.2c-1.1-0.5-1.7-2.8-1.4-3.7
					c0.2-0.5,0.5-1,0.9-1.4H1.1c-0.5,0.5-0.8,1-1,1.5c-0.4,1.2,0.2,3.3,1,4.8c0,0,0,0,0,0c-0.5,0.5-0.8,1-1,1.5
					C-0.3,1433.7,0.3,1435.8,1.1,1437.3z"/>
			</g>
			<g>
				<path class="st0" d="M7.3,1439L7.3,1439L7.3,1439c0.2-0.4,0.5-0.8,0.6-1.2c0.1-0.2,0.1-0.4,0.2-0.5H1.1c-0.5,0.5-0.8,1-1,1.5
					c-0.4,1.2,0.2,3.3,1,4.8c0,0,0,0,0,0l0,0c-0.5,0.5-0.8,1-1,1.5c-0.4,1.2,0.2,3.3,1,4.8h0h6.9c0.4-1.7-0.3-3.9-0.8-4.6l0,0
					c0.2-0.4,0.5-0.7,0.6-1.2C8.6,1442.4,7.8,1439.9,7.3,1439z"/>
				<path class="st1" d="M1.1,1450C1.1,1450,1.1,1450,1.1,1450C1.1,1450,1.1,1450,1.1,1450h1.3c0.6-0.6,1.3-1.2,2.1-1.6
					c1.5-0.8,2.4-1.8,2.8-3c-1.1,1.7-2.8,2.5-4,3.1c-0.1,0.1-0.3,0.2-0.4,0.2c-1.1-0.5-1.7-2.8-1.3-3.7c0.5-1.3,1.7-2.3,3-3
					c1.5-0.8,2.4-1.8,2.8-3c-1.1,1.7-2.8,2.5-4,3.1c-0.1,0.1-0.3,0.2-0.4,0.2c-1.1-0.5-1.7-2.8-1.4-3.7c0.2-0.5,0.5-1,0.9-1.4H1.1
					c-0.5,0.5-0.8,1-1,1.5c-0.4,1.2,0.2,3.3,1,4.8c0,0,0,0,0,0c-0.5,0.5-0.8,1-1,1.5C-0.3,1446.4,0.3,1448.5,1.1,1450z"/>
			</g>
		</g>
	</g>
</g>
</svg>
