<?xml version="1.0" encoding="utf-8"?>
<!-- Generator: Adobe Illustrator 20.0.0, SVG Export Plug-In . SVG Version: 6.00 Build 0)  -->
<svg version="1.1" xmlns="http://www.w3.org/2000/svg" xmlns:xlink="http://www.w3.org/1999/xlink" x="0px" y="0px"
	 viewBox="0 0 311.4 489.9" style="enable-background:new 0 0 311.4 489.9;" xml:space="preserve">
<style type="text/css">
	.st0{fill:#FFFFFF;}
	.st1{opacity:0.2;}
	.st2{fill:#D70036;}
	.st3{fill:#AC0033;}
	.st4{fill:none;}
	.st5{fill:#EF7622;}
	.st6{fill:#F0CFA9;}
	.st7{fill:#EAE5E8;}
	.st8{fill:#086481;}
	.st9{fill:#0A556D;}
</style>
<g id="Layer_1">
</g>
<g id="Layer_2">
	<g>
		<g>
			<g>
				<g>
					<g>
						<path class="st0" d="M161.6,274.2L161.6,274.2L161.6,274.2c-0.4-0.2-0.8-0.5-1.2-0.6c-0.2-0.1-0.4-0.1-0.5-0.2v6.9
							c0.5,0.5,1,0.8,1.5,1c1.3,0.4,3.4-0.2,4.9-1l0,0l0,0c0.5,0.5,1,0.8,1.5,1c1.2,0.4,3.3-0.2,4.8-1v0l-0.1-6.9
							c-1.7-0.4-3.9,0.4-4.6,0.8l0,0c-0.4-0.2-0.8-0.5-1.2-0.6C165,272.8,162.4,273.7,161.6,274.2z"/>
						<path class="st1" d="M172.6,280.2L172.6,280.2L172.6,280.2l0-1.3c-0.6-0.6-1.2-1.3-1.6-2.1c-0.8-1.5-1.9-2.4-3-2.7
							c1.7,1.1,2.5,2.7,3.1,4c0.1,0.1,0.2,0.3,0.2,0.4c-0.5,1.1-2.7,1.7-3.6,1.4c-1.3-0.5-2.3-1.6-3.1-3c-0.8-1.5-1.9-2.4-3-2.7
							c1.7,1.1,2.5,2.8,3.1,4c0.1,0.1,0.2,0.3,0.2,0.4c-0.5,1.1-2.7,1.7-3.6,1.4c-0.5-0.2-1-0.5-1.5-0.9v1.3c0.5,0.5,1,0.8,1.5,1
							c1.3,0.4,3.4-0.2,4.9-1l0,0c0.5,0.5,1,0.8,1.6,1C169.1,281.6,171.1,281,172.6,280.2z"/>
					</g>
					<g>
						<path class="st0" d="M174.3,274L174.3,274L174.3,274c-0.4-0.2-0.8-0.5-1.2-0.6c-0.2-0.1-0.4-0.1-0.6-0.2l0.1,6.9
							c0.5,0.5,1,0.8,1.5,1c1.2,0.4,3.3-0.2,4.8-1l0,0l0,0c0.5,0.5,0.9,0.8,1.5,1c1.2,0.4,3.3-0.1,4.8-0.9v0l0.1-6.9
							c-1.7-0.4-3.9,0.3-4.6,0.7l0,0c-0.4-0.2-0.8-0.5-1.2-0.7C177.7,272.7,175.2,273.5,174.3,274z"/>
						<path class="st1" d="M185.2,280.2L185.2,280.2L185.2,280.2l0-1.3c-0.6-0.6-1.1-1.3-1.6-2.1c-0.8-1.5-1.8-2.4-3-2.8
							c1.7,1.1,2.4,2.8,3.1,4c0.1,0.1,0.2,0.3,0.2,0.4c-0.5,1.1-2.8,1.7-3.6,1.3c-1.2-0.5-2.3-1.7-3-3c-0.8-1.5-1.9-2.4-3-2.8
							c1.7,1.1,2.5,2.8,3.1,4c0.1,0.1,0.2,0.3,0.2,0.4c-0.5,1.1-2.7,1.7-3.6,1.4c-0.5-0.2-1-0.5-1.4-0.9l0,1.3c0.5,0.5,1,0.8,1.5,1
							c1.2,0.4,3.3-0.2,4.8-1l0,0c0.5,0.5,1,0.8,1.5,1C181.7,281.6,183.7,281,185.2,280.2z"/>
					</g>
					<g>
						<path class="st0" d="M187.2,274.1L187.2,274.1L187.2,274.1c-0.4-0.2-0.8-0.5-1.2-0.7c-0.2-0.1-0.4-0.1-0.6-0.2l-0.1,6.9
							c0.4,0.5,0.9,0.8,1.5,1c1.2,0.4,3.3-0.1,4.8-0.8l0,0l0,0c0.4,0.5,0.9,0.8,1.5,1.1c1.2,0.5,3.3,0,4.8-0.7v0l0.5-6.9
							c-1.7-0.5-3.9,0.1-4.7,0.5l0,0c-0.4-0.3-0.7-0.5-1.2-0.7C190.6,272.9,188,273.7,187.2,274.1z"/>
						<path class="st1" d="M197.8,280.8L197.8,280.8L197.8,280.8l0.1-1.3c-0.6-0.6-1.1-1.4-1.5-2.2c-0.7-1.5-1.7-2.5-2.9-2.9
							c1.6,1.2,2.3,2.9,2.9,4.2c0.1,0.2,0.1,0.3,0.2,0.5c-0.6,1.1-2.8,1.6-3.7,1.2c-1.2-0.6-2.2-1.7-2.9-3.1
							c-0.7-1.5-1.8-2.5-2.9-2.9c1.7,1.2,2.4,2.8,3,4.1c0.1,0.1,0.1,0.3,0.2,0.4c-0.5,1.1-2.8,1.6-3.7,1.2c-0.5-0.2-1-0.6-1.4-1
							l0,1.3c0.4,0.5,0.9,0.8,1.5,1c1.2,0.4,3.3-0.1,4.8-0.8l0,0c0.4,0.5,0.9,0.9,1.5,1.1C194.2,282,196.3,281.5,197.8,280.8z"/>
					</g>
					<g>
						<path class="st0" d="M200,274.8L200,274.8L200,274.8c-0.4-0.3-0.7-0.5-1.2-0.7c-0.2-0.1-0.4-0.1-0.5-0.2l-0.5,6.9
							c0.4,0.5,0.9,0.9,1.4,1.1c1.2,0.5,3.3,0.1,4.8-0.6l0,0l0,0c0.4,0.5,0.9,0.9,1.4,1.1c1.2,0.5,3.3,0.2,4.8-0.4l0,0l0.9-6.9
							c-1.7-0.6-4-0.1-4.7,0.2l0,0c-0.3-0.3-0.7-0.5-1.1-0.8C203.5,273.7,200.8,274.3,200,274.8z"/>
						<path class="st1" d="M210.2,282L210.2,282L210.2,282l0.2-1.3c-0.5-0.6-1-1.4-1.3-2.3c-0.6-1.6-1.6-2.6-2.7-3.1
							c1.6,1.3,2.2,3,2.6,4.3c0.1,0.2,0.1,0.3,0.2,0.5c-0.6,1-2.9,1.4-3.7,0.9c-1.2-0.6-2.1-1.9-2.7-3.3c-0.7-1.5-1.6-2.5-2.8-3
							c1.6,1.2,2.2,3,2.8,4.2c0.1,0.2,0.1,0.3,0.2,0.5c-0.6,1.1-2.9,1.5-3.7,1.1c-0.5-0.2-1-0.6-1.4-1l-0.1,1.3
							c0.4,0.5,0.9,0.9,1.4,1.1c1.2,0.5,3.3,0.1,4.8-0.6l0,0c0.4,0.5,0.9,0.9,1.4,1.2C206.6,282.9,208.7,282.6,210.2,282z"/>
					</g>
					<g>
						<path class="st0" d="M212.8,276.1L212.8,276.1L212.8,276.1c-0.3-0.3-0.7-0.5-1.1-0.8c-0.2-0.1-0.4-0.2-0.5-0.2l-0.9,6.9
							c0.4,0.5,0.8,0.9,1.4,1.2c1.2,0.6,3.4,0.3,5-0.4l0,0l0,0c0.4,0.5,0.9,0.9,1.4,1.2c1.2,0.6,3.4,0.2,5-0.5v0l0.6-6.9
							c-1.6-0.5-3.8,0-4.6,0.4l0,0c-0.3-0.3-0.7-0.5-1.1-0.8C216.3,275.2,213.7,275.7,212.8,276.1z"/>
						<path class="st1" d="M223,283.4L223,283.4L223,283.4l0.1-1.3c-0.6-0.6-1.1-1.4-1.4-2.2c-0.7-1.5-1.6-2.5-2.7-3
							c1.5,1.3,2.1,3,2.7,4.3c0.1,0.2,0.1,0.3,0.2,0.5c-0.6,1.1-2.9,1.5-3.8,1c-1.2-0.6-2.1-1.9-2.7-3.3c-0.6-1.6-1.5-2.6-2.6-3.1
							c1.5,1.3,2.1,3.1,2.5,4.4c0.1,0.2,0.1,0.3,0.2,0.5c-0.6,1.1-3,1.3-3.8,0.9c-0.5-0.3-0.9-0.7-1.3-1.1l-0.2,1.3
							c0.4,0.5,0.8,0.9,1.4,1.2c1.2,0.6,3.4,0.3,5-0.4l0,0c0.4,0.5,0.9,0.9,1.5,1.2C219.2,284.5,221.4,284.1,223,283.4z"/>
					</g>
					<g>
						<path class="st0" d="M225.2,277.4L225.2,277.4L225.2,277.4c-0.4-0.3-0.7-0.5-1.1-0.7c-0.2-0.1-0.3-0.1-0.5-0.2l-0.6,6.9
							c0.4,0.5,0.9,0.9,1.5,1.1c1.2,0.5,3.4,0.1,5-0.7l0,0l0,0c0.4,0.5,1,0.8,1.5,1.1c1.3,0.5,3.5-0.1,5-0.9v0l-0.1-6.9
							c-1.7-0.4-3.7,0.3-4.5,0.7l0,0c-0.3-0.3-0.7-0.5-1.1-0.7C228.6,276.3,226.1,277,225.2,277.4z"/>
						<path class="st1" d="M236,283.9L236,283.9L236,283.9l0-1.3c-0.6-0.6-1.2-1.3-1.6-2.1c-0.8-1.5-1.8-2.4-2.9-2.8
							c1.6,1.2,2.4,2.8,3,4c0.1,0.1,0.2,0.3,0.2,0.4c-0.5,1.1-2.8,1.7-3.7,1.3c-1.3-0.5-2.3-1.7-2.9-3.1c-0.7-1.5-1.7-2.5-2.8-2.9
							c1.6,1.2,2.2,2.9,2.8,4.2c0.1,0.2,0.1,0.3,0.2,0.4c-0.5,1.1-2.9,1.5-3.8,1.1c-0.5-0.2-1-0.6-1.4-1l-0.1,1.3
							c0.4,0.5,0.9,0.9,1.5,1.1c1.2,0.5,3.4,0.1,5-0.7l0,0c0.5,0.5,1,0.9,1.5,1.1C232.3,285.3,234.4,284.7,236,283.9z"/>
					</g>
					<g>
						<path class="st0" d="M237.6,277.7L237.6,277.7L237.6,277.7c-0.4-0.2-0.7-0.4-1.2-0.6c-0.2-0.1-0.4-0.1-0.5-0.1l0.1,6.9
							c0.5,0.4,1,0.8,1.6,1c0.6,0.2,1.5,0.1,2.4-0.1c0.9-0.2,1.8-0.7,2.5-1.1l0,0l0,0c0.5,0.4,1.1,0.8,1.6,0.9
							c0.7,0.1,1.5,0,2.4-0.3c0.9-0.3,1.8-0.8,2.5-1.3l0,0l-1-6.9c-1.6-0.1-3.6,0.8-4.3,1.3l0,0c-0.4-0.2-0.8-0.4-1.2-0.5
							c-0.9-0.3-1.9-0.2-2.8,0C238.8,277.1,238,277.4,237.6,277.7z"/>
						<path class="st1" d="M249,282.9L249,282.9L249,282.9l-0.2-1.3c-0.7-0.5-1.4-1.1-1.9-1.8c-1-1.3-2.1-2.2-3.2-2.4
							c1.7,0.9,2.7,2.5,3.5,3.7c0.1,0.1,0.2,0.3,0.3,0.4c-0.3,1.2-2.6,2-3.6,1.7c-1.3-0.4-2.5-1.5-3.3-2.8c-0.9-1.4-1.9-2.3-3.1-2.7
							c1.7,1.1,2.5,2.7,3.2,3.9c0.1,0.1,0.2,0.3,0.3,0.4c-0.2,0.6-0.9,1.1-1.6,1.3c-0.7,0.3-1.6,0.3-2,0.2c-0.5-0.2-1-0.5-1.5-0.9
							l0,1.3c0.5,0.4,1,0.8,1.6,1c0.6,0.2,1.5,0.1,2.4-0.1c0.9-0.2,1.8-0.7,2.5-1.1l0,0c0.5,0.4,1.1,0.8,1.7,0.9
							c0.7,0.1,1.5,0,2.4-0.3C247.4,283.9,248.3,283.4,249,282.9z"/>
					</g>
					<g>
						<path class="st0" d="M249.8,276.6L249.8,276.6L249.8,276.6c-0.4-0.2-0.8-0.3-1.2-0.4c-0.2,0-0.4-0.1-0.5-0.1l1,6.8
							c0.5,0.4,1.1,0.7,1.7,0.7c1.4,0.2,3.5-0.8,4.8-2l0,0l0,0c0.6,0.3,1.2,0.6,1.8,0.6c0.7,0,1.5-0.3,2.4-0.7
							c0.8-0.5,1.6-1.1,2.2-1.8l0,0l-2.4-6.5c-0.8,0.1-1.6,0.5-2.3,0.9c-0.7,0.4-1.3,0.9-1.5,1.2l0,0c-0.4-0.1-0.8-0.3-1.3-0.3
							c-0.9-0.2-1.9,0.1-2.7,0.5C250.9,275.8,250.1,276.3,249.8,276.6z"/>
						<path class="st1" d="M261.9,279.7L261.9,279.7L261.9,279.7l-0.4-1.2c-0.8-0.3-1.6-0.8-2.2-1.4c-1.2-1.1-2.4-1.8-3.6-1.8
							c1.8,0.6,3.1,2,4.1,3l0.4,0.3c-0.1,1.3-2.2,2.5-3.2,2.4c-1.4-0.2-2.7-1-3.7-2.2c-1.1-1.3-2.3-2-3.4-2.2
							c1.8,0.8,2.9,2.3,3.8,3.4l0.3,0.4c-0.2,1.3-2.4,2.2-3.4,2c-0.6-0.1-1.1-0.4-1.6-0.7l0.2,1.3c0.5,0.4,1.1,0.7,1.7,0.7
							c1.4,0.2,3.5-0.8,4.8-2l0,0c0.6,0.3,1.2,0.6,1.8,0.6c0.7,0,1.5-0.3,2.4-0.7C260.5,281.1,261.3,280.4,261.9,279.7z"/>
					</g>
					<g>
						<path class="st0" d="M261.3,273.4L261.3,273.4L261.3,273.4c-0.4-0.1-0.8-0.1-1.3-0.2c-0.2,0-0.4,0-0.5,0l2.4,6.5
							c0.6,0.3,1.2,0.4,1.9,0.4c0.7-0.1,1.5-0.5,2.3-1c0.8-0.6,1.5-1.3,2-2.1l0,0l0,0c0.7,0.2,1.3,0.2,1.9,0.1
							c1.4-0.3,3.1-2.1,3.9-3.6l0,0l-4.1-5.6c-1.5,0.6-2.7,2.2-3.1,2.9l0,0c-0.4,0-0.8-0.1-1.3,0c-0.9,0.1-1.7,0.5-2.5,1.1
							C262.2,272.4,261.6,273,261.3,273.4z"/>
						<path class="st1" d="M273.8,273.5L273.8,273.5L273.8,273.5l-0.7-1c-0.8-0.1-1.7-0.4-2.5-0.8c-1.5-0.8-2.8-1-3.9-0.8
							c1.9,0.2,3.4,1.1,4.7,1.8c0.2,0.1,0.3,0.2,0.5,0.2c0.1,0.6-0.3,1.4-0.8,2c-0.5,0.6-1.2,1.1-1.7,1.2c-1.4,0.3-2.9-0.3-4.2-1.2
							c-1.3-1-2.6-1.4-3.8-1.4c0.9,0.2,1.8,0.6,2.5,1.1c0.7,0.4,1.3,0.9,1.9,1.3c0.1,0.1,0.3,0.2,0.4,0.3c0,0.6-0.4,1.3-1.1,1.9
							c-0.6,0.5-1.4,0.9-1.9,0.9c-0.6,0-1.2-0.1-1.7-0.3l0.4,1.2c0.6,0.3,1.2,0.4,1.9,0.4c0.7-0.1,1.5-0.5,2.3-1
							c0.8-0.6,1.5-1.3,2-2.1l0,0c0.7,0.2,1.3,0.2,1.9,0.1C271.4,276.8,273,275.1,273.8,273.5z"/>
					</g>
					<g>
						<path class="st0" d="M271.5,267.5L271.5,267.5L271.5,267.5c-0.4,0-0.8,0.1-1.3,0.2c-0.2,0-0.3,0.1-0.5,0.2l4.1,5.6
							c0.7,0.1,1.3,0,1.9-0.2c0.3-0.1,0.7-0.3,1-0.6c0.3-0.3,0.6-0.6,0.9-1c0.6-0.8,1.1-1.7,1.3-2.5l0,0l0,0c0.7,0,1.3-0.2,1.9-0.5
							c1.2-0.7,2.3-2.8,2.6-4.6l0,0l-5.5-4.2c-0.6,0.5-1.1,1.3-1.5,1.9c-0.4,0.7-0.6,1.4-0.6,1.8l0,0c-0.4,0.1-0.8,0.2-1.2,0.3
							c-0.4,0.2-0.8,0.4-1.1,0.7c-0.3,0.3-0.7,0.6-0.9,1C272.1,266.3,271.7,267.1,271.5,267.5z"/>
						<path class="st1" d="M283.5,264L283.5,264L283.5,264l-1-0.8c-0.8,0.2-1.7,0.2-2.6,0c-1.7-0.3-3-0.2-4,0.3
							c1.8-0.4,3.6,0.1,5,0.4c0.2,0,0.3,0.1,0.5,0.1c0.6,1.1-0.6,3.3-1.5,3.7c-1.3,0.6-2.9,0.6-4.3,0c-1.6-0.6-2.9-0.6-4-0.3
							c1.9-0.1,3.5,0.6,4.9,1.1c0.2,0.1,0.3,0.1,0.5,0.2c0.4,1.1-1,3.2-2,3.5c-0.6,0.2-1.2,0.2-1.8,0.2l0.7,1c0.7,0.1,1.3,0,1.9-0.2
							c0.3-0.1,0.7-0.3,1-0.6c0.3-0.3,0.6-0.6,0.9-1c0.6-0.8,1.1-1.7,1.3-2.5l0,0c0.7,0,1.3-0.2,1.9-0.5
							C282.1,267.9,283.2,265.8,283.5,264z"/>
					</g>
					<g>
						<path class="st0" d="M279.6,259L279.6,259L279.6,259c-0.4,0.2-0.8,0.3-1.2,0.5c-0.2,0.1-0.3,0.2-0.4,0.3l5.5,4.2
							c0.7-0.1,1.3-0.3,1.8-0.7c1.1-0.9,1.9-3.1,1.9-4.9l0,0l0,0c0.6-0.2,1.2-0.5,1.7-0.9c1-1,1.5-3.3,1.3-5l0,0l-6.3-2.8
							c-1,1.3-1.3,3.4-1.2,4.2l0,0c-0.4,0.2-0.7,0.4-1.1,0.7c-0.7,0.5-1.2,1.4-1.5,2.3C279.7,257.7,279.6,258.5,279.6,259z"/>
						<path class="st1" d="M290.2,252.4L290.2,252.4L290.2,252.4l-1.2-0.5c-0.8,0.4-1.7,0.6-2.6,0.6c-1.7,0.1-3,0.6-3.8,1.3
							c1.7-0.9,3.6-0.8,4.9-0.9c0.2,0,0.3,0,0.5,0c0.8,0.9,0.2,3.3-0.5,4c-1.1,0.9-2.6,1.3-4.2,1.2c-1.7-0.1-3,0.2-3.9,0.9
							c1.8-0.7,3.6-0.4,5-0.3c0.2,0,0.3,0,0.5,0c0.8,1-0.1,3.3-0.9,3.9c-0.5,0.3-1.1,0.5-1.7,0.7l1,0.8c0.7-0.1,1.3-0.3,1.8-0.7
							c1.1-0.9,1.9-3.1,1.9-4.9l0,0c0.7-0.2,1.3-0.5,1.7-0.9C289.8,256.5,290.3,254.2,290.2,252.4z"/>
					</g>
					<g>
						<path class="st0" d="M285.2,248.4L285.2,248.4L285.2,248.4c-0.3,0.2-0.7,0.5-1,0.8c-0.1,0.1-0.2,0.3-0.4,0.4l6.3,2.8
							c0.6-0.3,1.2-0.6,1.6-1.1c0.8-1.1,1.2-3.3,0.8-5.1l0,0l0,0c0.6-0.3,1.1-0.7,1.4-1.2c0.8-1.1,0.8-3.4,0.5-5.1l0,0l-6.7-1.8
							c-0.8,1.5-0.7,3.6-0.5,4.5l0,0c-0.3,0.3-0.7,0.5-1,0.9C285.2,245,285.1,247.5,285.2,248.4z"/>
						<path class="st1" d="M294.5,240L294.5,240L294.5,240l-1.2-0.3c-0.7,0.5-1.6,0.8-2.5,1c-1.7,0.4-2.8,1.1-3.5,2
							c1.6-1.2,3.3-1.5,4.7-1.8c0.2,0,0.3-0.1,0.5-0.1c0.9,0.8,0.9,3.2,0.2,4c-0.9,1.1-2.3,1.7-3.8,1.9c-1.7,0.2-2.9,0.8-3.6,1.7
							c1.6-1.1,3.4-1.2,4.8-1.4c0.2,0,0.3-0.1,0.5-0.1c0.9,0.8,0.6,3.3-0.1,4c-0.4,0.4-0.9,0.7-1.5,1l1.2,0.5
							c0.6-0.3,1.2-0.6,1.6-1.1c0.8-1.1,1.2-3.3,0.8-5.1l0,0c0.6-0.3,1.1-0.7,1.5-1.2C294.8,244,294.9,241.7,294.5,240z"/>
					</g>
					<g>
						<path class="st0" d="M289,236.8L289,236.8L289,236.8c-0.3,0.3-0.6,0.6-0.9,1c-0.1,0.1-0.2,0.3-0.3,0.5l6.7,1.8
							c0.6-0.3,1-0.8,1.3-1.3c0.4-0.6,0.5-1.4,0.5-2.4c0-0.9-0.2-1.9-0.4-2.7l0,0l0,0c0.5-0.4,1-0.8,1.3-1.3
							c0.6-1.2,0.4-3.5-0.2-5.2l0,0l-6.9-0.8c-0.6,1.5-0.2,3.7,0.1,4.4l0,0c-0.3,0.3-0.6,0.6-0.9,1c-0.5,0.8-0.7,1.8-0.7,2.7
							C288.7,235.5,288.8,236.3,289,236.8z"/>
						<path class="st1" d="M297,227.2L297,227.2L297,227.2l-1.3-0.2c-0.7,0.6-1.5,1-2.3,1.3c-1.6,0.6-2.6,1.4-3.2,2.4
							c1.3-1.4,3.1-1.9,4.4-2.4c0.2-0.1,0.3-0.1,0.5-0.2c1,0.6,1.3,3.1,0.8,3.9c-0.8,1.2-2.1,2-3.6,2.4c-1.6,0.5-2.7,1.3-3.4,2.2
							c1.5-1.3,3.3-1.7,4.6-2.1c0.2,0,0.3-0.1,0.5-0.1c1,0.7,1.1,3.1,0.5,3.9c-0.3,0.5-0.8,0.9-1.3,1.2l1.2,0.3
							c0.6-0.3,1-0.8,1.3-1.3c0.4-0.6,0.5-1.4,0.5-2.4c0-0.9-0.2-1.9-0.4-2.7l0,0c0.6-0.4,1-0.8,1.3-1.4
							C297.8,231.1,297.6,228.8,297,227.2z"/>
					</g>
					<g>
						<path class="st0" d="M291.1,224.7L291.1,224.7L291.1,224.7c-0.3,0.3-0.5,0.7-0.7,1.1c-0.1,0.2-0.1,0.3-0.2,0.5l6.9,0.8
							c0.5-0.4,0.9-0.9,1.1-1.5c0.3-0.6,0.3-1.5,0.2-2.4c-0.1-0.5-0.2-0.9-0.3-1.4c-0.2-0.5-0.3-0.9-0.5-1.3l0,0l0,0
							c0.5-0.5,0.8-1,1-1.6c0.2-0.7,0.2-1.5,0-2.4c-0.2-0.9-0.6-1.8-1.1-2.6h0l-6.9,0.3c-0.2,0.8,0,1.7,0.2,2.5
							c0.2,0.8,0.5,1.5,0.7,1.8l0,0c-0.2,0.3-0.5,0.7-0.7,1.1C290.1,221.5,290.6,223.9,291.1,224.7z"/>
						<path class="st1" d="M297.4,214L297.4,214L297.4,214l-1.3,0.1c-0.5,0.7-1.2,1.2-2,1.7c-1.4,0.8-2.3,1.9-2.8,2.9
							c0.6-0.8,1.3-1.4,2-1.9c0.7-0.5,1.4-0.9,2-1.2c0.1-0.1,0.3-0.2,0.4-0.3c0.6,0.2,1,0.9,1.3,1.7c0.2,0.8,0.3,1.6,0.1,2
							c-0.5,1.3-1.7,2.3-3.1,3c-1.5,0.7-2.5,1.6-3,2.7c1.2-1.5,3-2.2,4.2-2.7c0.2-0.1,0.3-0.1,0.5-0.2c1.1,0.6,1.5,2.9,1,3.8
							c-0.3,0.5-0.6,1-1.1,1.4l1.3,0.2c0.5-0.4,0.9-0.9,1.1-1.5c0.3-0.6,0.3-1.5,0.2-2.4c-0.1-0.5-0.2-0.9-0.3-1.4
							c-0.2-0.5-0.3-0.9-0.5-1.3l0,0c0.5-0.5,0.9-1,1.1-1.6c0.2-0.7,0.2-1.5,0-2.4C298.3,215.7,297.9,214.8,297.4,214z"/>
					</g>
					<g>
						<path class="st0" d="M291.2,212.6L291.2,212.6L291.2,212.6c-0.2,0.4-0.4,0.8-0.6,1.2c-0.1,0.2-0.1,0.4-0.1,0.5l6.9-0.3
							c0.4-0.5,0.8-1,0.9-1.6c0.3-1.3-0.5-3.5-1.4-4.9l0,0l0,0c0.4-0.5,0.7-1.1,0.8-1.7c0.2-1.3-0.6-3.4-1.7-4.8l0,0l-6.8,1.1
							c-0.1,1.7,0.9,3.7,1.4,4.3l0,0c-0.2,0.4-0.4,0.8-0.5,1.2C289.6,209.5,290.7,211.8,291.2,212.6z"/>
						<path class="st1" d="M296.1,201L296.1,201L296.1,201l-1.3,0.2c-0.5,0.7-1.1,1.4-1.8,1.9c-1.4,1-2.1,2.1-2.4,3.3
							c0.9-1.8,2.4-2.8,3.6-3.6c0.1-0.1,0.3-0.2,0.4-0.3c1.2,0.3,2.1,2.5,1.8,3.5c-0.3,1.3-1.4,2.5-2.7,3.4c-1.4,0.9-2.2,2-2.5,3.1
							c1-1.7,2.6-2.6,3.7-3.4c0.1-0.1,0.3-0.2,0.4-0.3c1.2,0.4,2,2.7,1.7,3.6c-0.2,0.6-0.5,1.1-0.9,1.5l1.3-0.1
							c0.4-0.5,0.8-1,0.9-1.6c0.3-1.3-0.5-3.5-1.4-4.9l0,0c0.4-0.5,0.7-1.1,0.8-1.7C298,204.5,297.1,202.4,296.1,201z"/>
					</g>
					<g>
						<path class="st0" d="M289.7,200.3L289.7,200.3L289.7,200.3c-0.2,0.4-0.3,0.8-0.4,1.3c0,0.2-0.1,0.4-0.1,0.6l6.8-1.1
							c0.4-0.5,0.6-1.1,0.7-1.7c0.2-1.3-0.8-3.3-1.8-4.7l0,0l0,0c0.4-0.5,0.6-1.1,0.7-1.7c0.2-1.3-0.8-3.3-1.9-4.6h0l-6.8,1.4
							c0,1.7,1.1,3.7,1.7,4.3l0,0c-0.2,0.4-0.3,0.8-0.4,1.3C287.8,197.3,289.1,199.6,289.7,200.3z"/>
						<path class="st1" d="M293.7,188.4L293.7,188.4L293.7,188.4l-1.3,0.3c-0.4,0.7-1,1.4-1.7,2c-1.3,1.1-2,2.3-2.1,3.5
							c0.8-1.9,2.2-2.9,3.3-3.8l0.4-0.3c1.2,0.3,2.2,2.4,2,3.3c-0.3,1.3-1.2,2.6-2.4,3.6c-1.3,1.1-2,2.2-2.2,3.4
							c0.8-1.8,2.3-2.9,3.4-3.7l0.4-0.3c1.2,0.3,2.2,2.4,2,3.4c-0.1,0.6-0.4,1.1-0.7,1.6l1.3-0.2c0.4-0.5,0.6-1.1,0.7-1.7
							c0.2-1.3-0.8-3.3-1.8-4.7l0,0c0.4-0.5,0.6-1.1,0.7-1.7C295.8,191.7,294.8,189.8,293.7,188.4z"/>
					</g>
					<g>
						<path class="st0" d="M287.4,187.9L287.4,187.9L287.4,187.9c-0.2,0.4-0.3,0.8-0.4,1.3c0,0.2,0,0.4,0,0.6l6.8-1.4
							c0.4-0.5,0.6-1.1,0.7-1.7c0.2-1.3-0.8-3.2-1.9-4.5l0,0l0,0c0.4-0.5,0.6-1.1,0.7-1.7c0.2-1.3-0.8-3.2-1.8-4.5l0,0l-6.8,1.1
							c-0.1,1.8,1,3.8,1.6,4.4l0,0c-0.2,0.4-0.3,0.8-0.4,1.3C285.4,184.9,286.7,187.2,287.4,187.9z"/>
						<path class="st1" d="M291.4,176.1L291.4,176.1L291.4,176.1l-1.3,0.2c-0.5,0.7-1.1,1.4-1.8,1.9c-1.3,1-2,2.3-2.2,3.5
							c0.8-1.9,2.3-2.9,3.4-3.8c0.1-0.1,0.3-0.2,0.4-0.3c1.2,0.3,2.1,2.4,2,3.3c-0.3,1.3-1.2,2.6-2.4,3.5c-1.3,1.1-2,2.3-2.1,3.5
							c0.8-1.9,2.2-2.9,3.3-3.8l0.4-0.3c1.2,0.3,2.2,2.4,2,3.3c-0.1,0.6-0.3,1.1-0.6,1.6l1.2-0.2c0.4-0.5,0.6-1.1,0.7-1.7
							c0.2-1.3-0.8-3.2-1.9-4.5l0,0c0.4-0.5,0.6-1.1,0.7-1.7C293.4,179.3,292.4,177.4,291.4,176.1z"/>
					</g>
					<g>
						<path class="st0" d="M285,175.3L285,175.3L285,175.3c-0.2,0.4-0.3,0.8-0.4,1.3c0,0.2,0,0.4-0.1,0.6l6.8-1.1
							c0.4-0.5,0.6-1.1,0.7-1.6c0.2-1.3-0.6-3.2-1.7-4.5l0,0l0,0c0.4-0.5,0.7-1,0.8-1.6c0.3-1.3-0.5-3.2-1.5-4.6l0,0l-6.9,0.6
							c-0.2,1.8,0.8,3.9,1.3,4.6l0,0c-0.2,0.4-0.4,0.8-0.5,1.3C283.2,172.1,284.4,174.6,285,175.3z"/>
						<path class="st1" d="M289.7,163.7L289.7,163.7L289.7,163.7l-1.3,0.1c-0.5,0.7-1.2,1.3-1.9,1.8c-1.4,0.9-2.2,2.1-2.4,3.3
							c0.9-1.8,2.5-2.8,3.6-3.5c0.1-0.1,0.3-0.2,0.4-0.3c1.2,0.4,2,2.5,1.7,3.4c-0.4,1.3-1.3,2.5-2.6,3.4c-1.4,1-2.1,2.2-2.3,3.4
							c0.8-1.9,2.4-2.9,3.5-3.7l0.4-0.3c1.2,0.3,2.1,2.4,1.9,3.4c-0.1,0.5-0.4,1.1-0.7,1.6l1.3-0.2c0.4-0.5,0.6-1.1,0.7-1.6
							c0.2-1.3-0.6-3.2-1.7-4.5l0,0c0.4-0.5,0.7-1.1,0.8-1.6C291.5,167,290.7,165.1,289.7,163.7z"/>
					</g>
					<g>
						<path class="st0" d="M283.5,162.4L283.5,162.4L283.5,162.4c-0.2,0.4-0.4,0.8-0.5,1.3c-0.1,0.2-0.1,0.4-0.1,0.6l6.9-0.6
							c0.4-0.5,0.7-1,0.9-1.6c0.3-1.2-0.4-3.2-1.3-4.6l0,0l0,0c0.4-0.5,0.8-1,1-1.5c0.4-1.2-0.3-3.2-1.1-4.7h0l-6.9,0
							c-0.4,1.7,0.4,3.9,0.9,4.7l0,0c-0.2,0.4-0.4,0.8-0.6,1.3c-0.2,0.5-0.2,1-0.2,1.5c0,0.5,0.1,1,0.2,1.5
							C282.8,161.2,283.2,162,283.5,162.4z"/>
						<path class="st1" d="M289.2,151.3L289.2,151.3L289.2,151.3l-1.3,0c-0.6,0.6-1.3,1.2-2.1,1.6c-1.5,0.8-2.3,1.9-2.7,3.1
							c1.1-1.8,2.7-2.5,3.9-3.2c0.1-0.1,0.3-0.2,0.4-0.2c1.1,0.5,1.8,2.7,1.4,3.6c-0.5,1.2-1.6,2.3-2.9,3.1c-1.4,0.9-2.3,2-2.6,3.2
							c1-1.8,2.6-2.7,3.8-3.4c0.1-0.1,0.3-0.2,0.4-0.3c1.2,0.4,1.9,2.6,1.6,3.5c-0.2,0.5-0.5,1-0.8,1.5l1.3-0.1
							c0.4-0.5,0.7-1,0.9-1.6c0.3-1.2-0.4-3.2-1.3-4.6l0,0c0.5-0.5,0.8-1,1-1.5C290.7,154.8,290,152.8,289.2,151.3z"/>
					</g>
					<g>
						<path class="st0" d="M283.1,149.5L283.1,149.5L283.1,149.5c-0.2,0.4-0.5,0.8-0.6,1.2c-0.1,0.2-0.1,0.4-0.2,0.5l6.9,0
							c0.5-0.5,0.8-1,1-1.5c0.4-1.3-0.2-3.4-1-4.8l0,0l0,0c0.5-0.5,0.8-1,1-1.5c0.4-1.3-0.2-3.3-1-4.8h0l-6.9,0.1
							c-0.4,1.7,0.4,3.9,0.8,4.6l0,0c-0.2,0.4-0.5,0.8-0.6,1.2C281.7,146.2,282.6,148.7,283.1,149.5z"/>
						<path class="st1" d="M289.1,138.5L289.1,138.5L289.1,138.5l-1.3,0c-0.6,0.6-1.3,1.2-2.1,1.6c-1.5,0.8-2.4,1.9-2.7,3
							c1.1-1.7,2.7-2.5,4-3.1c0.1-0.1,0.3-0.2,0.4-0.2c1.1,0.5,1.7,2.7,1.4,3.6c-0.5,1.3-1.6,2.3-3,3.1c-1.5,0.8-2.4,1.9-2.7,3
							c1.1-1.7,2.8-2.5,4-3.1c0.1-0.1,0.3-0.2,0.4-0.2c1.1,0.5,1.7,2.7,1.4,3.6c-0.2,0.5-0.5,1-0.9,1.5l1.3,0c0.5-0.5,0.8-1,1-1.5
							c0.4-1.3-0.2-3.4-1-4.8l0,0c0.5-0.5,0.8-1,1-1.6C290.5,142.1,289.9,140,289.1,138.5z"/>
					</g>
					<g>
						<path class="st0" d="M282.9,136.8L282.9,136.8L282.9,136.8c-0.2,0.4-0.4,0.8-0.6,1.2c-0.1,0.2-0.1,0.4-0.1,0.6l6.9-0.1
							c0.5-0.5,0.8-1,1-1.5c0.4-1.2-0.2-3.3-1-4.8l0,0l0,0c0.5-0.5,0.8-1,1-1.5c0.4-1.2-0.2-3.3-1-4.8h0l-6.9,0
							c-0.4,1.7,0.4,3.9,0.8,4.6l0,0c-0.2,0.4-0.5,0.8-0.6,1.2C281.6,133.5,282.4,136,282.9,136.8z"/>
						<path class="st1" d="M289,125.9L289,125.9L289,125.9l-1.3,0c-0.6,0.6-1.3,1.2-2.1,1.6c-1.5,0.8-2.4,1.9-2.8,3
							c1.1-1.7,2.8-2.5,4-3.1c0.1-0.1,0.3-0.2,0.4-0.2c1.1,0.5,1.7,2.7,1.4,3.6c-0.5,1.3-1.6,2.3-3,3.1c-1.5,0.8-2.4,1.9-2.7,3
							c1.1-1.7,2.7-2.5,4-3.1c0.1-0.1,0.3-0.2,0.4-0.2c1.1,0.5,1.7,2.7,1.4,3.6c-0.2,0.5-0.5,1-0.9,1.5l1.3,0c0.5-0.5,0.8-1,1-1.5
							c0.4-1.2-0.2-3.3-1-4.8l0,0c0.5-0.5,0.8-1,1-1.5C290.4,129.4,289.8,127.4,289,125.9z"/>
					</g>
					<g>
						<path class="st0" d="M282.9,124.1L282.9,124.1L282.9,124.1c-0.2,0.4-0.5,0.8-0.6,1.2c-0.1,0.2-0.1,0.4-0.2,0.6l6.9,0
							c0.5-0.5,0.8-0.9,1-1.5c0.4-1.2-0.1-3.3-0.9-4.8l0,0l0,0c0.5-0.4,0.8-0.9,1-1.5c0.4-1.2-0.1-3.3-0.9-4.8h0l-6.9-0.2
							c-0.4,1.7,0.2,3.9,0.7,4.7l0,0c-0.3,0.4-0.5,0.7-0.7,1.2C281.6,120.7,282.4,123.3,282.9,124.1z"/>
						<path class="st1" d="M289.2,113.3L289.2,113.3L289.2,113.3l-1.3,0c-0.6,0.6-1.3,1.1-2.1,1.5c-1.5,0.8-2.4,1.8-2.9,2.9
							c1.2-1.7,2.8-2.4,4.1-3c0.1-0.1,0.3-0.2,0.4-0.2c1.1,0.5,1.6,2.8,1.3,3.7c-0.5,1.2-1.7,2.3-3.1,3c-1.5,0.8-2.4,1.8-2.8,3
							c1.1-1.7,2.8-2.4,4-3.1c0.1-0.1,0.3-0.2,0.4-0.2c1.1,0.5,1.7,2.8,1.3,3.6c-0.2,0.5-0.5,1-0.9,1.4l1.3,0c0.5-0.5,0.8-0.9,1-1.5
							c0.4-1.2-0.1-3.3-0.9-4.8l0,0c0.5-0.5,0.8-1,1-1.5C290.5,116.9,290,114.8,289.2,113.3z"/>
					</g>
					<g>
						<path class="st0" d="M283.1,111.3L283.1,111.3L283.1,111.3c-0.2,0.4-0.5,0.8-0.7,1.2c-0.1,0.2-0.1,0.4-0.2,0.6l6.9,0.2
							c0.5-0.4,0.9-0.9,1.1-1.5c0.5-1.2,0-3.3-0.7-4.8l0,0l0,0c0.5-0.4,0.9-0.9,1.1-1.4c0.5-1.2,0.1-3.3-0.6-4.8l0,0l-6.9-0.7
							c-0.5,1.7,0,4,0.4,4.7l0,0c-0.3,0.3-0.5,0.7-0.7,1.2C281.9,107.8,282.7,110.4,283.1,111.3z"/>
						<path class="st1" d="M290,100.8L290,100.8L290,100.8l-1.3-0.1c-0.6,0.6-1.4,1-2.2,1.4c-1.5,0.7-2.6,1.7-3,2.8
							c1.2-1.6,3-2.3,4.2-2.8c0.2-0.1,0.3-0.1,0.5-0.2c1.1,0.6,1.5,2.8,1.1,3.7c-0.6,1.2-1.8,2.2-3.2,2.8c-1.5,0.7-2.5,1.7-2.9,2.9
							c1.2-1.7,2.9-2.3,4.1-2.9c0.2-0.1,0.3-0.1,0.4-0.2c1.1,0.6,1.6,2.8,1.2,3.7c-0.2,0.5-0.6,1-1,1.4l1.3,0
							c0.5-0.4,0.9-0.9,1.1-1.5c0.5-1.2,0-3.3-0.7-4.8l0,0c0.5-0.4,0.9-0.9,1.1-1.4C291.1,104.4,290.7,102.3,290,100.8z"/>
					</g>
					<g>
						<path class="st0" d="M284.1,98.4L284.1,98.4L284.1,98.4c-0.3,0.4-0.5,0.7-0.8,1.2c-0.1,0.2-0.1,0.4-0.2,0.5l6.9,0.7
							c0.5-0.4,0.9-0.9,1.1-1.4c0.6-1.2,0.2-3.2-0.4-4.8l0,0l0,0c0.5-0.4,0.9-0.8,1.2-1.3c0.3-0.6,0.4-1.4,0.3-2.2
							c-0.1-0.9-0.2-1.8-0.5-2.6l0,0l-6.8-1.3c-0.7,1.7-0.4,4,0,4.8l0,0c-0.3,0.3-0.6,0.7-0.8,1.1C283.1,94.8,283.7,97.5,284.1,98.4
							z"/>
						<path class="st1" d="M291.8,88.5L291.8,88.5L291.8,88.5l-1.3-0.2c-0.7,0.5-1.5,0.9-2.4,1.2c-1.6,0.5-2.7,1.4-3.2,2.5
							c1.4-1.5,3.1-2,4.5-2.4c0.2-0.1,0.3-0.1,0.5-0.2c1,0.7,1.2,3,0.7,3.8c-0.7,1.1-2,2-3.4,2.6c-1.6,0.6-2.6,1.6-3.1,2.7
							c1.3-1.6,3.1-2.1,4.4-2.6c0.2-0.1,0.3-0.1,0.5-0.2c1.1,0.6,1.4,2.9,0.9,3.7c-0.3,0.5-0.6,0.9-1.1,1.3l1.3,0.1
							c0.5-0.4,0.9-0.9,1.1-1.4c0.6-1.2,0.2-3.2-0.4-4.8l0,0c0.5-0.4,1-0.8,1.2-1.3c0.3-0.6,0.4-1.4,0.3-2.2
							C292.2,90.2,292,89.3,291.8,88.5z"/>
					</g>
					<g>
						<path class="st0" d="M286.1,85.6L286.1,85.6L286.1,85.6c-0.3,0.3-0.6,0.7-0.9,1.1c-0.1,0.2-0.2,0.3-0.3,0.5l6.8,1.3
							c0.5-0.3,1-0.8,1.3-1.2c0.6-1.1,0.6-3.2,0.1-4.8l0,0l0,0c0.5-0.3,1-0.7,1.4-1.2c0.7-1,0.7-3.1,0.4-4.9l0,0l-6.7-1.9
							c-0.2,0.4-0.3,0.8-0.4,1.2c-0.1,0.4-0.2,0.9-0.2,1.4c-0.1,0.9,0,1.7,0.1,2.1l0,0c-0.3,0.3-0.7,0.6-1,1
							C285.6,81.9,285.8,84.6,286.1,85.6z"/>
						<path class="st1" d="M294.8,76.5L294.8,76.5L294.8,76.5l-1.2-0.4c-0.7,0.5-1.6,0.8-2.4,0.9c-1.6,0.3-2.8,1.1-3.5,2.2
							c1.6-1.4,3.4-1.6,4.7-1.9c0.2,0,0.3-0.1,0.5-0.1c0.9,0.8,0.9,3.1,0.3,3.8c-0.8,1-2.2,1.8-3.7,2.2c-1.6,0.4-2.8,1.3-3.4,2.4
							c1.5-1.5,3.3-1.8,4.6-2.2c0.2,0,0.3-0.1,0.5-0.1c1,0.8,1,3,0.5,3.8c-0.3,0.5-0.7,0.9-1.2,1.2l1.3,0.2c0.5-0.3,1-0.8,1.3-1.2
							c0.6-1.1,0.6-3.2,0.1-4.8l0,0c0.6-0.3,1.1-0.7,1.4-1.2C295.2,80.3,295.1,78.3,294.8,76.5z"/>
					</g>
					<g>
						<path class="st0" d="M289.4,73.1L289.4,73.1L289.4,73.1c-0.3,0.3-0.6,0.6-0.9,0.9c-0.1,0.1-0.2,0.3-0.3,0.5l6.6,1.9
							c0.6-0.3,1.1-0.7,1.4-1.3c0.8-1.2,0.7-3.5,0.2-5.1l0,0l0,0c0.5-0.4,1-0.8,1.3-1.4c0.7-1.2,0.4-3.5-0.2-5.2l0,0l-6.9-0.8
							c-0.6,1.6-0.1,3.7,0.1,4.4l0,0c-0.3,0.3-0.6,0.6-0.8,1c-0.5,0.8-0.7,1.8-0.7,2.7C289.1,71.8,289.3,72.7,289.4,73.1z"/>
						<path class="st1" d="M297.4,63.5L297.4,63.5L297.4,63.5l-1.3-0.1c-0.6,0.6-1.4,1-2.3,1.3c-1.6,0.6-2.6,1.4-3.2,2.5
							c1.4-1.4,3.1-1.9,4.4-2.4c0.2-0.1,0.3-0.1,0.5-0.2c1.1,0.6,1.3,3.1,0.8,3.9c-0.7,1.2-2.1,2-3.6,2.4c-1.6,0.5-2.7,1.2-3.4,2.2
							c1.5-1.3,3.2-1.6,4.6-2c0.2,0,0.3-0.1,0.5-0.1c1,0.7,1,3.2,0.4,4c-0.3,0.5-0.8,0.9-1.3,1.2l1.2,0.4c0.6-0.3,1.1-0.7,1.4-1.3
							c0.8-1.2,0.7-3.5,0.2-5.1l0,0c0.6-0.4,1-0.8,1.3-1.4C298.3,67.5,298,65.2,297.4,63.5z"/>
					</g>
					<g>
						<path class="st0" d="M291.5,61.2L291.5,61.2L291.5,61.2c-0.3,0.3-0.5,0.7-0.7,1.1c-0.1,0.2-0.1,0.3-0.2,0.5l6.9,0.8
							c0.5-0.4,0.9-0.9,1.1-1.5c0.3-0.6,0.3-1.5,0.2-2.5c-0.2-0.9-0.5-1.9-0.9-2.7l0,0l0,0c0.5-0.5,0.8-1,1-1.6
							c0.2-0.7,0.1-1.6-0.1-2.5c-0.3-0.9-0.7-1.8-1.2-2.6h0l-6.9,0.6c-0.1,0.8,0,1.7,0.3,2.5c0.2,0.8,0.5,1.5,0.7,1.8l0,0
							c-0.2,0.3-0.4,0.7-0.6,1.1c-0.4,0.8-0.4,1.8-0.2,2.7C291,60,291.2,60.8,291.5,61.2z"/>
						<path class="st1" d="M297.6,50.3L297.6,50.3L297.6,50.3l-1.3,0.1c-0.5,0.7-1.2,1.3-2,1.8c-1.4,0.9-2.3,1.9-2.7,3
							c0.5-0.8,1.2-1.4,1.9-1.9c0.7-0.5,1.4-0.9,2-1.3c0.1-0.1,0.3-0.2,0.4-0.3c0.6,0.2,1.1,0.9,1.3,1.7c0.3,0.8,0.3,1.6,0.2,2
							c-0.4,1.3-1.7,2.4-3.1,3c-0.8,0.4-1.4,0.8-1.8,1.3c-0.5,0.5-0.9,1-1.1,1.5c1.3-1.5,2.9-2.2,4.2-2.8c0.1-0.1,0.3-0.2,0.4-0.2
							c0.6,0.3,1,1,1.2,1.8c0.2,0.8,0.2,1.6-0.1,2.1c-0.3,0.5-0.6,1-1.1,1.4l1.3,0.1c0.5-0.4,0.9-0.9,1.1-1.5
							c0.3-0.6,0.3-1.5,0.2-2.5c-0.2-0.9-0.5-1.9-0.9-2.7l0,0c0.5-0.5,0.8-1,1-1.6c0.2-0.7,0.1-1.6-0.1-2.5
							C298.5,51.9,298,51,297.6,50.3z"/>
					</g>
					<g>
						<path class="st0" d="M291.3,49.2L291.3,49.2L291.3,49.2c-0.2,0.4-0.4,0.8-0.5,1.2c-0.1,0.2-0.1,0.3-0.1,0.5l6.9-0.6
							c0.4-0.5,0.7-1.1,0.8-1.7c0.1-0.7,0-1.6-0.4-2.5c-0.4-0.9-0.9-1.8-1.4-2.5l0,0l0,0c0.4-0.6,0.6-1.2,0.6-1.8
							c0-0.7-0.2-1.6-0.7-2.4c-0.5-0.8-1.1-1.7-1.7-2.3l0,0l-6.5,2.3c0.1,0.8,0.4,1.6,0.8,2.3c0.4,0.7,0.8,1.3,1.1,1.6l0,0
							c-0.2,0.4-0.3,0.8-0.4,1.2c-0.2,0.9,0,1.8,0.4,2.7C290.6,48.1,291,48.8,291.3,49.2z"/>
						<path class="st1" d="M294.8,37.2L294.8,37.2L294.8,37.2l-1.2,0.4c-0.3,0.8-0.9,1.6-1.5,2.2c-0.6,0.6-1,1.2-1.3,1.8
							c-0.3,0.6-0.5,1.2-0.6,1.7c0.7-1.8,2.1-3,3.1-4l0.3-0.4c0.6,0.1,1.2,0.6,1.7,1.3c0.4,0.7,0.7,1.5,0.6,2
							c-0.1,1.4-1.1,2.7-2.3,3.7c-1.3,1-2.1,2.2-2.3,3.3c0.5-0.9,1.1-1.5,1.7-2.1c0.6-0.6,1.3-1,1.8-1.5l0.4-0.3
							c0.6,0.1,1.2,0.8,1.5,1.5c0.3,0.7,0.5,1.5,0.4,2c-0.1,0.6-0.4,1.1-0.8,1.6l1.3-0.1c0.4-0.5,0.7-1.1,0.8-1.7
							c0.1-0.7,0-1.6-0.4-2.5c-0.4-0.9-0.9-1.8-1.4-2.5l0,0c0.4-0.6,0.6-1.2,0.6-1.8c0-0.7-0.2-1.6-0.7-2.4
							C296.1,38.6,295.5,37.8,294.8,37.2z"/>
					</g>
					<g>
						<path class="st0" d="M288.4,37.6L288.4,37.6L288.4,37.6c-0.1,0.4-0.2,0.8-0.2,1.3c0,0.2,0,0.3,0,0.5l6.5-2.3
							c0.3-0.6,0.4-1.2,0.4-1.9c0-0.7-0.4-1.6-1-2.3c-0.6-0.8-1.3-1.5-2-2l0,0l0,0c0.2-0.6,0.2-1.3,0.1-1.9
							c-0.3-1.4-2.1-3.1-3.7-3.9l0,0l-5.5,4.2c0.6,1.4,2.2,2.7,3,3l0,0c-0.1,0.4-0.1,0.8,0,1.3c0,0.4,0.2,0.9,0.4,1.3
							c0.2,0.4,0.4,0.8,0.7,1.2C287.5,36.8,288.1,37.4,288.4,37.6z"/>
						<path class="st1" d="M288.5,25.2L288.5,25.2L288.5,25.2l-1,0.8c-0.1,0.9-0.3,1.7-0.7,2.5c-0.8,1.5-1,2.8-0.8,3.9
							c0.2-1.9,1.1-3.4,1.8-4.7c0.1-0.2,0.1-0.3,0.2-0.5c0.6-0.1,1.4,0.3,2,0.8c0.6,0.5,1.1,1.2,1.2,1.7c0.2,1.4-0.3,2.9-1.3,4.2
							c-1,1.4-1.4,2.6-1.4,3.7c0.3-0.9,0.7-1.7,1.1-2.5c0.5-0.7,1-1.3,1.4-1.9c0.1-0.1,0.2-0.3,0.3-0.4c1.2,0,2.8,1.9,2.7,3
							c0,0.6-0.1,1.2-0.3,1.7l1.2-0.4c0.3-0.6,0.4-1.2,0.4-1.9c0-0.7-0.4-1.6-1-2.3c-0.6-0.8-1.3-1.5-2-2l0,0c0.2-0.7,0.2-1.3,0.1-2
							C291.9,27.6,290.2,25.9,288.5,25.2z"/>
					</g>
					<g>
						<path class="st0" d="M282.6,27.6L282.6,27.6L282.6,27.6c0,0.4,0.1,0.8,0.2,1.2c0,0.2,0.1,0.3,0.2,0.5l5.5-4.2
							c0.1-0.7,0-1.3-0.2-1.9c-0.3-0.7-0.9-1.4-1.7-1.9c-0.8-0.6-1.8-1-2.6-1.3l0,0l0,0c-0.1-0.7-0.3-1.3-0.6-1.8
							c-0.2-0.3-0.5-0.6-0.8-0.9c-0.4-0.3-0.8-0.5-1.2-0.7c-0.5-0.2-0.9-0.4-1.4-0.5c-0.5-0.1-1-0.2-1.4-0.2l0,0l-3.5,6
							c0.3,0.3,0.6,0.5,0.9,0.7c0.3,0.2,0.7,0.4,1,0.5c0.4,0.1,0.7,0.2,1,0.3c0.3,0.1,0.6,0.1,0.8,0.2l0,0c0.1,0.4,0.2,0.8,0.4,1.2
							c0.4,0.7,1,1.4,1.8,1.9C281.5,27.1,282.2,27.5,282.6,27.6z"/>
						<path class="st1" d="M278.3,15.9L278.3,15.9L278.3,15.9l-0.7,1.1c0.3,0.8,0.4,1.7,0.3,2.6c-0.2,1.7,0.1,2.9,0.6,3.9
							c-0.5-1.8-0.2-3.6,0-5c0-0.2,0-0.3,0-0.5c1-0.6,3.4,0.3,3.9,1.2c0.4,0.6,0.6,1.3,0.6,2.1c0,0.8-0.1,1.5-0.3,2.3
							c-0.5,1.6-0.5,2.9-0.1,4c-0.1-0.9,0.1-1.8,0.3-2.7c0.2-0.8,0.5-1.6,0.7-2.2c0-0.2,0.1-0.3,0.1-0.5c0.6-0.2,1.4,0,2.1,0.4
							c0.7,0.4,1.3,1.1,1.5,1.5c0.2,0.5,0.2,1.2,0.2,1.8l1-0.8c0.1-0.7,0-1.3-0.2-1.9c-0.3-0.7-0.9-1.4-1.7-1.9
							c-0.8-0.6-1.8-1-2.6-1.3l0,0c-0.1-0.7-0.3-1.3-0.6-1.9c-0.2-0.3-0.5-0.6-0.8-0.9c-0.4-0.3-0.8-0.5-1.2-0.7
							c-0.5-0.2-0.9-0.4-1.4-0.5C279.3,16,278.8,15.9,278.3,15.9z"/>
					</g>
					<g>
						<path class="st0" d="M273.8,20.4L273.8,20.4L273.8,20.4c0.2,0.3,0.4,0.7,0.6,1.1c0.1,0.1,0.2,0.3,0.3,0.4l3.5-5.9
							c-0.2-0.6-0.5-1.3-1-1.7c-0.5-0.5-1.4-0.9-2.4-1.1c-1-0.2-2.1-0.2-3-0.1l0,0l0,0c-0.3-0.6-0.8-1.1-1.3-1.4
							c-0.3-0.2-0.7-0.4-1.1-0.5c-0.4-0.1-0.9-0.1-1.4-0.1c-1,0-2,0.2-2.9,0.5v0l-0.8,6.9c0.7,0.2,1.6,0.3,2.3,0.3
							c0.8-0.1,1.5-0.2,1.8-0.3l0,0c0.2,0.3,0.5,0.6,0.8,0.9c0.6,0.5,1.5,0.9,2.3,1C272.6,20.4,273.4,20.5,273.8,20.4z"/>
						<path class="st1" d="M265.3,11.5L265.3,11.5L265.3,11.5l-0.2,1.3c0.6,0.6,1,1.4,1.3,2.3c0.5,1.6,1.3,2.6,2.1,3.3
							c-0.6-0.8-1-1.5-1.3-2.3c-0.3-0.8-0.5-1.6-0.8-2.2c-0.1-0.2-0.1-0.3-0.2-0.5c0.7-1,3.2-1.1,4.1-0.5c1.2,0.8,1.8,2.3,2,3.9
							c0.2,1.6,0.7,2.9,1.4,3.7c-0.4-0.8-0.6-1.7-0.8-2.6c-0.1-0.8-0.2-1.6-0.3-2.3c0-0.2-0.1-0.3-0.1-0.5c0.4-0.4,1.3-0.6,2.1-0.5
							c0.8,0.1,1.6,0.5,2,0.8c0.4,0.4,0.7,1,0.9,1.6l0.7-1.1c-0.2-0.6-0.5-1.3-1-1.7c-0.5-0.5-1.4-0.9-2.4-1.1c-1-0.2-2.1-0.2-3-0.1
							l0,0c-0.3-0.6-0.8-1.1-1.3-1.5c-0.3-0.2-0.7-0.4-1.1-0.5c-0.4-0.1-0.9-0.1-1.4-0.1C267.2,11,266.1,11.1,265.3,11.5z"/>
					</g>
					<g>
						<path class="st0" d="M262.9,17.4L262.9,17.4L262.9,17.4c0.3,0.3,0.6,0.5,1,0.8c0.1,0.1,0.3,0.1,0.5,0.2l0.8-6.9
							c-0.4-0.5-1-0.9-1.6-1.2c-1.4-0.5-3.8,0-5.3,1l0,0l0,0c-0.5-0.4-1.1-0.8-1.7-0.9c-0.7-0.1-1.6,0-2.5,0.4
							c-0.9,0.3-1.8,0.9-2.5,1.5l0,0l1.5,6.8c0.8,0,1.6-0.3,2.4-0.5c0.7-0.3,1.3-0.7,1.7-0.9l0,0c0.4,0.2,0.7,0.4,1.1,0.5
							c0.8,0.3,1.8,0.2,2.6,0C261.8,17.9,262.5,17.6,262.9,17.4z"/>
						<path class="st1" d="M251.6,12.2L251.6,12.2L251.6,12.2l0.3,1.2c0.8,0.4,1.4,1,2,1.7c1,1.3,2.1,2.1,3.2,2.3
							c-1.7-0.9-2.7-2.5-3.6-3.5l-0.3-0.4c0.3-1.3,2.6-2.1,3.6-1.9c1.4,0.4,2.6,1.5,3.3,2.8c0.8,1.5,1.8,2.4,2.8,2.8
							c-1.4-1.1-2.2-2.9-2.9-4.1c-0.1-0.1-0.2-0.3-0.3-0.4c0.2-0.6,1-1,1.8-1.2c0.8-0.2,1.7-0.3,2.1,0c0.5,0.3,1,0.6,1.4,1.1
							l0.2-1.3c-0.4-0.5-1-0.9-1.6-1.2c-1.4-0.5-3.8,0-5.3,1l0,0c-0.5-0.4-1.1-0.8-1.8-0.9c-0.7-0.1-1.6,0-2.5,0.4
							C253.2,11.1,252.3,11.7,251.6,12.2z"/>
					</g>
					<g>
						<path class="st0" d="M251.4,18.6L251.4,18.6L251.4,18.6c0.4,0.1,0.8,0.2,1.2,0.3c0.2,0,0.3,0,0.5,0l-1.5-6.8
							c-0.6-0.3-1.2-0.6-1.8-0.6c-0.7,0-1.6,0.3-2.4,0.7c-0.4,0.2-0.8,0.5-1.1,0.7c-0.3,0.3-0.7,0.6-1,0.9l0,0l0,0
							c-0.6-0.3-1.1-0.5-1.7-0.6c-1.2,0-3,0.9-4.3,2.1l0,0l1.5,6.8c1.8-0.1,3.8-1.2,4.4-1.9l0,0c0.4,0.1,0.9,0.2,1.4,0.3
							c1,0.1,2.1-0.3,2.9-0.7C250.4,19.5,251.1,19,251.4,18.6z"/>
						<path class="st1" d="M239.4,15.5L239.4,15.5L239.4,15.5l0.3,1.2c0.7,0.4,1.4,1,2,1.7c1.1,1.2,2.4,1.9,3.6,1.9
							c-2-0.6-3.1-2.1-4-3.1l-0.3-0.4c0.2-1.2,2.2-2.2,3.1-2.2c1.3,0.1,2.6,1,3.7,2.1c1.2,1.2,2.4,1.8,3.6,1.9c-1.8-0.7-3-2-4-3
							l-0.4-0.3c0.1-1.2,2.2-2.4,3.2-2.3c0.6,0,1.2,0.3,1.7,0.6l-0.3-1.2c-0.6-0.3-1.2-0.6-1.8-0.6c-0.7,0-1.6,0.3-2.4,0.7
							c-0.4,0.2-0.8,0.5-1.1,0.7c-0.3,0.3-0.7,0.6-1,0.9l0,0c-0.6-0.3-1.1-0.5-1.7-0.6C242.4,13.4,240.6,14.3,239.4,15.5z"/>
					</g>
					<g>
						<path class="st0" d="M238.9,21.9L238.9,21.9L238.9,21.9c0.4,0.2,0.9,0.3,1.4,0.4c0.2,0,0.4,0,0.6,0l-1.5-6.8
							c-0.5-0.3-1.1-0.6-1.6-0.7c-1.3-0.2-3.1,0.8-4.4,1.8l0,0l0,0c-0.5-0.4-1-0.7-1.6-0.8c-0.6-0.1-1.4,0-2.2,0.4
							c-0.8,0.3-1.6,0.7-2.3,1.2v0l0.8,6.9c0.9,0.1,1.9-0.1,2.7-0.4c0.8-0.3,1.5-0.7,1.9-1l0,0c0.4,0.2,0.8,0.3,1.3,0.5
							C235.7,23.9,238.2,22.5,238.9,21.9z"/>
						<path class="st1" d="M227.2,17.4L227.2,17.4L227.2,17.4l0.1,1.3c0.7,0.5,1.3,1.2,1.8,1.9c1,1.4,2.1,2.1,3.4,2.3
							c-1.9-0.9-2.8-2.4-3.6-3.6c-0.1-0.1-0.2-0.3-0.3-0.4c0.4-1.1,2.5-2,3.4-1.8c1.3,0.3,2.5,1.3,3.5,2.5c1,1.3,2.3,2,3.5,2.2
							c-1.9-0.8-3-2.3-3.8-3.4l-0.3-0.4c0.3-1.2,2.3-2.2,3.3-2c0.5,0.1,1.1,0.3,1.6,0.6l-0.3-1.2c-0.5-0.3-1.1-0.6-1.6-0.7
							c-1.3-0.2-3.1,0.8-4.4,1.8l0,0c-0.5-0.4-1.1-0.7-1.6-0.8c-0.6-0.1-1.4,0-2.2,0.4C228.7,16.5,227.8,17,227.2,17.4z"/>
					</g>
					<g>
						<path class="st0" d="M226,23.7L226,23.7L226,23.7c0.4,0.2,0.8,0.4,1.3,0.5c0.2,0,0.4,0.1,0.6,0.1l-0.7-6.9
							c-0.5-0.4-1-0.7-1.6-0.8c-1.2-0.3-3.2,0.4-4.6,1.4l0,0l0,0c-0.5-0.4-1-0.7-1.6-0.9c-1.2-0.4-3.3,0.3-4.7,1.2v0l0.3,6.9
							c1.8,0.3,3.9-0.6,4.6-1l0,0c0.4,0.2,0.8,0.4,1.3,0.6C222.7,25.4,225.3,24.3,226,23.7z"/>
						<path class="st1" d="M214.7,18.4L214.7,18.4L214.7,18.4l0.1,1.3c0.6,0.5,1.2,1.2,1.7,2c0.9,1.4,2,2.3,3.2,2.6
							c-1.8-1-2.6-2.6-3.3-3.8c-0.1-0.1-0.2-0.3-0.3-0.4c0.4-1.2,2.6-1.8,3.5-1.5c1.3,0.4,2.4,1.5,3.2,2.8c0.9,1.4,2.1,2.3,3.3,2.5
							c-1.8-0.9-2.7-2.6-3.5-3.7c-0.1-0.1-0.2-0.3-0.3-0.4c0.4-1.2,2.6-1.9,3.5-1.7c0.5,0.2,1,0.4,1.5,0.8l-0.1-1.3
							c-0.5-0.4-1-0.7-1.6-0.8c-1.2-0.3-3.2,0.4-4.6,1.4l0,0c-0.5-0.4-1-0.8-1.6-0.9C218.2,16.8,216.1,17.5,214.7,18.4z"/>
					</g>
					<g>
						<path class="st0" d="M213.2,24.6L213.2,24.6L213.2,24.6c0.4,0.2,0.8,0.4,1.3,0.6c0.2,0.1,0.4,0.1,0.6,0.1l-0.3-6.9
							c-0.5-0.4-1-0.8-1.5-0.9c-1.2-0.4-3.3,0.3-4.8,1.1l0,0l0,0c-0.5-0.5-1-0.8-1.5-1c-1.2-0.4-3.3,0.2-4.8,1l0,0l0,6.9
							c1.7,0.4,3.9-0.4,4.6-0.8l0,0c0.4,0.2,0.8,0.5,1.2,0.6C209.8,26,212.4,25.1,213.2,24.6z"/>
						<path class="st1" d="M202.1,18.6L202.1,18.6L202.1,18.6l0,1.3c0.6,0.6,1.2,1.3,1.6,2.1c0.8,1.5,1.9,2.4,3,2.7
							c-1.7-1.1-2.5-2.7-3.2-4c-0.1-0.1-0.2-0.3-0.2-0.4c0.5-1.1,2.7-1.7,3.6-1.4c1.3,0.5,2.3,1.6,3.1,3c0.8,1.5,1.9,2.3,3.1,2.7
							c-1.7-1.1-2.6-2.7-3.2-3.9c-0.1-0.1-0.2-0.3-0.3-0.4c0.5-1.1,2.7-1.8,3.6-1.5c0.5,0.2,1,0.5,1.5,0.9l-0.1-1.3
							c-0.5-0.4-1-0.8-1.5-0.9c-1.2-0.4-3.3,0.3-4.8,1.1l0,0c-0.5-0.5-1-0.8-1.6-1C205.6,17.2,203.6,17.8,202.1,18.6z"/>
					</g>
					<g>
						<path class="st0" d="M200.4,24.8L200.4,24.8L200.4,24.8c0.4,0.2,0.8,0.5,1.2,0.6c0.2,0.1,0.4,0.1,0.6,0.2l0-6.9
							c-0.5-0.5-1-0.8-1.5-1c-1.2-0.4-3.3,0.2-4.8,1l0,0l0,0c-0.5-0.5-1-0.8-1.5-1c-1.2-0.4-3.3,0.2-4.8,1v0l-0.1,6.9
							c1.7,0.4,3.9-0.3,4.6-0.8l0,0c0.4,0.2,0.7,0.5,1.2,0.6C197,26.1,199.6,25.3,200.4,24.8z"/>
						<path class="st1" d="M189.4,18.6L189.4,18.6L189.4,18.6l0,1.3c0.6,0.6,1.2,1.3,1.6,2.1c0.8,1.5,1.8,2.4,3,2.8
							c-1.7-1.1-2.4-2.8-3.1-4c-0.1-0.1-0.2-0.3-0.2-0.4c0.5-1.1,2.8-1.7,3.6-1.3c1.3,0.5,2.3,1.7,3,3c0.8,1.5,1.9,2.4,3,2.8
							c-1.7-1.1-2.5-2.8-3.1-4c-0.1-0.1-0.2-0.3-0.2-0.4c0.5-1.1,2.7-1.7,3.6-1.4c0.5,0.2,1,0.5,1.4,0.9l0-1.3c-0.5-0.5-1-0.8-1.5-1
							c-1.2-0.4-3.3,0.2-4.8,1l0,0c-0.5-0.5-1-0.8-1.5-1C193,17.2,191,17.8,189.4,18.6z"/>
					</g>
					<g>
						<path class="st0" d="M187.6,24.7L187.6,24.7L187.6,24.7c0.4,0.2,0.8,0.5,1.2,0.6c0.2,0.1,0.4,0.1,0.5,0.2l0.1-6.9
							c-0.5-0.5-0.9-0.8-1.5-1c-1.2-0.4-3.3,0.1-4.8,0.9l0,0l0,0c-0.5-0.5-0.9-0.8-1.5-1c-1.2-0.4-3.3,0.1-4.8,0.9v0l-0.1,6.9
							c1.7,0.4,3.9-0.3,4.6-0.7l0,0c0.4,0.2,0.7,0.5,1.2,0.7C184.2,26,186.8,25.2,187.6,24.7z"/>
						<path class="st1" d="M176.8,18.5L176.8,18.5L176.8,18.5l0,1.3c0.6,0.6,1.2,1.3,1.6,2.1c0.8,1.5,1.8,2.4,3,2.8
							c-1.7-1.1-2.4-2.8-3-4c-0.1-0.1-0.2-0.3-0.2-0.4c0.5-1.1,2.8-1.7,3.7-1.3c1.3,0.5,2.3,1.7,3,3.1c0.8,1.5,1.8,2.4,3,2.8
							c-1.7-1.1-2.4-2.8-3.1-4c-0.1-0.1-0.2-0.3-0.2-0.4c0.5-1.1,2.8-1.7,3.7-1.3c0.5,0.2,1,0.5,1.4,0.9l0-1.3
							c-0.5-0.5-0.9-0.8-1.5-1c-1.2-0.4-3.3,0.1-4.8,0.9l0,0c-0.5-0.5-1-0.8-1.5-1C180.4,17.1,178.3,17.7,176.8,18.5z"/>
					</g>
					<g>
						<path class="st0" d="M174.9,24.6L174.9,24.6L174.9,24.6c0.4,0.2,0.8,0.5,1.2,0.6c0.2,0.1,0.4,0.1,0.5,0.2l0.1-6.9
							c-0.5-0.5-0.9-0.8-1.5-1c-1.2-0.4-3.3,0.1-4.9,0.9l0,0l0,0c-0.5-0.5-1-0.8-1.5-1c-1.2-0.4-3.3,0.1-4.9,1v0l0,6.9
							c1.7,0.4,3.9-0.3,4.6-0.8l0,0c0.4,0.2,0.7,0.5,1.2,0.7C171.5,25.9,174.1,25.1,174.9,24.6z"/>
						<path class="st1" d="M164,18.3L164,18.3L164,18.3l0,1.3c0.6,0.6,1.2,1.3,1.6,2.1c0.8,1.5,1.8,2.4,3,2.8
							c-1.7-1.1-2.4-2.8-3.1-4c-0.1-0.1-0.2-0.3-0.2-0.4c0.5-1.1,2.8-1.7,3.7-1.3c1.3,0.5,2.3,1.7,3,3c0.8,1.5,1.8,2.4,3,2.8
							c-1.7-1.1-2.4-2.8-3.1-4c-0.1-0.1-0.2-0.3-0.2-0.4c0.5-1.1,2.8-1.7,3.7-1.3c0.5,0.2,1,0.5,1.4,1l0-1.3c-0.5-0.5-0.9-0.8-1.5-1
							c-1.2-0.4-3.3,0.1-4.9,0.9l0,0c-0.5-0.5-1-0.8-1.5-1C167.6,17,165.5,17.5,164,18.3z"/>
					</g>
					<g>
						<path class="st0" d="M162.2,24.5L162.2,24.5L162.2,24.5c0.4,0.2,0.8,0.5,1.2,0.6c0.2,0.1,0.4,0.1,0.5,0.2l0-6.9
							c-0.5-0.5-1-0.8-1.5-1c-1.2-0.4-3.4,0.2-4.9,1l0,0l0,0c-0.5-0.5-1-0.8-1.5-1c-1.2-0.4-3.2,0.1-4.7,0.9v0l-0.2,6.9
							c1.7,0.4,4-0.3,4.7-0.7l0,0c0.4,0.2,0.8,0.5,1.2,0.7C158.9,25.8,161.4,25,162.2,24.5z"/>
						<path class="st1" d="M151.4,18.2L151.4,18.2L151.4,18.2l0,1.3c0.6,0.6,1.1,1.3,1.5,2.1c0.8,1.5,1.8,2.4,3,2.8
							c-1.7-1.2-2.4-2.8-3.1-4.1c-0.1-0.1-0.2-0.3-0.2-0.4c0.5-1.1,2.7-1.6,3.6-1.3c1.2,0.5,2.3,1.7,3,3c0.8,1.5,1.8,2.4,3,2.8
							c-1.7-1.1-2.4-2.8-3.1-4c-0.1-0.1-0.2-0.3-0.2-0.4c0.5-1.1,2.8-1.7,3.7-1.3c0.5,0.2,1,0.5,1.4,0.9l0-1.3c-0.5-0.5-1-0.8-1.5-1
							c-1.2-0.4-3.4,0.2-4.9,1l0,0c-0.5-0.5-1-0.8-1.5-1C155,16.9,152.9,17.4,151.4,18.2z"/>
					</g>
					<g>
						<path class="st0" d="M149.4,24.3L149.4,24.3L149.4,24.3c0.4,0.3,0.8,0.5,1.2,0.7c0.2,0.1,0.4,0.1,0.6,0.2l0.2-6.9
							c-0.4-0.5-0.9-0.8-1.4-1c-1.2-0.5-3.3,0-4.8,0.7l0,0l0,0c-0.4-0.5-0.9-0.9-1.4-1.1c-1.2-0.5-3.3-0.2-4.8,0.5l0,0l-0.7,6.9
							c1.7,0.5,4,0,4.7-0.3l0,0c0.3,0.3,0.7,0.5,1.2,0.7C145.9,25.4,148.6,24.7,149.4,24.3z"/>
						<path class="st1" d="M139,17.3L139,17.3L139,17.3l-0.1,1.3c0.6,0.6,1,1.4,1.4,2.2c0.7,1.6,1.6,2.6,2.8,3.1
							c-1.6-1.3-2.2-3-2.7-4.3c-0.1-0.2-0.1-0.3-0.2-0.5c0.6-1.1,2.9-1.4,3.7-1c1.2,0.6,2.1,1.8,2.8,3.2c0.7,1.5,1.7,2.5,2.9,3
							c-1.7-1.2-2.3-2.9-2.9-4.2c-0.1-0.2-0.1-0.3-0.2-0.4c0.6-1.1,2.8-1.5,3.7-1.1c0.5,0.2,1,0.6,1.4,1l0-1.3
							c-0.4-0.5-0.9-0.8-1.4-1c-1.2-0.5-3.3,0-4.8,0.7l0,0c-0.4-0.5-0.9-0.9-1.4-1.1C142.6,16.2,140.5,16.6,139,17.3z"/>
					</g>
					<g>
						<path class="st0" d="M136.5,23.2L136.5,23.2L136.5,23.2c0.3,0.3,0.7,0.5,1.2,0.8c0.2,0.1,0.4,0.1,0.5,0.2l0.7-6.9
							c-0.4-0.5-0.8-0.9-1.4-1.1c-1.2-0.6-3.3-0.3-4.8,0.4l0,0l0,0c-0.4-0.5-0.8-0.9-1.3-1.2c-1.2-0.6-3.3-0.3-4.9,0.3l0,0l-1.1,6.8
							c1.7,0.6,3.9,0.2,4.7-0.1l0,0c0.3,0.3,0.7,0.6,1.1,0.8C133,24.1,135.7,23.6,136.5,23.2z"/>
						<path class="st1" d="M126.5,15.6L126.5,15.6L126.5,15.6l-0.2,1.3c0.5,0.7,0.9,1.4,1.3,2.3c0.6,1.6,1.5,2.6,2.6,3.2
							c-1.5-1.4-2-3.1-2.5-4.4c-0.1-0.2-0.1-0.3-0.2-0.5c0.7-1,3-1.3,3.8-0.8c1.2,0.7,2,1.9,2.6,3.4c0.6,1.6,1.5,2.6,2.7,3.1
							c-1.6-1.3-2.1-3.1-2.6-4.4c-0.1-0.2-0.1-0.3-0.2-0.5c0.6-1.1,2.9-1.3,3.8-0.9c0.5,0.3,0.9,0.6,1.3,1.1l0.1-1.3
							c-0.4-0.5-0.8-0.9-1.4-1.1c-1.2-0.6-3.3-0.3-4.8,0.4l0,0c-0.4-0.5-0.8-0.9-1.4-1.2C130.3,14.8,128.1,15,126.5,15.6z"/>
					</g>
					<g>
						<path class="st0" d="M123.8,21.4L123.8,21.4L123.8,21.4c0.3,0.3,0.7,0.6,1.1,0.8c0.2,0.1,0.3,0.2,0.5,0.2l1.1-6.8
							c-0.4-0.5-0.8-0.9-1.3-1.2c-1.2-0.6-3.3-0.4-4.9,0.2l0,0l0,0c-0.4-0.5-0.8-1-1.3-1.2c-1.2-0.6-3.3-0.4-4.9,0.2v0l-1.1,6.8
							c1.6,0.6,3.9,0.3,4.7,0l0,0c0.3,0.3,0.7,0.6,1.1,0.8C120.3,22.2,122.9,21.8,123.8,21.4z"/>
						<path class="st1" d="M114,13.5L114,13.5L114,13.5l-0.2,1.3c0.5,0.7,0.9,1.5,1.2,2.3c0.5,1.6,1.4,2.7,2.5,3.2
							c-1.5-1.4-2-3.1-2.4-4.5c-0.1-0.2-0.1-0.3-0.2-0.5c0.7-1,3-1.2,3.8-0.7c1.2,0.7,2,2,2.5,3.5c0.5,1.6,1.4,2.7,2.5,3.2
							c-1.5-1.4-2-3.1-2.4-4.5c-0.1-0.2-0.1-0.3-0.2-0.5c0.7-1,3-1.2,3.8-0.7c0.5,0.3,0.9,0.7,1.3,1.1l0.2-1.3
							c-0.4-0.5-0.8-0.9-1.3-1.2c-1.2-0.6-3.3-0.4-4.9,0.2l0,0c-0.4-0.5-0.8-1-1.4-1.3C117.8,12.8,115.7,13,114,13.5z"/>
					</g>
					<g>
						<path class="st0" d="M111.3,19.3L111.3,19.3L111.3,19.3c0.3,0.3,0.7,0.6,1.1,0.8c0.2,0.1,0.3,0.2,0.5,0.2l1.1-6.8
							c-0.4-0.5-0.8-1-1.3-1.2c-1.2-0.6-3.3-0.4-5,0.2l0,0l0,0c-0.4-0.5-0.8-0.9-1.4-1.2c-1.2-0.6-3.4-0.3-5,0.3l0,0l-0.9,6.9
							c1.6,0.6,3.8,0.2,4.6-0.2l0,0c0.3,0.3,0.7,0.6,1.1,0.8C107.8,20.1,110.4,19.7,111.3,19.3z"/>
						<path class="st1" d="M101.4,11.6L101.4,11.6L101.4,11.6l-0.2,1.3c0.6,0.6,1,1.4,1.3,2.3c0.6,1.6,1.5,2.6,2.6,3.2
							c-1.5-1.3-2-3.1-2.5-4.4c-0.1-0.2-0.1-0.3-0.2-0.5c0.7-1.1,3-1.3,3.8-0.8c1.2,0.7,2,2,2.6,3.4c0.6,1.6,1.4,2.7,2.5,3.2
							c-1.5-1.4-2-3.1-2.4-4.5c-0.1-0.2-0.1-0.3-0.2-0.5c0.7-1,3-1.2,3.8-0.7c0.5,0.3,0.9,0.7,1.3,1.2l0.2-1.3
							c-0.4-0.5-0.8-1-1.3-1.2c-1.2-0.6-3.3-0.4-5,0.2l0,0c-0.4-0.5-0.9-1-1.4-1.2C105.2,10.7,103,11,101.4,11.6z"/>
					</g>
					<g>
						<path class="st0" d="M98.9,17.5L98.9,17.5L98.9,17.5c0.3,0.3,0.7,0.5,1.1,0.8c0.2,0.1,0.3,0.2,0.5,0.2l0.9-6.9
							c-0.4-0.5-0.9-0.9-1.4-1.2c-1.2-0.6-3.4-0.2-5,0.5l0,0l0,0c-0.4-0.5-0.9-0.9-1.5-1.1c-1.2-0.6-3.5,0-5,0.7v0l-0.2,6.9
							c1.6,0.5,3.7-0.2,4.5-0.6l0,0c0.3,0.3,0.7,0.5,1.1,0.7C95.5,18.5,98,17.9,98.9,17.5z"/>
						<path class="st1" d="M88.4,10.6L88.4,10.6L88.4,10.6l0,1.3c0.6,0.6,1.1,1.3,1.5,2.2c0.7,1.5,1.7,2.4,2.8,2.9
							c-1.6-1.3-2.2-2.9-2.8-4.2c-0.1-0.2-0.2-0.3-0.2-0.4c0.5-1.1,2.9-1.6,3.8-1.1c1.2,0.6,2.2,1.9,2.8,3.3
							c0.7,1.5,1.6,2.5,2.7,3.1c-1.5-1.3-2.1-3-2.6-4.3c-0.1-0.2-0.1-0.3-0.2-0.5c0.3-0.5,1-0.9,1.8-1.1c0.8-0.2,1.6-0.1,2,0.1
							c0.5,0.3,0.9,0.7,1.3,1.1l0.2-1.3c-0.4-0.5-0.9-0.9-1.4-1.2c-1.2-0.6-3.4-0.2-5,0.5l0,0c-0.4-0.5-0.9-0.9-1.5-1.2
							C92.2,9.3,90,9.8,88.4,10.6z"/>
					</g>
					<g>
						<path class="st0" d="M86.5,16.6L86.5,16.6L86.5,16.6c0.4,0.2,0.7,0.5,1.2,0.7c0.2,0.1,0.3,0.1,0.5,0.2l0.2-6.9
							c-0.5-0.5-1-0.9-1.5-1.1c-1.3-0.4-3.5,0.2-5,1l0,0l0,0c-0.5-0.4-1-0.8-1.6-1c-1.3-0.3-3.5,0.4-4.9,1.3l0,0l0.6,6.9
							c1.7,0.3,3.7-0.6,4.4-1.1l0,0c0.4,0.2,0.7,0.4,1.2,0.6C83.3,18,85.7,17.1,86.5,16.6z"/>
						<path class="st1" d="M75.4,10.9L75.4,10.9L75.4,10.9l0.1,1.3c0.7,0.5,1.3,1.2,1.8,2c0.9,1.4,2,2.3,3.1,2.6
							c-1.7-1-2.5-2.6-3.3-3.8c-0.1-0.1-0.2-0.3-0.3-0.4c0.4-1.2,2.7-1.9,3.6-1.6c1.3,0.5,2.4,1.6,3.1,3c0.8,1.5,1.8,2.4,2.9,2.7
							c-1.6-1.1-2.4-2.8-3-4c-0.1-0.1-0.2-0.3-0.2-0.4c0.5-1.1,2.8-1.8,3.7-1.4c0.5,0.2,1,0.6,1.4,1l0-1.3c-0.5-0.5-1-0.9-1.5-1.1
							c-1.3-0.4-3.5,0.2-5,1l0,0c-0.5-0.5-1-0.8-1.6-1C79,9.2,76.9,10,75.4,10.9z"/>
					</g>
					<g>
						<path class="st0" d="M74.2,17.2L74.2,17.2L74.2,17.2c0.4,0.2,0.8,0.3,1.2,0.5c0.2,0.1,0.4,0.1,0.5,0.1l-0.6-6.9
							c-0.5-0.4-1.1-0.7-1.7-0.8c-1.3-0.2-3.4,0.6-4.8,1.6l0,0l0,0c-0.5-0.4-1.1-0.6-1.7-0.7c-1.3-0.2-3.4,0.8-4.7,1.9l0,0l1.5,6.8
							c1.7,0.1,3.6-1,4.2-1.6l0,0c0.4,0.2,0.8,0.3,1.2,0.4C71.2,18.9,73.5,17.8,74.2,17.2z"/>
						<path class="st1" d="M62.5,12.9L62.5,12.9L62.5,12.9l0.3,1.2c0.7,0.4,1.4,1,2,1.7c1.1,1.3,2.2,2,3.4,2.2
							c-1.8-0.8-2.9-2.3-3.8-3.3l-0.3-0.4c0.3-1.2,2.4-2.2,3.4-2c1.3,0.2,2.6,1.3,3.5,2.5c1,1.4,2.1,2.1,3.3,2.4
							c-1.7-0.9-2.7-2.4-3.5-3.6c-0.1-0.1-0.2-0.3-0.3-0.4c0.3-1.2,2.6-2.1,3.5-1.8c0.6,0.1,1.1,0.4,1.6,0.8l-0.1-1.3
							c-0.5-0.4-1.1-0.7-1.7-0.8c-1.3-0.2-3.4,0.6-4.8,1.6l0,0c-0.6-0.4-1.1-0.7-1.7-0.7C65.8,10.8,63.8,11.8,62.5,12.9z"/>
					</g>
					<g>
						<path class="st0" d="M62.2,19.3L62.2,19.3L62.2,19.3c0.4,0.1,0.8,0.3,1.3,0.3c0.2,0,0.4,0,0.5,0l-1.5-6.8
							c-0.6-0.4-1.2-0.6-1.8-0.6c-1.4-0.1-3.4,1.1-4.6,2.3l0,0l0,0c-0.6-0.3-1.2-0.5-1.8-0.4c-1.4,0-3.3,1.4-4.4,2.8l0,0l2.7,6.4
							c1.6-0.3,3.2-1.7,3.8-2.3l0,0c0.4,0.1,0.8,0.2,1.3,0.3C59.4,21.4,61.5,19.9,62.2,19.3z"/>
						<path class="st1" d="M49.9,16.9L49.9,16.9L49.9,16.9l0.5,1.2c0.8,0.3,1.6,0.7,2.3,1.3c1.3,1.1,2.6,1.6,3.7,1.6
							c-1.9-0.5-3.2-1.8-4.3-2.7c-0.1-0.1-0.3-0.2-0.4-0.3c0-1.3,2-2.6,3-2.6c1.4,0.1,2.8,0.8,3.9,1.9c1.2,1.2,2.4,1.8,3.5,1.9
							c-1.8-0.7-3-2.1-4-3.1l-0.4-0.3c0.1-1.2,2.3-2.4,3.3-2.3c0.6,0.1,1.1,0.3,1.7,0.6l-0.3-1.2c-0.6-0.4-1.2-0.6-1.8-0.6
							c-1.4-0.1-3.4,1.1-4.6,2.3l0,0c-0.6-0.3-1.2-0.5-1.9-0.5C52.9,14.2,51,15.6,49.9,16.9z"/>
					</g>
					<g>
						<path class="st0" d="M50.8,23.3L50.8,23.3L50.8,23.3c0.4,0.1,0.8,0.1,1.3,0.1c0.2,0,0.4,0,0.5-0.1l-2.7-6.4
							c-0.6-0.2-1.2-0.3-1.9-0.3c-1.4,0.2-3.1,1.7-4.1,3.2l0,0l0,0c-0.6-0.2-1.3-0.2-1.9-0.1c-1.4,0.3-3,2-3.8,3.6l0,0l4,5.7
							c1.5-0.6,2.8-2.3,3.2-3l0,0c0.4,0,0.8,0,1.3,0C48.5,25.8,50.3,24,50.8,23.3z"/>
						<path class="st1" d="M38.3,23.4L38.3,23.4L38.3,23.4l0.7,1c0.9,0.1,1.7,0.4,2.5,0.8c1.5,0.8,2.8,1,3.9,0.8
							c-1.9-0.1-3.5-1.1-4.7-1.8c-0.2-0.1-0.3-0.1-0.4-0.2c-0.2-1.2,1.5-3,2.5-3.1c1.4-0.2,2.9,0.3,4.2,1.1c1.4,0.9,2.7,1.3,3.8,1.2
							c-1.9-0.4-3.3-1.5-4.5-2.2c-0.1-0.1-0.3-0.2-0.4-0.3c0-0.6,0.4-1.3,1-1.9c0.6-0.6,1.3-0.9,1.8-1c0.6,0,1.2,0,1.7,0.2l-0.5-1.2
							c-0.6-0.2-1.2-0.3-1.9-0.3c-1.4,0.2-3.1,1.7-4.1,3.2l0,0c-0.7-0.2-1.3-0.2-1.9-0.1C40.7,20.1,39.1,21.8,38.3,23.4z"/>
					</g>
					<g>
						<path class="st0" d="M40.5,29.4L40.5,29.4L40.5,29.4c0.4,0,0.8-0.1,1.3-0.2c0.2,0,0.3-0.1,0.5-0.2l-4-5.7
							c-0.7-0.1-1.3-0.1-1.9,0.1c-1.3,0.5-2.7,2.3-3.4,4l0,0l0,0c-0.7,0-1.3,0.1-1.9,0.4c-0.6,0.3-1.2,1-1.8,1.8
							c-0.5,0.8-0.9,1.8-1.1,2.6l0,0l5.2,4.6c0.7-0.5,1.2-1.2,1.6-1.9c0.4-0.7,0.7-1.4,0.8-1.8l0,0c0.4-0.1,0.8-0.1,1.3-0.3
							C38.8,32.4,40.1,30.3,40.5,29.4z"/>
						<path class="st1" d="M28.3,32.3L28.3,32.3L28.3,32.3l1,0.8c0.9-0.1,1.7,0,2.6,0.2c1.6,0.4,3,0.4,4-0.1c-1.9,0.3-3.6-0.3-5-0.7
							c-0.2,0-0.3-0.1-0.5-0.1c-0.5-1.1,0.7-3.3,1.7-3.6c0.7-0.3,1.4-0.4,2.1-0.3c0.7,0.1,1.5,0.2,2.2,0.5c0.8,0.3,1.5,0.5,2.2,0.5
							c0.7,0.1,1.3,0,1.8-0.2c-1.9,0.1-3.6-0.7-4.9-1.2c-0.2-0.1-0.3-0.1-0.5-0.2c-0.2-0.6,0.1-1.4,0.5-2.1c0.5-0.7,1.1-1.2,1.6-1.3
							c0.6-0.2,1.2-0.2,1.8-0.1l-0.7-1c-0.7-0.1-1.3-0.1-1.9,0.1c-1.3,0.5-2.7,2.3-3.4,4l0,0c-0.7,0-1.3,0.1-1.9,0.4
							c-0.6,0.3-1.2,1-1.8,1.8C28.9,30.5,28.5,31.5,28.3,32.3z"/>
					</g>
					<g>
						<path class="st0" d="M31.9,37.6L31.9,37.6L31.9,37.6c0.4-0.1,0.8-0.3,1.2-0.5c0.2-0.1,0.3-0.2,0.5-0.3l-5.2-4.6
							c-0.7,0.1-1.3,0.2-1.8,0.6c-0.6,0.4-1.1,1.1-1.5,2c-0.4,0.9-0.7,1.9-0.8,2.8l0,0l0,0c-0.7,0.1-1.2,0.4-1.7,0.8
							c-0.5,0.5-1,1.3-1.3,2.2c-0.3,0.9-0.4,1.9-0.4,2.8l0,0l6.2,3.1c1-1.2,1.3-3.3,1.4-4.1l0,0c0.4-0.2,0.8-0.3,1.1-0.6
							c0.7-0.5,1.3-1.3,1.6-2.1C31.6,38.9,31.8,38.1,31.9,37.6z"/>
						<path class="st1" d="M20.8,43.5L20.8,43.5L20.8,43.5l1.1,0.6c0.8-0.3,1.7-0.5,2.6-0.5c1.7,0,2.9-0.4,3.8-1.1
							c-1.8,0.7-3.6,0.6-5,0.6c-0.2,0-0.3,0-0.5,0c-0.8-1-0.1-3.4,0.7-4c1.1-0.9,2.7-1.1,4.2-0.9c1.6,0.2,3,0,3.9-0.6
							c-1.8,0.5-3.6,0.1-5,0c-0.2,0-0.3,0-0.5-0.1c-0.3-0.5-0.3-1.4,0-2.1c0.3-0.8,0.8-1.4,1.2-1.7c0.5-0.3,1.1-0.5,1.7-0.5l-1-0.8
							c-0.7,0.1-1.3,0.2-1.8,0.6c-0.6,0.4-1.1,1.1-1.5,2c-0.4,0.9-0.7,1.9-0.8,2.8l0,0c-0.7,0.1-1.3,0.4-1.8,0.8
							c-0.5,0.5-1,1.3-1.3,2.2C21,41.6,20.8,42.6,20.8,43.5z"/>
					</g>
					<g>
						<path class="st0" d="M25.6,47.7L25.6,47.7L25.6,47.7c0.4-0.2,0.7-0.4,1.1-0.7c0.1-0.1,0.2-0.3,0.4-0.4l-6.2-3
							c-0.6,0.2-1.2,0.6-1.6,1c-0.9,1.1-1.3,3.4-1,5.2l0,0l0,0c-0.6,0.3-1.1,0.7-1.5,1.2c-0.4,0.6-0.6,1.5-0.6,2.4
							c0,1,0.1,2,0.4,2.8l0,0l6.8,1.3c0.4-0.7,0.4-1.6,0.4-2.4c0-0.8-0.1-1.5-0.2-1.9l0,0c0.3-0.3,0.6-0.5,0.9-0.9
							c0.6-0.7,0.8-1.6,1-2.5C25.7,49,25.7,48.1,25.6,47.7z"/>
						<path class="st1" d="M16.6,56.2L16.6,56.2L16.6,56.2l1.3,0.2c0.7-0.5,1.5-0.9,2.4-1.1c1.6-0.5,2.8-1.2,3.4-2.1
							c-1.5,1.2-3.3,1.5-4.6,1.9c-0.2,0-0.3,0.1-0.5,0.1c-1-0.7-1-3.2-0.4-4c0.9-1.1,2.3-1.8,3.8-2c1.7-0.2,2.9-0.8,3.7-1.6
							c-1.6,1-3.5,1.1-4.8,1.3c-0.2,0-0.3,0.1-0.5,0.1c-0.9-0.9-0.5-3.3,0.2-4c0.4-0.4,0.9-0.7,1.5-1l-1.1-0.6
							c-0.6,0.2-1.2,0.6-1.6,1c-0.9,1.1-1.3,3.4-1,5.2l0,0c-0.6,0.3-1.2,0.7-1.5,1.3c-0.4,0.6-0.6,1.5-0.6,2.4
							C16.2,54.4,16.3,55.4,16.6,56.2z"/>
					</g>
					<g>
						<path class="st0" d="M22.3,59L22.3,59L22.3,59c0.3-0.3,0.6-0.6,0.8-1c0.1-0.1,0.2-0.3,0.3-0.5l-6.8-1.3
							c-0.6,0.4-1,0.9-1.3,1.4c-0.3,0.6-0.4,1.5-0.3,2.5c0.1,0.9,0.4,1.9,0.7,2.8l0,0l0,0c-0.5,0.4-0.9,1-1.1,1.5
							c-0.2,0.7-0.3,1.6,0,2.5c0.2,0.9,0.6,1.9,1,2.6h0l6.9-0.3c0.2-0.8,0.1-1.7-0.1-2.5c-0.2-0.8-0.4-1.5-0.6-1.8l0,0
							c0.3-0.3,0.5-0.7,0.7-1.1c0.4-0.8,0.5-1.8,0.4-2.7C22.7,60.3,22.5,59.5,22.3,59z"/>
						<path class="st1" d="M15.6,69.6L15.6,69.6L15.6,69.6l1.3,0c0.6-0.7,1.3-1.2,2.1-1.7c0.7-0.4,1.3-0.9,1.8-1.3
							c0.5-0.5,0.8-1,1-1.5c-1.2,1.5-2.8,2.3-4,3c-0.1,0.1-0.3,0.2-0.4,0.3c-0.6-0.2-1-1-1.3-1.7c-0.2-0.8-0.2-1.6,0-2.1
							c0.5-1.3,1.8-2.3,3.2-2.9c0.8-0.3,1.4-0.7,1.9-1.1c0.5-0.4,0.9-0.9,1.2-1.4c-1.4,1.4-3.1,2-4.4,2.5c-0.2,0.1-0.3,0.1-0.5,0.2
							c-0.5-0.3-0.9-1.1-1.1-1.9c-0.1-0.8,0-1.6,0.2-2.1c0.3-0.5,0.7-0.9,1.2-1.3l-1.3-0.2c-0.6,0.4-1,0.9-1.3,1.4
							c-0.3,0.6-0.4,1.5-0.3,2.5c0.1,0.9,0.4,1.9,0.7,2.8l0,0c-0.5,0.5-0.9,1-1.1,1.6c-0.2,0.7-0.3,1.6,0,2.5
							C14.8,67.8,15.2,68.8,15.6,69.6z"/>
					</g>
					<g>
						<path class="st0" d="M21.8,71L21.8,71L21.8,71c0.2-0.4,0.4-0.7,0.6-1.2c0.1-0.2,0.1-0.3,0.1-0.5l-6.9,0.3
							c-0.5,0.5-0.7,1-0.9,1.6c-0.2,0.7-0.1,1.6,0.2,2.5c0.3,0.9,0.8,1.8,1.3,2.5l0,0l0,0c-0.4,0.5-0.7,1.1-0.8,1.7
							c-0.1,0.7,0.1,1.5,0.4,2.4c0.3,0.9,0.9,1.7,1.5,2.4l0,0l6.8-1.5c0-1.7-1-3.5-1.6-4.1l0,0c0.2-0.4,0.3-0.8,0.5-1.2
							c0.3-0.9,0.1-1.9-0.2-2.8C22.4,72.1,22.1,71.4,21.8,71z"/>
						<path class="st1" d="M17.3,82.7L17.3,82.7L17.3,82.7l1.2-0.3c0.4-0.7,1-1.4,1.7-2c1.3-1.1,2-2.2,2.2-3.4
							c-0.8,1.8-2.4,2.8-3.4,3.7L18.7,81c-1.2-0.3-2.2-2.5-2-3.4c0.3-1.4,1.3-2.6,2.6-3.5c1.4-1,2.2-2,2.5-3.1
							c-1,1.7-2.6,2.6-3.7,3.4c-0.1,0.1-0.3,0.2-0.4,0.3c-0.6-0.2-1.1-0.8-1.4-1.6c-0.3-0.7-0.4-1.6-0.3-2c0.2-0.6,0.5-1.1,0.8-1.5
							l-1.3,0c-0.5,0.5-0.7,1-0.9,1.6c-0.2,0.7-0.1,1.6,0.2,2.5c0.3,0.9,0.8,1.8,1.3,2.5l0,0c-0.4,0.5-0.7,1.1-0.8,1.8
							c-0.1,0.7,0.1,1.5,0.4,2.4C16.2,81.1,16.8,82,17.3,82.7z"/>
					</g>
					<g>
						<path class="st0" d="M23.7,83L23.7,83L23.7,83c0.1-0.4,0.3-0.8,0.4-1.3c0-0.2,0-0.4,0-0.5l-6.8,1.5c-0.3,0.6-0.6,1.2-0.6,1.8
							c-0.1,1.3,0.9,3.2,2.1,4.4l0,0l0,0c-0.4,0.5-0.6,1.1-0.7,1.7C18,91.8,19,93.7,20.1,95l0,0l6.8-1.3c0-1.8-1.1-3.8-1.7-4.4l0,0
							c0.2-0.4,0.3-0.8,0.4-1.3C25.8,86,24.3,83.7,23.7,83z"/>
						<path class="st1" d="M20.1,95L20.1,95L20.1,95l1.3-0.2c0.4-0.7,1-1.4,1.7-2c1.3-1.1,2-2.3,2.1-3.5c-0.7,1.9-2.2,3-3.3,3.9
							l-0.4,0.3c-1.2-0.3-2.2-2.3-2.1-3.3c0.2-1.3,1.1-2.6,2.3-3.6c1.3-1.1,1.9-2.4,2-3.6c-0.7,1.9-2.1,3-3.2,4l-0.4,0.3
							C18.9,87,17.8,85,18,84c0.1-0.6,0.3-1.1,0.6-1.7l-1.2,0.3c-0.3,0.6-0.6,1.2-0.6,1.8c-0.1,1.3,0.9,3.2,2.1,4.4l0,0
							c-0.4,0.6-0.6,1.1-0.7,1.7C18,91.8,19,93.7,20.1,95z"/>
					</g>
					<g>
						<path class="st0" d="M26.4,95.6L26.4,95.6L26.4,95.6c0.2-0.4,0.3-0.9,0.4-1.3c0-0.2,0-0.4,0-0.6L20.1,95
							c-0.4,0.5-0.6,1.1-0.7,1.6c-0.2,1.3,0.7,3.2,1.8,4.5l0,0l0,0c-0.4,0.5-0.7,1-0.8,1.6c-0.3,1.3,0.6,3.2,1.5,4.6l0,0l6.9-0.7
							c0.2-1.8-0.8-3.9-1.3-4.6l0,0c0.2-0.4,0.4-0.8,0.5-1.3C28.3,98.7,27.1,96.3,26.4,95.6z"/>
						<path class="st1" d="M21.9,107.3L21.9,107.3L21.9,107.3l1.3-0.1c0.5-0.7,1.2-1.3,1.9-1.8c1.4-1,2.1-2.1,2.4-3.4
							c-0.9,1.9-2.4,2.8-3.6,3.6c-0.1,0.1-0.3,0.2-0.4,0.3c-1.2-0.4-2-2.5-1.8-3.4c0.3-1.3,1.3-2.5,2.5-3.4c1.3-1,2-2.2,2.2-3.5
							c-0.8,1.9-2.3,2.9-3.4,3.8l-0.4,0.3c-1.2-0.3-2.1-2.4-2-3.3c0.1-0.5,0.3-1.1,0.7-1.6L20.1,95c-0.4,0.5-0.6,1.1-0.7,1.6
							c-0.2,1.3,0.7,3.2,1.8,4.5l0,0c-0.4,0.5-0.7,1.1-0.8,1.6C20.1,104,21,105.9,21.9,107.3z"/>
					</g>
					<g>
						<path class="st0" d="M28.2,108.4L28.2,108.4L28.2,108.4c0.2-0.4,0.4-0.8,0.5-1.3c0.1-0.2,0.1-0.4,0.1-0.6l-6.9,0.7
							c-0.4,0.5-0.7,1-0.8,1.6c-0.3,1.2,0.4,3.2,1.4,4.6l0,0l0,0c-0.4,0.5-0.8,1-0.9,1.5c-0.3,1.2,0.3,3.3,1.2,4.7h0l6.9-0.3
							c0.3-1.8-0.5-3.9-1-4.6l0,0c0.2-0.4,0.4-0.8,0.6-1.3C29.8,111.8,28.8,109.2,28.2,108.4z"/>
						<path class="st1" d="M22.8,119.7L22.8,119.7L22.8,119.7l1.3,0c0.5-0.6,1.2-1.2,2-1.7c1.4-0.9,2.3-2,2.6-3.2
							c-1,1.8-2.7,2.6-3.9,3.3c-0.1,0.1-0.3,0.2-0.4,0.3c-1.1-0.5-1.8-2.6-1.5-3.5c0.4-1.3,1.5-2.4,2.8-3.2c1.4-0.9,2.2-2,2.5-3.2
							c-1,1.8-2.6,2.7-3.7,3.4c-0.1,0.1-0.3,0.2-0.4,0.3c-1.2-0.4-1.9-2.6-1.6-3.5c0.2-0.5,0.4-1,0.8-1.5l-1.3,0.1
							c-0.4,0.5-0.7,1-0.8,1.6c-0.3,1.2,0.4,3.2,1.4,4.6l0,0c-0.4,0.5-0.8,1-0.9,1.6C21.2,116.3,21.9,118.3,22.8,119.7z"/>
					</g>
					<g>
						<path class="st0" d="M28.9,121.3L28.9,121.3L28.9,121.3c0.2-0.4,0.4-0.8,0.6-1.2c0.1-0.2,0.1-0.4,0.1-0.6l-6.9,0.3
							c-0.4,0.5-0.8,1-0.9,1.5c-0.4,1.2,0.3,3.3,1.1,4.8l0,0l0,0c-0.5,0.5-0.8,1-1,1.5c-0.4,1.2,0.2,3.3,1,4.8h0l6.9-0.1
							c0.4-1.7-0.4-3.9-0.8-4.6l0,0c0.2-0.4,0.4-0.8,0.6-1.2C30.4,124.7,29.5,122.1,28.9,121.3z"/>
						<path class="st1" d="M23,132.4L23,132.4L23,132.4l1.3,0c0.6-0.6,1.3-1.2,2.1-1.6c1.5-0.8,2.4-1.9,2.7-3
							c-1.1,1.7-2.7,2.5-4,3.2c-0.1,0.1-0.3,0.2-0.4,0.2c-1.1-0.5-1.7-2.7-1.4-3.6c0.5-1.3,1.6-2.3,3-3.1c1.5-0.8,2.3-1.9,2.7-3.1
							c-1.1,1.7-2.7,2.5-3.9,3.2c-0.1,0.1-0.3,0.2-0.4,0.2c-1.1-0.5-1.8-2.7-1.5-3.6c0.2-0.5,0.5-1,0.9-1.5l-1.3,0
							c-0.4,0.5-0.8,1-0.9,1.5c-0.4,1.2,0.3,3.3,1.1,4.8l0,0c-0.5,0.5-0.8,1-1,1.6C21.6,128.8,22.2,130.9,23,132.4z"/>
					</g>
					<g>
						<path class="st0" d="M29.2,134.1L29.2,134.1L29.2,134.1c0.2-0.4,0.4-0.8,0.6-1.2c0.1-0.2,0.1-0.4,0.1-0.6l-6.9,0.1
							c-0.5,0.5-0.8,1-1,1.5c-0.4,1.2,0.2,3.3,1,4.8l0,0l0,0c-0.5,0.5-0.8,1-1,1.5c-0.4,1.2,0.2,3.3,1,4.8h0l6.9,0
							c0.4-1.7-0.4-3.9-0.8-4.6l0,0c0.2-0.4,0.5-0.7,0.6-1.2C30.5,137.4,29.6,134.9,29.2,134.1z"/>
						<path class="st1" d="M23,145L23,145L23,145l1.3,0c0.6-0.6,1.3-1.2,2.1-1.6c1.5-0.8,2.4-1.9,2.8-3c-1.1,1.7-2.8,2.5-4,3.1
							c-0.1,0.1-0.3,0.2-0.4,0.2c-1.1-0.5-1.7-2.7-1.4-3.6c0.5-1.3,1.6-2.3,3-3c1.5-0.8,2.4-1.9,2.8-3c-1.1,1.7-2.8,2.5-4,3.1
							c-0.1,0.1-0.3,0.2-0.4,0.2c-1.1-0.5-1.7-2.7-1.4-3.6c0.2-0.5,0.5-1,0.9-1.5l-1.3,0c-0.5,0.5-0.8,1-1,1.5
							c-0.4,1.2,0.2,3.3,1,4.8l0,0c-0.5,0.5-0.8,1-1,1.5C21.6,141.4,22.2,143.5,23,145z"/>
					</g>
					<g>
						<path class="st0" d="M29.2,146.8L29.2,146.8L29.2,146.8c0.2-0.4,0.5-0.8,0.6-1.2c0.1-0.2,0.1-0.4,0.2-0.5l-6.9,0
							c-0.5,0.5-0.8,1-1,1.5c-0.4,1.2,0.2,3.3,1,4.8l0,0l0,0c-0.5,0.5-0.8,1-1,1.5c-0.4,1.2,0.1,3.3,0.9,4.8l0,0l6.9,0.2
							c0.4-1.7-0.3-3.9-0.7-4.7l0,0c0.2-0.4,0.5-0.8,0.7-1.2C30.5,150.2,29.7,147.6,29.2,146.8z"/>
						<path class="st1" d="M22.9,157.6L22.9,157.6L22.9,157.6l1.3,0c0.6-0.6,1.3-1.1,2.1-1.5c1.5-0.8,2.4-1.8,2.8-3
							c-1.1,1.7-2.8,2.4-4.1,3.1c-0.1,0.1-0.3,0.2-0.4,0.2c-1.1-0.5-1.7-2.7-1.3-3.6c0.5-1.2,1.7-2.3,3-3c1.5-0.8,2.4-1.8,2.8-3
							c-1.1,1.7-2.8,2.5-4,3.1c-0.1,0.1-0.3,0.2-0.4,0.2c-1.1-0.5-1.7-2.8-1.4-3.6c0.2-0.5,0.5-1,0.9-1.4l-1.3,0
							c-0.5,0.5-0.8,1-1,1.5c-0.4,1.2,0.2,3.3,1,4.8l0,0c-0.5,0.5-0.8,1-1,1.5C21.6,154.1,22.1,156.1,22.9,157.6z"/>
					</g>
					<g>
						<path class="st0" d="M29.1,159.6L29.1,159.6L29.1,159.6c0.2-0.4,0.5-0.8,0.7-1.2c0.1-0.2,0.1-0.4,0.2-0.6l-6.9-0.2
							c-0.5,0.4-0.8,0.9-1,1.5c-0.5,1.2,0,3.3,0.7,4.8l0,0l0,0c-0.5,0.4-0.9,0.9-1.1,1.4c-0.5,1.2-0.1,3.3,0.6,4.8l0,0l6.9,0.6
							c0.5-1.7,0-4-0.4-4.7l0,0c0.3-0.3,0.5-0.7,0.7-1.2C30.2,163.1,29.5,160.4,29.1,159.6z"/>
						<path class="st1" d="M22.2,170.1L22.2,170.1L22.2,170.1l1.3,0.1c0.6-0.6,1.4-1,2.2-1.4c1.5-0.7,2.6-1.7,3-2.8
							c-1.2,1.6-3,2.3-4.2,2.8c-0.2,0.1-0.3,0.1-0.5,0.2c-1.1-0.6-1.4-2.8-1.1-3.7c0.6-1.2,1.8-2.2,3.2-2.8c1.5-0.7,2.5-1.7,2.9-2.9
							c-1.2,1.7-2.9,2.4-4.2,2.9c-0.2,0.1-0.3,0.1-0.4,0.2c-1.1-0.6-1.5-2.8-1.2-3.7c0.2-0.5,0.5-1,1-1.4l-1.3,0
							c-0.5,0.4-0.8,0.9-1,1.5c-0.5,1.2,0,3.3,0.7,4.8l0,0c-0.5,0.4-0.9,0.9-1.1,1.5C21.1,166.5,21.5,168.6,22.2,170.1z"/>
					</g>
					<g>
						<path class="st0" d="M28.2,172.5L28.2,172.5L28.2,172.5c0.3-0.4,0.5-0.7,0.7-1.2c0.1-0.2,0.1-0.4,0.2-0.5l-6.9-0.6
							c-0.5,0.4-0.9,0.9-1.1,1.4c-0.5,1.2-0.2,3.3,0.4,4.8l0,0l0,0c-0.5,0.4-0.9,0.8-1.2,1.3c-0.6,1.2-0.3,3.3,0.3,4.9h0l6.8,1.1
							c0.6-1.7,0.2-3.9-0.1-4.7l0,0c0.3-0.3,0.6-0.7,0.8-1.1C29.1,176,28.6,173.4,28.2,172.5z"/>
						<path class="st1" d="M20.6,182.5L20.6,182.5L20.6,182.5l1.3,0.2c0.7-0.5,1.4-0.9,2.3-1.3c1.6-0.6,2.6-1.5,3.2-2.6
							c-1.4,1.5-3.1,2.1-4.4,2.5c-0.2,0.1-0.3,0.1-0.5,0.2c-1-0.7-1.3-2.9-0.8-3.8c0.6-1.2,1.9-2,3.4-2.6c1.6-0.6,2.6-1.6,3.1-2.7
							c-1.3,1.6-3,2.2-4.3,2.6c-0.2,0.1-0.3,0.1-0.5,0.2c-1.1-0.6-1.3-2.9-0.9-3.7c0.3-0.5,0.6-0.9,1.1-1.3l-1.3-0.1
							c-0.5,0.4-0.9,0.9-1.1,1.4c-0.5,1.2-0.2,3.3,0.4,4.8l0,0c-0.5,0.4-0.9,0.8-1.2,1.4C19.8,178.8,20,180.9,20.6,182.5z"/>
					</g>
					<g>
						<path class="st0" d="M26.4,185.3L26.4,185.3L26.4,185.3c0.3-0.3,0.6-0.7,0.8-1.1c0.1-0.2,0.2-0.3,0.2-0.5l-6.8-1.1
							c-0.5,0.4-0.9,0.8-1.2,1.3c-0.6,1.1-0.4,3.3,0.2,4.9l0,0l0,0c-0.5,0.4-1,0.8-1.3,1.3c-0.6,1.1-0.4,3.3,0.1,4.9l0,0l6.8,1.2
							c0.7-1.6,0.3-3.9,0-4.7l0,0c0.3-0.3,0.6-0.7,0.8-1.1C27.2,188.8,26.8,186.1,26.4,185.3z"/>
						<path class="st1" d="M18.5,195L18.5,195L18.5,195l1.3,0.2c0.7-0.5,1.5-0.9,2.3-1.2c1.6-0.5,2.7-1.4,3.3-2.5
							c-1.4,1.5-3.2,1.9-4.5,2.3c-0.2,0.1-0.3,0.1-0.5,0.2c-1-0.7-1.2-3-0.7-3.8c0.7-1.1,2-2,3.5-2.5c1.6-0.5,2.7-1.4,3.2-2.5
							c-1.4,1.5-3.2,2-4.5,2.4c-0.2,0.1-0.3,0.1-0.5,0.2c-1-0.7-1.2-3-0.7-3.8c0.3-0.5,0.7-0.9,1.1-1.3l-1.3-0.2
							c-0.5,0.4-0.9,0.8-1.2,1.3c-0.6,1.1-0.4,3.3,0.2,4.9l0,0c-0.5,0.4-1,0.8-1.3,1.3C17.7,191.2,17.9,193.4,18.5,195z"/>
					</g>
					<g>
						<path class="st0" d="M24.2,197.8L24.2,197.8L24.2,197.8c0.3-0.3,0.6-0.7,0.8-1.1c0.1-0.2,0.2-0.3,0.2-0.5l-6.8-1.2
							c-0.5,0.4-1,0.8-1.2,1.3c-0.6,1.1-0.4,3.4,0.2,5l0,0l0,0c-0.5,0.4-1,0.8-1.2,1.4c-0.6,1.2-0.3,3.4,0.3,5h0l6.9,0.8
							c0.6-1.6,0.2-3.8-0.2-4.5l0,0c0.3-0.3,0.6-0.7,0.8-1.1C25,201.3,24.5,198.7,24.2,197.8z"/>
						<path class="st1" d="M16.5,207.7L16.5,207.7L16.5,207.7l1.3,0.2c0.6-0.6,1.4-1,2.3-1.3c1.6-0.6,2.6-1.5,3.2-2.5
							c-1.3,1.5-3.1,2-4.4,2.5c-0.2,0.1-0.3,0.1-0.5,0.2c-1-0.6-1.3-3-0.8-3.8c0.7-1.2,2-2,3.5-2.5c1.6-0.5,2.7-1.4,3.2-2.5
							c-1.4,1.5-3.1,1.9-4.5,2.4c-0.2,0.1-0.3,0.1-0.5,0.2c-1-0.7-1.2-3-0.7-3.8c0.3-0.5,0.7-0.9,1.2-1.3l-1.3-0.2
							c-0.5,0.4-1,0.8-1.2,1.3c-0.6,1.1-0.4,3.4,0.2,5l0,0c-0.5,0.4-1,0.8-1.3,1.4C15.6,203.9,15.8,206.1,16.5,207.7z"/>
					</g>
					<g>
						<path class="st0" d="M22.4,210.1L22.4,210.1L22.4,210.1c0.3-0.3,0.5-0.7,0.8-1.1c0.1-0.2,0.1-0.3,0.2-0.5l-6.9-0.8
							c-0.5,0.4-0.9,0.9-1.1,1.4c-0.3,0.6-0.3,1.5-0.2,2.4c0.1,0.9,0.4,1.9,0.8,2.7l0,0l0,0c-0.5,0.4-0.9,0.9-1.1,1.5
							c-0.5,1.3,0.1,3.5,0.9,5h0l6.9,0c0.4-1.6-0.4-3.7-0.7-4.4l0,0c0.3-0.3,0.5-0.7,0.7-1.1c0.4-0.8,0.4-1.9,0.3-2.8
							C22.9,211.4,22.6,210.6,22.4,210.1z"/>
						<path class="st1" d="M15.7,220.7L15.7,220.7L15.7,220.7l1.3,0c0.6-0.6,1.3-1.2,2.1-1.6c1.5-0.8,2.4-1.8,2.8-2.9
							c-1.2,1.6-2.8,2.3-4.1,2.9c-0.1,0.1-0.3,0.2-0.4,0.2c-1.1-0.5-1.7-2.9-1.3-3.8c0.6-1.3,1.8-2.3,3.2-2.9c1.5-0.7,2.6-1.6,3-2.7
							c-1.3,1.5-3,2.1-4.3,2.7c-0.2,0.1-0.3,0.1-0.4,0.2c-1.1-0.6-1.5-2.9-1-3.8c0.3-0.5,0.6-1,1.1-1.4l-1.3-0.2
							c-0.5,0.4-0.9,0.9-1.1,1.4c-0.3,0.6-0.3,1.5-0.2,2.4c0.1,0.9,0.4,1.9,0.8,2.7l0,0c-0.5,0.4-0.9,1-1.1,1.5
							C14.3,217,14.9,219.2,15.7,220.7z"/>
					</g>
					<g>
						<path class="st0" d="M21.9,222.4L21.9,222.4L21.9,222.4c0.2-0.4,0.5-0.7,0.6-1.2c0.1-0.2,0.1-0.3,0.2-0.5l-6.9,0
							c-0.5,0.5-0.8,1-1,1.6c-0.4,1.3,0.3,3.5,1.2,4.9l0,0l0,0c-0.4,0.5-0.8,1-0.9,1.6c-0.3,1.3,0.5,3.4,1.5,4.9h0l6.9-0.9
							c0.2-1.7-0.7-3.7-1.2-4.3l0,0c0.2-0.4,0.4-0.8,0.5-1.2C23.4,225.6,22.4,223.2,21.9,222.4z"/>
						<path class="st1" d="M16.6,233.8L16.6,233.8L16.6,233.8l1.3-0.2c0.5-0.7,1.2-1.3,1.9-1.8c1.4-1,2.2-2.1,2.5-3.2
							c-0.9,1.7-2.5,2.7-3.7,3.4c-0.1,0.1-0.3,0.2-0.4,0.3c-1.2-0.4-2-2.6-1.7-3.6c0.4-1.3,1.5-2.5,2.8-3.3c1.4-0.9,2.3-1.9,2.6-3
							c-1,1.7-2.7,2.5-3.9,3.2c-0.1,0.1-0.3,0.2-0.4,0.3c-1.1-0.4-1.9-2.7-1.5-3.7c0.2-0.5,0.5-1,0.9-1.5l-1.3,0
							c-0.5,0.5-0.8,1-1,1.6c-0.4,1.3,0.3,3.5,1.2,4.9l0,0c-0.5,0.5-0.8,1.1-0.9,1.7C14.8,230.2,15.6,232.3,16.6,233.8z"/>
					</g>
					<g>
						<path class="st0" d="M22.9,234.7L22.9,234.7L22.9,234.7c0.2-0.4,0.3-0.8,0.4-1.3c0-0.2,0.1-0.4,0.1-0.5l-6.9,0.9
							c-0.4,0.5-0.7,1.1-0.8,1.7c-0.2,1.3,0.7,3.4,1.7,4.8l0,0l0,0c-0.4,0.5-0.6,1.1-0.7,1.7c-0.1,0.7,0.1,1.6,0.5,2.4
							c0.4,0.9,1,1.7,1.6,2.4l0,0l6.6-2c0-0.8-0.3-1.6-0.7-2.3c-0.4-0.7-0.8-1.3-1.1-1.6l0,0c0.2-0.4,0.3-0.8,0.4-1.2
							C24.7,237.7,23.5,235.4,22.9,234.7z"/>
						<path class="st1" d="M19,246.7L19,246.7L19,246.7l1.2-0.4c0.4-0.8,0.9-1.5,1.6-2.1c1.2-1.1,1.9-2.3,2.1-3.4
							c-0.4,0.9-1,1.6-1.5,2.2c-0.6,0.6-1.2,1.1-1.7,1.6l-0.4,0.4c-0.6-0.1-1.2-0.7-1.6-1.4c-0.4-0.7-0.6-1.5-0.5-2
							c0.2-1.4,1.2-2.6,2.5-3.6c1.3-1,2.1-2.2,2.3-3.3c-0.9,1.8-2.4,2.8-3.5,3.6l-0.4,0.3c-1.2-0.3-2.1-2.5-1.9-3.5
							c0.1-0.6,0.4-1.1,0.7-1.6l-1.3,0.2c-0.4,0.5-0.7,1.1-0.8,1.7c-0.2,1.3,0.7,3.4,1.7,4.8l0,0c-0.4,0.5-0.7,1.1-0.7,1.8
							c-0.1,0.7,0.1,1.6,0.5,2.4C17.8,245.2,18.4,246,19,246.7z"/>
					</g>
					<g>
						<path class="st0" d="M25.4,246.5L25.4,246.5L25.4,246.5c0.1-0.4,0.2-0.8,0.2-1.3c0-0.2,0-0.3,0-0.5l-6.6,2
							c-0.3,0.6-0.5,1.2-0.4,1.9c0,1.4,1.4,3.4,2.9,4.5l0,0l0,0c-0.2,0.6-0.3,1.3-0.1,1.9c0.1,0.7,0.6,1.5,1.3,2.2
							c0.7,0.7,1.5,1.4,2.3,1.8l0,0l5.6-4c-0.3-0.7-0.8-1.4-1.4-1.9c-0.6-0.5-1.1-0.9-1.5-1.2l0,0c0.1-0.4,0.1-0.8,0.1-1.3
							c-0.1-0.8-0.4-1.7-1-2.4C26.3,247.4,25.8,246.8,25.4,246.5z"/>
						<path class="st1" d="M25,259L25,259L25,259l1-0.7c0.1-0.9,0.3-1.7,0.8-2.5c0.8-1.5,1.1-2.7,0.9-3.9c-0.3,1.9-1.2,3.4-1.9,4.6
							c-0.1,0.2-0.2,0.3-0.2,0.5c-1.2,0.2-3-1.6-3.1-2.6c-0.1-0.7,0-1.4,0.2-2.1c0.2-0.7,0.7-1.4,1.1-2c1.1-1.3,1.5-2.5,1.6-3.7
							c-0.6,1.8-1.8,3.1-2.7,4.2c-0.1,0.1-0.2,0.3-0.3,0.4c-0.6,0-1.3-0.5-1.8-1.2c-0.5-0.6-0.8-1.4-0.8-1.9c0-0.6,0.2-1.2,0.4-1.7
							l-1.2,0.4c-0.3,0.6-0.5,1.2-0.4,1.9c0,1.4,1.4,3.4,2.9,4.5l0,0c-0.2,0.7-0.3,1.3-0.1,2c0.1,0.7,0.6,1.5,1.3,2.2
							C23.3,257.9,24.1,258.6,25,259z"/>
					</g>
					<g>
						<path class="st0" d="M30.9,256.7L30.9,256.7L30.9,256.7c0-0.4,0-0.8-0.1-1.3c0-0.2-0.1-0.3-0.2-0.5l-5.6,4
							c-0.1,0.7,0,1.3,0.2,1.9c0.2,0.7,0.9,1.3,1.7,1.9c0.4,0.3,0.8,0.6,1.2,0.8c0.4,0.2,0.9,0.4,1.3,0.5l0,0l0,0
							c0,0.7,0.2,1.3,0.5,1.9c0.3,0.6,1.1,1.2,1.9,1.6c0.4,0.2,0.9,0.4,1.3,0.6c0.5,0.1,0.9,0.2,1.4,0.3l0,0l4.1-5.6
							c-0.3-0.3-0.6-0.6-0.9-0.8c-0.3-0.2-0.7-0.5-1-0.6c-0.7-0.4-1.4-0.6-1.8-0.6l0,0c-0.1-0.4-0.2-0.8-0.3-1.2
							C33.8,258.1,31.8,257,30.9,256.7z"/>
						<path class="st1" d="M34.5,268.5L34.5,268.5L34.5,268.5l0.8-1c-0.2-0.8-0.2-1.7,0-2.6c0.3-1.7,0.2-3-0.4-4
							c0.4,1.8,0,3.6-0.3,5c0,0.2-0.1,0.3-0.1,0.5c-1.1,0.6-3.3-0.5-3.8-1.4c-0.6-1.3-0.6-2.9-0.1-4.3c0.6-1.6,0.6-2.9,0.2-4
							c0.1,1.9-0.6,3.5-1.1,4.9c-0.1,0.2-0.1,0.3-0.1,0.5c-1.1,0.4-3.2-1-3.5-2c-0.2-0.6-0.2-1.2-0.2-1.8l-1,0.7
							c-0.1,0.7,0,1.3,0.2,1.9c0.2,0.7,0.9,1.3,1.7,1.9c0.4,0.3,0.8,0.6,1.2,0.8c0.4,0.2,0.9,0.4,1.3,0.5l0,0c0,0.7,0.2,1.3,0.5,1.9
							c0.3,0.6,1.1,1.2,1.9,1.6c0.4,0.2,0.9,0.4,1.3,0.6C33.6,268.4,34.1,268.5,34.5,268.5z"/>
					</g>
					<g>
						<path class="st0" d="M39.5,264.6L39.5,264.6L39.5,264.6c-0.2-0.4-0.3-0.8-0.5-1.2c-0.1-0.2-0.2-0.3-0.3-0.4l-4.1,5.6
							c0.1,0.7,0.3,1.3,0.7,1.8c0.4,0.6,1.2,1,2.1,1.3c0.9,0.3,1.9,0.5,2.8,0.6l0,0l0,0c0.2,0.6,0.5,1.2,0.9,1.6
							c0.5,0.5,1.3,0.9,2.2,1.2c0.9,0.2,1.9,0.3,2.8,0.3l0,0l3-6.2c-0.7-0.5-1.5-0.8-2.3-1c-0.8-0.2-1.5-0.3-1.9-0.3l0,0
							c-0.2-0.4-0.4-0.7-0.7-1.1c-0.6-0.7-1.4-1.2-2.3-1.5C40.8,264.8,40,264.6,39.5,264.6z"/>
						<path class="st1" d="M45.9,275.3L45.9,275.3L45.9,275.3l0.6-1.2c-0.3-0.8-0.5-1.7-0.5-2.6c-0.1-1.7-0.5-3-1.3-3.8
							c0.4,0.9,0.6,1.8,0.7,2.6c0.1,0.8,0.1,1.6,0.1,2.3c0,0.2,0,0.3,0,0.5c-0.5,0.4-1.3,0.5-2.1,0.3c-0.8-0.2-1.5-0.5-1.8-0.9
							c-0.4-0.5-0.8-1.2-1-1.9c-0.2-0.7-0.2-1.5-0.2-2.3c0.1-1.7-0.3-2.9-0.9-3.9c0.7,1.8,0.5,3.6,0.4,5c0,0.2,0,0.3,0,0.5
							c-1,0.7-3.4,0-3.9-0.9c-0.3-0.5-0.5-1.1-0.7-1.6l-0.8,1c0.1,0.7,0.3,1.3,0.7,1.8c0.4,0.6,1.2,1,2.1,1.3
							c0.9,0.3,1.9,0.5,2.8,0.6l0,0c0.2,0.6,0.5,1.2,0.9,1.7c0.5,0.5,1.3,0.9,2.2,1.2C44.1,275.2,45.1,275.3,45.9,275.3z"/>
					</g>
					<g>
						<path class="st0" d="M50.1,270.5L50.1,270.5L50.1,270.5c-0.2-0.4-0.5-0.7-0.8-1.1c-0.1-0.1-0.3-0.3-0.4-0.4l-3,6.2
							c0.2,0.6,0.5,1.2,1,1.6c1,0.9,3.3,1.2,5,1.1l0,0l0,0c0.3,0.6,0.6,1.1,1.1,1.5c1.1,0.8,3.3,1.1,5,0.7l0,0l2.2-6.6
							c-1.4-0.8-3.6-0.9-4.4-0.7l0,0c-0.2-0.3-0.5-0.7-0.9-1C53.6,270.5,51.1,270.3,50.1,270.5z"/>
						<path class="st1" d="M58.1,280.1L58.1,280.1L58.1,280.1l0.4-1.2c-0.4-0.7-0.7-1.6-0.9-2.5c-0.2-1.7-0.9-2.9-1.8-3.6
							c1.1,1.6,1.3,3.5,1.5,4.8c0,0.2,0.1,0.3,0.1,0.5c-0.9,0.9-3.2,0.6-3.9,0c-1-0.9-1.6-2.4-1.7-3.9c-0.2-1.7-0.7-2.9-1.6-3.7
							c1,1.7,1.1,3.5,1.2,4.9c0,0.2,0,0.3,0.1,0.5c-0.9,0.8-3.3,0.5-4-0.2c-0.4-0.4-0.7-0.9-0.9-1.5l-0.6,1.1c0.2,0.6,0.5,1.2,1,1.6
							c1,0.9,3.3,1.2,5,1.1l0,0c0.3,0.6,0.6,1.1,1.1,1.5C54.1,280.2,56.3,280.5,58.1,280.1z"/>
					</g>
					<g>
						<path class="st0" d="M61.6,274.8L61.6,274.8L61.6,274.8c-0.3-0.3-0.6-0.6-0.9-0.9c-0.1-0.1-0.3-0.2-0.4-0.3l-2.2,6.6
							c0.3,0.6,0.7,1.1,1.2,1.4c0.6,0.4,1.4,0.6,2.3,0.7c0.5,0,0.9,0.1,1.4,0c0.5-0.1,0.9-0.2,1.4-0.3l0,0l0,0
							c0.4,0.5,0.8,1,1.3,1.3c0.6,0.3,1.5,0.5,2.4,0.5c0.9,0,1.9-0.1,2.7-0.5l0,0l1.2-6.8c-0.8-0.3-1.7-0.4-2.5-0.4
							c-0.8,0-1.6,0.1-2,0.3l0,0c-0.3-0.3-0.6-0.6-1-0.9C65,274.5,62.5,274.6,61.6,274.8z"/>
						<path class="st1" d="M70.8,283.3L70.8,283.3L70.8,283.3l0.2-1.3c-0.5-0.7-0.9-1.4-1.2-2.3c-0.5-1.6-1.3-2.7-2.3-3.3
							c1.3,1.4,1.8,3.2,2.2,4.6c0.1,0.2,0.1,0.3,0.2,0.5c-0.7,1-3.1,1.1-3.9,0.5c-1.2-0.8-1.9-2.1-2.3-3.6c-0.4-1.7-1.1-2.8-2-3.5
							c1.2,1.5,1.5,3.4,1.8,4.7c0,0.2,0.1,0.3,0.1,0.5c-0.8,1-3.2,0.8-4,0.2c-0.5-0.4-0.8-0.8-1.1-1.3l-0.4,1.2
							c0.3,0.6,0.7,1.1,1.2,1.4c0.6,0.4,1.4,0.6,2.3,0.7c0.5,0,0.9,0.1,1.4,0c0.5-0.1,0.9-0.2,1.4-0.3l0,0c0.4,0.6,0.8,1,1.3,1.3
							c0.6,0.3,1.5,0.5,2.4,0.5C69,283.8,70,283.6,70.8,283.3z"/>
					</g>
					<g>
						<path class="st0" d="M73.5,277.5L73.5,277.5L73.5,277.5c-0.3-0.3-0.7-0.6-1.1-0.8c-0.2-0.1-0.3-0.2-0.5-0.2l-1.2,6.8
							c0.4,0.5,0.8,0.9,1.4,1.2c1.2,0.6,3.5,0.4,5.1-0.3l0,0l0,0c0.4,0.5,0.9,0.9,1.4,1.1c1.2,0.5,3.5,0.2,5-0.6l0,0l0.4-6.9
							c-1.6-0.5-3.7,0-4.5,0.4l0,0c-0.3-0.3-0.7-0.5-1.1-0.7c-0.8-0.4-1.9-0.5-2.8-0.5C74.8,277.1,74,277.3,73.5,277.5z"/>
						<path class="st1" d="M83.7,284.8L83.7,284.8L83.7,284.8l0.1-1.3c-0.6-0.6-1.1-1.4-1.5-2.2c-0.7-1.6-1.6-2.5-2.7-3
							c1.5,1.3,2.2,3,2.7,4.3c0.1,0.2,0.1,0.3,0.2,0.5c-0.6,1.1-2.9,1.4-3.8,1c-1.2-0.6-2.2-1.8-2.7-3.3c-0.6-1.6-1.5-2.6-2.5-3.2
							c1.4,1.3,2,3.1,2.5,4.4c0.1,0.2,0.1,0.3,0.2,0.5c-0.6,1-3,1.3-3.9,0.8c-0.5-0.3-0.9-0.7-1.3-1.1l-0.2,1.3
							c0.4,0.5,0.8,0.9,1.4,1.2c1.2,0.6,3.5,0.4,5.1-0.3l0,0c0.4,0.5,0.9,0.9,1.5,1.2C79.9,285.9,82.2,285.5,83.7,284.8z"/>
					</g>
					<g>
						<path class="st0" d="M85.8,278.8L85.8,278.8L85.8,278.8c-0.4-0.2-0.7-0.5-1.1-0.7c-0.2-0.1-0.3-0.1-0.5-0.2l-0.4,6.9
							c0.4,0.5,0.9,0.8,1.5,1.1c1.3,0.5,3.4,0,5-0.8l0,0l0,0c0.5,0.5,1,0.8,1.5,1c1.3,0.4,3.4-0.2,4.9-1v0l-0.1-6.9
							c-1.7-0.4-3.8,0.3-4.5,0.8l0,0c-0.4-0.2-0.7-0.5-1.2-0.6C89.2,277.6,86.7,278.3,85.8,278.8z"/>
						<path class="st1" d="M96.7,285.1L96.7,285.1L96.7,285.1l0-1.3c-0.6-0.6-1.2-1.3-1.6-2.1c-0.8-1.5-1.8-2.4-3-2.8
							c1.6,1.1,2.4,2.8,3.1,4c0.1,0.1,0.2,0.3,0.2,0.4c-0.5,1.1-2.8,1.7-3.7,1.4c-1.3-0.5-2.3-1.7-3-3.1c-0.8-1.5-1.7-2.5-2.8-2.9
							c1.6,1.2,2.3,2.9,2.9,4.1c0.1,0.1,0.2,0.3,0.2,0.4c-0.5,1.1-2.9,1.6-3.7,1.2c-0.5-0.2-1-0.6-1.4-1l-0.1,1.3
							c0.4,0.5,0.9,0.8,1.5,1.1c1.3,0.5,3.4,0,5-0.8l0,0c0.5,0.5,1,0.8,1.6,1C93,286.5,95.1,285.9,96.7,285.1z"/>
					</g>
					<g>
						<path class="st0" d="M98.3,278.9L98.3,278.9L98.3,278.9c-0.4-0.2-0.8-0.4-1.2-0.6c-0.2-0.1-0.4-0.1-0.5-0.2l0.1,6.9
							c0.5,0.5,1,0.8,1.6,1c1.3,0.4,3.4-0.3,4.9-1.2l0,0l0,0c0.5,0.4,1,0.8,1.6,0.9c1.3,0.3,3.4-0.4,4.8-1.3v0l-0.4-6.9
							c-1.7-0.3-3.8,0.6-4.5,1.1l0,0c-0.4-0.2-0.8-0.4-1.2-0.6C101.6,277.5,99.1,278.4,98.3,278.9z"/>
						<path class="st1" d="M109.5,284.6L109.5,284.6L109.5,284.6l-0.1-1.3c-0.7-0.5-1.2-1.2-1.7-2c-0.9-1.4-2-2.3-3.1-2.6
							c1.7,1,2.6,2.6,3.3,3.8c0.1,0.1,0.2,0.3,0.3,0.4c-0.4,1.2-2.7,1.9-3.6,1.6c-1.3-0.5-2.4-1.6-3.2-2.9c-0.9-1.5-1.9-2.3-3-2.7
							c1.7,1.1,2.5,2.7,3.2,3.9c0.1,0.1,0.2,0.3,0.3,0.4c-0.5,1.1-2.7,1.8-3.6,1.5c-0.5-0.2-1-0.5-1.5-0.9l0,1.3
							c0.5,0.5,1,0.8,1.6,1c1.3,0.4,3.4-0.3,4.9-1.2l0,0c0.5,0.5,1,0.8,1.6,1C105.9,286.2,108,285.5,109.5,284.6z"/>
					</g>
					<g>
						<path class="st0" d="M110.8,278.3L110.8,278.3L110.8,278.3c-0.4-0.2-0.8-0.4-1.2-0.6c-0.2-0.1-0.4-0.1-0.6-0.1l0.4,6.9
							c0.5,0.4,1,0.7,1.6,0.9c1.3,0.3,3.4-0.4,4.8-1.4l0,0l0,0c0.5,0.4,1,0.7,1.6,0.9c1.3,0.3,3.3-0.5,4.8-1.4v0l-0.7-6.9
							c-1.7-0.2-3.8,0.7-4.5,1.2l0,0c-0.4-0.2-0.8-0.4-1.2-0.5C114.1,276.7,111.6,277.8,110.8,278.3z"/>
						<path class="st1" d="M122.2,283.5L122.2,283.5L122.2,283.5l-0.1-1.3c-0.7-0.5-1.3-1.2-1.8-1.9c-0.9-1.4-2.1-2.2-3.2-2.5
							c1.8,1,2.7,2.5,3.4,3.7c0.1,0.1,0.2,0.3,0.3,0.4c-0.4,1.2-2.6,2-3.5,1.7c-1.3-0.4-2.4-1.5-3.3-2.8c-0.9-1.4-2-2.2-3.2-2.5
							c1.7,1,2.6,2.6,3.4,3.8c0.1,0.1,0.2,0.3,0.3,0.4c-0.4,1.2-2.6,1.9-3.6,1.6c-0.5-0.2-1-0.5-1.5-0.8l0.1,1.3
							c0.5,0.4,1,0.7,1.6,0.9c1.3,0.3,3.4-0.4,4.8-1.4l0,0c0.5,0.4,1.1,0.8,1.6,0.9C118.8,285.3,120.8,284.5,122.2,283.5z"/>
					</g>
					<g>
						<path class="st0" d="M123.4,277.2L123.4,277.2L123.4,277.2c-0.4-0.2-0.8-0.4-1.3-0.5c-0.2-0.1-0.4-0.1-0.6-0.1l0.7,6.9
							c0.5,0.4,1,0.7,1.6,0.8c1.3,0.3,3.3-0.5,4.7-1.5l0,0l0,0c0.5,0.4,1,0.7,1.6,0.8c1.3,0.3,3.3-0.5,4.7-1.5v0l-0.7-6.9
							c-1.7-0.2-3.8,0.8-4.5,1.3l0,0c-0.4-0.2-0.8-0.4-1.3-0.5C126.6,275.6,124.2,276.7,123.4,277.2z"/>
						<path class="st1" d="M134.9,282.2L134.9,282.2L134.9,282.2l-0.1-1.3c-0.7-0.5-1.3-1.2-1.8-1.9c-1-1.4-2.1-2.2-3.3-2.4
							c1.8,0.9,2.7,2.5,3.5,3.7c0.1,0.1,0.2,0.3,0.3,0.4c-0.4,1.2-2.6,2-3.5,1.7c-1.3-0.4-2.5-1.4-3.3-2.7c-0.9-1.4-2.1-2.2-3.3-2.5
							c1.8,1,2.7,2.5,3.5,3.7c0.1,0.1,0.2,0.3,0.3,0.4c-0.4,1.2-2.6,2-3.5,1.7c-0.5-0.2-1.1-0.4-1.5-0.8l0.1,1.3
							c0.5,0.4,1,0.7,1.6,0.8c1.3,0.3,3.3-0.5,4.7-1.5l0,0c0.5,0.4,1.1,0.7,1.6,0.9C131.5,284,133.5,283.2,134.9,282.2z"/>
					</g>
					<g>
						<path class="st0" d="M136,275.9L136,275.9L136,275.9c-0.4-0.2-0.8-0.4-1.3-0.5c-0.2-0.1-0.4-0.1-0.6-0.1l0.7,6.9
							c0.5,0.4,1,0.7,1.6,0.8c1.3,0.3,3.3-0.5,4.7-1.5l0,0l0,0c0.5,0.4,1,0.7,1.6,0.8c1.3,0.3,3.3-0.5,4.7-1.4v0l-0.6-6.9
							c-1.8-0.2-3.9,0.7-4.5,1.2l0,0c-0.4-0.2-0.8-0.4-1.3-0.5C139.2,274.2,136.8,275.3,136,275.9z"/>
						<path class="st1" d="M147.5,281L147.5,281L147.5,281l-0.1-1.3c-0.7-0.5-1.3-1.2-1.8-1.9c-0.9-1.4-2.1-2.2-3.3-2.5
							c1.8,0.9,2.7,2.5,3.5,3.7c0.1,0.1,0.2,0.3,0.3,0.4c-0.4,1.2-2.6,1.9-3.5,1.7c-1.3-0.4-2.4-1.4-3.3-2.7c-1-1.4-2.1-2.2-3.3-2.4
							c1.8,0.9,2.7,2.5,3.5,3.7c0.1,0.1,0.2,0.3,0.3,0.4c-0.4,1.2-2.6,2-3.5,1.7c-0.5-0.2-1.1-0.4-1.5-0.8l0.1,1.3
							c0.5,0.4,1,0.7,1.6,0.8c1.3,0.3,3.3-0.5,4.7-1.5l0,0c0.5,0.4,1.1,0.7,1.6,0.9C144.1,282.7,146.1,281.9,147.5,281z"/>
					</g>
					<g>
						<path class="st0" d="M148.7,274.7L148.7,274.7L148.7,274.7c-0.4-0.2-0.8-0.4-1.3-0.5c-0.2-0.1-0.4-0.1-0.6-0.1l0.6,6.9
							c0.5,0.4,1,0.7,1.6,0.9c1.3,0.3,3.2-0.4,4.7-1.3l0,0l0,0c0.5,0.4,1,0.7,1.5,0.9c1.2,0.4,3.2-0.2,4.7-1.1v0v-6.9
							c-1.8-0.3-4,0.4-4.7,0.9l0,0c-0.4-0.2-0.8-0.4-1.3-0.6C152.1,273.1,149.5,274.1,148.7,274.7z"/>
						<path class="st1" d="M159.9,280.3L159.9,280.3L159.9,280.3V279c-0.6-0.6-1.2-1.3-1.6-2c-0.8-1.5-1.9-2.3-3.1-2.7
							c1.8,1.1,2.6,2.7,3.2,3.9c0.1,0.1,0.2,0.3,0.2,0.4c-0.5,1.1-2.7,1.8-3.5,1.4c-1.3-0.4-2.4-1.5-3.2-2.8c-0.9-1.4-2-2.3-3.2-2.6
							c1.8,1,2.7,2.6,3.4,3.8c0.1,0.1,0.2,0.3,0.3,0.4c-0.4,1.2-2.6,1.9-3.5,1.6c-0.5-0.2-1-0.4-1.5-0.8l0.1,1.3
							c0.5,0.4,1,0.7,1.6,0.9c1.3,0.3,3.2-0.4,4.7-1.3l0,0c0.5,0.4,1,0.8,1.6,0.9C156.5,281.8,158.4,281.2,159.9,280.3z"/>
					</g>
				</g>
			</g>
		</g>
		<g>
			<rect x="145.8" y="15.9" class="st2" width="21.8" height="29.2"/>
			<rect x="156.7" y="15.9" class="st3" width="10.9" height="29.2"/>
		</g>
		<g>
			
				<rect x="23.7" y="136.7" transform="matrix(6.123234e-17 -1 1 6.123234e-17 -116.7154 185.847)" class="st2" width="21.8" height="29.2"/>
			
				<rect x="29.1" y="131.2" transform="matrix(6.123234e-17 -1 1 6.123234e-17 -111.2767 180.4082)" class="st3" width="10.9" height="29.2"/>
		</g>
		<g>
			
				<rect x="266.3" y="138.3" transform="matrix(-1.836970e-16 1 -1 -1.836970e-16 429.8587 -124.5758)" class="st2" width="21.8" height="28.6"/>
			
				<rect x="271.8" y="143.8" transform="matrix(-1.836970e-16 1 -1 -1.836970e-16 435.2974 -119.1371)" class="st3" width="10.9" height="28.6"/>
		</g>
		<g>
			<path class="st4" d="M187.3,207.7c10.2-5.7,18.7-14.2,24.4-24.3"/>
			<path class="st4" d="M211.7,120.7c-5.7-10.2-14.2-18.7-24.3-24.4"/>
			<path class="st4" d="M124.8,96.2c-10.2,5.7-18.7,14.2-24.4,24.3"/>
			<path class="st4" d="M100.3,183.2c5.7,10.2,14.2,18.7,24.3,24.4"/>
			<path class="st0" d="M211.7,120.7l49.8-27.9c-10.8-19.3-26.8-35.3-46.1-46.2l-28,49.7C197.6,102.1,206,110.5,211.7,120.7z"/>
			<path class="st0" d="M124.8,96.2L96.9,46.4C77.6,57.3,61.6,73.3,50.7,92.6l49.7,28C106.1,110.4,114.6,102,124.8,96.2z"/>
			<path class="st0" d="M187.3,207.7l27.9,49.8c19.3-10.8,35.3-26.8,46.2-46.1l-49.7-28C205.9,193.5,197.5,201.9,187.3,207.7z"/>
			<path class="st0" d="M100.3,183.2l-49.8,27.9c10.8,19.3,26.8,35.3,46.1,46.2l28-49.7C114.5,201.8,106,193.4,100.3,183.2z"/>
			<path class="st5" d="M156,88.1c11.4,0,22.1,3,31.4,8.2l28-49.7C197.9,36.7,177.6,31,156,31c-21.5,0-41.7,5.6-59.2,15.4l27.9,49.8
				C134,91.1,144.7,88.1,156,88.1z"/>
			<path class="st5" d="M92.2,152c0-11.4,3-22.1,8.2-31.4l-49.7-28c-9.9,17.5-15.6,37.8-15.6,59.4c0,21.5,5.6,41.7,15.4,59.2
				l49.8-27.9C95.1,174,92.2,163.3,92.2,152z"/>
			<path class="st5" d="M156,215.8c-11.4,0-22.1-3-31.4-8.2l-28,49.7c17.5,9.9,37.8,15.6,59.4,15.6c21.5,0,41.7-5.6,59.2-15.4
				l-27.9-49.8C178,212.9,167.4,215.8,156,215.8z"/>
			<path class="st5" d="M261.6,92.8l-49.8,27.9c5.2,9.2,8.2,19.9,8.2,31.2c0,11.4-3,22.1-8.2,31.4l49.7,28
				c9.9-17.5,15.6-37.8,15.6-59.4C277,130.5,271.4,110.3,261.6,92.8z"/>
		</g>
		<g class="st1">
			<path d="M156,62.1c-49.6,0-89.8,40.2-89.8,89.8s40.2,89.8,89.8,89.8s89.8-40.2,89.8-89.8S205.7,62.1,156,62.1z M156,215.8
				c-35.3,0-63.9-28.6-63.9-63.9s28.6-63.9,63.9-63.9s63.9,28.6,63.9,63.9S191.3,215.8,156,215.8z"/>
		</g>
	</g>
	<g>
		<path class="st6" d="M198.1,275.3c-1.7,3.3-6.4,13.9-10.3,17.9s-7.7,10.6-16.6,12.1v14.8h-34.5V309c-5-4.2-10.2-12.9-11.2-21.7
			c-1-8.8-1.2-14.2-3.3-28.1c-2.2-13.9-4.9-32.8-5.3-38.4c-0.3-3.8,2.4-5.1,3.4-5.5s4.6-0.3,5.5,4.9c1.1,6.1,4.4,22.1,5,25
			c0.7,3.5,1.5,5.2,2,6.5c0.6,1.7,2.2,1.8,2.6-0.3c0.4-2.1,0.9-37.4,0.9-39.8c-0.1-5.6,9.8-6.4,9.7,2.9c0,4.1,1,31.8,1.1,33.6
			c0.2,1.8,2.4,2.8,3.4-0.5c1-3.3,2.9-32.7,3.1-36c0.3-5.6,10.3-7,10.6,0.4c0.3,8.8,1.4,27.7,1.6,32.5c0.2,5.6,3.1,5.7,3.7,2.4
			c0.7-3.7,1.3-30.5,1.4-34.2c0.1-9.2,12.1-11.7,12.5-3c0.4,7.9,0.2,15.3,0.4,25.5c0.2,6.7-1.5,29.5-1.9,34.9
			c10.4-2.2,14.2-4,25.1-8.4C205.3,265,200.9,269.9,198.1,275.3z"/>
		<rect x="127.9" y="314.5" class="st0" width="49.7" height="30"/>
		<rect x="153.5" y="314.5" class="st7" width="24.1" height="30"/>
		<rect x="123.9" y="323.1" class="st8" width="57.6" height="166.8"/>
		<rect x="153.6" y="323.1" class="st9" width="27.9" height="166.8"/>
		<circle class="st0" cx="134.9" cy="338.8" r="5.2"/>
		<circle class="st0" cx="134.9" cy="353.2" r="5.2"/>
	</g>
</g>
</svg>
