<?xml version="1.0" encoding="utf-8"?>
<!-- Generator: Adobe Illustrator 20.0.0, SVG Export Plug-In . SVG Version: 6.00 Build 0)  -->
<svg version="1.1" id="Layer_1" xmlns="http://www.w3.org/2000/svg" xmlns:xlink="http://www.w3.org/1999/xlink" x="0px" y="0px"
	 viewBox="0 0 700 700" style="enable-background:new 0 0 700 700;" xml:space="preserve">
<style type="text/css">
	.st0{opacity:0.2;fill:#FFFFFF;}
</style>
<symbol  id="Cloud_1" viewBox="-26.8 -10 53.6 20.1">
	<path class="st0" d="M26.8-10c0,0.2,0,0.3,0,0.5c0,5.3-4.3,9.5-9.5,9.5c-2.4,0-4.6-0.9-6.3-2.4C8.2,4.8,1.1,10-7.2,10
		C-18,10-26.8,1.3-26.8-9.6c0-0.2,0-0.3,0-0.5H26.8z"/>
</symbol>
<symbol  id="Cloud_2" viewBox="-30.2 -13.3 60.4 26.5">
	<path class="st0" d="M30.2-13.3c0,0,0,0.1,0,0.1c0,5.6-3.9,10.4-9.1,11.6c-0.8,8.3-7.7,14.7-16.2,14.7c-8.4,0-15.2-6.3-16.1-14.5
		c-4-0.5-7.5-2.9-9.3-6.4c-1,0.6-2.1,0.9-3.2,0.9c-3.6,0-6.5-2.9-6.5-6.5c0,0,0-0.1,0-0.1H30.2z"/>
</symbol>
<use xlink:href="#Cloud_1"  width="53.6" height="20.1" x="-26.8" y="-10" transform="matrix(-1.6069 0 0 -1.6069 669.7205 304.0345)" style="overflow:visible;"/>
<use xlink:href="#Cloud_1"  width="53.6" height="20.1" x="-26.8" y="-10" transform="matrix(-1.6069 0 0 -1.6069 -30.2795 304.0345)" style="overflow:visible;"/>
<use xlink:href="#Cloud_1"  width="53.6" height="20.1" x="-26.8" y="-10" transform="matrix(-1.6069 0 0 -1.6069 137.519 496.6979)" style="overflow:visible;"/>
<use xlink:href="#Cloud_1"  width="53.6" height="20.1" id="XMLID_1_" x="-26.8" y="-10" transform="matrix(2.0335 0 0 -2.0335 31.6686 8.9687)" style="overflow:visible;"/>
<use xlink:href="#Cloud_2"  width="60.4" height="26.5" x="-30.2" y="-13.3" transform="matrix(1.531 0 0 -1.531 493.7904 117.571)" style="overflow:visible;"/>
<use xlink:href="#Cloud_2"  width="60.4" height="26.5" x="-30.2" y="-13.3" transform="matrix(-1.531 0 0 -1.531 354.3056 329.7107)" style="overflow:visible;"/>
<use xlink:href="#Cloud_2"  width="60.4" height="26.5" x="-30.2" y="-13.3" transform="matrix(-2.4972 0 0 -2.4972 231.6906 166.557)" style="overflow:visible;"/>
<use xlink:href="#Cloud_2"  width="60.4" height="26.5" x="-30.2" y="-13.3" transform="matrix(2.4972 0 0 -2.4972 482.1481 513.6783)" style="overflow:visible;"/>
<use xlink:href="#Cloud_1"  width="53.6" height="20.1" x="-26.8" y="-10" transform="matrix(2.0335 0 0 -2.0335 731.6686 8.9687)" style="overflow:visible;"/>
<use xlink:href="#Cloud_1"  width="53.6" height="20.1" x="-26.8" y="-10" transform="matrix(2.0335 0 0 -2.0335 31.6686 708.9687)" style="overflow:visible;"/>
<use xlink:href="#Cloud_1"  width="53.6" height="20.1" x="-26.8" y="-10" transform="matrix(2.0335 0 0 -2.0335 731.6686 708.9687)" style="overflow:visible;"/>
</svg>
