<?xml version="1.0" encoding="utf-8"?>
<!-- Generator: Adobe Illustrator 20.0.0, SVG Export Plug-In . SVG Version: 6.00 Build 0)  -->
<svg version="1.1" id="Layer_1" xmlns="http://www.w3.org/2000/svg" xmlns:xlink="http://www.w3.org/1999/xlink" x="0px" y="0px"
	 viewBox="0 0 558 66.2" style="enable-background:new 0 0 558 66.2;" xml:space="preserve">
<style type="text/css">
	.st0{fill:#0055B8;}
	.st1{fill:#5789D0;}
	.st2{fill:#FFFFFF;}
</style>
<path class="st0" d="M473.6,25.3c22.8,0,43.2-8.5,57-21.9c13.8,13.4,34.2,21.9,57,21.9c22.4,0,42.5-8.2,56.3-21.2
	c13.8,13,33.9,21.2,56.3,21.2c21.5,0,40.8-7.5,54.5-19.6c13.7,12.1,33.1,19.6,54.5,19.6c22.4,0,42.5-8.2,56.3-21.2
	c13.8,13,33.9,21.2,56.3,21.2c21.9,0,41.5-7.8,55.3-20.3c13.8,12.5,33.4,20.3,55.3,20.3c22.4,0,42.5-8.2,56.3-21.2
	c13.8,13,33.9,21.2,56.3,21.2c23,0,43.5-8.6,57.3-22.2c13.8,13.6,34.3,22.2,57.3,22.2v67.5H473.6V25.3z"/>
<path class="st0" d="M-84.4,25.3c22.8,0,43.2-8.5,57-21.9c13.8,13.4,34.2,21.9,57,21.9c22.4,0,42.5-8.2,56.3-21.2
	c13.8,13,33.9,21.2,56.3,21.2c21.5,0,40.8-7.5,54.5-19.6c13.7,12.1,33.1,19.6,54.5,19.6c22.4,0,42.5-8.2,56.3-21.2
	c13.8,13,33.9,21.2,56.3,21.2c21.9,0,41.5-7.8,55.3-20.3c13.8,12.5,33.4,20.3,55.3,20.3c22.4,0,42.5-8.2,56.3-21.2
	c13.8,13,33.9,21.2,56.3,21.2c23,0,43.5-8.6,57.3-22.2c13.8,13.6,34.3,22.2,57.3,22.2v67.5H-84.4V25.3z"/>
<path class="st1" d="M671.6,5.2c-13.8,13.6-34.3,22.2-57.3,22.2c-22.4,0-42.5-8.2-56.3-21.2c-13.8,13-33.9,21.2-56.3,21.2
	c-21.9,0-41.5-7.8-55.3-20.3c-13.8,12.5-33.4,20.3-55.3,20.3c-22.4,0-42.5-8.2-56.3-21.2c-13.8,13-33.9,21.2-56.3,21.2
	c-21.5,0-40.8-7.5-54.5-19.6c-13.7,12.1-33.1,19.6-54.5,19.6c-22.4,0-42.5-8.2-56.3-21.2c-13.8,13-33.9,21.2-56.3,21.2
	c-22.8,0-43.2-8.5-57-21.9c-13.8,13.4-34.2,21.9-57,21.9V81h728.6V5.2z"/>
<path class="st2" d="M-82.7,49.8c22.8,0,43.2-8.5,57-21.9c13.8,13.4,34.2,21.9,57,21.9c22.4,0,42.5-8.2,56.3-21.2
	c13.8,13,33.9,21.2,56.3,21.2c21.5,0,40.8-7.5,54.5-19.6c13.7,12.1,33.1,19.6,54.5,19.6c22.4,0,42.5-8.2,56.3-21.2
	c13.8,13,33.9,21.2,56.3,21.2c21.9,0,41.5-7.8,55.3-20.3c13.8,12.5,33.4,20.3,55.3,20.3c22.4,0,42.5-8.2,56.3-21.2
	c13.8,13,33.9,21.2,56.3,21.2c23,0,43.5-8.6,57.3-22.2c13.8,13.6,34.3,22.2,57.3,22.2v67.5H-82.7V49.8z"/>
<path class="st1" d="M1229.6,5.2c-13.8,13.6-34.3,22.2-57.3,22.2c-22.4,0-42.5-8.2-56.3-21.2c-13.8,13-33.9,21.2-56.3,21.2
	c-21.9,0-41.5-7.8-55.3-20.3c-13.8,12.5-33.4,20.3-55.3,20.3c-22.4,0-42.5-8.2-56.3-21.2c-13.8,13-33.9,21.2-56.3,21.2
	c-21.5,0-40.8-7.5-54.5-19.6c-13.7,12.1-33.1,19.6-54.5,19.6c-22.4,0-42.5-8.2-56.3-21.2c-13.8,13-33.9,21.2-56.3,21.2
	c-22.8,0-43.2-8.5-57-21.9c-13.8,13.4-34.2,21.9-57,21.9V81h728.6V5.2z"/>
<path class="st2" d="M475.3,49.8c22.8,0,43.2-8.5,57-21.9c13.8,13.4,34.2,21.9,57,21.9c22.4,0,42.5-8.2,56.3-21.2
	c13.8,13,33.9,21.2,56.3,21.2c21.5,0,40.8-7.5,54.5-19.6c13.7,12.1,33.1,19.6,54.5,19.6c22.4,0,42.5-8.2,56.3-21.2
	c13.8,13,33.9,21.2,56.3,21.2c21.9,0,41.5-7.8,55.3-20.3c13.8,12.5,33.4,20.3,55.3,20.3c22.4,0,42.5-8.2,56.3-21.2
	c13.8,13,33.9,21.2,56.3,21.2c23,0,43.5-8.6,57.3-22.2c13.8,13.6,34.3,22.2,57.3,22.2v67.5H475.3V49.8z"/>
</svg>
