<?xml version="1.0" encoding="utf-8"?>
<!-- Generator: Adobe Illustrator 19.2.1, SVG Export Plug-In . SVG Version: 6.00 Build 0)  -->
<svg version="1.1" id="Layer_1" xmlns="http://www.w3.org/2000/svg" xmlns:xlink="http://www.w3.org/1999/xlink" x="0px" y="0px"
	 viewBox="0 0 558 590.2" style="enable-background:new 0 0 558 590.2;" xml:space="preserve">
<style type="text/css">
	.st0{opacity:0.2;fill:#FFFFFF;enable-background:new    ;}
	.st1{fill:#0055B8;}
	.st2{fill:#5789D0;}
	.st3{fill:#FFFFFF;}
</style>
<symbol  id="Cloud_1" viewBox="-26.8 -10.1 53.6 20.1">
	<path class="st0" d="M26.8-9.9c0,0.2,0,0.3,0,0.5c0,5.3-4.3,9.5-9.5,9.5c-2.4,0-4.6-0.9-6.3-2.4C8.2,4.9,1.1,10.1-7.2,10.1
		c-10.8,0-19.6-8.7-19.6-19.6c0-0.2,0-0.3,0-0.5h53.6V-9.9z"/>
</symbol>
<symbol  id="Cloud_2" viewBox="-30.2 -13.3 60.4 26.6">
	<path class="st0" d="M30.2-13.1v0.1c0,5.6-3.9,10.4-9.1,11.6c-0.8,8.3-7.7,14.7-16.2,14.7c-8.4,0-15.2-6.3-16.1-14.5
		c-4-0.5-7.5-2.9-9.3-6.4c-1,0.6-2.1,0.9-3.2,0.9c-3.6,0-6.5-2.9-6.5-6.5v-0.1h60.4V-13.1z"/>
</symbol>
<path class="st1" d="M473.6,549.3c22.8,0,43.2-8.5,57-21.9c13.8,13.4,34.2,21.9,57,21.9c22.4,0,42.5-8.2,56.3-21.2
	c13.8,13,33.9,21.2,56.3,21.2c21.5,0,40.8-7.5,54.5-19.6c13.7,12.1,33.1,19.6,54.5,19.6c22.4,0,42.5-8.2,56.3-21.2
	c13.8,13,33.9,21.2,56.3,21.2c21.9,0,41.5-7.8,55.3-20.3c13.8,12.5,33.4,20.3,55.3,20.3c22.4,0,42.5-8.2,56.3-21.2
	c13.8,13,33.9,21.2,56.3,21.2c23,0,43.5-8.6,57.3-22.2c13.8,13.6,34.3,22.2,57.3,22.2v67.5h-786V549.3z"/>
<path class="st1" d="M-84.4,549.3c22.8,0,43.2-8.5,57-21.9c13.8,13.4,34.2,21.9,57,21.9c22.4,0,42.5-8.2,56.3-21.2
	c13.8,13,33.9,21.2,56.3,21.2c21.5,0,40.8-7.5,54.5-19.6c13.7,12.1,33.1,19.6,54.5,19.6c22.4,0,42.5-8.2,56.3-21.2
	c13.8,13,33.9,21.2,56.3,21.2c21.9,0,41.5-7.8,55.3-20.3c13.8,12.5,33.4,20.3,55.3,20.3c22.4,0,42.5-8.2,56.3-21.2
	c13.8,13,33.9,21.2,56.3,21.2c23,0,43.5-8.6,57.3-22.2c13.8,13.6,34.3,22.2,57.3,22.2v67.5h-786V549.3z"/>
<path class="st2" d="M671.6,529.2c-13.8,13.6-34.3,22.2-57.3,22.2c-22.4,0-42.5-8.2-56.3-21.2c-13.8,13-33.9,21.2-56.3,21.2
	c-21.9,0-41.5-7.8-55.3-20.3c-13.8,12.5-33.4,20.3-55.3,20.3c-22.4,0-42.5-8.2-56.3-21.2c-13.8,13-33.9,21.2-56.3,21.2
	c-21.5,0-40.8-7.5-54.5-19.6c-13.7,12.1-33.1,19.6-54.5,19.6c-22.4,0-42.5-8.2-56.3-21.2c-13.8,13-33.9,21.2-56.3,21.2
	c-22.8,0-43.2-8.5-57-21.9c-13.8,13.4-34.2,21.9-57,21.9V605h728.6L671.6,529.2L671.6,529.2z"/>
<path class="st3" d="M-82.7,573.8c22.8,0,43.2-8.5,57-21.9c13.8,13.4,34.2,21.9,57,21.9c22.4,0,42.5-8.2,56.3-21.2
	c13.8,13,33.9,21.2,56.3,21.2c21.5,0,40.8-7.5,54.5-19.6c13.7,12.1,33.1,19.6,54.5,19.6c22.4,0,42.5-8.2,56.3-21.2
	c13.8,13,33.9,21.2,56.3,21.2c21.9,0,41.5-7.8,55.3-20.3c13.8,12.5,33.4,20.3,55.3,20.3c22.4,0,42.5-8.2,56.3-21.2
	c13.8,13,33.9,21.2,56.3,21.2c23,0,43.5-8.6,57.3-22.2c13.8,13.6,34.3,22.2,57.3,22.2v67.5h-786V573.8z"/>
<path class="st2" d="M1229.6,529.2c-13.8,13.6-34.3,22.2-57.3,22.2c-22.4,0-42.5-8.2-56.3-21.2c-13.8,13-33.9,21.2-56.3,21.2
	c-21.9,0-41.5-7.8-55.3-20.3c-13.8,12.5-33.4,20.3-55.3,20.3c-22.4,0-42.5-8.2-56.3-21.2c-13.8,13-33.9,21.2-56.3,21.2
	c-21.5,0-40.8-7.5-54.5-19.6c-13.7,12.1-33.1,19.6-54.5,19.6c-22.4,0-42.5-8.2-56.3-21.2c-13.8,13-33.9,21.2-56.3,21.2
	c-22.8,0-43.2-8.5-57-21.9c-13.8,13.4-34.2,21.9-57,21.9V605h728.6v-75.8H1229.6z"/>
<path class="st3" d="M475.3,573.8c22.8,0,43.2-8.5,57-21.9c13.8,13.4,34.2,21.9,57,21.9c22.4,0,42.5-8.2,56.3-21.2
	c13.8,13,33.9,21.2,56.3,21.2c21.5,0,40.8-7.5,54.5-19.6c13.7,12.1,33.1,19.6,54.5,19.6c22.4,0,42.5-8.2,56.3-21.2
	c13.8,13,33.9,21.2,56.3,21.2c21.9,0,41.5-7.8,55.3-20.3c13.8,12.5,33.4,20.3,55.3,20.3c22.4,0,42.5-8.2,56.3-21.2
	c13.8,13,33.9,21.2,56.3,21.2c23,0,43.5-8.6,57.3-22.2c13.8,13.6,34.3,22.2,57.3,22.2v67.5h-786V573.8z"/>
<use xlink:href="#Cloud_1"  width="53.6" height="20.1" x="-26.8" y="-10.1" transform="matrix(-1.2324 0 0 -1.2324 533.6951 189.7531)" style="overflow:visible;"/>
<use xlink:href="#Cloud_1"  width="53.6" height="20.1" x="-26.8" y="-10.1" transform="matrix(-1.2324 0 0 -1.2324 -3.1506 189.7531)" style="overflow:visible;enable-background:new    ;"/>
<use xlink:href="#Cloud_1"  width="53.6" height="20.1" x="-26.8" y="-10.1" transform="matrix(-1.2324 0 0 -1.2324 125.5378 337.511)" style="overflow:visible;enable-background:new    ;"/>
<use xlink:href="#Cloud_1"  width="53.6" height="20.1" id="XMLID_1_" x="-26.8" y="-10.1" transform="matrix(1.5595 0 0 -1.5595 44.3588 -36.5558)" style="overflow:visible;enable-background:new    ;"/>
<use xlink:href="#Cloud_2"  width="60.4" height="26.6" x="-30.2" y="-13.3" transform="matrix(1.1697 0 0 -1.1697 398.7703 46.8704)" style="overflow:visible;"/>
<use xlink:href="#Cloud_2"  width="60.4" height="26.6" x="-30.2" y="-13.3" transform="matrix(-1.1697 0 0 -1.1697 291.7963 209.5651)" style="overflow:visible;enable-background:new    ;"/>
<use xlink:href="#Cloud_2"  width="60.4" height="26.6" x="-30.2" y="-13.3" transform="matrix(-1.908 0 0 -1.908 197.7601 84.4759)" style="overflow:visible;enable-background:new    ;"/>
<use xlink:href="#Cloud_2"  width="60.4" height="26.6" x="-30.2" y="-13.3" transform="matrix(1.908 0 0 -1.908 389.8416 350.691)" style="overflow:visible;enable-background:new    ;"/>
<use xlink:href="#Cloud_1"  width="53.6" height="20.1" x="-26.8" y="-10.1" transform="matrix(1.5595 0 0 -1.5595 581.2044 -36.5558)" style="overflow:visible;enable-background:new    ;"/>
<use xlink:href="#Cloud_1"  width="53.6" height="20.1" x="-26.8" y="-10.1" transform="matrix(1.5595 0 0 -1.5595 44.3588 500.2898)" style="overflow:visible;enable-background:new    ;"/>
<use xlink:href="#Cloud_1"  width="53.6" height="20.1" x="-26.8" y="-10.1" transform="matrix(1.5595 0 0 -1.5595 581.2044 500.2898)" style="overflow:visible;enable-background:new    ;"/>
</svg>
