<svg id="8756fd57-24d2-4cf0-b7f4-5cffc69e7d23" data-name="Layer 1" xmlns="http://www.w3.org/2000/svg" viewBox="0 0 74.08 74.08"><title>icon_jhaenterpriseworkflow</title><circle cx="37.04" cy="37.04" r="37.04" fill="#254d62"/><path d="M150.82,122l0.58-.64c0.18-.21.42-0.44,0.65-0.75l0.77-1,0.44-.59,0.23-.31,0.21-.34,0.88-1.46a16.71,16.71,0,0,0,.83-1.62,15.58,15.58,0,0,0,.76-1.72l0.64-1.77c0.18-.59.32-1.19,0.47-1.76l0.21-.84c0.06-.28.09-0.55,0.14-0.82l0.23-1.51a10.81,10.81,0,0,0,.11-1.28l0-1,0-.86s-1,1-2,1.79l-0.73.59c-0.24.18-.49,0.34-0.68,0.48L154,107l-0.52-.58c-0.16-.17-0.33-0.37-0.54-0.57l-0.67-.63c-0.92-.84-1.83-1.52-1.83-1.52l0,0.62,0,0.71a6.35,6.35,0,0,1-.07.92L150.12,107c0,0.19,0,.39-0.09.59l-0.16.6c-0.11.41-.2,0.83-0.33,1.26l-0.46,1.26a9.46,9.46,0,0,1-.54,1.22,10.35,10.35,0,0,1-.59,1.16l-0.63,1-0.15.25-0.17.22-0.32.42-0.55.74c-0.17.22-.34,0.38-0.47,0.53l-0.42.46a16.73,16.73,0,0,1,.32,2.38c0,0.61.06,1.23,0.07,1.71,0,0.24,0,.43,0,0.57v0.21l0.22,0c0.14,0,.34.07,0.57,0.1,0.47,0.06,1.1.13,1.76,0.18S149.5,122,150,122Z" transform="translate(-94.25 -66.65)" fill="#fff" stroke="#254d62" stroke-miterlimit="10"/><path d="M129.16,130.38l0.86,0a16.32,16.32,0,0,0,2.28,0l1.52-.08c0.54,0,1.1-.15,1.69-0.23a27.94,27.94,0,0,0,3.61-.81c0.6-.19,1.19-0.42,1.77-0.63l0.86-.32,0.81-.39c0.53-.26,1-0.5,1.53-0.75l1.31-.79a17,17,0,0,0,1.88-1.29l0.69-.52s-1.38-.16-2.63-0.42c-0.64-.13-1.28-0.33-1.74-0.46l-0.76-.24,0.13-.78c0.07-.47.16-1.06,0.2-1.67,0.07-1.25,0-2.41,0-2.41l-0.5.37a10.76,10.76,0,0,1-1.35.92l-0.93.57-1.1.53-0.58.28-0.62.23c-0.42.15-.83,0.32-1.26,0.45a20.29,20.29,0,0,1-2.58.57c-0.42.06-.82,0.14-1.2,0.17l-1.09.05a10.08,10.08,0,0,1-1.63,0l-0.62,0-0.49.58c-0.3.31-.72,0.73-1.17,1.15s-0.92.83-1.3,1.13l-0.62.46s0.15,0.29.38,0.71,0.59,0.94,1,1.48,0.77,1.08,1.09,1.49Z" transform="translate(-94.25 -66.65)" fill="#fff" stroke="#254d62" stroke-miterlimit="10"/><path d="M109.09,118.68l0.52,0.7,0.6,0.8a9.77,9.77,0,0,0,.81,1,24.41,24.41,0,0,0,2.25,2.31l0.67,0.6,0.34,0.3,0.37,0.28,1.51,1.12c0.52,0.36,1.07.67,1.6,1l0.79,0.47,0.81,0.39,1.54,0.73,1.43,0.53c0.45,0.15.85,0.33,1.22,0.42l1,0.25,0.84,0.21s-0.74-1.17-1.32-2.32c-0.29-.59-0.54-1.21-0.72-1.65L123,125.1l0.69-.38c0.41-.24.93-0.54,1.43-0.89,1-.73,1.9-1.49,1.9-1.49l-0.6-.16-0.69-.17c-0.27-.06-0.55-0.2-0.87-0.3l-1-.37-1.09-.53-0.58-.28-0.56-.34c-0.37-.24-0.77-0.45-1.14-0.71l-1.08-.81-0.27-.2-0.24-.22-0.47-.43a16.83,16.83,0,0,1-1.61-1.65,5.58,5.58,0,0,1-.58-0.71l-0.43-.57-0.37-.49s-1.14-.05-2.37-0.23l-0.91-.15-0.76-.18-0.76-.2-0.31.74-0.3.78c-0.1.29-.19,0.59-0.28,0.9C109.37,117.31,109.09,118.68,109.09,118.68Z" transform="translate(-94.25 -66.65)" fill="#fff" stroke="#254d62" stroke-miterlimit="10"/><path d="M105.73,95.67a2,2,0,0,0-.06.22l-0.16.62-0.25,1a10.69,10.69,0,0,0-.28,1.26l-0.23,1.51c0,0.27-.09.54-0.11,0.83l0,0.87c0,0.59-.07,1.2-0.08,1.82l0.09,1.88c0,0.31,0,.63.06,0.94l0.14,0.93c0.1,0.61.17,1.22,0.3,1.8l0.42,1.65c0.07,0.26.13,0.52,0.2,0.76L106,112.4l0.44,1.21,0.19,0.5,0.2,0.41,0.37,0.78,0.28-.79,0.3-.79c0.12-.29.27-0.59,0.41-0.89,0.58-1.2,1.21-2.26,1.21-2.26s1.2,0.5,2.35.85c0.29,0.09.57,0.18,0.84,0.25l0.76,0.17,0.73,0.14-0.27-.56-0.14-.29-0.13-.36-0.32-.86-0.18-.49c-0.05-.17-0.09-0.36-0.14-0.55l-0.3-1.18c-0.09-.41-0.13-0.85-0.21-1.28l-0.1-.66c0-.22,0-0.45,0-0.67l-0.07-1.34,0.07-1.3,0-.62c0-.2.06-0.4,0.09-0.59l0.16-1.08a6.08,6.08,0,0,1,.2-0.9l0.18-.69,0.11-.44a1.13,1.13,0,0,1,0-.16s-0.67-.93-1.3-2c-0.15-.27-0.32-0.54-0.45-0.8l-0.34-.71-0.32-.72-0.77.22-0.8.25c-0.29.1-.58,0.22-0.88,0.34C107,95,105.73,95.67,105.73,95.67Z" transform="translate(-94.25 -66.65)" fill="#fff" stroke="#254d62" stroke-miterlimit="10"/><path d="M121.64,78.73l-0.81.31-2.06,1c-0.43.2-.85,0.49-1.32,0.77s-1,.55-1.43.92l-1.46,1.09c-0.5.36-.94,0.82-1.42,1.23l-0.7.64c-0.23.22-.43,0.46-0.64,0.68-0.42.46-.83,0.91-1.22,1.35l-1,1.36-0.47.63-0.39.63L108,90.43l-0.28.46c-0.08.15-.14,0.29-0.2,0.41l-0.38.78,0.8-.27,0.8-.25c0.3-.08.63-0.16,1-0.23,1.3-.3,2.52-0.46,2.52-0.46s0.36,1.25.8,2.37c0.11,0.28.22,0.56,0.33,0.81l0.34,0.7,0.35,0.66,0.27-.56c0-.09.09-0.19,0.14-0.29l0.2-.33,0.48-.79,0.27-.45,0.34-.45,0.73-1,0.88-1c0.15-.16.29-0.34,0.45-0.49l0.5-.45c0.34-.29.65-0.63,1-0.89l1-.78a11.73,11.73,0,0,1,1-.65c0.34-.19.63-0.41,0.94-0.55l1.47-.71,0.58-.21,0.2-.71c0.13-.42.31-1,0.54-1.59,0.45-1.1,1-2.24,1-2.24s-1-.73-2.17-1.42c-0.57-.33-1.15-0.61-1.61-0.83Z" transform="translate(-94.25 -66.65)" fill="#fff" stroke="#254d62" stroke-miterlimit="10"/><path d="M144.8,80.58l-0.74-.45-2.06-1c-0.42-.21-0.92-0.36-1.42-0.56s-1-.41-1.61-0.55a28.55,28.55,0,0,0-7.3-1.11,6.37,6.37,0,0,0-.87,0L130,77c-0.54,0-1.05,0-1.52.09l-2.26.34a4.84,4.84,0,0,0-.63.13l-0.22.06L126,78c0.42,0.3,1,.69,1.48,1.1s1,0.82,1.36,1.12l0.58,0.57-0.46.62c-0.26.4-.6,0.94-0.9,1.47s-0.58,1.06-.77,1.45-0.3.69-.3,0.69l0.16,0a2.63,2.63,0,0,1,.45-0.09l1.61-.25c0.34,0,.7,0,1.09-0.06l0.6,0a3.54,3.54,0,0,1,.62,0,21,21,0,0,1,5.21.79c0.41,0.1.78,0.28,1.15,0.4s0.72,0.23,1,.39l1.47,0.71,0.53,0.32,0.68-.28c0.41-.16,1-0.4,1.58-0.57,1.14-.34,2.41-0.58,2.41-0.58s-0.06-1.24-.25-2.57c-0.09-.66-0.24-1.28-0.36-1.78Z" transform="translate(-94.25 -66.65)" fill="#fff" stroke="#254d62" stroke-miterlimit="10"/><path d="M157.78,99.84L157.65,99a18.11,18.11,0,0,0-.5-2.23,24.6,24.6,0,0,0-1-3.07L156,93.27l-0.19-.41-0.4-.83a15.28,15.28,0,0,0-.87-1.66l-1-1.61c-0.36-.5-0.73-1-1.08-1.46-0.18-.23-0.35-0.47-0.53-0.69L151.36,86l-1-1.13c-0.68-.66-1.27-1.17-1.68-1.55a5.45,5.45,0,0,0-.49-0.41L148,82.77,148,83c0,0.15,0,.35.06,0.61,0,0.51.06,1.19,0.07,1.84A18.71,18.71,0,0,1,148,88l-0.78,0c-0.45,0-1.1.11-1.7,0.2s-1.19.21-1.62,0.3c-0.21,0-.4.1-0.52,0.13l-0.2.06,0.13,0.1a3,3,0,0,1,.35.3c0.29,0.27.71,0.64,1.2,1.1l0.73,0.81,0.4,0.44c0.13,0.16.25,0.33,0.37,0.5l0.78,1,0.69,1.15a9.29,9.29,0,0,1,.62,1.19L148.78,96l0.14,0.29,0.11,0.3a17,17,0,0,1,.72,2.19,11.61,11.61,0,0,1,.36,1.59l0.09,0.61,0.66,0.35c0.2,0.11.44,0.24,0.67,0.39l0.73,0.49c1,0.68,2,1.52,2,1.52s0.92-.82,1.82-1.79l0.66-.73c0.21-.24.37-0.46,0.53-0.66Z" transform="translate(-94.25 -66.65)" fill="#fff" stroke="#254d62" stroke-miterlimit="10"/></svg>