<svg id="1d292b07-374d-404d-85e0-eed436105936" data-name="Layer 1" xmlns="http://www.w3.org/2000/svg" viewBox="0 0 74.08 74.08"><title>icon_poweron</title><circle cx="37.04" cy="37.04" r="37.04" fill="#254d62"/><path d="M298.53,117.19a2.7,2.7,0,0,0-.73-3.75,14.7,14.7,0,1,1,16.81-.27,2.7,2.7,0,0,0,3.17,4.38,20.1,20.1,0,1,0-23,.36A2.7,2.7,0,0,0,298.53,117.19Z" transform="translate(-268.98 -66.65)" fill="#fff" stroke="#254d62" stroke-miterlimit="10"/><path d="M302.47,104.59c0-1.29,1.51-2.32,3.37-2.32h0c1.86,0,3.37,1,3.37,2.32v19.33c0,1.28-1.51,2.32-3.37,2.32h0c-1.86,0-3.37-1-3.37-2.32V104.59Z" transform="translate(-268.98 -66.65)" fill="#fff" stroke="#254d62" stroke-miterlimit="10"/></svg>