<svg id="ef61904a-287d-4307-900a-4583c42c5f76" data-name="FOOTER" xmlns="http://www.w3.org/2000/svg" viewBox="0 0 28.75 28.75"><title>icon_g</title><g id="0ed8436c-da5f-4f4f-9e0d-3dd33f6188f0" data-name="Layer 4 copy"><rect width="28.75" height="28.75" opacity="0"/></g><g id="d91980af-6eff-4c3c-b28a-8f8c2ff8d82b" data-name="Official copy 2"><path d="M1313.67,3842.78h-5.09c-2.33,0-4.53,1.64-4.53,3.68a3.71,3.71,0,0,0,4,3.71c0.16,0,.33,0,0.48,0a2,2,0,0,0-.26,1,2,2,0,0,0,.71,1.43H1308c-2.89,0-5.11,1.84-5.11,3.75s2.44,3.05,5.32,3.05c3.29,0,5.11-1.87,5.11-3.75a3.63,3.63,0,0,0-1.82-3.38,3.38,3.38,0,0,1-1.37-1.62c0-.56.16-0.83,1-1.49a3.23,3.23,0,0,0,1.47-2.57c0-1.31-.56-2.9-1.65-2.9h1.86Zm-1.71,12.46a2.41,2.41,0,0,1,.06.54c0,1.52-1,2.7-3.78,2.7-2,0-3.44-1.26-3.44-2.78s1.79-2.73,3.78-2.7a4.4,4.4,0,0,1,1.29.21C1311,3854,1311.74,3854.38,1312,3855.24Zm-3.2-5.66c-1.34,0-2.61-1.5-2.84-3.26s0.67-3.11,2-3.07,2.61,1.45,2.84,3.21S1310.1,3849.62,1308.76,3849.58Z" transform="translate(-1296.08 -3836.67)" fill="#d66553"/><polygon points="21.72 12.72 21.72 10.24 20.06 10.24 20.06 12.72 17.58 12.72 17.58 14.37 20.06 14.37 20.06 16.85 21.72 16.85 21.72 14.37 24.2 14.37 24.2 12.72 21.72 12.72" fill="#d66553"/></g></svg>